<svg id="Layer_1" data-name="Layer 1" xmlns="http://www.w3.org/2000/svg" viewBox="0 0 586 200"><defs><style>.cls-1{fill:#fff;}.cls-2{fill:#273977;}</style></defs><rect class="cls-1" width="586" height="200"/><path class="cls-2" d="M48.08,149.67l12.07-7.87c1.45-1.05,1.58-1.45,1.58-2.89V73c0-1.44-.13-2.1-1.58-2.62L46.77,65.68v-.26L78.26,56v82.94c0,1.44.13,1.84,1.71,2.89l11.94,7.87v.26H48.08Z"/><path class="cls-2" d="M94.53,144.81l8.79-23.22h.27l8.66,23.22c.52,1.58.92,2,2.36,2.23a22.27,22.27,0,0,0,5.12.53c12.59,0,19.81-10.24,19.81-25.59,0-14.3-7.48-23.88-21.13-23.88-6.56,0-11.68,2.36-16.92,6.3l-.27-.14,1.45-48c24.93.78,29.52.91,34.9.91s8.8-.65,11.68-3.41l3.81-3.67h.26l-1.57,11.28C150.56,69.88,146.37,72,137.18,72c-11.15,0-20.21-.52-32.54-1l-.79,29.66c7.61-5.9,15.48-9,24.8-9,18.5,0,29.53,11.94,29.53,28.87,0,18.89-14.7,29.52-37,29.52A70.14,70.14,0,0,1,94.53,144.81Z"/><path class="cls-2" d="M164,149.67,199.77,88H184.55c-2.23,0-2.49.13-3.68,2l-13.51,20.6H167V85.63h51.58v.26l-35.17,61.68h15c2.36,0,2.49-.13,3.67-2l14.44-21.91h.39l-2,26.24H164Z"/><path class="cls-2" d="M223.26,149.67,231,144c1.31-.92,1.31-1.45,1.31-3V95.6c0-1.7-.13-2.1-1.31-3l-7.74-6.7v-.26h25.58V141a2.92,2.92,0,0,0,1.45,3l7.74,5.64v.26H223.26ZM239.92,59a9.12,9.12,0,1,1-9,9.19A9,9,0,0,1,239.92,59Z"/><path class="cls-2" d="M262.88,145.86l6.3-19.16h.26l8.8,19.16c.52,1,.92,1.32,2.49,1.58a22.26,22.26,0,0,0,4.33.39c8.4,0,13-5.12,13-11,0-6.43-5-8.79-12.47-12.21l-8.39-3.8c-7.09-3.28-12.6-8.92-12.6-18,0-11.94,10.63-19.29,24.14-19.29a67,67,0,0,1,21.39,3.28L304,104.66h-.27L294.51,87.6c-.79-1.44-1.18-1.71-2.63-1.84a24.42,24.42,0,0,0-3-.13c-6,0-11.16,3.54-11.16,10.37,0,6.17,4.46,9,10.89,11.81l8.66,3.67c7.88,3.41,14.83,7.74,14.83,17.72,0,13.65-12.07,20.73-26.9,20.73A67.36,67.36,0,0,1,262.88,145.86Z"/><path class="cls-2" d="M317.47,149.67l7.74-5.64c1.31-.92,1.31-1.45,1.31-3V95.6c0-1.7-.13-2.1-1.31-3l-7.74-6.7v-.26h25.59V141a2.92,2.92,0,0,0,1.44,3l7.74,5.64v.26H317.47ZM334.14,59a9.12,9.12,0,1,1-9.06,9.19A9,9,0,0,1,334.14,59Z"/><path class="cls-2" d="M355.52,149.67l7.74-5.64c1.32-.92,1.45-1.45,1.45-3V88h-8.27V85.5h8.27V82.09c0-18.24,8.13-25.72,23-25.72a57.67,57.67,0,0,1,18.51,3.15L398.7,77.23h-.27l-7.61-17.06c-.65-1.57-.78-1.7-2.75-1.7-4.73,0-6.83,4.07-6.83,13.91V85.5H399V88H381.24v52.49c0,1.71.13,2,1.84,2.89l10.89,6.3v.26H355.52Z"/><path class="cls-2" d="M399.88,140.88a9.19,9.19,0,1,1,18.37,0,9.19,9.19,0,0,1-18.37,0Z"/><path class="cls-2" d="M426.38,117.39c0-24.93,16.67-33.86,32.68-33.86a60.24,60.24,0,0,1,20.34,3.68l-7.09,20.73h-.26l-8.8-20.6c-.52-1.18-.78-1.45-1.7-1.58a16.1,16.1,0,0,0-2.36-.13c-9.85,0-15.36,9.45-15.36,26.64,0,20.47,8.67,28,18.38,28,7.34,0,13.38-4.07,17.45-13h.26c-2.36,13.52-10.5,22.7-25.06,22.7S426.38,140,426.38,117.39Z"/><path class="cls-2" d="M484.64,149.67,520.47,88H505.24c-2.23,0-2.49.13-3.67,2l-13.52,20.6h-.39V85.63h51.57v.26l-35.17,61.68h15c2.36,0,2.5-.13,3.68-2l14.43-21.91h.4l-2,26.24H484.64Z"/></svg>