<svg id="svg" version="1.1" xmlns="http://www.w3.org/2000/svg" xmlns:xlink="http://www.w3.org/1999/xlink" width="400" height="253.33333333333334" viewBox="0, 0, 400,253.33333333333334"><g id="svgg"><path id="path0" d="M118.812 1.420 C 118.703 1.532,114.996 1.721,110.574 1.840 C 106.152 1.960,99.854 2.158,96.578 2.282 C 91.028 2.491,88.811 2.627,80.228 3.284 C 78.416 3.423,75.336 3.656,73.384 3.802 C 71.432 3.948,68.752 4.176,67.427 4.308 C 66.103 4.440,63.422 4.671,61.470 4.820 C 59.518 4.969,57.224 5.201,56.371 5.334 C 55.519 5.467,54.207 5.577,53.456 5.577 C 52.705 5.577,51.179 5.757,50.063 5.978 C 48.948 6.198,47.465 6.420,46.768 6.471 C 45.604 6.555,43.950 6.740,38.783 7.360 C 33.317 8.017,31.179 8.764,31.179 10.017 C 31.179 10.111,30.960 10.495,30.694 10.869 C 28.106 14.503,32.493 19.319,41.445 22.673 C 42.421 23.038,43.417 23.448,43.659 23.583 C 43.902 23.717,44.437 23.828,44.849 23.828 C 45.260 23.828,45.668 23.942,45.754 24.081 C 45.840 24.221,46.241 24.335,46.644 24.335 C 47.048 24.335,47.640 24.438,47.960 24.565 C 48.517 24.786,49.625 24.978,54.119 25.632 C 56.937 26.042,59.157 26.318,61.090 26.499 C 61.996 26.583,62.966 26.755,63.245 26.879 C 63.523 27.004,64.607 27.155,65.653 27.214 C 68.104 27.354,71.262 27.721,76.933 28.527 C 82.846 29.366,83.971 29.540,85.805 29.894 C 86.641 30.056,87.642 30.235,88.029 30.292 C 88.415 30.349,88.826 30.454,88.941 30.525 C 89.056 30.596,90.393 30.991,91.913 31.403 C 97.548 32.932,101.370 34.576,107.858 38.262 C 108.940 38.877,112.083 41.049,112.294 41.328 C 112.364 41.420,112.540 41.541,112.686 41.597 C 114.500 42.292,126.743 53.639,126.743 54.626 C 126.743 54.750,127.819 56.010,128.707 56.925 C 128.881 57.105,129.024 57.364,129.024 57.502 C 129.024 57.640,129.119 57.790,129.236 57.837 C 129.533 57.955,133.592 63.358,133.912 64.062 C 134.057 64.379,134.271 64.639,134.388 64.639 C 134.505 64.639,134.601 64.800,134.601 64.998 C 134.601 65.195,134.695 65.395,134.811 65.441 C 135.026 65.528,138.910 71.401,138.910 71.639 C 138.910 71.711,139.195 72.144,139.544 72.601 C 139.892 73.058,140.177 73.564,140.177 73.725 C 140.177 73.886,140.292 74.018,140.431 74.018 C 140.570 74.018,140.684 74.246,140.684 74.525 C 140.684 74.804,140.777 75.032,140.891 75.032 C 141.005 75.032,141.661 76.144,142.349 77.503 C 143.037 78.862,143.685 80.013,143.790 80.059 C 143.894 80.106,143.980 80.278,143.980 80.443 C 143.980 80.608,144.308 81.425,144.709 82.260 C 145.406 83.711,146.080 85.223,146.515 86.312 C 146.626 86.591,146.952 87.348,147.238 87.996 C 147.820 89.310,148.817 92.858,149.264 95.199 C 150.184 100.029,149.264 100.478,137.896 100.757 C 130.573 100.937,124.968 101.560,124.968 102.195 C 124.968 102.312,124.765 102.408,124.516 102.408 C 123.249 102.408,120.481 104.324,117.860 107.015 C 116.243 108.676,114.991 109.758,114.691 109.755 C 113.800 109.749,107.090 109.268,106.196 109.147 C 101.692 108.537,77.010 108.871,72.117 109.609 C 70.583 109.840,68.530 110.149,67.554 110.295 C 64.312 110.781,63.074 111.016,59.949 111.741 C 58.868 111.992,55.380 112.929,54.119 113.308 C 52.844 113.691,49.617 114.593,48.542 114.866 C 46.473 115.393,44.727 115.912,44.300 116.128 C 44.058 116.250,43.523 116.350,43.111 116.350 C 42.699 116.350,42.291 116.464,42.205 116.603 C 42.119 116.743,41.841 116.857,41.588 116.857 C 41.334 116.857,40.685 117.044,40.145 117.273 C 39.605 117.501,38.777 117.726,38.306 117.771 C 37.834 117.816,36.693 118.128,35.771 118.466 C 33.313 119.364,32.350 119.645,31.731 119.645 C 31.427 119.645,31.179 119.755,31.179 119.888 C 31.179 120.022,30.694 120.265,30.101 120.427 C 29.509 120.590,28.665 120.880,28.225 121.071 C 27.786 121.263,27.300 121.420,27.145 121.420 C 26.989 121.420,26.636 121.534,26.359 121.673 C 26.082 121.812,25.629 122.041,25.352 122.180 C 25.075 122.319,24.642 122.433,24.389 122.433 C 24.136 122.433,23.821 122.530,23.688 122.649 C 23.556 122.767,22.967 123.050,22.379 123.277 C 20.849 123.868,15.868 126.294,15.707 126.527 C 15.633 126.635,15.039 126.959,14.387 127.247 C 13.735 127.535,13.129 127.890,13.039 128.035 C 12.949 128.180,12.667 128.377,12.412 128.472 C 11.588 128.777,7.372 131.929,7.362 132.247 C 7.356 132.416,7.094 132.691,6.781 132.858 C 6.175 133.180,4.563 134.832,4.563 135.130 C 4.563 135.228,4.249 135.647,3.866 136.062 C 2.935 137.068,1.813 139.323,1.043 141.732 C 0.600 143.120,0.436 146.449,0.727 148.162 C 1.252 151.252,1.214 151.131,2.596 154.119 C 3.079 155.165,3.557 156.248,3.658 156.527 C 3.831 157.005,7.858 160.808,9.499 162.043 C 9.914 162.355,10.559 162.925,10.932 163.308 C 11.305 163.691,11.683 164.005,11.772 164.005 C 11.861 164.005,12.984 164.718,14.268 165.589 C 15.553 166.460,16.946 167.339,17.364 167.543 C 17.782 167.746,18.181 167.976,18.251 168.052 C 18.321 168.129,19.689 168.833,21.293 169.616 C 23.918 170.898,25.756 171.680,28.390 172.636 C 28.878 172.813,29.386 173.054,29.518 173.171 C 29.651 173.288,30.129 173.384,30.581 173.384 C 31.033 173.384,31.465 173.485,31.542 173.610 C 31.618 173.734,32.053 173.896,32.507 173.971 C 32.962 174.046,33.790 174.219,34.347 174.354 C 35.368 174.602,39.598 175.466,41.952 175.909 C 43.960 176.286,49.104 176.677,54.090 176.831 C 58.081 176.954,61.379 176.846,71.483 176.261 C 72.668 176.193,73.746 176.031,73.878 175.901 C 74.011 175.771,74.524 175.663,75.019 175.660 C 75.514 175.657,77.288 175.422,78.961 175.137 C 81.791 174.655,83.053 174.450,86.313 173.942 C 87.011 173.833,87.716 173.661,87.881 173.559 C 88.046 173.458,89.186 173.216,90.415 173.023 C 92.771 172.652,96.428 171.793,100.127 170.742 C 100.894 170.524,101.920 170.274,102.408 170.186 C 103.185 170.047,105.731 169.324,108.130 168.562 C 108.558 168.426,109.150 168.314,109.445 168.314 C 109.741 168.314,110.053 168.200,110.139 168.061 C 110.226 167.921,110.571 167.807,110.907 167.807 C 111.243 167.807,111.910 167.587,112.389 167.318 C 112.868 167.049,113.315 166.885,113.383 166.953 C 113.518 167.088,121.023 164.666,121.733 164.258 C 121.975 164.119,122.347 164.005,122.560 164.005 C 122.773 164.005,123.145 163.906,123.387 163.785 C 123.630 163.665,126.052 162.844,128.771 161.962 C 131.489 161.080,133.885 160.279,134.094 160.181 C 134.303 160.084,135.501 159.641,136.755 159.198 C 138.010 158.754,140.180 157.952,141.578 157.415 C 142.975 156.878,144.458 156.363,144.873 156.269 C 145.288 156.176,145.970 155.953,146.388 155.773 C 148.371 154.922,149.022 154.672,150.317 154.263 C 151.943 153.749,152.370 153.589,153.739 152.973 C 154.297 152.723,154.924 152.499,155.133 152.476 C 155.582 152.426,159.470 151.132,160.632 150.645 C 162.165 150.004,165.404 151.020,167.064 152.662 C 167.451 153.045,167.872 153.359,167.999 153.359 C 168.192 153.359,170.357 155.574,175.919 161.462 C 176.407 161.979,177.662 163.342,178.707 164.493 C 179.753 165.643,180.747 166.717,180.916 166.879 C 181.086 167.041,181.371 167.312,181.550 167.482 C 181.729 167.652,182.389 168.307,183.016 168.938 C 183.644 169.568,184.296 170.086,184.465 170.087 C 184.634 170.088,184.893 170.312,185.039 170.585 C 185.475 171.400,188.544 173.428,190.241 174.023 C 190.520 174.121,203.660 174.235,219.441 174.276 C 235.223 174.318,249.481 174.423,251.127 174.510 C 257.767 174.863,279.809 175.417,281.054 175.264 C 281.831 175.168,282.518 175.206,282.702 175.354 C 283.046 175.633,286.173 175.766,301.648 176.159 C 316.595 176.538,324.731 176.148,327.615 174.911 C 328.274 174.629,328.940 174.398,329.096 174.398 C 329.979 174.398,331.559 172.090,331.559 170.800 C 331.559 169.259,330.288 164.587,329.090 161.724 C 328.886 161.236,328.616 160.580,328.491 160.266 C 328.145 159.400,327.782 158.491,327.528 157.858 C 327.221 157.095,324.476 151.305,324.192 150.824 C 324.069 150.615,323.768 150.044,323.523 149.556 C 323.278 149.068,322.476 147.667,321.742 146.441 C 321.007 145.216,320.406 144.047,320.406 143.843 C 320.406 143.639,320.311 143.473,320.195 143.473 C 320.079 143.473,319.823 143.159,319.627 142.776 C 319.430 142.392,318.898 141.485,318.443 140.760 C 317.989 140.035,317.617 139.368,317.617 139.278 C 317.617 139.188,317.402 138.812,317.139 138.442 C 316.877 138.072,316.349 137.199,315.967 136.502 C 315.585 135.805,315.058 134.999,314.797 134.711 C 314.536 134.423,314.322 134.105,314.322 134.003 C 314.322 133.901,313.837 133.108,313.245 132.240 C 312.652 131.373,311.882 130.099,311.534 129.410 C 311.185 128.720,310.810 128.038,310.700 127.893 C 310.185 127.215,308.238 123.880,308.238 123.677 C 308.238 123.551,308.153 123.447,308.048 123.447 C 307.944 123.446,307.523 122.791,307.113 121.989 C 306.704 121.188,306.162 120.230,305.909 119.859 C 305.657 119.489,305.450 119.005,305.450 118.782 C 305.450 118.560,305.336 118.378,305.196 118.378 C 305.057 118.378,304.943 118.150,304.943 117.871 C 304.943 117.592,304.829 117.364,304.689 117.364 C 304.550 117.364,304.436 117.204,304.436 117.008 C 304.436 116.812,304.037 115.946,303.549 115.082 C 303.061 114.219,302.662 113.431,302.662 113.331 C 302.662 113.231,302.433 112.678,302.155 112.100 C 301.876 111.523,301.648 110.897,301.648 110.709 C 301.648 110.521,301.544 110.259,301.418 110.127 C 301.239 109.940,299.620 105.633,299.620 105.345 C 299.620 105.272,301.785 103.820,303.295 102.881 C 304.570 102.088,309.138 99.873,309.498 99.873 C 309.645 99.873,309.964 99.769,310.206 99.641 C 311.015 99.214,312.409 98.670,313.688 98.281 C 320.166 96.313,322.270 95.818,327.376 95.062 C 328.213 94.938,329.125 94.778,329.404 94.707 C 330.501 94.425,335.304 93.716,336.502 93.659 C 337.199 93.625,339.366 93.465,341.318 93.303 C 348.872 92.674,353.198 92.517,366.667 92.383 C 387.287 92.177,393.145 91.684,397.136 89.818 C 399.780 88.582,400.223 85.176,397.875 84.134 C 397.580 84.003,396.996 83.678,396.578 83.411 C 396.160 83.145,395.454 82.918,395.009 82.908 C 394.564 82.898,394.129 82.776,394.043 82.636 C 393.957 82.497,393.460 82.383,392.938 82.383 C 392.417 82.383,391.881 82.280,391.749 82.154 C 391.617 82.028,390.995 81.865,390.368 81.791 C 389.740 81.717,388.257 81.542,387.072 81.401 C 385.887 81.260,383.264 81.022,381.242 80.872 C 379.221 80.722,376.483 80.476,375.158 80.325 C 370.211 79.760,313.704 80.506,306.210 81.235 C 304.614 81.390,292.288 81.734,288.007 81.743 C 285.208 81.749,285.132 81.734,284.793 81.115 C 284.007 79.683,282.129 75.626,282.129 75.360 C 282.129 75.203,282.044 75.036,281.939 74.989 C 281.744 74.903,278.832 69.206,278.833 68.914 C 278.834 68.825,277.874 67.106,276.702 65.094 C 275.529 63.081,274.177 60.701,273.697 59.805 C 272.480 57.532,271.707 56.215,271.313 55.747 C 271.128 55.528,270.719 54.843,270.403 54.226 C 270.087 53.610,269.345 52.399,268.755 51.535 C 268.164 50.671,267.680 49.873,267.678 49.760 C 267.677 49.648,267.278 49.056,266.791 48.443 C 266.304 47.831,265.906 47.254,265.906 47.160 C 265.906 47.067,265.703 46.769,265.455 46.499 C 264.770 45.754,262.104 41.817,262.104 41.551 C 262.104 41.423,262.014 41.318,261.905 41.318 C 261.796 41.318,261.496 40.961,261.238 40.525 C 260.980 40.089,260.100 38.955,259.282 38.004 C 258.464 37.054,257.795 36.207,257.795 36.123 C 257.795 36.039,257.538 35.719,257.224 35.411 C 256.911 35.103,256.540 34.665,256.401 34.439 C 255.222 32.523,242.899 19.522,242.259 19.519 C 242.150 19.519,241.524 19.005,240.870 18.378 C 240.215 17.750,239.552 17.237,239.397 17.237 C 239.242 17.237,238.904 17.004,238.646 16.718 C 237.968 15.969,233.835 12.928,233.494 12.928 C 233.336 12.928,233.207 12.832,233.207 12.716 C 233.207 12.599,232.579 12.186,231.812 11.798 C 231.046 11.410,230.418 10.992,230.418 10.870 C 230.418 10.747,230.200 10.646,229.932 10.646 C 229.665 10.646,229.409 10.561,229.362 10.456 C 229.265 10.238,225.878 8.540,224.651 8.095 C 224.198 7.931,223.828 7.696,223.828 7.574 C 223.828 7.451,223.492 7.351,223.082 7.351 C 222.672 7.351,222.276 7.253,222.202 7.134 C 221.894 6.635,212.953 5.271,205.323 4.558 C 204.138 4.447,201.857 4.229,200.253 4.073 C 190.443 3.119,182.237 2.512,177.440 2.385 C 175.139 2.325,173.029 2.167,172.750 2.036 C 171.905 1.636,119.191 1.035,118.812 1.420 M104.436 138.379 C 119.249 139.209,123.241 139.464,124.715 139.677 C 125.621 139.807,127.161 139.918,128.137 139.923 C 130.762 139.936,130.826 140.071,129.141 142.057 C 127.695 143.761,126.403 144.764,125.222 145.099 C 124.362 145.343,123.771 145.585,122.473 146.225 C 121.867 146.524,121.104 146.768,120.777 146.768 C 120.450 146.768,120.118 146.872,120.040 146.998 C 119.962 147.125,119.242 147.421,118.441 147.657 C 117.639 147.893,116.755 148.174,116.477 148.281 C 115.211 148.768,112.569 149.556,112.206 149.556 C 111.985 149.556,111.430 149.717,110.972 149.914 C 110.191 150.249,107.799 150.856,105.196 151.378 C 104.569 151.504,103.542 151.711,102.915 151.838 C 99.806 152.465,98.983 152.610,95.691 153.109 C 89.203 154.093,78.385 153.825,75.165 152.601 C 74.795 152.460,74.212 152.345,73.871 152.345 C 73.530 152.345,73.024 152.231,72.747 152.091 C 72.470 151.952,72.017 151.724,71.740 151.584 C 71.463 151.445,71.022 151.331,70.759 151.331 C 70.338 151.331,68.243 150.348,66.413 149.292 C 66.065 149.091,64.952 148.130,63.942 147.156 L 62.104 145.387 62.104 143.970 C 62.104 142.212,63.935 140.357,66.160 139.862 C 67.384 139.589,69.777 138.898,70.025 138.744 C 70.163 138.659,71.771 138.534,73.600 138.466 C 75.428 138.399,77.154 138.243,77.435 138.120 C 78.067 137.844,98.358 138.039,104.436 138.379 M19.174 187.605 C 18.763 188.192,18.832 188.272,21.546 190.359 C 22.174 190.841,22.725 191.326,22.771 191.435 C 22.958 191.876,25.088 191.303,25.093 190.811 C 25.094 190.707,25.204 190.621,25.337 190.621 C 25.880 190.621,29.407 188.191,29.345 187.860 C 29.170 186.940,28.486 186.982,26.287 188.047 C 24.170 189.072,23.321 189.314,23.321 188.895 C 23.321 188.629,20.423 187.072,19.927 187.072 C 19.718 187.072,19.379 187.312,19.174 187.605 M115.209 188.086 C 114.957 188.365,114.655 188.593,114.539 188.593 C 114.020 188.593,111.280 190.947,111.280 191.393 C 111.280 191.996,111.988 191.910,115.906 190.831 C 117.115 190.498,118.124 189.618,118.124 188.897 C 118.124 187.686,116.085 187.119,115.209 188.086 M268.378 189.255 C 265.336 191.549,265.399 192.351,268.542 191.360 C 268.946 191.232,269.596 191.128,269.985 191.128 C 270.374 191.128,270.763 191.014,270.849 190.875 C 270.935 190.735,271.218 190.621,271.477 190.621 C 272.259 190.621,273.081 189.039,272.715 188.237 C 272.165 187.029,270.952 187.314,268.378 189.255 M329.073 188.704 C 325.976 190.826,325.249 192.023,327.313 191.599 C 331.868 190.665,331.878 190.662,332.408 189.949 C 334.073 187.710,331.776 186.852,329.073 188.704 M19.899 193.533 C 18.094 193.990,15.986 194.832,14.976 195.499 C 14.499 195.813,13.872 196.208,13.582 196.375 C 12.963 196.732,9.632 200.265,9.632 200.565 C 9.632 200.678,9.370 201.196,9.049 201.716 C 8.729 202.236,8.316 203.175,8.133 203.802 C 7.949 204.430,7.698 205.274,7.575 205.678 C 6.038 210.722,9.621 216.051,15.970 218.163 C 19.178 219.230,27.630 218.642,27.630 217.351 C 27.630 217.023,27.801 216.098,28.010 215.295 C 28.700 212.646,28.210 212.231,26.486 214.004 C 25.255 215.271,24.724 215.451,21.693 215.636 C 14.500 216.072,10.566 210.151,13.332 203.052 C 14.047 201.215,16.822 197.719,17.565 197.719 C 17.711 197.719,18.011 197.559,18.231 197.363 C 21.138 194.781,29.039 196.702,27.523 199.622 C 27.123 200.394,27.241 201.014,27.789 201.014 C 28.175 201.014,32.193 197.097,32.193 196.721 C 32.193 196.402,30.497 195.095,29.224 194.432 C 26.909 193.225,22.711 192.821,19.899 193.533 M61.724 193.430 C 60.045 193.800,58.809 194.238,58.809 194.464 C 58.809 194.581,58.647 194.677,58.450 194.677 C 57.685 194.677,55.593 197.054,55.041 198.552 C 53.617 202.411,55.499 204.975,60.837 206.449 C 65.579 207.759,66.656 208.245,67.870 209.621 C 69.389 211.341,67.511 215.209,65.158 215.209 C 64.928 215.209,64.612 215.337,64.456 215.493 C 63.964 215.985,59.387 215.649,58.042 215.022 C 56.107 214.121,55.333 212.741,56.103 211.566 C 56.395 211.120,56.421 210.895,56.207 210.681 C 55.699 210.173,55.288 210.360,53.145 212.075 L 51.043 213.757 51.567 214.299 C 51.855 214.597,52.433 215.250,52.852 215.750 C 53.270 216.249,53.897 216.745,54.246 216.851 C 54.594 216.957,55.051 217.188,55.260 217.364 C 57.554 219.299,66.250 219.028,68.997 216.936 C 69.511 216.544,70.004 216.223,70.092 216.223 C 71.173 216.223,72.860 212.621,72.839 210.357 C 72.813 207.442,69.952 204.056,67.516 204.056 C 67.328 204.056,67.174 203.942,67.174 203.802 C 67.174 203.663,66.781 203.549,66.301 203.549 C 65.822 203.549,65.359 203.435,65.272 203.295 C 65.186 203.156,64.786 203.042,64.382 203.042 C 62.808 203.042,60.291 201.734,59.505 200.507 C 58.754 199.334,60.167 196.705,61.549 196.705 C 61.838 196.705,62.145 196.591,62.231 196.451 C 62.317 196.312,63.172 196.198,64.132 196.198 C 65.091 196.198,65.947 196.312,66.033 196.451 C 66.119 196.591,66.566 196.705,67.025 196.705 C 68.357 196.705,69.734 198.653,69.374 200.029 C 68.997 201.472,69.615 201.563,71.322 200.317 C 74.281 198.158,74.268 198.210,72.307 196.248 C 69.639 193.578,65.753 192.543,61.724 193.430 M214.322 193.326 C 213.097 193.595,211.006 194.268,210.786 194.463 C 210.653 194.581,210.400 194.677,210.223 194.677 C 209.766 194.677,206.000 197.551,205.521 198.265 C 205.302 198.592,204.907 199.087,204.644 199.366 C 204.180 199.858,203.896 200.397,202.841 202.788 C 202.137 204.386,201.642 208.025,202.003 208.952 C 202.156 209.344,202.281 209.923,202.281 210.238 C 202.281 212.286,205.602 216.400,208.221 217.599 C 217.515 221.850,228.878 214.519,228.894 204.263 C 228.897 201.894,228.060 198.834,227.322 198.521 C 227.213 198.475,227.123 198.279,227.123 198.087 C 227.123 197.894,226.895 197.614,226.616 197.465 C 226.337 197.316,226.108 197.055,226.107 196.886 C 226.106 196.717,225.643 196.314,225.079 195.992 C 224.515 195.670,223.990 195.242,223.913 195.041 C 223.836 194.841,223.613 194.677,223.417 194.677 C 223.221 194.677,222.862 194.566,222.620 194.431 C 220.881 193.457,216.424 192.864,214.322 193.326 M33.821 194.233 C 33.820 194.547,34.038 194.981,34.304 195.198 C 34.810 195.610,34.739 196.815,33.991 200.507 C 33.864 201.134,33.636 202.275,33.484 203.042 C 33.332 203.809,33.093 204.949,32.953 205.577 C 32.812 206.204,32.579 207.391,32.433 208.214 C 32.288 209.036,32.060 209.913,31.927 210.161 C 31.794 210.410,31.686 210.970,31.686 211.407 C 31.686 211.843,31.577 212.405,31.443 212.654 C 31.239 213.035,31.016 214.241,30.943 215.360 C 30.917 215.758,29.820 216.984,29.489 216.984 C 29.211 216.984,28.840 217.953,29.012 218.232 C 29.062 218.312,33.649 218.347,39.206 218.309 L 49.310 218.240 49.623 217.235 C 49.796 216.683,49.937 215.912,49.937 215.523 C 49.937 215.134,50.108 214.571,50.317 214.272 C 50.678 213.756,50.657 213.720,49.899 213.553 C 49.297 213.421,49.045 213.479,48.870 213.790 C 48.312 214.789,47.562 215.209,46.340 215.209 C 45.669 215.209,45.120 215.323,45.120 215.463 C 45.120 215.622,43.477 215.716,40.697 215.716 C 35.741 215.716,35.648 215.682,36.022 213.979 C 36.278 212.819,36.443 212.020,36.922 209.632 C 37.783 205.349,37.502 205.585,41.724 205.581 C 45.426 205.576,46.492 205.826,47.110 206.842 C 48.034 208.361,48.752 207.244,49.391 203.294 C 49.493 202.666,49.659 202.019,49.760 201.855 C 50.024 201.429,49.050 201.181,48.425 201.516 C 48.141 201.668,47.909 201.962,47.909 202.170 C 47.909 202.955,39.137 203.565,38.672 202.813 C 38.471 202.488,39.374 197.044,39.680 196.736 C 39.767 196.649,41.853 196.515,44.317 196.438 C 49.533 196.275,50.818 196.473,51.361 197.524 C 52.044 198.844,52.933 198.405,53.258 196.587 C 53.359 196.024,53.523 195.136,53.623 194.613 L 53.805 193.663 43.814 193.663 L 33.822 193.663 33.821 194.233 M77.592 194.233 C 77.427 194.676,77.514 194.928,77.980 195.362 C 78.642 195.978,78.692 196.345,78.312 197.845 C 78.170 198.403,77.940 199.487,77.801 200.253 C 77.661 201.020,77.437 202.189,77.303 202.852 C 77.169 203.514,76.961 204.598,76.841 205.260 C 75.415 213.105,74.268 216.984,73.374 216.984 C 73.107 216.984,72.696 218.111,72.891 218.308 C 73.297 218.718,80.095 218.163,80.239 217.708 C 80.354 217.347,80.244 217.080,79.872 216.820 C 79.299 216.419,79.093 214.378,79.594 214.068 C 79.734 213.982,79.848 213.491,79.847 212.976 C 79.845 210.151,80.781 208.197,82.890 206.624 C 83.378 206.260,83.961 205.762,84.187 205.516 C 84.733 204.922,85.031 204.953,85.354 205.640 C 86.248 207.537,87.199 209.674,87.199 209.787 C 87.199 209.859,87.484 210.542,87.833 211.304 C 88.181 212.066,88.466 212.797,88.466 212.928 C 88.466 213.059,88.695 213.572,88.973 214.068 C 89.747 215.446,89.662 216.706,88.783 216.883 C 88.249 216.990,88.075 217.181,88.038 217.700 L 87.990 218.378 95.053 218.378 L 102.116 218.378 102.216 217.698 C 102.288 217.203,102.191 216.986,101.856 216.898 C 101.120 216.706,101.020 216.004,101.614 215.201 C 101.911 214.799,102.155 214.353,102.155 214.210 C 102.155 214.068,102.564 213.312,103.064 212.529 C 103.565 211.747,104.138 210.715,104.338 210.237 L 104.701 209.367 109.055 209.436 L 113.409 209.506 113.747 211.534 C 113.932 212.649,114.175 214.105,114.287 214.770 C 114.513 216.120,114.137 216.984,113.323 216.984 C 113.031 216.984,112.816 217.217,112.739 217.617 L 112.618 218.251 116.364 218.251 C 118.425 218.251,120.265 218.310,120.454 218.383 C 120.668 218.465,120.907 218.226,121.087 217.749 C 121.347 217.058,121.327 216.984,120.874 216.984 C 120.129 216.984,119.392 216.515,119.392 216.042 C 119.392 215.813,119.286 215.275,119.158 214.847 C 118.949 214.153,118.053 209.382,117.344 205.196 C 117.203 204.360,116.981 203.105,116.851 202.408 C 116.721 201.711,116.560 200.741,116.493 200.253 C 116.371 199.365,116.163 198.214,115.587 195.238 L 115.279 193.645 112.848 193.717 L 110.418 193.790 109.748 195.057 C 108.628 197.178,106.677 200.577,106.476 200.760 C 106.399 200.830,106.165 201.226,105.957 201.641 C 105.748 202.056,104.864 203.577,103.992 205.023 C 103.121 206.468,102.408 207.700,102.408 207.759 C 102.408 207.819,102.117 208.330,101.761 208.894 C 101.141 209.875,100.778 210.498,99.594 212.611 C 99.301 213.134,98.902 213.742,98.707 213.962 C 98.512 214.182,98.352 214.455,98.352 214.569 C 98.352 214.880,96.579 216.984,96.317 216.984 C 95.735 216.984,94.575 215.083,93.147 211.787 C 92.905 211.229,92.276 209.861,91.750 208.745 C 91.223 207.630,90.541 206.147,90.233 205.450 C 89.926 204.753,89.455 203.726,89.187 203.169 L 88.699 202.155 89.677 201.267 C 91.771 199.368,95.877 196.209,96.261 196.203 C 96.435 196.200,96.578 196.108,96.578 195.999 C 96.578 195.693,97.988 194.930,98.552 194.930 C 98.886 194.930,99.094 194.718,99.175 194.297 L 99.296 193.663 94.898 193.663 C 90.090 193.663,89.698 193.830,91.107 195.276 C 91.614 195.797,90.055 197.566,87.199 199.712 C 86.711 200.079,86.027 200.666,85.678 201.017 C 84.452 202.253,82.198 204.056,81.879 204.056 C 81.549 204.056,81.574 203.779,82.163 201.014 C 82.296 200.387,82.463 199.531,82.533 199.113 C 82.974 196.481,83.734 194.930,84.582 194.930 C 84.771 194.930,84.918 194.654,84.918 194.297 L 84.918 193.663 81.361 193.663 C 77.904 193.663,77.798 193.679,77.592 194.233 M143.763 194.205 C 143.577 194.502,143.195 195.158,142.913 195.662 C 141.821 197.616,141.083 198.865,140.950 198.986 C 140.873 199.056,140.645 199.455,140.443 199.873 C 140.242 200.292,139.840 200.976,139.551 201.394 C 139.263 201.812,138.858 202.496,138.651 202.914 C 138.445 203.331,137.563 204.857,136.692 206.305 C 135.821 207.753,135.108 208.976,135.108 209.024 C 135.108 209.072,134.580 209.998,133.934 211.083 C 132.295 213.838,131.782 214.727,131.385 215.501 C 131.012 216.227,130.021 216.984,129.443 216.984 C 129.245 216.984,129.029 217.269,128.962 217.617 L 128.841 218.251 131.848 218.289 C 133.501 218.310,134.989 218.338,135.153 218.352 C 135.807 218.408,135.857 217.036,135.207 216.873 C 134.403 216.671,134.438 216.375,135.495 214.439 C 135.986 213.538,136.456 212.601,136.538 212.357 C 136.620 212.113,136.789 211.914,136.912 211.914 C 137.035 211.914,137.136 211.797,137.136 211.655 C 137.136 211.512,137.436 210.942,137.803 210.387 L 138.470 209.379 142.484 209.379 C 147.135 209.379,146.934 209.263,147.303 212.152 C 147.420 213.067,147.591 214.356,147.682 215.017 C 147.861 216.320,147.553 216.984,146.767 216.984 C 146.492 216.984,146.274 217.227,146.199 217.617 L 146.078 218.251 149.782 218.255 C 151.819 218.257,153.653 218.365,153.857 218.494 C 154.070 218.628,154.343 218.634,154.495 218.508 C 154.642 218.386,157.554 218.264,160.968 218.236 C 168.981 218.171,170.246 217.947,173.593 215.997 C 174.853 215.263,177.079 213.228,177.461 212.461 C 177.646 212.090,177.981 211.559,178.206 211.280 C 182.251 206.270,180.444 197.732,174.778 195.084 C 171.360 193.486,159.946 192.924,159.744 194.343 C 159.692 194.704,159.856 194.998,160.217 195.192 C 160.884 195.548,160.839 196.193,159.815 201.014 C 159.445 202.757,159.040 204.696,158.914 205.323 C 158.788 205.951,158.564 206.977,158.415 207.605 C 158.267 208.232,158.040 209.316,157.911 210.013 C 157.782 210.710,157.556 211.793,157.409 212.421 C 157.261 213.048,157.099 213.809,157.049 214.112 C 156.668 216.384,156.123 216.984,154.436 216.984 C 152.936 216.984,152.652 216.225,151.537 209.252 C 151.403 208.416,151.188 207.132,151.059 206.401 C 150.930 205.669,150.721 204.471,150.594 203.739 C 150.468 203.007,150.176 201.439,149.946 200.253 C 149.716 199.068,149.415 197.471,149.277 196.705 C 149.139 195.938,148.959 194.940,148.878 194.487 L 148.730 193.663 146.416 193.663 C 144.327 193.663,144.069 193.716,143.763 194.205 M181.903 194.064 C 181.660 194.696,181.717 194.886,182.193 195.037 C 182.958 195.280,183.307 196.185,183.560 198.576 C 183.821 201.047,184.157 203.948,184.561 207.224 C 184.699 208.340,184.908 210.165,185.026 211.280 C 185.521 215.976,185.890 218.252,186.157 218.269 C 186.312 218.280,187.287 218.272,188.325 218.252 C 190.433 218.211,190.387 218.243,191.541 215.970 C 191.931 215.203,192.437 214.290,192.666 213.942 C 192.895 213.593,193.527 212.452,194.070 211.407 C 194.613 210.361,195.114 209.449,195.184 209.379 C 195.253 209.309,195.553 208.796,195.850 208.238 C 196.417 207.171,197.351 205.446,198.731 202.915 C 199.187 202.079,199.643 201.280,199.744 201.141 C 200.201 200.509,201.521 197.910,201.523 197.640 C 201.526 197.005,203.578 194.930,204.202 194.930 C 204.688 194.930,204.816 194.798,204.816 194.297 L 204.816 193.663 201.550 193.663 C 198.378 193.663,198.280 193.679,198.132 194.233 C 197.899 195.101,197.935 195.212,198.416 195.132 C 199.012 195.031,199.224 197.185,198.649 197.507 C 198.446 197.621,198.055 198.143,197.781 198.667 C 196.408 201.292,194.173 205.551,193.755 206.337 C 193.495 206.825,193.197 207.262,193.093 207.309 C 192.988 207.355,192.902 207.544,192.902 207.728 C 192.902 207.912,192.532 208.730,192.079 209.545 C 191.625 210.360,191.088 211.349,190.885 211.743 C 190.583 212.327,189.642 213.151,189.595 212.873 C 189.588 212.834,189.476 211.717,189.347 210.393 C 189.217 209.068,188.995 206.958,188.853 205.703 C 188.711 204.449,188.483 202.395,188.345 201.141 C 188.208 199.886,188.022 198.200,187.932 197.394 C 187.762 195.873,188.176 194.930,189.013 194.930 C 189.207 194.930,189.354 194.658,189.354 194.297 L 189.354 193.663 185.705 193.663 C 182.612 193.663,182.033 193.724,181.903 194.064 M232.615 193.832 C 232.230 194.217,232.462 195.129,232.980 195.264 C 233.715 195.456,233.502 197.105,231.796 204.436 C 231.569 205.412,231.285 206.781,231.164 207.478 C 230.904 208.986,230.536 210.851,230.190 212.421 C 230.052 213.048,229.835 214.042,229.708 214.628 C 229.435 215.886,228.773 216.984,228.287 216.984 C 228.098 216.984,227.888 217.269,227.821 217.617 L 227.700 218.251 231.311 218.251 L 234.922 218.251 235.043 217.617 C 235.118 217.224,235.048 216.984,234.858 216.984 C 234.216 216.984,234.050 215.921,234.407 214.086 C 235.564 208.124,235.352 208.625,237.516 206.739 C 239.847 204.706,239.823 204.707,240.672 206.654 C 241.052 207.525,241.537 208.638,241.751 209.125 C 241.964 209.613,242.283 210.355,242.459 210.773 C 242.635 211.191,242.955 211.933,243.171 212.421 C 244.799 216.104,244.859 216.595,243.718 216.881 C 243.177 217.017,242.624 217.867,242.899 218.142 C 243.014 218.257,248.991 218.334,253.929 218.283 C 257.023 218.251,257.034 218.249,257.034 217.647 C 257.034 217.256,256.855 216.996,256.527 216.910 C 255.884 216.742,255.866 215.891,256.486 214.995 C 256.742 214.625,257.028 214.151,257.122 213.942 C 257.215 213.733,257.533 213.162,257.827 212.674 C 258.122 212.186,258.646 211.245,258.992 210.583 L 259.622 209.379 263.715 209.383 C 268.385 209.387,268.334 209.371,268.526 210.900 C 268.605 211.527,268.789 212.932,268.936 214.021 C 269.212 216.078,269.028 216.984,268.335 216.984 C 268.146 216.984,267.809 217.263,267.585 217.605 L 267.178 218.227 271.251 218.302 C 273.491 218.344,275.486 218.286,275.685 218.175 C 276.220 217.874,276.140 216.984,275.578 216.984 C 274.700 216.984,274.074 215.906,273.738 213.815 C 273.626 213.118,273.410 211.863,273.258 211.027 C 273.106 210.190,272.877 208.878,272.748 208.112 C 272.116 204.350,270.986 198.171,270.719 197.018 C 270.582 196.423,270.465 195.625,270.461 195.244 C 270.445 193.906,270.002 193.663,267.581 193.663 C 265.726 193.663,265.355 193.732,265.201 194.106 C 264.993 194.614,262.824 198.288,262.619 198.479 C 262.544 198.549,262.315 198.948,262.109 199.366 C 261.904 199.785,261.470 200.562,261.145 201.094 C 260.821 201.626,260.345 202.437,260.086 202.897 C 259.828 203.357,259.463 204.005,259.276 204.338 C 259.089 204.671,258.878 205.000,258.809 205.070 C 258.739 205.139,258.558 205.425,258.406 205.703 C 256.645 208.934,254.940 211.779,254.709 211.872 C 254.594 211.918,254.499 212.175,254.499 212.442 C 254.499 212.709,254.385 212.928,254.246 212.928 C 254.106 212.928,253.992 213.050,253.992 213.199 C 253.992 213.348,253.650 213.968,253.232 214.575 C 252.814 215.183,252.471 215.785,252.471 215.913 C 252.471 216.260,251.597 216.984,251.177 216.984 C 250.671 216.984,250.133 216.302,249.362 214.683 C 247.403 210.571,245.881 207.297,245.881 207.197 C 245.881 207.134,245.488 206.256,245.009 205.245 C 243.488 202.040,243.500 202.119,244.401 201.328 C 244.835 200.946,245.318 200.516,245.473 200.372 C 245.627 200.228,246.153 199.831,246.641 199.491 C 247.509 198.885,248.744 197.842,249.789 196.834 C 250.400 196.244,252.856 194.930,253.347 194.930 C 253.666 194.930,253.992 194.407,253.992 193.896 C 253.992 193.764,252.152 193.663,249.737 193.663 C 245.495 193.663,245.483 193.665,245.478 194.233 C 245.476 194.547,245.635 194.925,245.832 195.074 C 246.632 195.679,245.456 196.988,240.078 201.478 C 239.466 201.990,238.553 202.776,238.050 203.226 C 236.479 204.631,236.328 204.319,237.014 201.089 C 237.304 199.723,237.608 198.150,237.688 197.592 C 237.850 196.470,238.858 194.930,239.430 194.930 C 239.653 194.930,239.797 194.681,239.797 194.297 L 239.797 193.663 236.291 193.663 C 234.362 193.663,232.708 193.739,232.615 193.832 M278.894 193.970 C 278.950 194.138,278.847 194.908,278.666 195.681 C 277.965 198.657,278.384 199.205,280.048 197.489 L 281.009 196.500 283.474 196.474 L 285.938 196.448 285.795 197.527 C 285.717 198.120,285.553 199.005,285.432 199.493 C 284.978 201.311,284.115 205.239,283.900 206.464 C 283.777 207.161,283.568 208.245,283.434 208.872 C 283.125 210.318,282.643 212.755,282.407 214.068 C 282.135 215.573,281.578 216.557,280.781 216.939 C 280.290 217.174,280.096 217.437,280.150 217.794 C 280.225 218.290,286.749 218.559,287.497 218.097 C 287.912 217.840,287.695 217.040,287.175 216.904 C 286.474 216.720,286.570 215.499,287.718 210.013 C 287.863 209.316,288.076 208.232,288.189 207.605 C 288.303 206.977,288.709 205.038,289.092 203.295 C 289.475 201.553,289.880 199.613,289.993 198.986 C 290.432 196.535,290.436 196.531,292.947 196.398 C 295.793 196.248,295.955 196.299,296.432 197.490 C 297.083 199.119,298.071 198.705,298.406 196.663 C 298.527 195.919,298.692 194.940,298.771 194.487 L 298.915 193.663 288.853 193.663 C 281.095 193.663,278.815 193.733,278.894 193.970 M299.789 193.832 C 299.440 194.181,299.639 194.923,300.157 195.200 C 300.625 195.450,300.674 195.638,300.540 196.666 C 300.312 198.419,299.675 201.670,298.967 204.689 C 298.739 205.665,298.456 206.977,298.338 207.605 C 298.050 209.145,297.604 211.297,296.881 214.628 C 296.576 216.036,295.931 216.984,295.278 216.984 C 294.933 216.984,294.796 217.105,294.883 217.333 C 294.957 217.525,294.902 217.797,294.762 217.938 C 294.348 218.351,294.765 218.393,297.969 218.255 C 301.350 218.110,301.891 217.773,300.501 216.680 C 299.732 216.075,299.713 216.439,300.767 211.534 C 301.500 208.117,301.763 206.835,302.145 204.816 C 303.377 198.295,303.490 197.888,304.042 198.021 C 304.342 198.094,312.294 207.694,312.294 207.983 C 312.294 208.056,312.650 208.486,313.085 208.938 C 314.418 210.321,314.685 210.848,314.376 211.482 C 314.226 211.789,314.045 212.383,313.975 212.801 C 313.506 215.574,312.895 216.984,312.161 216.984 C 311.956 216.984,311.787 217.088,311.787 217.216 C 311.787 217.344,311.718 217.629,311.633 217.850 C 311.498 218.202,311.852 218.251,314.531 218.251 C 317.994 218.251,318.704 217.839,317.234 216.682 C 316.720 216.278,316.587 215.991,316.681 215.489 C 317.238 212.547,317.744 210.149,318.238 208.112 C 318.457 207.205,318.760 205.837,318.911 205.070 C 319.062 204.303,319.294 203.162,319.427 202.535 C 319.669 201.393,319.930 200.110,320.356 197.972 C 320.689 196.304,321.151 195.486,321.965 195.126 C 322.451 194.911,322.687 194.619,322.687 194.235 C 322.687 193.660,316.610 193.279,316.600 193.853 C 316.598 193.958,316.532 194.284,316.453 194.579 C 316.346 194.976,316.445 195.150,316.836 195.252 C 317.433 195.408,317.558 196.773,317.129 198.450 C 317.000 198.954,316.702 200.279,316.467 201.394 C 315.649 205.276,315.978 205.412,311.027 199.142 C 310.817 198.877,310.354 198.306,309.997 197.873 C 309.639 197.439,309.075 196.694,308.743 196.215 C 308.410 195.737,307.791 194.967,307.366 194.504 L 306.594 193.663 303.276 193.663 C 301.451 193.663,299.882 193.739,299.789 193.832 M324.299 194.290 C 324.051 194.825,324.078 194.935,324.489 195.066 C 325.161 195.279,325.354 196.332,324.995 197.832 C 324.826 198.536,324.584 199.683,324.458 200.380 C 324.198 201.810,323.797 203.883,323.452 205.577 C 323.325 206.204,323.109 207.288,322.974 207.985 C 322.839 208.682,322.543 210.108,322.315 211.153 C 322.088 212.199,321.811 213.588,321.701 214.241 C 321.471 215.605,320.813 216.737,320.150 216.911 C 319.776 217.008,319.261 217.951,319.468 218.158 C 319.916 218.606,326.618 218.257,326.834 217.775 C 327.035 217.324,326.978 217.145,326.532 216.833 C 326.230 216.621,325.982 216.194,325.982 215.884 C 325.982 215.060,327.224 208.579,327.496 207.985 C 327.624 207.706,327.786 207.022,327.856 206.464 C 327.927 205.906,328.104 204.851,328.251 204.119 C 328.397 203.387,328.617 202.247,328.740 201.584 C 329.741 196.164,330.162 195.025,331.073 195.263 C 331.482 195.370,331.559 195.252,331.559 194.526 L 331.559 193.663 328.074 193.665 C 324.619 193.667,324.586 193.672,324.299 194.290 M218.378 196.451 C 218.464 196.591,218.795 196.705,219.114 196.705 C 221.572 196.705,224.377 201.175,223.929 204.380 C 223.629 206.534,223.228 208.393,223.038 208.510 C 222.915 208.586,222.814 208.859,222.814 209.116 C 222.814 209.816,221.783 211.621,220.849 212.558 C 220.396 213.012,220.022 213.481,220.018 213.599 C 219.974 214.826,214.060 216.038,211.534 215.338 C 206.523 213.950,205.502 204.238,209.860 199.414 C 212.073 196.965,217.523 195.069,218.378 196.451 M168.999 196.704 C 171.100 196.977,172.868 198.044,173.935 199.682 C 176.946 204.308,174.367 212.925,169.514 214.455 C 168.924 214.641,168.327 214.876,168.188 214.976 C 167.953 215.145,167.394 215.221,163.482 215.615 C 161.606 215.803,161.334 215.499,161.724 213.644 C 161.880 212.902,162.102 211.781,162.216 211.153 C 162.331 210.526,162.565 209.385,162.736 208.619 C 163.172 206.662,163.438 205.397,163.720 203.929 C 163.854 203.232,164.160 201.806,164.400 200.760 C 164.640 199.715,164.889 198.317,164.952 197.655 L 165.068 196.451 166.121 196.459 C 166.700 196.463,167.995 196.574,168.999 196.704 M111.810 199.516 C 111.960 200.549,112.134 201.793,112.196 202.281 C 112.258 202.769,112.435 203.823,112.589 204.623 C 112.995 206.732,112.844 206.844,109.593 206.844 C 106.023 206.844,106.022 206.862,110.194 199.873 C 110.527 199.316,110.931 198.550,111.092 198.172 C 111.472 197.277,111.490 197.309,111.810 199.516 M145.101 198.671 C 145.179 198.916,145.410 200.257,145.614 201.650 C 145.819 203.043,146.063 204.609,146.156 205.131 C 146.428 206.646,146.090 206.845,143.252 206.840 C 139.514 206.834,139.577 207.156,142.325 202.177 C 142.857 201.214,143.421 200.187,143.580 199.896 C 144.504 198.196,144.859 197.910,145.101 198.671 M267.125 202.395 C 267.783 207.064,267.914 206.844,264.473 206.844 C 261.603 206.844,261.143 206.604,261.859 205.480 C 262.159 205.010,263.758 202.125,265.167 199.514 C 266.277 197.456,266.468 197.738,267.125 202.395 M244.233 227.227 C 242.475 227.509,241.514 227.866,239.797 228.872 C 239.588 228.995,238.969 229.307,238.421 229.567 C 236.058 230.685,233.273 234.426,232.253 237.851 C 229.425 247.343,239.414 255.915,248.542 251.830 C 252.622 250.005,253.580 249.330,255.845 246.684 C 256.659 245.732,257.795 243.691,257.795 243.178 C 257.795 242.988,257.899 242.634,258.026 242.392 C 259.882 238.857,257.905 231.306,254.731 229.809 C 254.464 229.683,254.246 229.484,254.246 229.366 C 254.246 229.247,254.092 229.151,253.905 229.151 C 253.717 229.151,253.358 228.923,253.105 228.644 C 252.853 228.365,252.461 228.137,252.235 228.137 C 252.009 228.137,251.599 227.982,251.324 227.793 C 251.049 227.603,250.082 227.366,249.176 227.266 C 248.270 227.166,247.243 227.043,246.895 226.993 C 246.546 226.943,245.349 227.048,244.233 227.227 M300.709 227.162 C 298.998 227.379,296.262 228.383,295.934 228.914 C 295.854 229.044,295.615 229.151,295.405 229.151 C 294.705 229.151,291.771 231.333,291.756 231.865 C 291.753 231.976,291.344 232.517,290.847 233.069 C 289.875 234.148,288.973 235.734,288.973 236.365 C 288.973 236.580,288.885 236.755,288.778 236.755 C 288.106 236.755,287.685 242.661,288.234 244.385 C 288.986 246.747,289.458 247.578,290.836 248.963 C 292.937 251.075,293.969 251.642,297.212 252.465 C 300.019 253.177,304.011 252.424,307.679 250.489 C 309.295 249.637,313.308 245.472,313.308 244.647 C 313.308 244.485,313.409 244.155,313.532 243.913 C 314.952 241.121,315.296 233.967,314.011 233.967 C 313.903 233.967,313.815 233.802,313.815 233.600 C 313.815 231.452,308.622 227.626,305.196 227.249 C 304.430 227.165,303.517 227.059,303.169 227.013 C 302.820 226.968,301.713 227.035,300.709 227.162 M210.765 227.757 C 210.700 227.966,210.593 228.308,210.528 228.517 C 210.460 228.733,210.565 228.897,210.772 228.897 C 211.185 228.897,211.754 229.809,211.548 230.141 C 211.474 230.261,211.297 231.086,211.155 231.973 C 211.013 232.861,210.779 234.157,210.634 234.854 C 210.349 236.220,210.000 237.979,209.651 239.797 C 209.531 240.425,209.241 241.793,209.007 242.839 C 208.585 244.724,208.341 245.924,207.913 248.204 C 207.651 249.603,207.056 250.596,206.344 250.822 C 206.061 250.911,205.830 251.082,205.830 251.200 C 205.830 251.319,205.761 251.597,205.676 251.817 C 205.540 252.172,205.964 252.218,209.352 252.218 L 213.181 252.218 213.181 251.593 C 213.181 251.218,212.969 250.855,212.650 250.684 C 212.079 250.378,212.078 249.842,212.646 247.022 C 212.787 246.324,213.011 245.184,213.144 244.487 C 213.504 242.602,213.833 242.094,215.733 240.494 C 218.074 238.523,217.956 238.483,219.256 241.698 C 219.369 241.977,219.873 243.095,220.377 244.183 C 220.881 245.271,221.293 246.248,221.293 246.354 C 221.293 246.459,221.524 247.024,221.806 247.609 C 222.089 248.194,222.385 248.995,222.463 249.390 C 222.604 250.091,222.520 250.234,221.428 251.151 C 220.338 252.066,220.877 252.218,225.222 252.218 L 229.404 252.218 229.404 251.593 C 229.404 251.226,229.193 250.856,228.893 250.695 C 228.458 250.462,226.467 246.651,224.722 242.712 C 224.475 242.155,223.776 240.644,223.168 239.355 C 221.608 236.045,221.598 235.966,222.638 235.086 C 224.916 233.157,225.980 232.288,226.495 231.939 C 226.803 231.730,227.330 231.292,227.666 230.966 C 228.553 230.107,230.846 228.897,231.588 228.897 C 232.135 228.897,232.215 228.797,232.146 228.200 L 232.066 227.503 228.171 227.433 C 224.142 227.360,223.574 227.479,223.574 228.394 C 223.574 228.641,223.757 228.913,223.981 228.999 C 224.715 229.281,223.743 231.432,222.882 231.432 C 222.702 231.432,222.186 231.789,221.734 232.226 C 221.024 232.911,219.556 234.190,215.847 237.353 C 214.863 238.192,214.343 238.081,214.712 237.110 C 214.846 236.757,214.956 236.139,214.956 235.737 C 214.956 235.334,215.057 234.743,215.180 234.423 C 215.304 234.102,215.541 233.104,215.708 232.203 C 216.069 230.257,216.548 229.243,217.206 229.034 C 217.807 228.843,218.070 227.712,217.559 227.516 C 216.652 227.168,210.885 227.372,210.765 227.757 M262.986 227.750 C 262.919 227.963,262.815 228.299,262.754 228.496 C 262.693 228.694,262.820 228.923,263.036 229.006 C 263.557 229.206,263.257 233.347,262.613 234.854 C 262.494 235.133,262.331 235.817,262.251 236.375 C 262.097 237.456,261.875 238.600,261.268 241.445 C 261.060 242.421,260.697 244.189,260.462 245.374 C 260.227 246.559,259.967 247.700,259.885 247.909 C 259.802 248.118,259.704 248.547,259.667 248.863 C 259.577 249.621,258.616 250.951,258.158 250.951 C 257.939 250.951,257.795 251.203,257.795 251.584 L 257.795 252.218 260.837 252.218 C 264.206 252.218,264.641 251.922,263.327 250.523 L 262.775 249.936 263.230 247.718 C 263.481 246.499,263.780 244.987,263.896 244.360 C 264.011 243.733,264.236 242.592,264.395 241.825 C 264.939 239.195,265.099 238.401,265.364 237.009 C 266.170 232.769,267.120 230.002,267.189 231.695 C 267.197 231.899,267.312 232.636,267.443 233.333 C 267.575 234.030,267.797 235.285,267.936 236.122 C 268.186 237.628,268.539 239.622,268.945 241.825 C 269.061 242.452,269.291 243.707,269.458 244.613 L 269.761 246.261 271.509 246.177 C 272.471 246.131,273.257 245.991,273.257 245.866 C 273.257 245.742,273.999 244.493,274.905 243.093 C 275.811 241.692,276.553 240.478,276.553 240.397 C 276.553 240.315,277.066 239.514,277.693 238.616 C 278.321 237.719,278.834 236.932,278.834 236.868 C 278.834 236.803,279.461 235.778,280.228 234.590 C 280.995 233.401,281.622 232.309,281.622 232.163 C 281.622 232.017,281.765 231.946,281.939 232.005 C 282.410 232.166,282.298 233.475,281.511 237.009 C 281.123 238.752,280.714 240.634,280.602 241.191 C 280.491 241.749,280.270 242.833,280.111 243.599 C 279.952 244.366,279.721 245.507,279.597 246.134 C 278.906 249.646,278.499 250.644,277.674 250.851 C 277.208 250.968,276.829 251.568,276.809 252.218 C 276.807 252.288,278.517 252.311,280.608 252.269 C 284.752 252.186,285.345 251.875,283.883 250.551 C 283.489 250.195,283.390 249.879,283.492 249.308 C 283.623 248.578,283.849 247.423,284.411 244.613 C 284.550 243.916,284.772 242.804,284.905 242.142 C 285.037 241.480,285.259 240.368,285.398 239.670 C 285.537 238.973,285.952 237.034,286.319 235.361 C 286.687 233.688,287.076 231.896,287.184 231.379 C 287.409 230.304,288.072 229.189,288.608 228.983 C 289.100 228.794,289.074 227.723,288.572 227.530 C 286.342 226.674,280.608 227.682,280.608 228.930 C 280.608 229.035,279.905 230.240,279.044 231.607 C 278.184 232.975,276.816 235.150,276.003 236.440 C 275.190 237.731,274.525 238.880,274.525 238.993 C 274.525 239.443,273.017 240.888,272.918 240.532 C 272.544 239.187,272.243 237.663,272.243 237.108 C 272.243 236.748,272.084 235.865,271.890 235.147 C 271.696 234.428,271.402 232.985,271.237 231.939 C 271.072 230.894,270.794 229.468,270.619 228.771 L 270.301 227.503 266.704 227.433 C 263.659 227.373,263.089 227.422,262.986 227.750 M318.682 227.681 C 318.214 228.148,318.321 228.823,318.885 228.971 C 319.579 229.152,319.548 230.123,318.725 233.997 C 317.885 237.946,317.372 240.463,316.895 242.966 C 316.762 243.663,316.414 245.240,316.121 246.471 C 315.829 247.702,315.589 248.888,315.589 249.107 C 315.589 249.326,315.192 249.891,314.707 250.362 C 312.785 252.228,312.771 252.218,317.355 252.218 C 321.820 252.218,322.446 251.918,320.774 250.580 C 319.904 249.884,319.935 249.223,321.055 244.487 C 321.286 243.511,321.531 242.285,321.600 241.762 L 321.726 240.811 323.601 240.769 C 324.632 240.746,325.675 240.717,325.919 240.706 C 326.240 240.690,326.508 241.103,326.889 242.205 C 327.179 243.042,327.550 244.047,327.713 244.440 C 327.876 244.832,328.010 245.310,328.010 245.502 C 328.010 245.694,328.102 245.907,328.213 245.977 C 328.325 246.046,328.576 246.687,328.771 247.402 C 328.965 248.117,329.216 248.758,329.328 248.827 C 329.440 248.896,329.531 249.224,329.531 249.556 C 329.531 249.888,329.632 250.223,329.756 250.299 C 329.879 250.375,330.056 250.838,330.148 251.328 L 330.314 252.218 333.155 252.239 C 339.232 252.285,341.819 252.180,342.009 251.881 C 342.335 251.369,342.224 250.991,341.698 250.824 C 341.047 250.617,341.038 249.723,341.676 248.620 C 341.943 248.159,342.461 247.269,342.827 246.641 C 343.194 246.014,343.723 245.013,344.005 244.417 L 344.516 243.334 348.858 243.403 L 353.200 243.473 353.626 245.419 C 354.357 248.764,354.390 249.928,353.768 250.490 C 353.473 250.756,352.973 251.226,352.656 251.533 L 352.080 252.091 356.195 252.161 C 358.458 252.200,360.457 252.175,360.637 252.106 C 361.067 251.940,361.059 250.951,360.627 250.951 C 359.774 250.951,359.191 249.772,358.676 247.007 C 357.794 242.270,357.699 241.746,357.414 240.051 C 357.014 237.668,356.665 235.760,356.416 234.601 C 356.296 234.043,355.992 232.361,355.741 230.862 C 355.489 229.363,355.193 228.137,355.082 228.137 C 354.971 228.137,354.880 227.966,354.880 227.757 C 354.880 227.347,351.225 227.184,350.695 227.570 C 350.398 227.786,349.049 229.825,349.049 230.057 C 349.049 230.143,348.838 230.516,348.579 230.886 C 348.320 231.256,347.823 232.072,347.474 232.700 C 346.401 234.630,345.879 235.526,344.396 237.992 C 343.609 239.299,342.966 240.414,342.966 240.468 C 342.966 240.523,342.674 241.029,342.318 241.593 C 341.962 242.157,341.449 243.010,341.178 243.489 C 340.906 243.968,340.462 244.752,340.191 245.231 C 339.920 245.709,339.406 246.563,339.050 247.127 C 338.694 247.691,338.403 248.251,338.403 248.371 C 338.403 248.492,338.175 248.797,337.896 249.049 C 337.617 249.302,337.389 249.648,337.389 249.818 C 337.389 250.205,336.068 250.773,335.445 250.653 C 334.930 250.554,333.893 248.831,333.861 248.023 C 333.849 247.737,333.747 247.395,333.632 247.262 C 333.518 247.130,333.108 246.223,332.721 245.247 C 331.673 242.606,331.642 242.531,331.223 241.572 C 330.690 240.354,330.749 240.238,332.148 239.746 C 337.120 237.995,339.329 232.212,336.248 229.014 C 335.846 228.597,334.299 227.933,333.069 227.649 C 331.407 227.266,319.069 227.293,318.682 227.681 M249.098 230.580 C 252.622 231.607,254.663 236.992,253.227 241.475 C 252.667 243.224,252.131 244.476,251.749 244.932 C 251.544 245.177,251.250 245.630,251.096 245.938 C 250.943 246.246,250.248 246.934,249.553 247.466 C 248.368 248.373,247.814 248.678,246.059 249.394 C 245.185 249.750,242.166 249.777,241.952 249.430 C 241.866 249.290,241.565 249.176,241.283 249.176 C 239.267 249.176,236.875 244.808,236.910 241.191 C 236.948 237.371,239.711 231.686,241.530 231.686 C 241.692 231.686,241.825 231.599,241.825 231.494 C 241.825 231.389,242.139 231.175,242.522 231.019 C 245.398 229.851,246.374 229.786,249.098 230.580 M305.256 230.482 C 309.630 231.783,311.018 238.464,308.175 244.529 C 307.621 245.711,304.524 248.669,303.842 248.669 C 303.657 248.669,303.428 248.747,303.333 248.843 C 302.556 249.620,299.577 249.901,297.797 249.366 C 296.666 249.026,293.790 246.426,293.790 245.743 C 293.790 245.536,293.684 245.169,293.554 244.927 C 292.554 243.057,292.815 238.660,294.073 236.188 C 294.196 235.946,294.297 235.592,294.297 235.401 C 294.297 234.649,297.314 231.752,298.918 230.964 C 300.710 230.084,303.264 229.889,305.256 230.482 M330.469 230.494 C 332.621 230.997,333.673 232.637,333.072 234.551 C 332.288 237.045,330.154 238.023,325.489 238.023 L 322.624 238.023 322.766 236.692 C 322.940 235.067,323.814 230.850,324.060 230.453 C 324.300 230.065,328.755 230.094,330.469 230.494 M351.704 233.397 C 351.787 234.059,351.964 235.228,352.097 235.995 C 352.229 236.762,352.368 238.074,352.405 238.910 L 352.471 240.431 349.705 240.503 C 346.620 240.584,346.278 240.448,346.885 239.383 C 347.548 238.218,348.657 236.223,349.401 234.854 C 350.639 232.578,350.915 232.207,351.379 232.197 C 351.475 232.194,351.621 232.734,351.704 233.397 " stroke="none" fill="#066c9b" fill-rule="evenodd"></path></g></svg>