<svg id="Layer_1" data-name="Layer 1" xmlns="http://www.w3.org/2000/svg" viewBox="0 0 865 145"><defs><style>.cls-1{fill:#001966;}.cls-2,.cls-4,.cls-6,.cls-8,.cls-9{fill:#fff;}.cls-2{stroke:#000;stroke-miterlimit:10;stroke-width:0.25px;}.cls-3{fill:#f5911b;}.cls-5{fill:#51ac93;}.cls-5,.cls-6{fill-rule:evenodd;}.cls-7{fill:#627ee8;}.cls-8{fill-opacity:0.6;}.cls-9{fill-opacity:0.2;}</style></defs><rect class="cls-1" x="-0.42" y="0.73" width="865.48" height="144.27"/><path class="cls-2" d="M108.77,29.9l-15,42.88H82.38l-10.09-29-10.41,29H50.56L35.49,29.9h11L56.84,60,67.65,29.9h9.82L87.94,60.28,98.62,29.9Z"/><path class="cls-2" d="M150.15,64.81v8H114.66V29.9H149.3v8H125.21v9.31h21.28v7.72H125.21v9.92Z"/><path class="cls-2" d="M207.32,63.59H186L182,72.78H171.11L191.54,29.9H202l20.49,42.88H211.38ZM204,56.05l-7.27-16.41-7.27,16.41Z"/><path class="cls-2" d="M223.76,51.34c0-12.93,10.61-22.18,24.88-22.18,7.92,0,14.54,2.7,18.86,7.6l-6.81,5.88a15.17,15.17,0,0,0-11.53-5c-8.57,0-14.66,5.63-14.66,13.72s6.09,13.72,14.66,13.72A15,15,0,0,0,260.69,60l6.81,5.88c-4.32,5-10.94,7.66-18.93,7.66C234.37,73.51,223.76,64.26,223.76,51.34Z"/><path class="cls-2" d="M270.77,51.34c0-12.93,10.61-22.18,24.89-22.18,7.92,0,14.53,2.7,18.85,7.6l-6.81,5.88a15.15,15.15,0,0,0-11.52-5c-8.58,0-14.67,5.63-14.67,13.72s6.09,13.72,14.67,13.72A15,15,0,0,0,307.7,60l6.81,5.88c-4.32,5-10.93,7.66-18.92,7.66C281.38,73.51,270.77,64.26,270.77,51.34Z"/><path class="cls-2" d="M357.14,64.81v8H321.65V29.9h34.64v8H332.2v9.31h21.28v7.72H332.2v9.92Z"/><path class="cls-2" d="M405.34,45.46C405.34,55,397.68,61,385.43,61H376.2V72.78H365.59V29.9h19.84C397.68,29.9,405.34,35.84,405.34,45.46Zm-10.74,0c0-4.72-3.27-7.48-9.76-7.48H376.2V52.87h8.64C391.33,52.87,394.6,50.11,394.6,45.46Z"/><path class="cls-2" d="M421.12,38H406.45V29.9H446.4V38H431.73v34.8H421.12Z"/><path class="cls-2" d="M35.5,102.35c0-7.34,6-12.6,14.14-12.6,4.5,0,8.25,1.54,10.71,4.32l-3.87,3.34a8.62,8.62,0,0,0-6.55-2.85c-4.87,0-8.33,3.2-8.33,7.79s3.46,7.79,8.33,7.79a8.54,8.54,0,0,0,6.55-2.88l3.87,3.34C57.89,113.41,54.14,115,49.6,115,41.53,115,35.5,109.69,35.5,102.35Z"/><path class="cls-2" d="M81,114.53l-5-6.79H70.43v6.79h-6V90.17H75.67c7,0,11.31,3.38,11.31,8.84a7.94,7.94,0,0,1-5.36,7.69l5.84,7.83ZM75.34,94.76H70.43v8.49h4.91c3.68,0,5.54-1.6,5.54-4.24S79,94.76,75.34,94.76Z"/><path class="cls-2" d="M103.86,105.9v8.63h-6v-8.7L87.76,90.17h6.4l7,10.82,7-10.82H114Z"/><path class="cls-2" d="M138.82,99c0,5.43-4.35,8.8-11.3,8.8h-5.25v6.72h-6V90.17h11.27C134.47,90.17,138.82,93.55,138.82,99Zm-6.1,0c0-2.68-1.86-4.25-5.54-4.25h-4.91v8.46h4.91C130.86,103.22,132.72,101.65,132.72,99Z"/><path class="cls-2" d="M147.79,94.76h-8.33V90.17h22.68v4.59h-8.33v19.77h-6Z"/><path class="cls-2" d="M163.37,102.35c0-7.24,6-12.6,14.24-12.6s14.25,5.33,14.25,12.6S185.79,115,177.61,115,163.37,109.59,163.37,102.35Zm22.39,0c0-4.63-3.5-7.79-8.15-7.79s-8.14,3.16-8.14,7.79,3.5,7.79,8.14,7.79S185.76,107,185.76,102.35Z"/><path class="cls-2" d="M194.76,102.35c0-7.34,6-12.6,14.13-12.6,4.5,0,8.26,1.54,10.71,4.32l-3.87,3.34a8.59,8.59,0,0,0-6.54-2.85c-4.87,0-8.33,3.2-8.33,7.79s3.46,7.79,8.33,7.79a8.52,8.52,0,0,0,6.54-2.88l3.87,3.34c-2.45,2.81-6.21,4.35-10.75,4.35C200.79,115,194.76,109.69,194.76,102.35Z"/><path class="cls-2" d="M223.21,103.81V90.17h6V103.6c0,4.63,2.15,6.54,5.8,6.54s5.8-1.91,5.8-6.54V90.17h5.95v13.64C246.79,111,242.4,115,235,115S223.21,111,223.21,103.81Z"/><path class="cls-2" d="M269.33,114.53l-5-6.79h-5.54v6.79h-6V90.17H264c6.95,0,11.31,3.38,11.31,8.84A7.94,7.94,0,0,1,270,106.7l5.84,7.83Zm-5.65-19.77h-4.91v8.49h4.91c3.68,0,5.54-1.6,5.54-4.24S267.36,94.76,263.68,94.76Z"/><path class="cls-2" d="M296.66,114.53l-5-6.79H286.1v6.79h-6V90.17h11.27c6.95,0,11.3,3.38,11.3,8.84a7.93,7.93,0,0,1-5.35,7.69l5.83,7.83ZM291,94.76H286.1v8.49H291c3.68,0,5.54-1.6,5.54-4.24S294.69,94.76,291,94.76Z"/><path class="cls-2" d="M327.57,110v4.53H307.41V90.17h19.68V94.7H313.4V100h12.09v4.39H313.4V110Z"/><path class="cls-2" d="M356.24,90.17v24.36H351.3l-13-14.79v14.79h-5.95V90.17h5L350.29,105V90.17Z"/><path class="cls-2" d="M360.78,102.35c0-7.34,6-12.6,14.14-12.6,4.49,0,8.25,1.54,10.71,4.32l-3.87,3.34a8.62,8.62,0,0,0-6.55-2.85c-4.87,0-8.33,3.2-8.33,7.79s3.46,7.79,8.33,7.79a8.54,8.54,0,0,0,6.55-2.88l3.87,3.34c-2.46,2.81-6.22,4.35-10.75,4.35C366.81,115,360.78,109.69,360.78,102.35Z"/><path class="cls-2" d="M389.68,90.17h6v24.36h-6Z"/><path class="cls-2" d="M422,110v4.53H401.88V90.17h19.67V94.7H407.87V100H420v4.39H407.87V110Z"/><path class="cls-2" d="M424.79,112.13l2-4.25a16,16,0,0,0,8.59,2.54c3.57,0,5-1.11,5-2.61,0-4.56-15.14-1.42-15.14-10.47,0-4.14,3.57-7.59,11-7.59a18.51,18.51,0,0,1,9,2.16l-1.86,4.28a15.45,15.45,0,0,0-7.22-1.91c-3.57,0-4.94,1.25-4.94,2.78,0,4.49,15.13,1.39,15.13,10.33,0,4.08-3.6,7.56-11,7.56C431.26,115,427.1,113.8,424.79,112.13Z"/><path class="cls-3" d="M607.65,83.42a44,44,0,1,1-32-53.32,44,44,0,0,1,32,53.32Z"/><path class="cls-4" d="M584.38,66.51c.87-5.85-3.58-9-9.68-11.1l2-7.93-4.83-1.2L569.93,54c-1.27-.32-2.57-.61-3.87-.91L568,45.32l-4.82-1.2-2,7.92c-1.05-.24-2.08-.47-3.08-.72v0l-6.65-1.66-1.29,5.16s3.58.82,3.51.87a2.57,2.57,0,0,1,2.25,2.8l-2.26,9a3.17,3.17,0,0,1,.51.16l-.51-.13-3.16,12.66a1.76,1.76,0,0,1-2.21,1.14c.05.07-3.51-.87-3.51-.87L542.4,86l6.28,1.57,3.45.88-2,8L555,97.66l2-7.94c1.31.36,2.59.69,3.84,1l-2,7.9,4.83,1.2,2-8c8.23,1.55,14.41.93,17-6.52,2.1-6-.1-9.45-4.44-11.7,3.16-.73,5.53-2.8,6.17-7.09ZM573.35,82c-1.49,6-11.58,2.76-14.85,1.94l2.65-10.62c3.27.82,13.76,2.43,12.2,8.68Zm1.49-15.55c-1.36,5.46-9.76,2.69-12.48,2l2.4-9.64C567.49,59.47,576.26,60.74,574.84,66.42Z"/><path class="cls-5" d="M736,29.22l-18.37,38.6a.73.73,0,0,0,.16.87l49.62,47.56a.76.76,0,0,0,1.05,0L818.1,68.7a.76.76,0,0,0,.16-.88L799.88,29.23a.73.73,0,0,0-.67-.44H736.7a.77.77,0,0,0-.69.43Z"/><path class="cls-6" d="M774.32,71.78h0c-.35,0-2.19.14-6.3.14-3.27,0-5.58-.1-6.4-.14h0c-12.62-.55-22-2.75-22-5.38s9.42-4.82,22-5.39V69.6c.83.05,3.19.19,6.46.19,3.92,0,5.88-.16,6.23-.19V61c12.6.56,22,2.76,22,5.38s-9.4,4.82-22,5.38h0Zm0-11.65V52.45H791.9V40.74H744.05V52.45h17.57v7.68c-14.28.65-25,3.48-25,6.87s10.75,6.22,25,6.88V98.49h12.7V73.87c14.25-.66,25-3.48,25-6.87s-10.72-6.21-25-6.87Zm0,0"/><circle class="cls-7" cx="663.26" cy="72.78" r="43.98"/><path class="cls-8" d="M664.63,39.79V64.17l20.61,9.21Z"/><path class="cls-4" d="M664.63,39.79,644,73.38l20.61-9.21Z"/><path class="cls-8" d="M664.63,89.18v16.57l20.63-28.53Z"/><path class="cls-4" d="M664.63,105.75V89.18L644,77.22Z"/><path class="cls-9" d="M664.63,85.35l20.61-12-20.61-9.2Z"/><path class="cls-8" d="M644,73.38l20.61,12V64.18Z"/></svg>