<svg id="Layer_1" data-name="Layer 1" xmlns="http://www.w3.org/2000/svg" viewBox="0 0 865 145"><defs><style>.cls-1,.cls-5,.cls-7,.cls-8{fill:#fff;}.cls-2{fill:#001966;}.cls-3{fill:#f5911b;}.cls-4{fill:#51ac93;}.cls-4,.cls-5{fill-rule:evenodd;}.cls-6{fill:#627ee8;}.cls-7{fill-opacity:0.6;}.cls-8{fill-opacity:0.2;}</style></defs><rect class="cls-1" x="-0.42" y="-0.73" width="865.48" height="145.7"/><path class="cls-2" d="M108.77,28.44l-15,42.88H82.38l-10.09-29-10.41,29H50.56L35.49,28.44h11L56.84,58.58,67.65,28.44h9.82L87.94,58.82,98.62,28.44Z"/><path class="cls-2" d="M150.15,63.36v8H114.66V28.44H149.3v8H125.21v9.31h21.28v7.72H125.21v9.93Z"/><path class="cls-2" d="M207.32,62.13H186L182,71.32H171.11l20.43-42.88H202l20.49,42.88H211.38ZM204,54.6l-7.27-16.42L189.44,54.6Z"/><path class="cls-2" d="M223.76,49.88c0-12.93,10.61-22.18,24.88-22.18,7.92,0,14.54,2.7,18.86,7.6l-6.81,5.88a15.17,15.17,0,0,0-11.53-5c-8.57,0-14.66,5.63-14.66,13.72s6.09,13.72,14.66,13.72a15,15,0,0,0,11.53-5.08l6.81,5.88c-4.32,5-10.94,7.65-18.93,7.65C234.37,72.05,223.76,62.8,223.76,49.88Z"/><path class="cls-2" d="M270.77,49.88c0-12.93,10.61-22.18,24.89-22.18,7.92,0,14.53,2.7,18.85,7.6l-6.81,5.88a15.15,15.15,0,0,0-11.52-5c-8.58,0-14.67,5.63-14.67,13.72S287.6,63.6,296.18,63.6a15,15,0,0,0,11.52-5.08l6.81,5.88c-4.32,5-10.93,7.65-18.92,7.65C281.38,72.05,270.77,62.8,270.77,49.88Z"/><path class="cls-2" d="M357.14,63.36v8H321.65V28.44h34.64v8H332.2v9.31h21.28v7.72H332.2v9.93Z"/><path class="cls-2" d="M405.34,44c0,9.55-7.66,15.5-19.91,15.5H376.2V71.32H365.59V28.44h19.84C397.68,28.44,405.34,34.38,405.34,44ZM394.6,44c0-4.72-3.27-7.47-9.76-7.47H376.2V51.41h8.64C391.33,51.41,394.6,48.65,394.6,44Z"/><path class="cls-2" d="M421.12,36.53H406.45V28.44H446.4v8.09H431.73V71.32H421.12Z"/><path class="cls-2" d="M35.5,100.89c0-7.34,6-12.59,14.14-12.59,4.5,0,8.25,1.53,10.71,4.31L56.48,96a8.62,8.62,0,0,0-6.55-2.85c-4.87,0-8.33,3.2-8.33,7.79s3.46,7.8,8.33,7.8a8.55,8.55,0,0,0,6.55-2.89l3.87,3.34c-2.46,2.82-6.21,4.35-10.75,4.35C41.53,113.49,35.5,108.23,35.5,100.89Z"/><path class="cls-2" d="M81,113.07l-5-6.79H70.43v6.79h-6V88.71H75.67c7,0,11.31,3.38,11.31,8.84a7.94,7.94,0,0,1-5.36,7.69l5.84,7.83ZM75.34,93.31H70.43v8.49h4.91c3.68,0,5.54-1.6,5.54-4.25S79,93.31,75.34,93.31Z"/><path class="cls-2" d="M103.86,104.44v8.63h-6v-8.7L87.76,88.71h6.4l7,10.82,7-10.82H114Z"/><path class="cls-2" d="M138.82,97.55c0,5.43-4.35,8.8-11.3,8.8h-5.25v6.72h-6V88.71h11.27C134.47,88.71,138.82,92.09,138.82,97.55Zm-6.1,0c0-2.68-1.86-4.24-5.54-4.24h-4.91v8.45h4.91C130.86,101.76,132.72,100.2,132.72,97.55Z"/><path class="cls-2" d="M147.79,93.31h-8.33v-4.6h22.68v4.6h-8.33v19.76h-6Z"/><path class="cls-2" d="M163.37,100.89c0-7.23,6-12.59,14.24-12.59s14.25,5.32,14.25,12.59-6.07,12.6-14.25,12.6S163.37,108.13,163.37,100.89Zm22.39,0c0-4.63-3.5-7.79-8.15-7.79s-8.14,3.16-8.14,7.79,3.5,7.8,8.14,7.8S185.76,105.52,185.76,100.89Z"/><path class="cls-2" d="M194.76,100.89c0-7.34,6-12.59,14.13-12.59,4.5,0,8.26,1.53,10.71,4.31L215.73,96a8.59,8.59,0,0,0-6.54-2.85c-4.87,0-8.33,3.2-8.33,7.79s3.46,7.8,8.33,7.8a8.53,8.53,0,0,0,6.54-2.89l3.87,3.34c-2.45,2.82-6.21,4.35-10.75,4.35C200.79,113.49,194.76,108.23,194.76,100.89Z"/><path class="cls-2" d="M223.21,102.35V88.71h6v13.43c0,4.63,2.15,6.55,5.8,6.55s5.8-1.92,5.8-6.55V88.71h5.95v13.64c0,7.17-4.39,11.14-11.79,11.14S223.21,109.52,223.21,102.35Z"/><path class="cls-2" d="M269.33,113.07l-5-6.79h-5.54v6.79h-6V88.71H264c6.95,0,11.31,3.38,11.31,8.84a7.94,7.94,0,0,1-5.36,7.69l5.84,7.83Zm-5.65-19.76h-4.91v8.49h4.91c3.68,0,5.54-1.6,5.54-4.25S267.36,93.31,263.68,93.31Z"/><path class="cls-2" d="M296.66,113.07l-5-6.79H286.1v6.79h-6V88.71h11.27c6.95,0,11.3,3.38,11.3,8.84a7.93,7.93,0,0,1-5.35,7.69l5.83,7.83ZM291,93.31H286.1v8.49H291c3.68,0,5.54-1.6,5.54-4.25S294.69,93.31,291,93.31Z"/><path class="cls-2" d="M327.57,108.55v4.52H307.41V88.71h19.68v4.53H313.4v5.29h12.09v4.38H313.4v5.64Z"/><path class="cls-2" d="M356.24,88.71v24.36H351.3l-13-14.79v14.79h-5.95V88.71h5l12.94,14.79V88.71Z"/><path class="cls-2" d="M360.78,100.89c0-7.34,6-12.59,14.14-12.59,4.49,0,8.25,1.53,10.71,4.31L381.76,96a8.62,8.62,0,0,0-6.55-2.85c-4.87,0-8.33,3.2-8.33,7.79s3.46,7.8,8.33,7.8a8.55,8.55,0,0,0,6.55-2.89l3.87,3.34c-2.46,2.82-6.22,4.35-10.75,4.35C366.81,113.49,360.78,108.23,360.78,100.89Z"/><path class="cls-2" d="M389.68,88.71h6v24.36h-6Z"/><path class="cls-2" d="M422,108.55v4.52H401.88V88.71h19.67v4.53H407.87v5.29H420v4.38H407.87v5.64Z"/><path class="cls-2" d="M424.79,110.67l2-4.25a16,16,0,0,0,8.59,2.54c3.57,0,5-1.11,5-2.61,0-4.55-15.14-1.42-15.14-10.47,0-4.14,3.57-7.58,11-7.58a18.5,18.5,0,0,1,9,2.15l-1.86,4.28a15.57,15.57,0,0,0-7.22-1.91c-3.57,0-4.94,1.25-4.94,2.78,0,4.49,15.13,1.39,15.13,10.34,0,4.07-3.6,7.55-11,7.55C431.26,113.49,427.1,112.34,424.79,110.67Z"/><path class="cls-3" d="M607.65,82a44,44,0,1,1-32-53.31,44,44,0,0,1,32,53.31Z"/><path class="cls-1" d="M584.38,65.05c.87-5.85-3.58-9-9.68-11.1l2-7.93-4.83-1.2-1.92,7.72c-1.27-.31-2.57-.61-3.87-.91L568,43.86l-4.82-1.2-2,7.92c-1.05-.23-2.08-.47-3.08-.72v0l-6.65-1.67-1.29,5.16s3.58.82,3.51.87A2.57,2.57,0,0,1,555.94,57l-2.26,9a3.17,3.17,0,0,1,.51.16l-.51-.13-3.16,12.66a1.76,1.76,0,0,1-2.21,1.14c.05.07-3.51-.87-3.51-.87l-2.4,5.52,6.28,1.57c1.17.29,2.32.6,3.45.89l-2,8L555,96.2l2-7.94c1.31.36,2.59.69,3.84,1l-2,7.9,4.83,1.2,2-8c8.23,1.56,14.41.93,17-6.52,2.1-6-.1-9.45-4.44-11.7,3.16-.73,5.53-2.8,6.17-7.09Zm-11,15.47c-1.49,6-11.58,2.75-14.85,1.94l2.65-10.63c3.27.82,13.76,2.44,12.2,8.69ZM574.84,65c-1.36,5.45-9.76,2.68-12.48,2l2.4-9.64C567.49,58,576.26,59.28,574.84,65Z"/><path class="cls-4" d="M736,27.77,717.64,66.36a.73.73,0,0,0,.16.87l49.62,47.56a.76.76,0,0,0,1.05,0L818.1,67.24a.76.76,0,0,0,.16-.88L799.88,27.77a.71.71,0,0,0-.67-.43H736.7a.73.73,0,0,0-.69.43Z"/><path class="cls-5" d="M774.32,70.33h0c-.35,0-2.19.13-6.3.13-3.27,0-5.58-.1-6.4-.13h0c-12.62-.56-22-2.76-22-5.39s9.42-4.82,22-5.39v8.59c.83.06,3.19.2,6.46.2,3.92,0,5.88-.17,6.23-.2V59.56c12.6.56,22,2.76,22,5.38s-9.4,4.82-22,5.38h0Zm0-11.66V51H791.9V39.28H744.05V51h17.57v7.68c-14.28.66-25,3.48-25,6.88s10.75,6.21,25,6.87V97h12.7V72.41c14.25-.65,25-3.48,25-6.87s-10.72-6.21-25-6.87Zm0,0"/><circle class="cls-6" cx="663.26" cy="71.32" r="43.98"/><path class="cls-7" d="M664.63,38.33V62.71l20.61,9.21Z"/><path class="cls-1" d="M664.63,38.33,644,71.92l20.61-9.21Z"/><path class="cls-7" d="M664.63,87.73v16.56l20.63-28.53Z"/><path class="cls-1" d="M664.63,104.29V87.72L644,75.76Z"/><path class="cls-8" d="M664.63,83.89l20.61-12-20.61-9.2Z"/><path class="cls-7" d="M644,71.92l20.61,12V62.72Z"/></svg>