<svg id="Layer_1" data-name="Layer 1" xmlns="http://www.w3.org/2000/svg" viewBox="0 0 427.63 116.76"><defs><style>.cls-1{fill:#303030;}.cls-2{fill:#47d6d7;}.cls-3{fill:#9145f8;}.cls-4{fill:#5a0bc3;}</style></defs><path class="cls-1" d="M152.86,79.8h14.83a38.2,38.2,0,0,1,5.2.36,14.4,14.4,0,0,1,4.69,1.46A9.09,9.09,0,0,1,181,84.68a9.44,9.44,0,0,1,1.29,5.23,8.38,8.38,0,0,1-1.88,5.59,10.43,10.43,0,0,1-5,3.17v.11a11.23,11.23,0,0,1,3.56,1.1A9.35,9.35,0,0,1,181.7,102a8.9,8.9,0,0,1,1.77,3,10.48,10.48,0,0,1,.62,3.6,9.53,9.53,0,0,1-1.35,5.25,10.67,10.67,0,0,1-3.48,3.4,15.14,15.14,0,0,1-4.8,1.85,25.36,25.36,0,0,1-5.31.56H152.86Zm8.77,15.89H168a9,9,0,0,0,2-.22,5.64,5.64,0,0,0,1.76-.73A3.83,3.83,0,0,0,173,93.39a4,4,0,0,0,.48-2,3.61,3.61,0,0,0-.54-2.05,3.71,3.71,0,0,0-1.37-1.27,6.92,6.92,0,0,0-1.91-.64,11.7,11.7,0,0,0-2.08-.2h-6Zm0,16.46h7.86a9.76,9.76,0,0,0,2-.23,5.5,5.5,0,0,0,1.88-.78,4.59,4.59,0,0,0,1.38-1.46,4.28,4.28,0,0,0,.53-2.19,3.56,3.56,0,0,0-.7-2.28,4.49,4.49,0,0,0-1.77-1.32,9.38,9.38,0,0,0-2.3-.62,17.61,17.61,0,0,0-2.31-.16h-6.62Z" transform="translate(-36.1 -41.3)"/><path class="cls-1" d="M187.63,83.67a4.88,4.88,0,1,1,1.43,3.46A4.72,4.72,0,0,1,187.63,83.67Zm.67,8.6h8.43v27.29H188.3Z" transform="translate(-36.1 -41.3)"/><path class="cls-1" d="M202.9,77.1h8.43v42.46H202.9Z" transform="translate(-36.1 -41.3)"/><path class="cls-1" d="M217.51,77.1h8.42v42.46h-8.42Z" transform="translate(-36.1 -41.3)"/><path class="cls-1" d="M269.35,89.51a6.34,6.34,0,0,0-2.9-2,10.32,10.32,0,0,0-3.45-.65,9.11,9.11,0,0,0-2,.23,7.54,7.54,0,0,0-1.91.7,4.18,4.18,0,0,0-1.46,1.27,3.5,3.5,0,0,0,.79,4.66,13,13,0,0,0,3.4,1.63c1.36.44,2.83.89,4.41,1.34a18.45,18.45,0,0,1,4.41,1.91,10.43,10.43,0,0,1,3.39,3.32,10.08,10.08,0,0,1,1.35,5.56,12.82,12.82,0,0,1-1.23,5.78,11.69,11.69,0,0,1-3.35,4.1,14.22,14.22,0,0,1-4.88,2.42,21.67,21.67,0,0,1-5.87.78,21.22,21.22,0,0,1-7.19-1.18,17.77,17.77,0,0,1-6.18-3.82l6.24-6.85a9,9,0,0,0,3.39,2.78,9.65,9.65,0,0,0,4.24,1,9.53,9.53,0,0,0,2.17-.26,7,7,0,0,0,2-.76,4.17,4.17,0,0,0,1.41-1.29,3.24,3.24,0,0,0,.53-1.85,3.37,3.37,0,0,0-1.38-2.84,12.79,12.79,0,0,0-3.45-1.77c-1.39-.48-2.88-1-4.49-1.46a20.17,20.17,0,0,1-4.5-2A11,11,0,0,1,249.38,97,9.32,9.32,0,0,1,248,91.7a11.84,11.84,0,0,1,1.27-5.61,12.15,12.15,0,0,1,3.37-4,14.62,14.62,0,0,1,4.86-2.44,19.93,19.93,0,0,1,5.67-.81,22.49,22.49,0,0,1,6.51.95,15.22,15.22,0,0,1,5.68,3.2Z" transform="translate(-36.1 -41.3)"/><path class="cls-1" d="M296.59,124c-.57,1.46-1.11,2.75-1.63,3.87a9.29,9.29,0,0,1-2,2.84,7.63,7.63,0,0,1-3.06,1.74A16.26,16.26,0,0,1,285,133a19.93,19.93,0,0,1-6.3-1l1.13-6.91a9.66,9.66,0,0,0,3.93.85,7.34,7.34,0,0,0,2.3-.31,3.89,3.89,0,0,0,1.49-.9,5.1,5.1,0,0,0,1-1.43c.27-.57.55-1.22.85-2l.61-1.57-12-27.52h9.1l7,18h.11l6-18h8.65Z" transform="translate(-36.1 -41.3)"/><path class="cls-1" d="M327.53,100.3a5.93,5.93,0,0,0-4.88-2.3,4.52,4.52,0,0,0-2.08.5,1.78,1.78,0,0,0-1,1.74,1.55,1.55,0,0,0,1,1.49,13.29,13.29,0,0,0,2.64.84l3.42.79a12.84,12.84,0,0,1,3.43,1.32,7.8,7.8,0,0,1,2.64,2.44,7.32,7.32,0,0,1,1,4.13,7.61,7.61,0,0,1-1.16,4.35,8.7,8.7,0,0,1-2.94,2.75,12.52,12.52,0,0,1-4.05,1.46,23.26,23.26,0,0,1-4.44.43,21.62,21.62,0,0,1-5.78-.82,10.73,10.73,0,0,1-4.94-2.89l5.11-5.67a8.57,8.57,0,0,0,2.61,2.22,7.12,7.12,0,0,0,3.34.75,7.78,7.78,0,0,0,2.64-.42,1.54,1.54,0,0,0,1.18-1.54,1.71,1.71,0,0,0-1-1.6,10.94,10.94,0,0,0-2.64-.9l-3.42-.79a14.21,14.21,0,0,1-3.43-1.26,7.12,7.12,0,0,1-2.64-2.39,7.3,7.3,0,0,1-1-4.13,8.35,8.35,0,0,1,1-4.15,8.71,8.71,0,0,1,2.59-2.87,11,11,0,0,1,3.68-1.65,16.65,16.65,0,0,1,4.21-.54,20,20,0,0,1,5.45.79,10.06,10.06,0,0,1,4.66,2.81Z" transform="translate(-36.1 -41.3)"/><path class="cls-1" d="M356.68,99h-7.41v9.09a16.05,16.05,0,0,0,.11,2.05,4.12,4.12,0,0,0,.5,1.61,2.63,2.63,0,0,0,1.21,1,5.24,5.24,0,0,0,2.16.37A15.32,15.32,0,0,0,355,113a3,3,0,0,0,1.66-.65v7a12.54,12.54,0,0,1-2.92.68,27.49,27.49,0,0,1-3,.17,16.18,16.18,0,0,1-3.93-.45,8.79,8.79,0,0,1-3.14-1.44,6.68,6.68,0,0,1-2.11-2.55,8.67,8.67,0,0,1-.76-3.82V99h-5.39V92.27h5.39V84.18h8.43v8.09h7.41Z" transform="translate(-36.1 -41.3)"/><path class="cls-1" d="M386.78,114.84a13.25,13.25,0,0,1-5.11,4,15.24,15.24,0,0,1-6.4,1.41,17.24,17.24,0,0,1-5.92-1,14.16,14.16,0,0,1-4.83-2.9,13.39,13.39,0,0,1-3.23-4.52,15.32,15.32,0,0,1,0-11.79,13.39,13.39,0,0,1,3.23-4.52,14.16,14.16,0,0,1,4.83-2.9,17.24,17.24,0,0,1,5.92-1,13.55,13.55,0,0,1,5.31,1,11,11,0,0,1,4,2.9,13.06,13.06,0,0,1,2.56,4.52,18.16,18.16,0,0,1,.9,5.89v2.64H368.53a6.69,6.69,0,0,0,2.19,3.85,6.17,6.17,0,0,0,4.16,1.43,6.42,6.42,0,0,0,3.51-.92,9.6,9.6,0,0,0,2.5-2.39Zm-7.13-12a4.9,4.9,0,0,0-1.4-3.66,5,5,0,0,0-3.77-1.51,6.33,6.33,0,0,0-2.47.45,6.08,6.08,0,0,0-1.82,1.15,5,5,0,0,0-1.18,1.63,5.43,5.43,0,0,0-.48,1.94Z" transform="translate(-36.1 -41.3)"/><path class="cls-1" d="M393.19,92.27h8.08V96h.12a6.85,6.85,0,0,1,1.12-1.57,8.41,8.41,0,0,1,1.74-1.4,9.87,9.87,0,0,1,2.3-1,9.36,9.36,0,0,1,2.81-.4,10.73,10.73,0,0,1,5.08,1.18,7.48,7.48,0,0,1,3.35,3.71,9.1,9.1,0,0,1,3.53-3.76,10.65,10.65,0,0,1,5.12-1.13,10.41,10.41,0,0,1,4.63.93,7.62,7.62,0,0,1,3,2.53,10.63,10.63,0,0,1,1.57,3.76,21.36,21.36,0,0,1,.48,4.63v16.12h-8.43V103.67a6.39,6.39,0,0,0-.81-3.29A3.1,3.1,0,0,0,424,99a5.71,5.71,0,0,0-2.44.47A4.06,4.06,0,0,0,420,100.8a5.47,5.47,0,0,0-.84,2,10.6,10.6,0,0,0-.26,2.36v14.43h-8.42V105.13q0-.73-.06-1.8a7.46,7.46,0,0,0-.39-2,3.87,3.87,0,0,0-1.1-1.63,3.21,3.21,0,0,0-2.21-.67,5.11,5.11,0,0,0-2.64.59,4,4,0,0,0-1.55,1.57,6.43,6.43,0,0,0-.7,2.22,19.39,19.39,0,0,0-.17,2.58v13.59h-8.42Z" transform="translate(-36.1 -41.3)"/><path class="cls-1" d="M457.49,100.3a5.93,5.93,0,0,0-4.88-2.3,4.55,4.55,0,0,0-2.08.5,1.8,1.8,0,0,0-1,1.74,1.55,1.55,0,0,0,1,1.49,13.29,13.29,0,0,0,2.64.84l3.42.79a12.84,12.84,0,0,1,3.43,1.32,7.62,7.62,0,0,1,2.64,2.44,7.32,7.32,0,0,1,1,4.13,7.69,7.69,0,0,1-1.15,4.35,8.73,8.73,0,0,1-2.95,2.75,12.52,12.52,0,0,1-4.05,1.46,23.16,23.16,0,0,1-4.43.43,21.64,21.64,0,0,1-5.79-.82,10.73,10.73,0,0,1-4.94-2.89l5.11-5.67a8.69,8.69,0,0,0,2.61,2.22,7.12,7.12,0,0,0,3.34.75,7.78,7.78,0,0,0,2.64-.42,1.54,1.54,0,0,0,1.18-1.54,1.7,1.7,0,0,0-1-1.6,10.94,10.94,0,0,0-2.64-.9l-3.42-.79a14.21,14.21,0,0,1-3.43-1.26,6.74,6.74,0,0,1-3.68-6.52,8.25,8.25,0,0,1,1-4.15,8.58,8.58,0,0,1,2.58-2.87,11,11,0,0,1,3.68-1.65,16.65,16.65,0,0,1,4.21-.54,20,20,0,0,1,5.45.79,10.06,10.06,0,0,1,4.66,2.81Z" transform="translate(-36.1 -41.3)"/><path class="cls-2" d="M75,119.14A38.91,38.91,0,0,1,36.1,80.22h0v38.92a38.92,38.92,0,1,0,72.62-19.46A38.9,38.9,0,0,1,75,119.14Z" transform="translate(-36.1 -41.3)"/><path class="cls-3" d="M75,119.14a38.9,38.9,0,0,0,33.7-19.46A38.9,38.9,0,0,0,75,80.22H36.1A38.91,38.91,0,0,0,75,119.14Z" transform="translate(-36.1 -41.3)"/><path class="cls-4" d="M75,41.3H55.56V60.76H36.1V80.22H75a38.9,38.9,0,0,1,33.7,19.46A38.91,38.91,0,0,0,75,41.3Z" transform="translate(-36.1 -41.3)"/><polygon class="cls-2" points="0 19.46 19.46 19.46 19.46 0 0 19.46"/></svg>