<svg id="Layer_1" data-name="Layer 1" xmlns="http://www.w3.org/2000/svg" viewBox="0 0 865 145"><defs><style>.cls-1{fill:#001966;}.cls-2{fill:#f5911b;}.cls-3,.cls-5,.cls-7,.cls-8,.cls-9{fill:#fff;}.cls-4{fill:#51ac93;}.cls-4,.cls-5{fill-rule:evenodd;}.cls-6{fill:#627ee8;}.cls-7{fill-opacity:0.6;}.cls-8{fill-opacity:0.2;}.cls-9{stroke:#000;stroke-miterlimit:10;stroke-width:0.25px;}</style></defs><rect class="cls-1" x="-0.42" y="-0.35" width="865.48" height="145.7"/><path class="cls-2" d="M607.65,82.34a44,44,0,1,1-32-53.31,44,44,0,0,1,32,53.31Z"/><path class="cls-3" d="M584.38,65.43c.87-5.85-3.58-9-9.68-11.1l2-7.93-4.83-1.2-1.92,7.72c-1.27-.32-2.57-.61-3.87-.91L568,44.24,563.18,43l-2,7.92c-1.05-.24-2.08-.47-3.08-.72v0l-6.65-1.66-1.29,5.16s3.58.82,3.51.87a2.57,2.57,0,0,1,2.25,2.81l-2.26,9a3.17,3.17,0,0,1,.51.16l-.51-.13-3.16,12.66a1.76,1.76,0,0,1-2.21,1.14c.05.07-3.51-.87-3.51-.87l-2.4,5.52,6.28,1.57c1.17.29,2.32.6,3.45.89l-2,8,4.82,1.2,2-7.94c1.31.36,2.59.69,3.84,1l-2,7.9,4.83,1.2,2-8c8.23,1.55,14.41.93,17-6.52,2.1-6-.1-9.45-4.44-11.7,3.16-.73,5.53-2.8,6.17-7.09Zm-11,15.46c-1.49,6-11.58,2.76-14.85,2l2.65-10.63c3.27.82,13.76,2.43,12.2,8.68Zm1.49-15.55c-1.36,5.46-9.76,2.69-12.48,2l2.4-9.64C567.49,58.39,576.26,59.66,574.84,65.34Z"/><path class="cls-4" d="M736,28.14l-18.37,38.6a.73.73,0,0,0,.16.87l49.62,47.56a.76.76,0,0,0,1.05,0L818.1,67.62a.76.76,0,0,0,.16-.88L799.88,28.15a.73.73,0,0,0-.67-.44H736.7a.77.77,0,0,0-.69.43Z"/><path class="cls-5" d="M774.32,70.7h0c-.35,0-2.19.14-6.3.14-3.27,0-5.58-.1-6.4-.14h0c-12.62-.55-22-2.75-22-5.38s9.42-4.82,22-5.39v8.59c.83.06,3.19.2,6.46.2,3.92,0,5.88-.17,6.23-.2V59.94c12.6.56,22,2.76,22,5.38s-9.4,4.82-22,5.38h0Zm0-11.65V51.37H791.9V39.66H744.05V51.37h17.57v7.68c-14.28.65-25,3.48-25,6.87s10.75,6.22,25,6.88V97.41h12.7V72.79c14.25-.65,25-3.48,25-6.87s-10.72-6.21-25-6.87Zm0,0"/><circle class="cls-6" cx="663.26" cy="71.7" r="43.98"/><path class="cls-7" d="M664.63,38.71V63.09l20.61,9.21Z"/><path class="cls-3" d="M664.63,38.71,644,72.3l20.61-9.21Z"/><path class="cls-7" d="M664.63,88.1v16.57l20.63-28.53Z"/><path class="cls-3" d="M664.63,104.67V88.1L644,76.14Z"/><path class="cls-8" d="M664.63,84.27l20.61-12-20.61-9.2Z"/><path class="cls-7" d="M644,72.3l20.61,12V63.1Z"/><path class="cls-9" d="M73.13,53.77c0,8.55-6.85,13.87-17.8,13.87H47.07V78.21H37.58V39.86H55.33C66.28,39.86,73.13,45.17,73.13,53.77Zm-9.6,0c0-4.22-2.93-6.68-8.73-6.68H47.07V60.4H54.8C60.6,60.4,63.53,57.94,63.53,53.77Z"/><path class="cls-9" d="M106,78.21l-7.9-10.68H89.36V78.21H79.87V39.86H97.62c10.95,0,17.8,5.31,17.8,13.91,0,5.76-3.1,10-8.43,12.11l9.19,12.33ZM92.93,36.73,85.2,28.84h6.68L97,33l5.1-4.11h6.67L101,36.73Zm4.16,10.36H89.36V60.46h7.73c5.8,0,8.73-2.52,8.73-6.69S102.89,47.09,97.09,47.09Z"/><path class="cls-9" d="M122.92,39.86h9.49V78.21h-9.49Z"/><path class="cls-9" d="M136.33,73.28l5.27-5.92c2.23,2.8,4.69,4.22,7.62,4.22,3.8,0,5.8-2.14,5.8-6.36V47H140.61V39.86h23.84V64.73c0,9.48-5.1,14.14-14.76,14.14C144.18,78.87,139.32,76.9,136.33,73.28Z"/><path class="cls-9" d="M181.14,28.84H191l-10.6,7.89h-7.15Zm-7.32,11h9.48V78.21h-9.48Z"/><path class="cls-9" d="M230.34,78.21l-.06-23-12.07,19h-4.27l-12-18.47V78.21H193V39.86h7.85l15.34,23.83,15.11-23.83h7.79l.12,38.35Z"/><path class="cls-9" d="M276,70h-19l-3.63,8.22h-9.73l18.28-38.35h9.37l18.33,38.35h-10Zm-3-6.74-6.5-14.68L260,63.25Zm-4.63-26.52H261.2l7.91-7.89H279Z"/><path class="cls-9" d="M331.14,78.21l-.06-23L319,74.16h-4.27l-12-18.47V78.21h-8.9V39.86h7.85L317,63.69l15.11-23.83h7.79L340,78.21Z"/><path class="cls-9" d="M381.51,71.09v7.12H349.76V39.86h31V47H359.19v8.33h19v6.9h-19v8.88Z"/><path class="cls-9" d="M40.35,98h-7.5V93.87H53.27V98h-7.5v17.78H40.35Z"/><path class="cls-9" d="M67,108v7.76H61.57V108L52.5,93.87h5.76l6.26,9.73,6.26-9.73H76.1Z"/><path class="cls-9" d="M82.79,98h-7.5V93.87H95.71V98h-7.5v17.78H82.79Z"/><path class="cls-9" d="M96.82,104.82c0-6.51,5.42-11.33,12.82-11.33s12.82,4.79,12.82,11.33-5.46,11.34-12.82,11.34S96.82,111.34,96.82,104.82Zm20.15,0c0-4.16-3.15-7-7.33-7s-7.33,2.85-7.33,7,3.14,7,7.33,7S117,109,117,104.82Z"/><path class="cls-9" d="M144.54,107.17l-3.14,3.07v5.54H136V93.87h5.39V104.1l10.37-10.23h6l-9.71,9.76,10.28,12.15H152Z"/><path class="cls-9" d="M175.7,115.78l-4.51-6.1h-5v6.1h-5.42V93.87h10.14c6.26,0,10.17,3,10.17,7.95a7.12,7.12,0,0,1-4.82,6.92l5.26,7ZM170.62,98H166.2v7.64h4.42c3.31,0,5-1.44,5-3.82S173.93,98,170.62,98Z"/><path class="cls-9" d="M196.29,108v7.76h-5.43V108l-9.07-14.08h5.76l6.26,9.73,6.26-9.73h5.32Z"/><path class="cls-9" d="M227.75,101.82c0,4.88-3.92,7.92-10.18,7.92h-4.72v6h-5.42V93.87h10.14C223.83,93.87,227.75,96.9,227.75,101.82Zm-5.49,0c0-2.41-1.67-3.82-5-3.82h-4.42v7.61h4.42C220.59,105.61,222.26,104.2,222.26,101.82Z"/><path class="cls-9" d="M235.81,98h-7.49V93.87h20.41V98h-7.49v17.78h-5.43Z"/><path class="cls-9" d="M249.84,104.82c0-6.51,5.42-11.33,12.82-11.33s12.82,4.79,12.82,11.33-5.46,11.34-12.82,11.34S249.84,111.34,249.84,104.82Zm20.15,0c0-4.16-3.15-7-7.33-7s-7.33,2.85-7.33,7,3.14,7,7.33,7S270,109,270,104.82Z"/><path class="cls-9" d="M300.88,115.78l0-13.15L294,113.46h-2.44l-6.86-10.55v12.87h-5.09V93.87H284l8.77,13.61,8.64-13.61h4.45l.07,21.91Z"/><path class="cls-9" d="M329.66,111.71v4.07H311.52V93.87h17.71v4.07H316.91v4.76h10.88v3.94H316.91v5.07ZM318.08,92.08l-4.42-4.51h3.82l2.91,2.35,2.91-2.35h3.82l-4.42,4.51Z"/><path class="cls-9" d="M355.47,93.87v21.91H351l-11.69-13.3v13.3H334V93.87h4.48l11.65,13.3V93.87Z"/><path class="cls-9" d="M372.27,108v7.76h-5.42V108l-9.07-14.08h5.75l6.26,9.73,6.26-9.73h5.32Z"/></svg>