<svg id="Layer_1" data-name="Layer 1" xmlns="http://www.w3.org/2000/svg" viewBox="0 0 865 145"><defs><style>.cls-1,.cls-4,.cls-6,.cls-7{fill:#fff;}.cls-2{fill:#f5911b;}.cls-3{fill:#51ac93;}.cls-3,.cls-4{fill-rule:evenodd;}.cls-5{fill:#627ee8;}.cls-6{fill-opacity:0.6;}.cls-7{fill-opacity:0.2;}.cls-8{fill:#001966;}</style></defs><rect class="cls-1" x="-0.24" width="865.48" height="145.7"/><path class="cls-2" d="M607.83,82.69a44,44,0,1,1-32-53.31,44,44,0,0,1,32,53.31Z"/><path class="cls-1" d="M584.56,65.78c.87-5.85-3.58-9-9.68-11.1l2-7.93L572,45.55l-1.92,7.72c-1.27-.32-2.57-.61-3.87-.91l1.94-7.77-4.82-1.2-2,7.92c-1-.24-2.08-.47-3.08-.72v0l-6.65-1.66-1.29,5.16s3.58.82,3.51.87a2.57,2.57,0,0,1,2.25,2.81l-2.25,9a3.1,3.1,0,0,1,.5.16l-.51-.13L550.7,79.46a1.75,1.75,0,0,1-2.21,1.14c0,.07-3.51-.87-3.51-.87l-2.39,5.52,6.28,1.57c1.16.29,2.31.6,3.44.89l-2,8,4.82,1.2,2-7.94c1.32.36,2.59.69,3.84,1l-2,7.9,4.83,1.2,2-8c8.23,1.55,14.42.93,17-6.52,2.1-6-.1-9.45-4.43-11.7,3.15-.73,5.53-2.8,6.16-7.09Zm-11,15.46c-1.49,6-11.58,2.76-14.85,2l2.65-10.63c3.27.82,13.76,2.43,12.2,8.68ZM575,65.69c-1.36,5.46-9.76,2.69-12.48,2l2.4-9.64C567.67,58.74,576.44,60,575,65.69Z"/><path class="cls-3" d="M736.19,28.49l-18.37,38.6A.74.74,0,0,0,718,68l49.63,47.56a.75.75,0,0,0,1,0L818.28,68a.76.76,0,0,0,.16-.88L800.06,28.5a.73.73,0,0,0-.67-.44H736.88a.77.77,0,0,0-.69.43Z"/><path class="cls-4" d="M774.5,71.05h0c-.35,0-2.19.14-6.3.14-3.26,0-5.58-.1-6.4-.14h0c-12.62-.55-22-2.75-22-5.38s9.42-4.82,22-5.39v8.59c.83.06,3.19.2,6.46.2,3.92,0,5.88-.17,6.23-.2V60.29c12.6.56,22,2.76,22,5.38s-9.4,4.82-22,5.38h0Zm0-11.65V51.72h17.58V40H744.23V51.72H761.8V59.4c-14.28.65-25,3.48-25,6.87s10.74,6.22,25,6.88V97.76h12.7V73.14c14.25-.65,25-3.48,25-6.87s-10.72-6.21-25-6.87Zm0,0"/><circle class="cls-5" cx="663.45" cy="72.05" r="43.98"/><path class="cls-6" d="M664.81,39.06V63.44l20.61,9.21Z"/><path class="cls-1" d="M664.81,39.06,644.2,72.65l20.61-9.21Z"/><path class="cls-6" d="M664.81,88.45V105l20.63-28.53Z"/><path class="cls-1" d="M664.81,105V88.45l-20.61-12Z"/><path class="cls-7" d="M664.81,84.62l20.61-12-20.61-9.2Z"/><path class="cls-6" d="M644.2,72.65l20.61,12V63.45Z"/><path class="cls-8" d="M76.21,54.12C76.21,62.67,69.35,68,58.4,68H50.14V78.56H40.65V40.21H58.4C69.35,40.21,76.21,45.52,76.21,54.12Zm-9.61,0c0-4.22-2.93-6.68-8.73-6.68H50.14V60.75h7.73C63.67,60.75,66.6,58.29,66.6,54.12Z"/><path class="cls-8" d="M109.06,78.56l-7.9-10.68H92.43V78.56H82.94V40.21h17.75c11,0,17.8,5.31,17.8,13.91,0,5.76-3.1,10-8.43,12.11l9.19,12.33ZM96,37.08l-7.73-7.89H95L100,33.3l5.1-4.11h6.68l-7.73,7.89Zm4.16,10.36H92.43V60.81h7.73c5.8,0,8.73-2.52,8.73-6.69S106,47.44,100.16,47.44Z"/><path class="cls-8" d="M126,40.21h9.49V78.56H126Z"/><path class="cls-8" d="M139.4,73.63l5.28-5.92c2.22,2.8,4.68,4.22,7.61,4.22,3.81,0,5.8-2.14,5.8-6.36V47.33H143.68V40.21h23.84V65.08c0,9.48-5.1,14.14-14.76,14.14C147.25,79.22,142.39,77.25,139.4,73.63Z"/><path class="cls-8" d="M184.21,29.19h9.84l-10.6,7.89H176.3Zm-7.32,11h9.49V78.56h-9.49Z"/><path class="cls-8" d="M233.41,78.56l-.06-23-12.07,19H217L205,56V78.56h-8.9V40.21H204L219.29,64,234.4,40.21h7.79l.12,38.35Z"/><path class="cls-8" d="M279,70.34H260l-3.63,8.22h-9.72l18.27-38.35h9.37l18.33,38.35h-9.95Zm-3-6.74-6.5-14.68-6.5,14.68Zm-4.63-26.52h-7.14l7.9-7.89H282Z"/><path class="cls-8" d="M334.21,78.56l-.06-23-12.06,19h-4.28L305.8,56V78.56h-8.9V40.21h7.85L320.09,64,335.2,40.21H343l.12,38.35Z"/><path class="cls-8" d="M384.58,71.44v7.12H352.84V40.21h31v7.12H362.27v8.33h19v6.9h-19v8.88Z"/><path class="cls-8" d="M43.42,98.35H35.93V94.22H56.34v4.13H48.85v17.78H43.42Z"/><path class="cls-8" d="M70.07,108.37v7.76H64.64V108.3L55.57,94.22h5.76L67.59,104l6.26-9.73h5.32Z"/><path class="cls-8" d="M85.86,98.35H78.37V94.22H98.78v4.13H91.29v17.78H85.86Z"/><path class="cls-8" d="M99.89,105.17c0-6.51,5.42-11.33,12.82-11.33s12.82,4.79,12.82,11.33-5.46,11.34-12.82,11.34S99.89,111.69,99.89,105.17Zm20.15,0c0-4.16-3.15-7-7.33-7s-7.33,2.85-7.33,7,3.14,7,7.33,7S120,109.34,120,105.17Z"/><path class="cls-8" d="M147.62,107.52l-3.15,3.07v5.54h-5.39V94.22h5.39v10.23l10.38-10.23h6L151.16,104l10.28,12.15h-6.33Z"/><path class="cls-8" d="M178.78,116.13l-4.52-6.1h-5v6.1h-5.42V94.22H174c6.26,0,10.17,3,10.17,8a7.12,7.12,0,0,1-4.82,6.92l5.26,7Zm-5.09-17.78h-4.42V106h4.42c3.31,0,5-1.44,5-3.82S177,98.35,173.69,98.35Z"/><path class="cls-8" d="M199.36,108.37v7.76h-5.42V108.3l-9.07-14.08h5.75l6.26,9.73,6.26-9.73h5.32Z"/><path class="cls-8" d="M230.82,102.17c0,4.88-3.91,7.92-10.17,7.92h-4.72v6H210.5V94.22h10.15C226.91,94.22,230.82,97.25,230.82,102.17Zm-5.49,0c0-2.41-1.67-3.82-5-3.82h-4.41V106h4.41C223.66,106,225.33,104.55,225.33,102.17Z"/><path class="cls-8" d="M238.89,98.35h-7.5V94.22h20.42v4.13h-7.5v17.78h-5.42Z"/><path class="cls-8" d="M252.91,105.17c0-6.51,5.42-11.33,12.82-11.33s12.82,4.79,12.82,11.33-5.46,11.34-12.82,11.34S252.91,111.69,252.91,105.17Zm20.15,0c0-4.16-3.15-7-7.33-7s-7.33,2.85-7.33,7,3.15,7,7.33,7S273.06,109.34,273.06,105.17Z"/><path class="cls-8" d="M304,116.13l0-13.15L297,113.81h-2.44l-6.86-10.55v12.87h-5.09V94.22h4.49l8.77,13.61,8.63-13.61H309l.07,21.91Z"/><path class="cls-8" d="M332.74,112.06v4.07H314.59V94.22H332.3v4.07H320V103h10.88V107H320v5.07ZM321.15,92.43l-4.41-4.51h3.81l2.91,2.35,2.92-2.35h3.81l-4.42,4.51Z"/><path class="cls-8" d="M358.54,94.22v21.91h-4.45l-11.68-13.3v13.3h-5.36V94.22h4.49l11.64,13.3V94.22Z"/><path class="cls-8" d="M375.34,108.37v7.76h-5.42V108.3l-9.07-14.08h5.75l6.26,9.73,6.26-9.73h5.33Z"/></svg>