<svg id="etpdB96N0Wg1" xmlns="http://www.w3.org/2000/svg" xmlns:xlink="http://www.w3.org/1999/xlink" viewBox="0 0 865 145" shape-rendering="geometricPrecision" text-rendering="geometricPrecision"><rect width="865" height="145" rx="24" ry="24" fill="#fff"/><g clip-path="url(#etpdB96N0Wg40)"><g><g clip-path="url(#etpdB96N0Wg38)"><g><path d="M607.65,82c-4.300946,17.275244-18.587996,30.25649-36.195169,32.887013s-35.064483-5.608096-44.226787-20.871921-8.223913-34.544696,2.377343-48.846638s28.776104-20.80636,46.044613-16.478454c23.545497,5.901071,37.864311,29.75532,32,53.31" fill="#c8c8c8"/><path d="M584.38,65.05c.88-5.85-3.58-9-9.67-11.1l2-7.93-4.83-1.2-1.92,7.72c-1.27-.32-2.57-.61-3.87-.91L568,43.86l-4.82-1.2-2,7.93c-1-.24-2.08-.48-3.08-.72v0l-6.66-1.66-1.28,5.16c0,0,3.58.82,3.51.87c1.377146.157316,2.381431,1.378384,2.27,2.76l-2.25,9c.170047.042129.337086.095582.5.16l-.51-.13-3.16,12.65c-.140194.445819-.451945.817574-.866517,1.033302s-.897923.257712-1.343483.116698c0,.07-3.51-.88-3.51-.88l-2.4,5.52l6.28,1.57l3.44.89-2,8l4.82,1.2l2-7.93c1.32.36,2.6.69,3.85,1l-2,7.9l4.83,1.2l2-8c8.23,1.56,14.42.93,17-6.51c2.1-6-.1-9.45-4.43-11.7c3.15-.73,5.53-2.8,6.16-7.09m-11,15.46c-1.49,6-11.58,2.75-14.86,1.94l2.65-10.62c3.27.82,13.76,2.43,12.2,8.68M574.84,65c-1.36,5.45-9.76,2.68-12.48,2l2.4-9.64c2.72.68,11.5,1.95,10.08,7.63" fill="#fff"/><path d="M736,27.77l-18.37,38.6c-.141567.293933-.076881.645667.16.87l49.63,47.55c.28639.250182.71361.250182,1,0L818.1,67.24c.236881-.224333.301567-.576067.16-.87l-18.37-38.6c-.122143-.264796-.388408-.433169-.68-.43h-62.51c-.291592-.003169-.557857.165204-.68.43" fill="#c8c8c8" fill-rule="evenodd"/><path d="M774.32,70.33v0c-.36,0-2.2.14-6.3.14-3.27,0-5.58-.1-6.4-.14-12.62-.56-22-2.75-22-5.38s9.42-4.82,22-5.39v8.58c.83.06,3.19.2,6.46.2c3.92,0,5.88-.16,6.23-.2v-8.58c12.59.56,22,2.76,22,5.38s-9.4,4.82-22,5.38Zm0-11.65v-7.68h17.58v-11.72h-47.9v11.72h17.57v7.68c-14.28.66-25,3.49-25,6.88s10.74,6.22,25,6.88v24.56h12.7v-24.59c14.25-.66,25-3.48,25-6.87s-10.72-6.21-25-6.87Z" fill="#fff" fill-rule="evenodd"/><path d="M663.26,27.33c24.300529,0,44,19.699471,44,44s-19.699471,44-44,44-44-19.699471-44-44s19.699471-44,44-44" fill="#c8c8c8" fill-rule="evenodd"/><g opacity="0.6"><g clip-path="url(#etpdB96N0Wg16)"><g><polygon points="664.63,38.33 664.63,62.72 685.24,71.92 664.63,38.33" fill="#fff"/></g><clipPath id="etpdB96N0Wg16"><rect width="20.61" height="33.59" rx="0" ry="0" transform="translate(664.63 38.33)" fill="none"/></clipPath></g></g><polygon points="664.63,38.33 644.02,71.92 664.63,62.72 664.63,38.33" fill="#fff"/><g opacity="0.6"><g clip-path="url(#etpdB96N0Wg23)"><g><polygon points="664.63,87.72 664.63,104.29 685.26,75.76 664.63,87.72" fill="#fff"/></g><clipPath id="etpdB96N0Wg23"><rect width="20.62" height="28.53" rx="0" ry="0" transform="translate(664.63 75.76)" fill="none"/></clipPath></g></g><polygon points="664.63,104.29 664.63,87.72 644.02,75.76 664.63,104.29" fill="#fff"/><g opacity="0.2"><g clip-path="url(#etpdB96N0Wg30)"><g><polygon points="664.63,83.89 685.24,71.92 664.63,62.72 664.63,83.89" fill="#fff"/></g><clipPath id="etpdB96N0Wg30"><rect width="20.61" height="21.17" rx="0" ry="0" transform="translate(664.63 62.72)" fill="none"/></clipPath></g></g><g opacity="0.6"><g clip-path="url(#etpdB96N0Wg36)"><g><polygon points="644.02,71.92 664.63,83.89 664.63,62.72 644.02,71.92" fill="#fff"/></g><clipPath id="etpdB96N0Wg36"><rect width="20.61" height="21.17" rx="0" ry="0" transform="translate(644.02 62.72)" fill="none"/></clipPath></g></g></g><clipPath id="etpdB96N0Wg38"><polyline points="0,0 865,0 865,145 0,145" fill="none"/></clipPath></g></g><clipPath id="etpdB96N0Wg40"><polyline points="0,145 865,145 865,0 0,0" fill="none"/></clipPath></g><path d="M71.32,45c0,8.84-6.63,14.34-17.23,14.34h-8v10.91h-9.18v-39.68h17.17c10.6,0,17.24,5.5,17.24,14.43ZM62,45c0-4.36-2.83-6.92-8.45-6.92h-7.46v13.75h7.48C59.18,51.83,62,49.28,62,45Z" fill="#223a7b"/><path d="M103.12,70.25L95.47,59.2h-8.47v11.05h-9.16v-39.68h17.16c10.6,0,17.23,5.5,17.23,14.4.224867,5.48793-3.04987,10.516418-8.16,12.53L113,70.25ZM90.48,27.34L83,19.18h6.46l4.93,4.25l4.93-4.25h6.46L98.3,27.34Zm4,10.71h-7.48v13.83h7.5c5.61,0,8.45-2.61,8.45-6.92s-2.83-6.91-8.45-6.91Z" fill="#223a7b"/><path d="M119.51,30.57h9.18v39.68h-9.18Z" fill="#223a7b"/><path d="M132.49,65.15l5.1-6.12c2.15,2.89,4.53,4.37,7.37,4.37c3.68,0,5.61-2.21,5.61-6.58v-18.88h-13.94v-7.37h23.07v25.74c0,9.81-4.93,14.63-14.29,14.63-5.32-.01-10.03-2.05-12.92-5.79Z" fill="#223a7b"/><path d="M175.86,19.18h9.52l-10.26,8.16h-6.92Zm-7.09,11.39h9.23v39.68h-9.18Z" fill="#223a7b"/><path d="M223.48,70.25l-.06-23.81-11.68,19.62h-4.14L196,47v23.3h-8.62v-39.73h7.62l14.85,24.66l14.63-24.66h7.52l.11,39.68Z" fill="#223a7b"/><path d="M267.64,61.75h-18.42l-3.51,8.5h-9.41L254,30.57h9l17.74,39.68h-9.64Zm-2.89-7l-6.29-15.19-6.29,15.19Zm-4.48-27.44h-6.92L261,19.18h9.52Z" fill="#223a7b"/><path d="M321,70.25v-23.81L309.31,66.06h-4.14L293.55,47v23.3h-8.62v-39.73h7.6l14.85,24.66L322,30.57h7.54l.11,39.68Z" fill="#223a7b"/><path d="M369.8,62.88v7.37h-30.73v-39.68h30v7.37h-20.87v8.62h18.42v7.14h-18.42v9.18Z" fill="#223a7b"/><path d="M47.69,108.67l-4.31,4.49v8.11h-7.38v-32.08h7.38v15l14.21-15h8.25l-13.29,14.3l14.07,17.79h-8.62Z" fill="#223a7b"/><path d="M90.36,121.27l-6.19-8.94h-6.82v8.94h-7.43v-32.08h13.89c8.57,0,13.93,4.45,13.93,11.64.198494,4.451848-2.45331,8.538036-6.6,10.17l7.2,10.31Zm-7-26h-6.01v11.18h6.05c4.54,0,6.83-2.11,6.83-5.59s-2.29-5.62-6.83-5.62Z" fill="#223a7b"/><path d="M118.55,109.91v11.37h-7.43v-11.47L98.7,89.19h7.88l8.57,14.26l8.57-14.26h7.28Z" fill="#223a7b"/><path d="M161.63,100.83c0,7.15-5.36,11.6-13.93,11.6h-6.46v8.85h-7.43v-32.09h13.89c8.57,0,13.93,4.44,13.93,11.64Zm-7.52,0c0-3.53-2.29-5.59-6.83-5.59h-6.05v11.14h6.05c4.54,0,6.83-2.07,6.83-5.55Z" fill="#223a7b"/><path d="M172.67,95.24h-10.26v-6.05h28v6.05h-10.31v26h-7.43Z" fill="#223a7b"/><path d="M191.88,105.23c0-9.53,7.43-16.59,17.56-16.59s17.56,7,17.56,16.59-7.47,16.59-17.56,16.59-17.56-7.05-17.56-16.59Zm27.59,0c0-6.1-4.31-10.27-10-10.27s-10,4.17-10,10.27s4.31,10.27,10,10.27s10-4.17,10-10.27Z" fill="#223a7b"/><path d="M261.77,121.27v-19.25l-9.44,15.86h-3.35l-9.4-15.45v18.84h-7v-32.08h6.14l12,19.94l11.83-19.94h6.1l.09,32.09Z" fill="#223a7b"/><path d="M301.19,115.31v6h-24.85v-32.12h24.25v6h-16.87v7h14.9v5.78h-14.9v7.43ZM285.33,86.58L279.28,80h5.23l4,3.44l4-3.44h5.23l-6.05,6.6Z" fill="#223a7b"/><path d="M336.52,89.19v32.09h-6.1l-16-19.48v19.48h-7.33v-32.09h6.14l16,19.48v-19.48Z" fill="#223a7b"/><path d="M359.53,109.91v11.37h-7.43v-11.47L339.68,89.19h7.88l8.57,14.26l8.57-14.26h7.3Z" fill="#223a7b"/></svg>