<?xml version="1.0" encoding="utf-8"?>
<!-- Generator: Adobe Illustrator 24.2.0, SVG Export Plug-In . SVG Version: 6.00 Build 0)  -->
<svg version="1.1" id="etpdB96N0Wg1" shape-rendering="geometricPrecision" text-rendering="geometricPrecision"
	 xmlns="http://www.w3.org/2000/svg" xmlns:xlink="http://www.w3.org/1999/xlink" x="0px" y="0px" viewBox="0 0 865 145"
	 style="enable-background:new 0 0 865 145;" xml:space="preserve">
<style type="text/css">
	.st0{fill:#FFFFFF;}
	.st1{clip-path:url(#SVGID_2_);}
	.st2{clip-path:url(#SVGID_4_);}
	.st3{fill:#C8C8C8;}
	.st4{fill-rule:evenodd;clip-rule:evenodd;fill:#C8C8C8;}
	.st5{fill-rule:evenodd;clip-rule:evenodd;fill:#FFFFFF;}
	.st6{opacity:0.6;}
	.st7{clip-path:url(#SVGID_6_);}
	.st8{clip-path:url(#SVGID_8_);}
	.st9{opacity:0.2;}
	.st10{clip-path:url(#SVGID_10_);}
	.st11{clip-path:url(#SVGID_12_);}
	.st12{fill:#FFFFFF;}
	.st13{fill:#223A7B;}
</style>
<path class="st13" d="M24,0h817c13.3,0,24,10.7,24,24v97c0,13.3-10.7,24-24,24H24c-13.3,0-24-10.7-24-24V24C0,10.7,10.7,0,24,0z"/>
<g>
	<defs>
		<polyline id="SVGID_1_" points="0,145 865,145 865,0 0,0 		"/>
	</defs>
	<clipPath id="SVGID_2_">
		<use xlink:href="#SVGID_1_"  style="overflow:visible;"/>
	</clipPath>
	<g class="st1">
		<g>
			<g>
				<defs>
					<polyline id="SVGID_3_" points="0,0 865,0 865,145 0,145 					"/>
				</defs>
				<clipPath id="SVGID_4_">
					<use xlink:href="#SVGID_3_"  style="overflow:visible;"/>
				</clipPath>
				<g class="st2">
					<g>
						<path class="st3" d="M607.7,82c-4.3,17.3-18.6,30.3-36.2,32.9s-35.1-5.6-44.2-20.9s-8.2-34.5,2.4-48.8s28.8-20.8,46-16.5
							C599.2,34.6,613.5,58.4,607.7,82"/>
						<path class="st0" d="M584.4,65.1c0.9-5.8-3.6-9-9.7-11.1l2-7.9l-4.8-1.2l-1.9,7.7c-1.3-0.3-2.6-0.6-3.9-0.9l1.9-7.8l-4.8-1.2
							l-2,7.9c-1-0.2-2.1-0.5-3.1-0.7l0,0l-6.7-1.7l-1.3,5.2c0,0,3.6,0.8,3.5,0.9c1.4,0.2,2.4,1.4,2.3,2.8l-2.2,9
							c0.2,0,0.3,0.1,0.5,0.2l-0.5-0.1l-3.2,12.7c-0.1,0.4-0.5,0.8-0.9,1s-0.9,0.3-1.3,0.1c0,0.1-3.5-0.9-3.5-0.9l-2.4,5.5l6.3,1.6
							l3.4,0.9l-2,8l4.8,1.2l2-7.9c1.3,0.4,2.6,0.7,3.8,1l-2,7.9l4.8,1.2l2-8c8.2,1.6,14.4,0.9,17-6.5c2.1-6-0.1-9.4-4.4-11.7
							C581.3,71.4,583.7,69.3,584.4,65.1 M573.3,80.5c-1.5,6-11.6,2.8-14.9,1.9l2.7-10.6C564.4,72.6,574.9,74.2,573.3,80.5
							 M574.8,65c-1.4,5.4-9.8,2.7-12.5,2l2.4-9.6C567.5,58,576.3,59.3,574.8,65"/>
						<path class="st4" d="M736,27.8l-18.4,38.6c-0.1,0.3-0.1,0.6,0.2,0.9l49.6,47.5c0.3,0.3,0.7,0.3,1,0l49.7-47.5
							c0.2-0.2,0.3-0.6,0.2-0.9l-18.4-38.6c-0.1-0.3-0.4-0.4-0.7-0.4h-62.5C736.4,27.3,736.1,27.5,736,27.8"/>
						<path class="st5" d="M774.3,70.3L774.3,70.3c-0.4,0-2.2,0.1-6.3,0.1c-3.3,0-5.6-0.1-6.4-0.1c-12.6-0.6-22-2.8-22-5.4
							s9.4-4.8,22-5.4v8.6c0.8,0.1,3.2,0.2,6.5,0.2c3.9,0,5.9-0.2,6.2-0.2v-8.6c12.6,0.6,22,2.8,22,5.4
							C796.3,67.6,786.9,69.8,774.3,70.3L774.3,70.3z M774.3,58.7V51h17.6V39.3H744V51h17.6v7.7c-14.3,0.7-25,3.5-25,6.9
							c0,3.4,10.7,6.2,25,6.9V97h12.7V72.4c14.2-0.7,25-3.5,25-6.9S788.6,59.3,774.3,58.7L774.3,58.7z"/>
						<path class="st4" d="M663.3,27.3c24.3,0,44,19.7,44,44s-19.7,44-44,44s-44-19.7-44-44S639,27.3,663.3,27.3"/>
						<g class="st6">
							<g>
								<defs>
									<rect id="SVGID_5_" x="664.6" y="38.3" width="20.6" height="33.6"/>
								</defs>
								<clipPath id="SVGID_6_">
									<use xlink:href="#SVGID_5_"  style="overflow:visible;"/>
								</clipPath>
								<g class="st7">
									<g>
										<polygon class="st0" points="664.6,38.3 664.6,62.7 685.2,71.9 										"/>
									</g>
								</g>
							</g>
						</g>
						<polygon class="st0" points="664.6,38.3 644,71.9 664.6,62.7 						"/>
						<g class="st6">
							<g>
								<defs>
									<rect id="SVGID_7_" x="664.6" y="75.8" width="20.6" height="28.5"/>
								</defs>
								<clipPath id="SVGID_8_">
									<use xlink:href="#SVGID_7_"  style="overflow:visible;"/>
								</clipPath>
								<g class="st8">
									<g>
										<polygon class="st0" points="664.6,87.7 664.6,104.3 685.3,75.8 										"/>
									</g>
								</g>
							</g>
						</g>
						<polygon class="st0" points="664.6,104.3 664.6,87.7 644,75.8 						"/>
						<g class="st9">
							<g>
								<defs>
									<rect id="SVGID_9_" x="664.6" y="62.7" width="20.6" height="21.2"/>
								</defs>
								<clipPath id="SVGID_10_">
									<use xlink:href="#SVGID_9_"  style="overflow:visible;"/>
								</clipPath>
								<g class="st10">
									<g>
										<polygon class="st0" points="664.6,83.9 685.2,71.9 664.6,62.7 										"/>
									</g>
								</g>
							</g>
						</g>
						<g class="st6">
							<g>
								<defs>
									<rect id="SVGID_11_" x="644" y="62.7" width="20.6" height="21.2"/>
								</defs>
								<clipPath id="SVGID_12_">
									<use xlink:href="#SVGID_11_"  style="overflow:visible;"/>
								</clipPath>
								<g class="st11">
									<g>
										<polygon class="st0" points="644,71.9 664.6,83.9 664.6,62.7 										"/>
									</g>
								</g>
							</g>
						</g>
					</g>
				</g>
			</g>
		</g>
	</g>
</g>
<g>
	<polygon class="st12" points="83.1,31.6 76.4,31.6 69.4,53 62.5,31.6 56.1,31.6 49,52.8 42.2,31.6 34.9,31.6 44.8,61.7 52.3,61.7 
		59.1,41.3 65.7,61.7 73.2,61.7 	"/>
	<polygon class="st12" points="110.3,56.2 93.9,56.2 93.9,49.2 107.9,49.2 107.9,43.8 93.9,43.8 93.9,37.2 109.7,37.2 109.7,31.6 
		87,31.6 87,61.7 110.3,61.7 	"/>
	<path class="st12" d="M133.9,55.3h14l2.7,6.5h7.3l-13.5-30.1h-6.9L124,61.7h7.1L133.9,55.3z M140.8,38.5l4.8,11.5h-9.6L140.8,38.5z
		"/>
	<path class="st12" d="M187.4,56.9l-4.5-4.1c-1,1.2-2.2,2.1-3.4,2.7c-1.3,0.6-2.6,0.9-4.1,0.9c-1.4,0-2.7-0.2-3.9-0.7
		c-1.2-0.5-2.2-1.1-3.1-2s-1.5-1.9-2-3.1c-0.5-1.2-0.7-2.5-0.7-3.9c0-1.4,0.2-2.7,0.7-3.9c0.5-1.2,1.1-2.2,2-3.1
		c0.9-0.9,1.9-1.5,3.1-2c1.2-0.5,2.5-0.7,3.9-0.7c1.5,0,2.9,0.3,4.1,0.9c1.3,0.6,2.4,1.5,3.4,2.6l4.5-4.1c-1.4-1.7-3.2-3.1-5.3-4
		c-2.1-0.9-4.5-1.4-7.1-1.4c-2.4,0-4.5,0.4-6.5,1.1c-2,0.8-3.7,1.8-5.2,3.2c-1.5,1.4-2.6,3.1-3.4,4.9c-0.8,1.9-1.2,4-1.2,6.2
		c0,2.3,0.4,4.3,1.2,6.2c0.8,1.9,2,3.5,3.4,4.9c1.5,1.4,3.2,2.5,5.2,3.2c2,0.8,4.2,1.1,6.5,1.1c2.6,0,5-0.5,7.1-1.4
		C184.1,60,185.9,58.6,187.4,56.9z"/>
	<path class="st12" d="M198.2,39.7c0.9-0.9,1.9-1.5,3.1-2c1.2-0.5,2.5-0.7,3.9-0.7c1.5,0,2.9,0.3,4.1,0.9c1.3,0.6,2.4,1.5,3.4,2.6
		l4.5-4.1c-1.4-1.7-3.2-3.1-5.3-4c-2.1-0.9-4.5-1.4-7.1-1.4c-2.4,0-4.5,0.4-6.5,1.1c-2,0.8-3.7,1.8-5.2,3.2
		c-1.5,1.4-2.6,3.1-3.4,4.9c-0.8,1.9-1.2,4-1.2,6.2c0,2.3,0.4,4.3,1.2,6.2c0.8,1.9,2,3.5,3.4,4.9c1.5,1.4,3.2,2.5,5.2,3.2
		c2,0.8,4.2,1.1,6.5,1.1c2.6,0,5-0.5,7.1-1.4c2.1-0.9,3.9-2.3,5.3-4l-4.5-4.1c-1,1.2-2.2,2.1-3.4,2.7c-1.3,0.6-2.6,0.9-4.1,0.9
		c-1.4,0-2.7-0.2-3.9-0.7c-1.2-0.5-2.2-1.1-3.1-2s-1.5-1.9-2-3.1c-0.5-1.2-0.7-2.5-0.7-3.9c0-1.4,0.2-2.7,0.7-3.9
		C196.7,41.6,197.3,40.6,198.2,39.7z"/>
	<polygon class="st12" points="244.8,56.2 228.4,56.2 228.4,49.2 242.4,49.2 242.4,43.8 228.4,43.8 228.4,37.2 244.2,37.2 
		244.2,31.6 221.5,31.6 221.5,61.7 244.8,61.7 	"/>
	<path class="st12" d="M257.3,53.4h6.1c2.7,0,5-0.4,7-1.3c1.9-0.9,3.5-2.1,4.5-3.8c1.1-1.6,1.6-3.6,1.6-5.8c0-2.3-0.5-4.2-1.6-5.9
		c-1.1-1.6-2.6-2.9-4.5-3.8c-2-0.9-4.3-1.3-7-1.3h-13v30.1h7V53.4z M267.8,38.7c1.1,0.9,1.6,2.2,1.6,3.9c0,1.6-0.5,2.9-1.6,3.8
		c-1.1,0.9-2.7,1.4-4.8,1.4h-5.7V37.3h5.7C265.1,37.3,266.7,37.8,267.8,38.7z"/>
	<polygon class="st12" points="286.4,61.7 293.3,61.7 293.3,37.3 303,37.3 303,31.6 276.7,31.6 276.7,37.3 286.4,37.3 	"/>
	<path class="st12" d="M45.4,91.3c0.9-0.9,1.9-1.5,3.1-2c1.2-0.5,2.5-0.7,3.9-0.7c1.5,0,2.9,0.3,4.1,0.9c1.3,0.6,2.4,1.5,3.4,2.6
		l4.5-4.1c-1.4-1.7-3.2-3.1-5.3-4c-2.1-0.9-4.5-1.4-7.1-1.4c-2.4,0-4.5,0.4-6.5,1.1c-2,0.8-3.7,1.8-5.2,3.2
		c-1.5,1.4-2.6,3.1-3.4,4.9c-0.8,1.9-1.2,4-1.2,6.2c0,2.3,0.4,4.3,1.2,6.2c0.8,1.9,2,3.5,3.4,4.9s3.2,2.5,5.2,3.2
		c2,0.8,4.2,1.1,6.5,1.1c2.6,0,5-0.5,7.1-1.4c2.1-0.9,3.9-2.3,5.3-4l-4.5-4.1c-1,1.2-2.2,2.1-3.4,2.7c-1.3,0.6-2.6,0.9-4.1,0.9
		c-1.4,0-2.7-0.2-3.9-0.7c-1.2-0.5-2.2-1.1-3.1-2s-1.5-1.9-2-3.1c-0.5-1.2-0.7-2.5-0.7-3.9c0-1.4,0.2-2.7,0.7-3.9
		S44.6,92.2,45.4,91.3z"/>
	<path class="st12" d="M88.7,103.7c1.9-0.9,3.5-2.1,4.5-3.7c1.1-1.6,1.6-3.5,1.6-5.8c0-3.4-1.2-6.1-3.5-8c-2.3-1.9-5.6-2.9-9.8-2.9
		H68.7v30.1h7V105h6.1c0.1,0,0.2,0,0.3,0l5.8,8.4h7.5L88.7,103.7C88.7,103.7,88.7,103.7,88.7,103.7z M86.2,90.3
		c1.1,0.9,1.6,2.2,1.6,3.9c0,1.6-0.5,2.9-1.6,3.9c-1.1,0.9-2.7,1.4-4.8,1.4h-5.7V88.9h5.7C83.5,88.9,85.1,89.4,86.2,90.3z"/>
	<polygon class="st12" points="119.2,83.3 111.2,96.6 103.1,83.3 95.7,83.3 107.4,102.6 107.4,113.4 114.4,113.4 114.4,102.7 
		126.1,83.3 	"/>
	<path class="st12" d="M148.5,84.6c-2-0.9-4.3-1.3-7-1.3h-13v30.1h7v-8.3h6.1c2.7,0,5-0.4,7-1.3c1.9-0.9,3.5-2.1,4.5-3.8
		c1.1-1.6,1.6-3.6,1.6-5.8c0-2.3-0.5-4.2-1.6-5.8C152,86.7,150.5,85.4,148.5,84.6z M146,98c-1.1,0.9-2.7,1.4-4.8,1.4h-5.7V88.9h5.7
		c2.2,0,3.8,0.5,4.8,1.4c1.1,0.9,1.6,2.2,1.6,3.9C147.6,95.8,147,97.1,146,98z"/>
	<polygon class="st12" points="154.9,88.9 164.6,88.9 164.6,113.4 171.5,113.4 171.5,88.9 181.2,88.9 181.2,83.3 154.9,83.3 	"/>
	<path class="st12" d="M210.8,87.2c-1.5-1.4-3.2-2.5-5.2-3.3c-2-0.8-4.2-1.2-6.6-1.2c-2.4,0-4.5,0.4-6.5,1.2c-2,0.8-3.8,1.9-5.2,3.3
		c-1.5,1.4-2.6,3.1-3.5,4.9c-0.8,1.9-1.2,4-1.2,6.2c0,2.2,0.4,4.3,1.2,6.2c0.8,1.9,2,3.5,3.4,4.9c1.5,1.4,3.2,2.5,5.2,3.3
		c2,0.8,4.2,1.2,6.6,1.2c2.4,0,4.5-0.4,6.5-1.2c2-0.8,3.7-1.9,5.2-3.2c1.5-1.4,2.6-3,3.5-4.9c0.8-1.9,1.2-4,1.2-6.2
		c0-2.3-0.4-4.3-1.2-6.2C213.4,90.2,212.3,88.6,210.8,87.2z M207.8,102.2c-0.5,1.2-1.1,2.2-2,3.1s-1.9,1.5-3,2
		c-1.1,0.5-2.4,0.7-3.7,0.7c-1.3,0-2.6-0.2-3.7-0.7c-1.1-0.5-2.1-1.1-3-2c-0.8-0.9-1.5-1.9-2-3.1c-0.5-1.2-0.7-2.5-0.7-3.9
		c0-1.4,0.2-2.7,0.7-3.9s1.1-2.2,2-3.1s1.9-1.5,3-2c1.1-0.5,2.4-0.7,3.7-0.7c1.3,0,2.6,0.2,3.7,0.7c1.1,0.5,2.1,1.1,3,2
		c0.8,0.9,1.5,1.9,2,3.1s0.7,2.5,0.7,3.9C208.5,99.7,208.2,101,207.8,102.2z"/>
	<path class="st12" d="M228.6,91.3c0.9-0.9,1.9-1.5,3.1-2c1.2-0.5,2.5-0.7,3.9-0.7c1.5,0,2.9,0.3,4.1,0.9c1.3,0.6,2.4,1.5,3.4,2.6
		l4.5-4.1c-1.4-1.7-3.2-3.1-5.3-4c-2.1-0.9-4.5-1.4-7.1-1.4c-2.4,0-4.5,0.4-6.5,1.1c-2,0.8-3.7,1.8-5.2,3.2
		c-1.5,1.4-2.6,3.1-3.4,4.9c-0.8,1.9-1.2,4-1.2,6.2c0,2.3,0.4,4.3,1.2,6.2c0.8,1.9,2,3.5,3.4,4.9s3.2,2.5,5.2,3.2
		c2,0.8,4.2,1.1,6.5,1.1c2.6,0,5-0.5,7.1-1.4c2.1-0.9,3.9-2.3,5.3-4l-4.5-4.1c-1,1.2-2.2,2.1-3.4,2.7c-1.3,0.6-2.6,0.9-4.1,0.9
		c-1.4,0-2.7-0.2-3.9-0.7c-1.2-0.5-2.2-1.1-3.1-2s-1.5-1.9-2-3.1c-0.5-1.2-0.7-2.5-0.7-3.9c0-1.4,0.2-2.7,0.7-3.9
		S227.8,92.2,228.6,91.3z"/>
	<path class="st12" d="M271.9,99.9c0,2.9-0.6,4.9-1.8,6.2c-1.2,1.3-2.8,1.9-4.9,1.9c-2.1,0-3.8-0.6-4.9-1.9
		c-1.2-1.3-1.8-3.3-1.8-6.2V83.3h-7v16.9c0,4.4,1.2,7.8,3.6,10.2c2.4,2.4,5.7,3.6,10,3.6c4.3,0,7.6-1.2,10-3.6
		c2.4-2.4,3.6-5.8,3.6-10.2V83.3h-6.9V99.9z"/>
	<path class="st12" d="M305.6,103.7c1.9-0.9,3.5-2.1,4.5-3.7c1.1-1.6,1.6-3.5,1.6-5.8c0-3.4-1.2-6.1-3.5-8c-2.3-1.9-5.6-2.9-9.8-2.9
		h-12.9v30.1h7V105h6.1c0.1,0,0.2,0,0.3,0l5.8,8.4h7.5L305.6,103.7C305.6,103.7,305.6,103.7,305.6,103.7z M303.1,90.3
		c1.1,0.9,1.6,2.2,1.6,3.9c0,1.6-0.5,2.9-1.6,3.9c-1.1,0.9-2.7,1.4-4.8,1.4h-5.7V88.9h5.7C300.4,88.9,302,89.4,303.1,90.3z"/>
	<polygon class="st12" points="324.2,100.8 338.2,100.8 338.2,95.4 324.2,95.4 324.2,88.8 340,88.8 340,83.3 317.3,83.3 
		317.3,113.4 340.6,113.4 340.6,107.8 324.2,107.8 	"/>
	<polygon class="st12" points="366.9,101.5 351.9,83.3 346.1,83.3 346.1,113.4 353,113.4 353,95.1 368,113.4 373.7,113.4 
		373.7,83.3 366.9,83.3 	"/>
	<path class="st12" d="M388.8,91.3c0.9-0.9,1.9-1.5,3.1-2c1.2-0.5,2.5-0.7,3.9-0.7c1.5,0,2.9,0.3,4.1,0.9c1.3,0.6,2.4,1.5,3.4,2.6
		l4.5-4.1c-1.4-1.7-3.2-3.1-5.3-4c-2.1-0.9-4.5-1.4-7.1-1.4c-2.4,0-4.5,0.4-6.5,1.1c-2,0.8-3.7,1.8-5.2,3.2
		c-1.5,1.4-2.6,3.1-3.4,4.9c-0.8,1.9-1.2,4-1.2,6.2c0,2.3,0.4,4.3,1.2,6.2c0.8,1.9,2,3.5,3.4,4.9s3.2,2.5,5.2,3.2
		c2,0.8,4.2,1.1,6.5,1.1c2.6,0,5-0.5,7.1-1.4c2.1-0.9,3.9-2.3,5.3-4l-4.5-4.1c-1,1.2-2.2,2.1-3.4,2.7c-1.3,0.6-2.6,0.9-4.1,0.9
		c-1.4,0-2.7-0.2-3.9-0.7c-1.2-0.5-2.2-1.1-3.1-2s-1.5-1.9-2-3.1c-0.5-1.2-0.7-2.5-0.7-3.9c0-1.4,0.2-2.7,0.7-3.9
		S387.9,92.2,388.8,91.3z"/>
	<rect x="412" y="83.3" class="st12" width="7" height="30.1"/>
	<polygon class="st12" points="433.1,100.8 447,100.8 447,95.4 433.1,95.4 433.1,88.8 448.9,88.8 448.9,83.3 426.1,83.3 
		426.1,113.4 449.4,113.4 449.4,107.8 433.1,107.8 	"/>
	<path class="st12" d="M476.7,100.6c-0.6-1-1.5-1.9-2.5-2.5c-1-0.6-2.2-1.1-3.4-1.5c-1.2-0.4-2.5-0.7-3.7-1
		c-1.2-0.3-2.4-0.6-3.4-0.9c-1-0.3-1.9-0.7-2.5-1.1c-0.6-0.5-0.9-1.1-0.9-1.9c0-0.7,0.2-1.2,0.6-1.7s1-0.9,1.9-1.2
		c0.9-0.3,2-0.5,3.3-0.5s2.7,0.2,4.1,0.6c1.4,0.4,2.8,1,4.2,1.8l2.2-5.3c-1.4-0.9-3-1.6-4.9-2c-1.8-0.4-3.7-0.7-5.6-0.7
		c-2.8,0-5.2,0.4-7.1,1.3c-1.9,0.8-3.3,2-4.2,3.4c-0.9,1.4-1.4,3-1.4,4.7c0,1.6,0.3,2.9,1,4c0.6,1,1.5,1.9,2.5,2.5
		c1,0.6,2.2,1.1,3.4,1.5c1.2,0.4,2.5,0.7,3.7,1c1.2,0.3,2.4,0.6,3.4,0.9c1,0.3,1.9,0.7,2.5,1.2c0.6,0.5,0.9,1.1,0.9,1.9
		c0,0.6-0.2,1.2-0.6,1.7c-0.4,0.5-1,0.9-1.9,1.1c-0.8,0.3-2,0.4-3.3,0.4c-1.8,0-3.6-0.3-5.4-0.9c-1.8-0.6-3.3-1.3-4.6-2.3l-2.4,5.2
		c1.3,1,3.1,1.9,5.3,2.5c2.2,0.6,4.5,1,6.9,1c2.9,0,5.2-0.4,7.1-1.3c1.9-0.9,3.3-2,4.2-3.4c0.9-1.4,1.4-3,1.4-4.6
		C477.7,103,477.3,101.7,476.7,100.6z"/>
</g>
</svg>
