<svg id="Layer_1" data-name="Layer 1" xmlns="http://www.w3.org/2000/svg" xmlns:xlink="http://www.w3.org/1999/xlink" viewBox="0 0 865 145"><defs><style>.cls-1{fill:none;}.cls-2,.cls-7{fill:#fff;}.cls-3{clip-path:url(#clip-path);}.cls-4{clip-path:url(#clip-path-2);}.cls-5{fill:#f5911b;}.cls-6{fill:#51ac93;}.cls-6,.cls-7,.cls-8{fill-rule:evenodd;}.cls-8{fill:#627ee8;}.cls-9{opacity:0.6;}.cls-10{clip-path:url(#clip-path-3);}.cls-11{clip-path:url(#clip-path-4);}.cls-12{opacity:0.2;}.cls-13{clip-path:url(#clip-path-5);}.cls-14{clip-path:url(#clip-path-6);}.cls-15{fill:#001966;}</style><clipPath id="clip-path"><polyline class="cls-1" points="0 145 865 145 865 0 0 0"/></clipPath><clipPath id="clip-path-2"><polyline class="cls-1" points="0 0 865 0 865 145 0 145"/></clipPath><clipPath id="clip-path-3"><rect class="cls-1" x="664.63" y="38.33" width="20.61" height="33.59"/></clipPath><clipPath id="clip-path-4"><rect class="cls-1" x="664.63" y="75.76" width="20.62" height="28.53"/></clipPath><clipPath id="clip-path-5"><rect class="cls-1" x="664.63" y="62.72" width="20.61" height="21.17"/></clipPath><clipPath id="clip-path-6"><rect class="cls-1" x="644.02" y="62.72" width="20.61" height="21.17"/></clipPath></defs><title>Artboard 1</title><rect class="cls-2" width="865" height="145" rx="24" ry="24"/><g class="cls-3"><g class="cls-4"><path class="cls-5" d="M607.65,82a44,44,0,1,1-32-53.31,44,44,0,0,1,32,53.31"/><path class="cls-2" d="M584.38,65.05c.88-5.85-3.58-9-9.67-11.1l2-7.93-4.83-1.2-1.92,7.72c-1.27-.32-2.57-.61-3.87-.91L568,43.86l-4.82-1.2-2,7.93c-1-.24-2.08-.48-3.08-.72v0l-6.66-1.66-1.28,5.16s3.58.82,3.51.87A2.57,2.57,0,0,1,555.94,57l-2.25,9a3.93,3.93,0,0,1,.5.16l-.51-.13-3.16,12.65a1.76,1.76,0,0,1-2.21,1.15c0,.07-3.51-.88-3.51-.88l-2.4,5.52,6.28,1.57,3.44.89-2,8,4.82,1.2,2-7.93c1.32.36,2.6.69,3.85,1l-2,7.9,4.83,1.2,2-8c8.23,1.56,14.42.93,17-6.51,2.1-6-.1-9.45-4.43-11.7,3.15-.73,5.53-2.8,6.16-7.09m-11,15.46c-1.49,6-11.58,2.75-14.86,1.94l2.65-10.62c3.27.82,13.76,2.43,12.2,8.68M574.84,65c-1.36,5.45-9.76,2.68-12.48,2l2.4-9.64c2.72.68,11.5,1.95,10.08,7.63"/><path class="cls-6" d="M736,27.77l-18.37,38.6a.75.75,0,0,0,.16.87l49.63,47.55a.76.76,0,0,0,1,0L818.1,67.24a.75.75,0,0,0,.16-.87l-18.37-38.6a.74.74,0,0,0-.68-.43H736.7a.74.74,0,0,0-.68.43"/><path class="cls-7" d="M774.32,70.33h0c-.36,0-2.2.14-6.3.14-3.27,0-5.58-.1-6.4-.14-12.62-.56-22-2.75-22-5.38s9.42-4.82,22-5.39v8.58c.83.06,3.19.2,6.46.2,3.92,0,5.88-.16,6.23-.2V59.56c12.59.56,22,2.76,22,5.38s-9.4,4.82-22,5.38Zm0-11.65V51H791.9V39.28H744V51h17.57v7.68c-14.28.66-25,3.49-25,6.88s10.74,6.22,25,6.88V97h12.7V72.41c14.25-.66,25-3.48,25-6.87s-10.72-6.21-25-6.87Z"/><path class="cls-8" d="M663.26,27.33a44,44,0,1,1-44,44,44,44,0,0,1,44-44"/><g class="cls-9"><g class="cls-10"><polygon class="cls-2" points="664.63 38.33 664.63 62.72 685.24 71.92 664.63 38.33"/></g></g><polygon class="cls-2" points="664.63 38.33 644.02 71.92 664.63 62.72 664.63 38.33"/><g class="cls-9"><g class="cls-11"><polygon class="cls-2" points="664.63 87.72 664.63 104.29 685.26 75.76 664.63 87.72"/></g></g><polygon class="cls-2" points="664.63 104.29 664.63 87.72 644.02 75.76 664.63 104.29"/><g class="cls-12"><g class="cls-13"><polygon class="cls-2" points="664.63 83.89 685.24 71.92 664.63 62.72 664.63 83.89"/></g></g><g class="cls-9"><g class="cls-14"><polygon class="cls-2" points="644.02 71.92 664.63 83.89 664.63 62.72 644.02 71.92"/></g></g></g></g><path class="cls-15" d="M71.32,45c0,8.84-6.63,14.34-17.23,14.34h-8V70.25H36.91V30.57H54.08C64.68,30.57,71.32,36.07,71.32,45ZM62,45c0-4.36-2.83-6.92-8.45-6.92H46.09V51.83h7.48C59.18,51.83,62,49.28,62,45Z"/><path class="cls-15" d="M103.12,70.25,95.47,59.2H87V70.25H77.84V30.57H95c10.6,0,17.23,5.5,17.23,14.4a12.9,12.9,0,0,1-8.16,12.53L113,70.25ZM90.48,27.34,83,19.18h6.46l4.93,4.25,4.93-4.25h6.46L98.3,27.34Zm4,10.71H87V51.88H94.5c5.61,0,8.45-2.61,8.45-6.92S100.12,38.05,94.5,38.05Z"/><path class="cls-15" d="M119.51,30.57h9.18V70.25h-9.18Z"/><path class="cls-15" d="M132.49,65.15l5.1-6.12c2.15,2.89,4.53,4.37,7.37,4.37,3.68,0,5.61-2.21,5.61-6.58V37.94H136.63V30.57H159.7V56.31c0,9.81-4.93,14.63-14.29,14.63C140.09,70.93,135.38,68.89,132.49,65.15Z"/><path class="cls-15" d="M175.86,19.18h9.52l-10.26,8.16h-6.92Zm-7.09,11.39H178V70.25h-9.18Z"/><path class="cls-15" d="M223.48,70.25l-.06-23.81L211.74,66.06H207.6L196,47v23.3h-8.62V30.57H195l14.85,24.66,14.63-24.66H232l.11,39.68Z"/><path class="cls-15" d="M267.64,61.75H249.22l-3.51,8.5h-9.41L254,30.57H263l17.74,39.68h-9.64Zm-2.89-7-6.29-15.19-6.29,15.19Zm-4.48-27.44h-6.92L261,19.18h9.52Z"/><path class="cls-15" d="M321,70.25,321,46.44,309.31,66.06h-4.14L293.55,47v23.3h-8.62V30.57h7.6l14.85,24.66L322,30.57h7.54l.11,39.68Z"/><path class="cls-15" d="M369.8,62.88v7.37H339.07V30.57h30v7.37H348.2v8.62h18.42V53.7H348.2v9.18Z"/><path class="cls-15" d="M47.69,108.67l-4.31,4.49v8.11H36V89.19h7.38v15l14.21-15h8.25l-13.29,14.3,14.07,17.79H58Z"/><path class="cls-15" d="M90.36,121.27l-6.19-8.94H77.35v8.94H69.92V89.19H83.81c8.57,0,13.93,4.45,13.93,11.64A10.43,10.43,0,0,1,91.14,111l7.2,10.31Zm-7-26H77.35v11.18H83.4c4.54,0,6.83-2.11,6.83-5.59S87.94,95.24,83.4,95.24Z"/><path class="cls-15" d="M118.55,109.91v11.37h-7.43V109.81L98.7,89.19h7.88l8.57,14.26,8.57-14.26H131Z"/><path class="cls-15" d="M161.63,100.83c0,7.15-5.36,11.6-13.93,11.6h-6.46v8.85h-7.43V89.19H147.7C156.27,89.19,161.63,93.63,161.63,100.83Zm-7.52,0c0-3.53-2.29-5.59-6.83-5.59h-6.05v11.14h6.05C151.82,106.38,154.11,104.31,154.11,100.83Z"/><path class="cls-15" d="M172.67,95.24H162.41V89.19h28v6.05H180.1v26h-7.43Z"/><path class="cls-15" d="M191.88,105.23c0-9.53,7.43-16.59,17.56-16.59s17.56,7,17.56,16.59-7.47,16.59-17.56,16.59S191.88,114.77,191.88,105.23Zm27.59,0c0-6.1-4.31-10.27-10-10.27s-10,4.17-10,10.27,4.31,10.27,10,10.27S219.47,111.33,219.47,105.23Z"/><path class="cls-15" d="M261.77,121.27l0-19.25-9.44,15.86h-3.35l-9.4-15.45v18.84h-7V89.19h6.14l12,19.94,11.83-19.94h6.1l.09,32.09Z"/><path class="cls-15" d="M301.19,115.31v6H276.34V89.19h24.25v6H283.72v7h14.9v5.78h-14.9v7.43ZM285.33,86.58,279.28,80h5.23l4,3.44,4-3.44h5.23l-6.05,6.6Z"/><path class="cls-15" d="M336.52,89.19v32.09h-6.1l-16-19.48v19.48h-7.33V89.19h6.14l16,19.48V89.19Z"/><path class="cls-15" d="M359.53,109.91v11.37H352.1V109.81L339.68,89.19h7.88l8.57,14.26,8.57-14.26H372Z"/></svg>