<?xml version="1.0" encoding="UTF-8"?> <!-- Generator: Adobe Illustrator 23.1.0, SVG Export Plug-In . SVG Version: 6.00 Build 0) --> <svg xmlns="http://www.w3.org/2000/svg" xmlns:xlink="http://www.w3.org/1999/xlink" version="1.1" id="Layer_1" x="0px" y="0px" viewBox="0 0 891.5 182" style="enable-background:new 0 0 891.5 182;" xml:space="preserve"> <style type="text/css"> .st0{display:none;} .st1{display:none;fill:#EC2B3A;} .st2{display:none;fill:#FAE043;} .st3{fill:#FFFFFF;} .st4{fill:#17467D;} .st5{fill:#0B223C;} </style> <rect x="-0.3" y="172.8" class="st0" width="85" height="11"></rect> <rect x="179.5" y="172.8" class="st1" width="85" height="11"></rect> <rect x="89.6" y="172.7" class="st2" width="85" height="11"></rect> <g> <g> <path class="st3" d="M123.4,145.2v9.8H74.6V69h11.6v76.2H123.4z"></path> <path class="st3" d="M189.3,145.5l-0.1,9.5h-53V69h53v9.5h-41.3v28.6h33.5v9.1h-33.5v29.3H189.3z"></path> <path class="st3" d="M217.2,155h-11.6V69h11.6V155z"></path> </g> </g> <path class="st4" d="M63.1,7.1h220.2c9.9,0,18,8.1,18,18V157c0,9.9-8.1,18-18,18H63.1c-9.9,0-18-8.1-18-18V25.1 C45.1,15.2,53.1,7.1,63.1,7.1z"></path> <g> <g> <path class="st3" d="M120.7,144.5v9.8H71.9v-86h11.6v76.2H120.7z"></path> <path class="st3" d="M186.6,144.8l-0.1,9.5h-53v-86h53v9.5h-41.3v28.6h33.5v9.1h-33.5v29.3H186.6z"></path> <path class="st3" d="M214.5,154.3h-11.6v-86h11.6V154.3z"></path> </g> </g> <g> <g> <path class="st5" d="M391.3,136.9c0.6,0,1.2,0.3,1.7,0.8l4.6,5c-3.5,4.1-7.8,7.3-12.8,9.5s-11.1,3.4-18.2,3.4 c-6.2,0-11.8-1.1-16.8-3.2c-5-2.1-9.3-5.1-12.9-9c-3.6-3.9-6.3-8.5-8.3-13.9c-2-5.4-2.9-11.3-2.9-17.8c0-6.5,1-12.4,3.1-17.8 c2-5.4,4.9-10,8.6-13.9c3.7-3.9,8.1-6.9,13.3-9c5.2-2.1,10.9-3.2,17.1-3.2c6.1,0,11.5,1,16.2,2.9c4.7,2,8.8,4.6,12.4,8l-3.8,5.3 c-0.2,0.4-0.5,0.7-0.9,1c-0.4,0.3-0.9,0.4-1.5,0.4c-0.7,0-1.6-0.4-2.6-1.2c-1-0.8-2.4-1.7-4.1-2.6c-1.7-1-3.8-1.8-6.3-2.6 c-2.5-0.8-5.6-1.2-9.3-1.2c-4.4,0-8.5,0.8-12.2,2.3c-3.7,1.5-6.9,3.8-9.5,6.7c-2.7,2.9-4.7,6.5-6.2,10.7 c-1.5,4.2-2.2,8.9-2.2,14.2c0,5.4,0.8,10.1,2.3,14.3c1.5,4.2,3.6,7.8,6.3,10.7s5.8,5.1,9.4,6.6c3.6,1.5,7.5,2.3,11.7,2.3 c2.6,0,4.9-0.2,6.9-0.5c2.1-0.3,4-0.8,5.7-1.4c1.7-0.6,3.4-1.4,4.9-2.4s3-2.2,4.5-3.5C389.9,137.2,390.6,136.9,391.3,136.9z M387.9,45.7l-14.3,16.3h-10l-14.3-16.3h7.8c0.5,0,1,0.1,1.7,0.2s1.2,0.5,1.7,1.2l7.3,9.1l0.7,1.1l0.7-1.1l7.3-9 c0.5-0.7,1.1-1.1,1.8-1.3s1.2-0.2,1.7-0.2H387.9z"></path> <path class="st5" d="M456.7,146.2c-1.3,1.6-2.9,3-4.7,4.2c-1.8,1.2-3.8,2.2-5.9,2.9c-2.1,0.8-4.3,1.3-6.5,1.7 c-2.2,0.4-4.5,0.6-6.7,0.6c-4.2,0-8.1-0.7-11.6-2.1s-6.6-3.5-9.2-6.2c-2.6-2.7-4.6-6.1-6-10.2c-1.4-4-2.2-8.7-2.2-13.9 c0-4.2,0.6-8.2,1.9-11.9c1.3-3.7,3.2-6.9,5.6-9.6c2.4-2.7,5.4-4.8,8.9-6.4c3.5-1.5,7.5-2.3,11.9-2.3c3.6,0,7,0.6,10.1,1.8 c3.1,1.2,5.8,3,8,5.3c2.3,2.3,4,5.1,5.3,8.5c1.3,3.4,1.9,7.2,1.9,11.6c0,1.7-0.2,2.8-0.5,3.4c-0.4,0.6-1,0.8-2,0.8h-40.6 c0.1,3.8,0.6,7.2,1.6,10c0.9,2.8,2.3,5.2,3.9,7.1c1.7,1.9,3.7,3.3,6,4.3c2.3,0.9,4.9,1.4,7.8,1.4c2.7,0,5-0.3,6.9-0.9 c1.9-0.6,3.6-1.3,5-2c1.4-0.7,2.6-1.4,3.5-2s1.8-0.9,2.4-0.9c0.9,0,1.6,0.3,2,1L456.7,146.2z M448.1,117.7c0-2.5-0.4-4.8-1-6.8 c-0.7-2.1-1.7-3.8-3.1-5.3c-1.3-1.5-3-2.7-4.9-3.5c-1.9-0.8-4.1-1.2-6.5-1.2c-5.1,0-9.2,1.5-12.1,4.5c-3,3-4.8,7.1-5.5,12.4H448.1 z"></path> <path class="st5" d="M506.2,103.9c-0.5,0.9-1.2,1.3-2.2,1.3c-0.6,0-1.3-0.2-2-0.7s-1.7-0.9-2.8-1.5s-2.4-1-3.9-1.5 c-1.5-0.5-3.3-0.7-5.4-0.7c-1.8,0-3.4,0.2-4.9,0.7c-1.4,0.5-2.7,1.1-3.7,1.9c-1,0.8-1.8,1.7-2.3,2.8s-0.8,2.2-0.8,3.4 c0,1.6,0.5,2.9,1.3,3.9c0.9,1,2.1,1.9,3.6,2.7c1.5,0.8,3.2,1.4,5,2c1.9,0.6,3.8,1.2,5.8,1.9c2,0.7,3.9,1.4,5.8,2.2 c1.9,0.8,3.6,1.8,5,3c1.5,1.2,2.7,2.7,3.6,4.4c0.9,1.7,1.4,3.8,1.4,6.3c0,2.8-0.5,5.4-1.5,7.8c-1,2.4-2.5,4.4-4.4,6.2 c-2,1.7-4.4,3.1-7.2,4.1s-6.1,1.5-9.8,1.5c-4.2,0-8.1-0.7-11.5-2.1c-3.4-1.4-6.4-3.1-8.8-5.3l2.5-4.1c0.3-0.5,0.7-0.9,1.1-1.2 c0.4-0.3,1-0.4,1.7-0.4c0.7,0,1.5,0.3,2.3,0.8c0.8,0.6,1.8,1.2,2.9,1.9c1.1,0.7,2.5,1.3,4.2,1.9c1.6,0.6,3.7,0.8,6.1,0.8 c2.1,0,3.9-0.3,5.5-0.8c1.6-0.5,2.9-1.3,3.9-2.2c1-0.9,1.8-2,2.3-3.2c0.5-1.2,0.8-2.5,0.8-3.8c0-1.7-0.5-3.1-1.3-4.2 c-0.9-1.1-2.1-2-3.6-2.8c-1.5-0.8-3.2-1.5-5.1-2s-3.8-1.2-5.8-1.8c-2-0.6-3.9-1.4-5.8-2.2c-1.9-0.8-3.6-1.8-5.1-3.1 c-1.5-1.2-2.7-2.8-3.6-4.6c-0.9-1.8-1.4-4-1.4-6.6c0-2.3,0.5-4.5,1.4-6.7c1-2.1,2.4-4,4.2-5.6c1.8-1.6,4.1-2.9,6.8-3.9 s5.7-1.4,9.2-1.4c4,0,7.6,0.6,10.8,1.9c3.2,1.3,5.9,3,8.3,5.2L506.2,103.9z"></path> <path class="st5" d="M533.5,66.3v52h2.8c0.8,0,1.5-0.1,2-0.3c0.5-0.2,1.1-0.7,1.7-1.3l19.2-20.6c0.6-0.7,1.1-1.2,1.8-1.6 c0.6-0.4,1.4-0.6,2.5-0.6h9.7l-22.4,23.8c-1.1,1.4-2.2,2.4-3.5,3.2c0.7,0.5,1.4,1,1.9,1.7s1.1,1.3,1.7,2.1l23.8,30H565 c-0.9,0-1.7-0.2-2.4-0.5c-0.7-0.3-1.2-0.8-1.7-1.6l-20-24.9c-0.6-0.8-1.2-1.4-1.8-1.7c-0.6-0.3-1.5-0.4-2.7-0.4h-3.1v29h-10.7 V66.3H533.5z"></path> <path class="st5" d="M582.1,102.5c3.4-3.2,7-5.7,10.9-7.3c3.9-1.6,8.2-2.4,12.9-2.4c3.4,0,6.4,0.6,9.1,1.7 c2.6,1.1,4.9,2.7,6.7,4.7c1.8,2,3.2,4.4,4.1,7.3c0.9,2.8,1.4,6,1.4,9.4v38.9h-4.7c-1,0-1.8-0.2-2.4-0.5c-0.6-0.3-1-1-1.3-2 l-1.2-5.8c-1.6,1.5-3.2,2.8-4.7,3.9c-1.5,1.1-3.1,2.1-4.8,2.9c-1.7,0.8-3.5,1.4-5.4,1.8c-1.9,0.4-4,0.6-6.3,0.6 c-2.4,0-4.6-0.3-6.7-1c-2.1-0.7-3.9-1.6-5.4-3c-1.5-1.3-2.8-3-3.7-5c-0.9-2-1.3-4.4-1.3-7.2c0-2.4,0.7-4.7,2-6.9 c1.3-2.2,3.5-4.2,6.4-5.9s6.8-3.1,11.6-4.2c4.8-1.1,10.6-1.7,17.5-1.9v-4.7c0-4.7-1-8.3-3.1-10.7c-2-2.4-5-3.6-8.9-3.6 c-2.6,0-4.9,0.3-6.6,1c-1.8,0.7-3.3,1.4-4.6,2.2c-1.3,0.8-2.4,1.6-3.4,2.2c-0.9,0.7-1.9,1-2.8,1c-0.7,0-1.3-0.2-1.9-0.6 c-0.5-0.4-1-0.8-1.3-1.4L582.1,102.5z M616.6,127.3c-4.9,0.2-9.1,0.6-12.6,1.2c-3.5,0.6-6.3,1.4-8.5,2.4c-2.2,1-3.8,2.2-4.7,3.5 c-1,1.4-1.5,2.9-1.5,4.6c0,1.6,0.3,3,0.8,4.1c0.5,1.2,1.2,2.1,2.1,2.8c0.9,0.7,2,1.3,3.2,1.6c1.2,0.3,2.5,0.5,3.9,0.5 c1.9,0,3.6-0.2,5.2-0.6c1.6-0.4,3-0.9,4.4-1.6c1.4-0.7,2.7-1.6,4-2.6s2.5-2.1,3.7-3.4V127.3z M622,67.7l-14,15.5 c-0.6,0.6-1.1,1-1.7,1.3c-0.5,0.3-1.2,0.4-2.1,0.4H598l8.9-14.5c0.6-0.9,1.2-1.6,1.8-2c0.7-0.4,1.6-0.6,2.9-0.6H622z"></path> </g> </g> </svg> 