<svg xmlns="http://www.w3.org/2000/svg" width="49.095" height="54.197" viewBox="0 0 49.095 54.197"><defs><style>.a{fill:#ff872e;}</style></defs><g transform="translate(-24.064)"><path class="a" d="M71.374,169.785h-3.23v-.363a1.639,1.639,0,0,0-1.638-1.637h-6.37a.8.8,0,1,0,0,1.59h6.37a.047.047,0,0,1,.047.047v9.694a.8.8,0,0,0,1.59,0v-7.741h3.23a.2.2,0,0,1,.195.195v27.736a3.3,3.3,0,0,1-3.3,3.3H28.953a3.3,3.3,0,0,1-3.3-3.3V171.57a.2.2,0,0,1,.195-.195h3.336v27.191a2.036,2.036,0,0,0,2.033,2.033H66.111a2.035,2.035,0,0,0,2.033-2.033V182.507a.8.8,0,0,0-1.59,0v11.441H53.691a5.8,5.8,0,0,0-4.232,1.83V185.494a.8.8,0,1,0-1.59,0v10.284a5.8,5.8,0,0,0-4.232-1.83H40.025a.8.8,0,1,0,0,1.59h3.613a4.238,4.238,0,0,1,4.162,3.471H31.218a.444.444,0,0,1-.443-.443v-3.028h5.859a.8.8,0,1,0,0-1.59H30.775V169.422a.047.047,0,0,1,.047-.047h6.37a.8.8,0,1,0,0-1.59h-6.37a1.639,1.639,0,0,0-1.638,1.637v.363H25.849a1.787,1.787,0,0,0-1.785,1.785v27.736a4.895,4.895,0,0,0,4.889,4.889H68.269a4.9,4.9,0,0,0,4.889-4.889V171.57a1.787,1.787,0,0,0-1.785-1.785ZM53.691,195.538H66.554v3.028a.444.444,0,0,1-.443.443H49.529a4.238,4.238,0,0,1,4.162-3.471Z" transform="translate(0 -149.999)"/><path class="a" d="M150.068,11.155a.8.8,0,0,0,.866-.717,9.778,9.778,0,1,1,17.731,6.557l-.019.028-5.087,7.92a.8.8,0,0,0-.126.43V26.4a.379.379,0,0,1-.379.379H163l.506-8.594h.906a2.353,2.353,0,0,0,2.35-2.35v-.1a2.35,2.35,0,0,0-4.7-.138l-.059.995H159.22l-.059-.995a2.35,2.35,0,0,0-4.7.138v.1a2.353,2.353,0,0,0,2.35,2.35h.906l.506,8.589a.378.378,0,0,1-.325-.374v-1.03a.8.8,0,0,0-.126-.43l-5.088-7.92-.019-.028a9.687,9.687,0,0,1-1.531-3.428.8.8,0,0,0-1.55.356,11.27,11.27,0,0,0,1.771,3.973l4.952,7.71v.8a1.971,1.971,0,0,0,1.174,1.8v1.344a2.568,2.568,0,0,0,2.566,2.566h1.23a2.568,2.568,0,0,0,2.566-2.566V28.2a1.971,1.971,0,0,0,1.174-1.8v-.8l4.952-7.71a11.368,11.368,0,1,0-20.624-7.608.8.8,0,0,0,.717.866ZM163.654,15.7a.76.76,0,0,1,1.519.045v.1a.761.761,0,0,1-.76.76H163.6Zm-6.839.9a.761.761,0,0,1-.76-.76v-.1a.76.76,0,0,1,1.519-.045l.053.9Zm5.1,1.59-.506,8.594h-1.588l-.506-8.594Zm.343,11.36a.977.977,0,0,1-.976.976h-1.23a.977.977,0,0,1-.976-.976V28.372h3.181v1.175Z" transform="translate(-112.003)"/><path class="a" d="M380.806,30.7a.792.792,0,0,0,.524-.2l1.735-1.523a.795.795,0,1,0-1.049-1.195L380.281,29.3a.8.8,0,0,0,.525,1.392Z" transform="translate(-318.215 -24.66)"/><path class="a" d="M380.281,90.44l1.735,1.523a.8.8,0,0,0,1.049-1.195l-1.735-1.523a.8.8,0,0,0-1.049,1.195Z" transform="translate(-318.215 -79.608)"/><path class="a" d="M101.173,28.975l1.735,1.523a.8.8,0,0,0,1.049-1.195l-1.735-1.523a.795.795,0,0,0-1.049,1.195Z" transform="translate(-68.694 -24.659)"/><path class="a" d="M101.7,92.162a.792.792,0,0,0,.524-.2l1.735-1.523a.8.8,0,0,0-1.049-1.195l-1.735,1.523a.8.8,0,0,0,.525,1.392Z" transform="translate(-68.695 -79.609)"/><path class="a" d="M110.324,253.449a.8.8,0,0,0-.8-.8H101.7a.8.8,0,0,0,0,1.59h7.831A.8.8,0,0,0,110.324,253.449Z" transform="translate(-68.694 -225.872)"/><path class="a" d="M124.063,290.8h-8.817a.795.795,0,1,0,0,1.59h8.817a.795.795,0,1,0,0-1.59Z" transform="translate(-80.806 -259.979)"/><path class="a" d="M124.063,327.346h-8.817a.8.8,0,1,0,0,1.59h8.817a.8.8,0,1,0,0-1.59Z" transform="translate(-80.806 -292.647)"/><path class="a" d="M124.063,363.887h-8.817a.795.795,0,1,0,0,1.59h8.817a.795.795,0,1,0,0-1.59Z" transform="translate(-80.806 -325.314)"/><path class="a" d="M331.917,253.449a.8.8,0,0,0-.8-.8h-7.831a.8.8,0,1,0,0,1.59h7.831A.8.8,0,0,0,331.917,253.449Z" transform="translate(-266.798 -225.872)"/><path class="a" d="M309.259,290.8h-8.817a.795.795,0,0,0,0,1.59h8.817a.795.795,0,0,0,0-1.59Z" transform="translate(-246.371 -259.979)"/><path class="a" d="M309.259,327.346h-8.817a.8.8,0,0,0,0,1.59h8.817a.8.8,0,0,0,0-1.59Z" transform="translate(-246.371 -292.647)"/><path class="a" d="M309.259,363.887h-8.817a.795.795,0,0,0,0,1.59h8.817a.795.795,0,0,0,0-1.59Z" transform="translate(-246.371 -325.314)"/></g></svg>