<svg id="Vrstva_1" data-name="Vrstva 1" xmlns="http://www.w3.org/2000/svg" viewBox="0 0 765.17 75.71"><defs><style>.cls-1{fill:#fff;}.cls-2{fill:#ff8000;}</style></defs><path class="cls-1" d="M637.11,561.3H602l-6.71,16.22h-18l33.74-75.7h17.3l33.85,75.7H643.82ZM631.6,548l-12-29-12,29Z" transform="translate(-577.31 -501.82)"/><path class="cls-1" d="M739,577.52l-.11-45.42-22.28,37.42H708.7l-22.17-36.44v44.44H670.09v-75.7h14.49l28.34,47.05,27.9-47.05H755.2l.22,75.7Z" transform="translate(-577.31 -501.82)"/><path class="cls-1" d="M773.36,501.82h17.52v61.43h38v14.27H773.36Z" transform="translate(-577.31 -501.82)"/><path class="cls-1" d="M866.69,571.32l4-7.6c4.5,3.2,11.7,5.5,18.6,5.5,8.9,0,12.6-2.7,12.6-7.2,0-11.9-33.5-1.6-33.5-22.7,0-9.5,8.5-15.9,22.1-15.9,6.9,0,14.7,1.8,19.3,4.8l-4.1,7.6a27.68,27.68,0,0,0-15.3-4.2c-8.4,0-12.5,3.1-12.5,7.3,0,12.5,33.6,2.3,33.6,22.9,0,9.6-8.8,15.7-22.9,15.7C879.79,577.52,871.09,574.82,866.69,571.32Z" transform="translate(-577.31 -501.82)"/><path class="cls-1" d="M918.58,550.42c0-15.8,11.71-27,27.61-27s27.5,11.2,27.5,27-11.6,27.1-27.5,27.1S918.58,566.22,918.58,550.42Zm45.41,0c0-11.3-7.6-18.6-17.8-18.6s-17.9,7.3-17.9,18.6,7.7,18.7,17.9,18.7S964,561.72,964,550.42Z" transform="translate(-577.31 -501.82)"/><path class="cls-1" d="M987,501.9h9.6v75.62H987Z" transform="translate(-577.31 -501.82)"/><path class="cls-1" d="M1064.29,523.92v53h-9.1v-8c-3.9,5.5-10.5,8.6-18,8.6-13.71,0-22.81-7.5-22.81-23.1v-30.5h9.6v29.4c0,10.4,5.2,15.6,14.31,15.6,10,0,16.4-6.2,16.4-17.6v-27.4Z" transform="translate(-577.31 -501.82)"/><path class="cls-1" d="M1112.38,573.82c-2.9,2.5-7.3,3.7-11.6,3.7-10.7,0-16.8-5.9-16.8-16.6v-29.1h-9v-7.9h9v-11.6h9.6v11.6h15.2v7.9h-15.2v28.7c0,5.7,3,8.9,8.3,8.9a12.09,12.09,0,0,0,7.5-2.5Z" transform="translate(-577.31 -501.82)"/><path class="cls-1" d="M1122.28,508.12a6.32,6.32,0,0,1,6.5-6.3,6.25,6.25,0,1,1-6.5,6.3Zm1.7,16.4h9.6v53H1124Z" transform="translate(-577.31 -501.82)"/><path class="cls-1" d="M1147,550.42c0-15.8,11.7-27,27.6-27s27.5,11.2,27.5,27-11.6,27.1-27.5,27.1S1147,566.22,1147,550.42Zm45.4,0c0-11.3-7.6-18.6-17.8-18.6s-17.9,7.3-17.9,18.6,7.7,18.7,17.9,18.7S1192.38,561.72,1192.38,550.42Z" transform="translate(-577.31 -501.82)"/><path class="cls-1" d="M1265.68,547v30.5h-9.6v-29.4c0-10.4-5.2-15.5-14.3-15.5-10.2,0-16.8,6.1-16.8,17.6v27.3h-9.6v-53h9.2v8c3.9-5.4,10.7-8.5,19.1-8.5C1256.58,524,1265.68,531.42,1265.68,547Z" transform="translate(-577.31 -501.82)"/><path class="cls-1" d="M1276.78,571.32l4-7.6c4.5,3.2,11.7,5.5,18.6,5.5,8.9,0,12.6-2.7,12.6-7.2,0-11.9-33.5-1.6-33.5-22.7,0-9.5,8.5-15.9,22.1-15.9,6.9,0,14.7,1.8,19.3,4.8l-4.1,7.6a27.68,27.68,0,0,0-15.3-4.2c-8.4,0-12.5,3.1-12.5,7.3,0,12.5,33.6,2.3,33.6,22.9,0,9.6-8.8,15.7-22.9,15.7C1289.88,577.52,1281.18,574.82,1276.78,571.32Z" transform="translate(-577.31 -501.82)"/><path class="cls-2" d="M1329.08,570.62a6.68,6.68,0,0,1,6.8-6.8,6.58,6.58,0,0,1,6.6,6.8,6.67,6.67,0,0,1-6.6,6.9A6.77,6.77,0,0,1,1329.08,570.62Z" transform="translate(-577.31 -501.82)"/></svg>