<?xml version="1.0" standalone="no"?>
<!DOCTYPE svg PUBLIC "-//W3C//DTD SVG 20010904//EN"
 "http://www.w3.org/TR/2001/REC-SVG-20010904/DTD/svg10.dtd">
<svg version="1.0" xmlns="http://www.w3.org/2000/svg"
 width="342.000000pt" height="70.000000pt" viewBox="0 0 342.000000 70.000000"
 preserveAspectRatio="xMidYMid meet">

<g transform="translate(0.000000,70.000000) scale(0.100000,-0.100000)"
fill="#000000" stroke="none">
<path d="M0 350 l0 -350 1710 0 1710 0 0 350 0 350 -1710 0 -1710 0 0 -350z
m918 331 c8 -5 12 -17 10 -27 -3 -18 -16 -19 -223 -19 -207 0 -220 1 -223 19
-2 10 2 22 10 27 17 11 409 11 426 0z m-591 -27 c16 -12 34 -33 41 -48 12 -24
12 -30 -4 -47 -34 -38 -74 -20 -105 46 -12 25 -19 29 -44 27 -52 -6 -76 -41
-59 -86 3 -9 50 -39 104 -66 75 -39 101 -58 115 -84 24 -44 16 -110 -18 -143
-23 -24 -24 -26 -9 -67 14 -39 14 -45 -4 -81 -10 -22 -35 -50 -54 -63 -30 -21
-45 -23 -107 -20 -64 3 -76 7 -103 33 -38 37 -41 80 -5 97 33 15 69 -9 85 -58
11 -33 15 -36 43 -30 55 11 78 46 61 91 -4 9 -46 36 -94 60 -101 51 -140 90
-140 141 0 37 19 83 44 103 13 11 13 16 0 48 -26 60 5 130 70 159 45 21 148
14 183 -12z m2444 -80 c9 -11 10 -20 2 -32 -14 -23 -47 -27 -63 -7 -28 34 -50
8 -50 -62 0 -31 2 -33 36 -33 28 0 35 -3 32 -17 -2 -12 -14 -19 -36 -21 l-33
-3 3 -97 c3 -92 4 -97 26 -100 12 -2 22 -10 22 -18 0 -11 -17 -14 -80 -14 -64
0 -80 3 -80 15 0 8 7 15 15 15 12 0 15 18 15 99 0 90 -2 99 -20 104 -27 7 -26
35 1 39 16 2 25 15 35 46 14 48 38 80 69 93 34 14 92 10 106 -7z m-1841 -19
l0 -25 -219 0 c-220 0 -240 3 -227 35 4 13 42 15 226 15 l220 0 0 -25z m1134
3 c14 -23 -3 -52 -33 -56 -42 -6 -67 38 -39 66 17 17 58 11 72 -10z m420 0
c14 -23 -3 -52 -33 -56 -42 -6 -67 38 -39 66 17 17 58 11 72 -10z m-1203 -185
l-3 -161 41 -7 c25 -4 41 -12 41 -21 0 -11 -22 -14 -110 -14 -90 0 -110 3
-110 15 0 8 14 17 35 21 l35 6 0 134 0 134 -30 0 c-52 0 -35 26 28 43 31 8 61
14 67 13 6 -2 8 -64 6 -163z m369 127 l0 -30 -85 0 -85 0 0 -38 c0 -37 1 -38
34 -34 80 9 146 -40 146 -109 0 -57 -18 -86 -67 -110 -73 -35 -165 -11 -179
48 -5 19 -2 30 11 39 25 18 53 1 57 -33 6 -56 87 -37 103 24 15 60 -36 109
-100 97 -19 -3 -35 -1 -39 5 -4 5 -4 46 0 90 l7 81 98 0 99 0 0 -30z m-722
-44 c2 -10 -2 -22 -10 -27 -15 -10 -398 -12 -422 -3 -16 6 -22 35 -9 48 4 3
104 5 222 4 202 -3 216 -4 219 -22z m1132 -127 c0 -112 1 -121 20 -126 11 -3
20 -12 20 -19 0 -11 -18 -14 -75 -14 -60 0 -75 3 -75 15 0 8 9 15 20 15 19 0
20 7 20 95 0 88 -1 95 -20 95 -36 0 -21 28 23 43 70 25 67 30 67 -104z m245
109 c25 -11 31 -31 19 -62 -9 -23 -44 -20 -44 3 0 27 -26 44 -55 37 -51 -13
-18 -76 40 -76 7 0 28 -12 45 -26 27 -23 31 -32 28 -67 -5 -67 -78 -101 -166
-78 -40 11 -42 13 -42 51 0 33 3 40 20 40 15 0 22 -9 27 -30 5 -27 9 -30 43
-30 76 0 76 50 -1 75 -87 29 -113 92 -60 146 24 23 38 29 75 29 25 0 57 -5 71
-12z m175 -109 c0 -112 1 -121 20 -126 11 -3 20 -12 20 -19 0 -11 -18 -14 -75
-14 -60 0 -75 3 -75 15 0 8 9 15 20 15 19 0 20 7 20 95 0 88 -1 95 -20 95 -36
0 -21 28 23 43 70 25 67 30 67 -104z m609 106 c41 -21 57 -77 26 -89 -25 -9
-45 4 -53 38 -11 41 -40 45 -72 11 -20 -22 -25 -37 -25 -82 0 -48 4 -58 28
-79 34 -29 66 -31 100 -4 32 25 46 10 23 -25 -40 -62 -158 -54 -203 14 -28 41
-31 117 -8 162 32 61 121 87 184 54z m-1169 -8 c0 -7 -24 -48 -53 -92 -30 -44
-62 -92 -71 -107 l-18 -28 46 0 c43 0 46 2 54 33 6 22 15 33 30 35 18 3 22 -1
22 -25 0 -73 0 -73 -126 -73 -83 0 -114 3 -114 12 0 7 32 58 70 114 39 56 70
105 70 108 0 3 -18 6 -40 6 -37 0 -41 -3 -47 -31 -4 -23 -10 -29 -24 -25 -11
4 -19 8 -19 11 0 3 0 21 0 40 l0 35 110 0 c82 0 110 -3 110 -13z m1470 0 c0
-7 -24 -48 -53 -92 -30 -44 -62 -92 -71 -107 l-18 -28 46 0 c43 0 46 2 54 33
6 22 15 33 30 35 24 4 27 -10 16 -67 l-6 -31 -114 0 c-89 0 -114 3 -114 13 0
8 32 59 70 115 39 56 70 104 70 107 0 3 -18 5 -40 5 -37 0 -41 -3 -47 -31 -4
-23 -10 -29 -27 -27 -11 2 -21 9 -20 16 1 6 2 26 3 42 l1 30 110 0 c82 0 110
-3 110 -13z m-2465 -77 l0 -25 -218 -3 c-187 -2 -218 0 -223 13 -4 8 -4 22 0
30 5 13 36 15 223 13 l218 -3 0 -25z m-7 -79 c8 -5 12 -17 10 -27 -3 -18 -16
-19 -223 -19 -207 0 -220 1 -223 19 -2 10 2 22 10 27 17 11 409 11 426 0z
m1914 -28 c22 -20 23 -41 1 -65 -20 -22 -41 -23 -65 -1 -22 20 -23 41 -1 65
20 22 41 23 65 1z m-1902 -98 l0 -25 -219 0 c-220 0 -240 3 -227 35 4 13 42
15 226 15 l220 0 0 -25z m-2 -99 c2 -10 -2 -22 -10 -27 -15 -10 -398 -12 -422
-3 -16 6 -22 35 -9 48 4 3 104 5 222 4 202 -3 216 -4 219 -22z"/>
<path d="M110 414 c-16 -42 10 -70 107 -115 47 -21 86 -39 88 -39 2 0 6 12 9
26 11 41 -18 72 -102 112 -43 20 -80 38 -84 40 -5 2 -13 -9 -18 -24z"/>
</g>
</svg>
