<?xml version="1.0" encoding="UTF-8" standalone="no" ?>
<!DOCTYPE svg PUBLIC "-//W3C//DTD SVG 1.1//EN" "http://www.w3.org/Graphics/SVG/1.1/DTD/svg11.dtd">
<svg xmlns="http://www.w3.org/2000/svg" xmlns:xlink="http://www.w3.org/1999/xlink" version="1.1" width="660" height="240" viewBox="0 0 660 240" xml:space="preserve">
<desc>Created with Fabric.js 3.6.6</desc>
<defs>
</defs>
<g transform="matrix(4.53 0 0 4.53 332.09 97.91)"  >
<g style=""   >
		<g transform="matrix(1 0 0 1 -50 18.06)"  >
<rect style="stroke: none; stroke-width: 1; stroke-dasharray: none; stroke-linecap: butt; stroke-dashoffset: 0; stroke-linejoin: miter; stroke-miterlimit: 4; fill: rgb(255,255,255); fill-opacity: 0; fill-rule: nonzero; opacity: 1;"  x="-50" y="-50" rx="0" ry="0" width="100" height="100" />
</g>
		<g transform="matrix(1 0 0 1 0 5.56)" id="6"  >
<rect style="stroke: none; stroke-width: 1; stroke-dasharray: none; stroke-linecap: butt; stroke-dashoffset: 0; stroke-linejoin: miter; stroke-miterlimit: 4; fill: rgb(255,255,255); fill-rule: nonzero; opacity: 1; visibility: hidden;" vector-effect="non-scaling-stroke"  x="-100" y="-37.5" rx="0" ry="0" width="200" height="75" />
</g>
		<g transform="matrix(0.78 0 0 0.78 -39.12 15.5)"  >
<path style="stroke: none; stroke-width: 1; stroke-dasharray: none; stroke-linecap: butt; stroke-dashoffset: 0; stroke-linejoin: miter; stroke-miterlimit: 4; fill: rgb(11,37,131); fill-rule: nonzero; opacity: 1;" vector-effect="non-scaling-stroke"  transform=" translate(-42.17, -34.29)" d="M 14.7141 38.6456 L 13.6616 30.6308 L 9.63399 41.3982 L 8.6625 41.3982 L 4.39197 30.5701 L 3.35975 38.6456 C 3.33951 38.7873 3.31927 39.0707 3.31927 39.1314 C 3.31927 40.1231 3.82526 40.366 5.24202 40.4267 L 5.24202 41.3982 L 0.263113 41.3982 L 0.263113 40.4267 C 1.41676 40.3862 1.82155 40.1433 1.96323 39.2123 L 3.23832 29.6391 C 3.23832 28.5664 2.87401 28.2021 1.51796 28.1616 L 1.51796 27.1901 L 5.84921 27.1901 C 5.88969 27.6556 5.97064 27.9187 6.1528 28.364 L 9.79591 37.6944 L 13.2164 28.364 C 13.3985 27.9187 13.52 27.6556 13.5604 27.1901 L 17.7703 27.1901 L 17.7703 28.1616 C 16.4345 28.2021 16.0701 28.5664 16.0701 29.6391 L 17.3452 39.2123 C 17.4667 40.1636 17.8917 40.3862 19.0251 40.4267 L 19.0251 41.3982 L 12.8318 41.3982 L 12.8318 40.4267 C 14.2486 40.366 14.7546 40.1231 14.7546 39.1314 C 14.7546 39.0707 14.7343 38.7873 14.7141 38.6456 Z M 29.1281 40.366 C 31.6985 40.366 32.9129 37.7753 32.9129 34.4358 C 32.9129 31.157 31.658 28.2223 28.6626 28.2223 C 26.0922 28.2223 24.8778 30.8129 24.8778 34.1525 C 24.8778 37.4313 26.1529 40.366 29.1281 40.366 Z M 29.0066 26.9877 C 33.2569 26.9877 35.7059 30.2462 35.7059 34.0108 C 35.7059 38.6456 32.6295 41.6006 28.8042 41.6006 C 24.5337 41.6006 22.0847 38.342 22.0847 34.5775 C 22.0847 29.9427 25.1814 26.9877 29.0066 26.9877 Z M 44.3208 41.6006 C 42.3778 41.6006 40.6979 40.9732 39.7669 40.2243 L 39.605 36.8848 L 40.6979 36.8848 C 41.3051 39.0504 42.4588 40.4672 44.4625 40.4672 C 46.1626 40.4672 47.2353 39.6576 47.2353 38.1194 C 47.2353 36.8443 46.4257 36.2371 44.0375 35.4275 C 41.2039 34.4763 39.7467 33.4441 39.7467 31.0558 C 39.7467 28.6676 41.5278 26.9877 44.422 26.9877 C 46.1626 26.9877 47.6806 27.5139 48.733 28.2425 L 48.733 31.3392 L 47.7615 31.3392 C 47.2555 29.4771 46.2233 28.1009 44.2803 28.1009 C 42.7017 28.1009 41.8921 29.0116 41.8921 30.1855 C 41.8921 31.5213 42.6005 32.088 44.9887 32.8976 C 47.9639 33.8893 49.4819 34.9823 49.4819 37.411 C 49.4819 40.1838 47.1341 41.6006 44.3208 41.6006 Z M 60.3149 33.3631 L 64.7878 38.8683 C 65.82 40.1231 66.3463 40.366 67.2368 40.4267 L 67.2368 41.3982 L 63.958 41.3982 C 63.2901 41.0136 62.7639 40.4672 62.015 39.5362 L 57.785 34.1727 L 62.602 29.5379 C 62.8651 29.295 63.0877 29.0521 63.0877 28.7485 C 63.0877 28.3842 62.8651 28.2223 61.59 28.1616 L 61.59 27.1901 L 66.7915 27.1901 L 66.7915 28.1616 C 65.8807 28.2021 65.3748 28.5056 64.7473 29.1128 L 60.3149 33.3631 Z M 54.9919 38.9695 L 54.9919 29.5986 C 54.9919 28.4247 54.4252 28.2021 53.0692 28.1616 L 53.0692 27.1901 L 59.4851 27.1901 L 59.4851 28.1616 C 58.1695 28.2021 57.5826 28.4247 57.5826 29.5986 L 57.5826 38.9695 C 57.5826 40.1636 58.1695 40.3862 59.4851 40.4267 L 59.4851 41.3982 L 53.0692 41.3982 L 53.0692 40.4267 C 54.4252 40.3862 54.9919 40.1636 54.9919 38.9695 Z M 79.6902 38.7468 L 78.8807 36.8241 L 73.2136 36.8241 L 72.4647 38.7266 C 72.3433 39.0302 72.2421 39.3135 72.2421 39.5362 C 72.2421 40.1636 72.6671 40.3862 74.0029 40.4267 L 74.0029 41.3982 L 69.4693 41.3982 L 69.4693 40.4267 C 70.0158 40.3457 70.4408 40.2243 70.6634 39.6778 L 75.278 28.4854 L 74.6304 27.0484 L 77.4437 27.0484 L 82.8881 39.6778 C 83.1107 40.2041 83.4953 40.3457 84.0822 40.4267 L 84.0822 41.3982 L 78.1723 41.3982 L 78.1723 40.4267 C 79.5081 40.3862 79.9129 40.1838 79.9129 39.5564 C 79.9129 39.3135 79.8319 39.0504 79.6902 38.7468 Z M 76.0067 29.8819 L 73.6386 35.7716 L 78.4556 35.7716 L 76.0067 29.8819 Z" stroke-linecap="round" />
</g>
		<g transform="matrix(0.78 0 0 0.78 -0.58 15.58)"  >
<line style="stroke: rgb(11,37,131); stroke-width: 1.01197; stroke-dasharray: none; stroke-linecap: butt; stroke-dashoffset: 0; stroke-linejoin: miter; stroke-miterlimit: 4; fill: none; fill-rule: nonzero; opacity: 1;" vector-effect="non-scaling-stroke"  x1="0" y1="-8.60175" x2="0" y2="8.60175" />
</g>
		<g transform="matrix(0.78 0 0 0.78 37.8 15.52)"  >
<path style="stroke: none; stroke-width: 1; stroke-dasharray: none; stroke-linecap: butt; stroke-dashoffset: 0; stroke-linejoin: miter; stroke-miterlimit: 4; fill: rgb(11,37,131); fill-rule: nonzero; opacity: 1;" vector-effect="non-scaling-stroke"  transform=" translate(-140.79, -34.31)" d="M 111.858 38.6456 L 110.805 30.6308 L 106.778 41.3982 L 105.806 41.3982 L 101.536 30.5701 L 100.503 38.6456 C 100.483 38.7873 100.463 39.0707 100.463 39.1314 C 100.463 40.1231 100.969 40.366 102.386 40.4267 L 102.386 41.3982 L 97.4067 41.3982 L 97.4067 40.4267 C 98.5603 40.3862 98.9651 40.1433 99.1068 39.2123 L 100.382 29.6391 C 100.382 28.5664 100.018 28.2021 98.6615 28.1616 L 98.6615 27.1901 L 102.993 27.1901 C 103.033 27.6556 103.114 27.9187 103.296 28.364 L 106.939 37.6944 L 110.36 28.364 C 110.542 27.9187 110.664 27.6556 110.704 27.1901 L 114.914 27.1901 L 114.914 28.1616 C 113.578 28.2021 113.214 28.5664 113.214 29.6391 L 114.489 39.2123 C 114.61 40.1636 115.035 40.3862 116.169 40.4267 L 116.169 41.3982 L 109.975 41.3982 L 109.975 40.4267 C 111.392 40.366 111.898 40.1231 111.898 39.1314 C 111.898 39.0707 111.878 38.7873 111.858 38.6456 Z M 123.076 29.5986 L 123.076 36.2776 C 123.076 38.6861 124.229 40.0624 126.476 40.0624 C 128.925 40.0624 130.362 39.0302 130.362 36.1157 L 130.362 29.5986 C 130.362 28.4247 129.714 28.2021 128.378 28.1616 L 128.378 27.1901 L 133.661 27.1901 L 133.661 28.1616 C 132.325 28.2021 131.758 28.4247 131.758 29.5986 L 131.758 36.561 C 131.758 39.9814 129.228 41.5803 126.274 41.5803 C 122.711 41.5803 120.485 39.9814 120.485 36.5407 L 120.485 29.5986 C 120.485 28.4247 119.918 28.2021 118.583 28.1616 L 118.583 27.1901 L 124.978 27.1901 L 124.978 28.1616 C 123.642 28.2021 123.076 28.4247 123.076 29.5986 Z M 142.132 28.283 L 141.08 28.283 L 141.08 34.2739 L 142.193 34.2739 C 144.521 34.2739 145.613 33.2619 145.613 31.2177 C 145.613 29.4771 144.521 28.283 142.132 28.283 Z M 136.587 27.1901 L 143.003 27.1901 C 146.666 27.1901 148.305 28.8092 148.305 31.2177 C 148.305 33.3631 146.544 34.6584 144.723 34.9216 L 147.799 38.9897 C 148.467 39.9005 149.196 40.3862 150.269 40.4267 L 150.269 41.3982 L 146.848 41.3982 C 146.16 40.9124 145.694 40.4065 145.067 39.4754 L 142.072 35.3061 L 141.08 35.3061 L 141.08 38.9695 C 141.08 40.1636 141.647 40.3862 142.962 40.4267 L 142.962 41.3982 L 136.587 41.3982 L 136.587 40.4267 C 137.943 40.3862 138.509 40.1636 138.509 38.9695 L 138.509 29.5986 C 138.509 28.4247 137.943 28.2021 136.587 28.1818 L 136.587 27.1901 Z M 162.872 38.7468 L 162.062 36.8241 L 156.395 36.8241 L 155.646 38.7266 C 155.525 39.0302 155.424 39.3135 155.424 39.5362 C 155.424 40.1636 155.849 40.3862 157.184 40.4267 L 157.184 41.3982 L 152.651 41.3982 L 152.651 40.4267 C 153.197 40.3457 153.622 40.2243 153.845 39.6778 L 158.46 28.4854 L 157.812 27.0484 L 160.625 27.0484 L 166.07 39.6778 C 166.292 40.2041 166.677 40.3457 167.264 40.4267 L 167.264 41.3982 L 161.354 41.3982 L 161.354 40.4267 C 162.69 40.3862 163.094 40.1838 163.094 39.5564 C 163.094 39.3135 163.013 39.0504 162.872 38.7468 Z M 159.188 29.8819 L 156.82 35.7716 L 161.637 35.7716 L 159.188 29.8819 Z M 175.974 28.283 L 174.578 28.283 L 174.578 38.8683 C 174.578 40.0624 175.144 40.3053 176.44 40.3053 L 176.804 40.3053 C 179.658 40.3053 181.378 38.2813 181.378 34.3144 C 181.378 31.0761 179.8 28.283 175.974 28.283 Z M 170.085 28.1616 L 170.085 27.1901 L 176.42 27.1901 C 181.682 27.1901 184.171 30.1653 184.171 33.9501 C 184.171 38.7266 181.034 41.3982 176.845 41.3982 L 170.085 41.3982 L 170.085 40.4267 C 171.441 40.3862 172.007 40.1636 172.007 38.9695 L 172.007 29.5986 C 172.007 28.4247 171.441 28.2021 170.085 28.1616 Z" stroke-linecap="round" />
</g>
		<g transform="matrix(0.78 0 0 0.78 0 -6.08)"  >
<path style="stroke: none; stroke-width: 1; stroke-dasharray: none; stroke-linecap: butt; stroke-dashoffset: 0; stroke-linejoin: miter; stroke-miterlimit: 4; fill: rgb(11,37,131); fill-rule: nonzero; opacity: 1;" vector-effect="non-scaling-stroke"  transform=" translate(-92.33, -6.62)" d="M 7.23966 11.144 L 6.67295 9.79812 L 2.70602 9.79812 L 2.18182 11.1299 C 2.09681 11.3424 2.02597 11.5407 2.02597 11.6966 C 2.02597 12.1358 2.32349 12.2916 3.25856 12.32 L 3.25856 13 L 0.0850058 13 L 0.0850058 12.32 C 0.467532 12.2633 0.765052 12.1783 0.920896 11.7958 L 4.15112 3.96105 L 3.69775 2.95515 L 5.66705 2.95515 L 9.47815 11.7958 C 9.63399 12.1641 9.90317 12.2633 10.314 12.32 L 10.314 13 L 6.17709 13 L 6.17709 12.32 C 7.11215 12.2916 7.3955 12.1499 7.3955 11.7107 C 7.3955 11.5407 7.33883 11.3566 7.23966 11.144 Z M 4.66115 4.93862 L 3.00354 9.0614 L 6.37543 9.0614 L 4.66115 4.93862 Z M 16.4114 3.81938 L 15.4339 3.81938 L 15.4339 11.229 C 15.4339 12.0649 15.8306 12.2349 16.7373 12.2349 L 16.9923 12.2349 C 18.9899 12.2349 20.1942 10.8182 20.1942 8.04133 C 20.1942 5.77451 19.0891 3.81938 16.4114 3.81938 Z M 12.2886 3.73437 L 12.2886 3.05432 L 16.7231 3.05432 C 20.4067 3.05432 22.1493 5.13697 22.1493 7.78631 C 22.1493 11.1299 19.9533 13 17.0206 13 L 12.2886 13 L 12.2886 12.32 C 13.2379 12.2916 13.6346 12.1358 13.6346 11.2999 L 13.6346 4.74027 C 13.6346 3.91855 13.2379 3.7627 12.2886 3.73437 Z M 29.6147 10.5773 L 31.8673 4.92445 C 31.9523 4.71194 32.009 4.52776 32.009 4.35775 C 32.009 3.93272 31.7256 3.7627 30.7906 3.73437 L 30.7906 3.05432 L 34.035 3.05432 L 34.035 3.73437 C 33.6241 3.79104 33.3549 3.87605 33.1849 4.25857 L 29.4588 13.1133 L 28.9205 13.1133 L 24.826 4.25857 C 24.656 3.87605 24.3868 3.79104 23.9901 3.73437 L 23.9901 3.05432 L 28.1554 3.05432 L 28.1554 3.73437 C 27.2203 3.7627 26.9228 3.91855 26.9228 4.34358 C 26.9228 4.51359 26.9795 4.69777 27.0787 4.91028 L 29.6147 10.5773 Z M 40.6837 12.2775 C 42.483 12.2775 43.333 10.464 43.333 8.12634 C 43.333 5.83118 42.4546 3.77687 40.3578 3.77687 C 38.5585 3.77687 37.7085 5.59033 37.7085 7.92799 C 37.7085 10.2231 38.601 12.2775 40.6837 12.2775 Z M 40.5987 2.91265 C 43.5739 2.91265 45.2882 5.19364 45.2882 7.82881 C 45.2882 11.0732 43.1347 13.1417 40.457 13.1417 C 37.4676 13.1417 35.7533 10.8607 35.7533 8.22551 C 35.7533 4.98112 37.921 2.91265 40.5987 2.91265 Z M 52.8102 7.37545 L 55.9412 11.229 C 56.6638 12.1074 57.0321 12.2775 57.6555 12.32 L 57.6555 13 L 55.3603 13 C 54.8928 12.7308 54.5245 12.3483 54.0003 11.6966 L 51.0392 7.94216 L 54.4111 4.69777 C 54.5953 4.52776 54.7511 4.35775 54.7511 4.14523 C 54.7511 3.89021 54.5953 3.77687 53.7027 3.73437 L 53.7027 3.05432 L 57.3438 3.05432 L 57.3438 3.73437 C 56.7063 3.7627 56.3521 3.97522 55.9129 4.40025 L 52.8102 7.37545 Z M 49.0841 11.2999 L 49.0841 4.74027 C 49.0841 3.91855 48.6874 3.7627 47.7382 3.73437 L 47.7382 3.05432 L 52.2293 3.05432 L 52.2293 3.73437 C 51.3084 3.7627 50.8975 3.91855 50.8975 4.74027 L 50.8975 11.2999 C 50.8975 12.1358 51.3084 12.2916 52.2293 12.32 L 52.2293 13 L 47.7382 13 L 47.7382 12.32 C 48.6874 12.2916 49.0841 12.1358 49.0841 11.2999 Z M 66.3729 11.144 L 65.8062 9.79812 L 61.8393 9.79812 L 61.3151 11.1299 C 61.2301 11.3424 61.1592 11.5407 61.1592 11.6966 C 61.1592 12.1358 61.4567 12.2916 62.3918 12.32 L 62.3918 13 L 59.2183 13 L 59.2183 12.32 C 59.6008 12.2633 59.8983 12.1783 60.0542 11.7958 L 63.2844 3.96105 L 62.831 2.95515 L 64.8003 2.95515 L 68.6114 11.7958 C 68.7672 12.1641 69.0364 12.2633 69.4473 12.32 L 69.4473 13 L 65.3103 13 L 65.3103 12.32 C 66.2454 12.2916 66.5288 12.1499 66.5288 11.7107 C 66.5288 11.5407 66.4721 11.3566 66.3729 11.144 Z M 63.7944 4.93862 L 62.1368 9.0614 L 65.5087 9.0614 L 63.7944 4.93862 Z M 64.5311 0.107456 L 66.5004 0.107456 L 64.3044 2.26094 L 63.4827 2.26094 L 64.5311 0.107456 Z M 70.7706 3.05432 L 79.5262 3.05432 L 79.7387 6.1287 L 79.087 6.1287 C 78.3078 4.30107 78.1095 3.79104 76.8769 3.79104 L 76.041 3.79104 L 76.041 11.2999 C 76.041 12.1358 76.5085 12.2916 77.4436 12.32 L 77.4436 13 L 72.8391 13 L 72.8391 12.32 C 73.7883 12.2916 74.2417 12.1358 74.2417 11.2999 L 74.2417 3.79104 L 73.42 3.79104 C 72.1874 3.79104 71.989 4.30107 71.1957 6.1287 L 70.5581 6.1287 L 70.7706 3.05432 Z M 83.1777 11.2999 L 83.1777 4.57026 C 82.6677 3.93272 82.4693 3.7627 81.8318 3.73437 L 81.8318 3.05432 L 84.6795 3.05432 L 90.0348 9.89729 L 90.0348 4.74027 C 90.0348 3.91855 89.5957 3.7627 88.6606 3.73437 L 88.6606 3.05432 L 92.3442 3.05432 L 92.3442 3.73437 C 91.3949 3.7627 90.9982 3.91855 90.9982 4.74027 L 90.9982 13 L 90.2474 13 L 84.1411 5.36365 L 84.1411 11.2999 C 84.1411 12.1358 84.5803 12.2916 85.5295 12.32 L 85.5295 13 L 81.8318 13 L 81.8318 12.32 C 82.781 12.2916 83.1777 12.1358 83.1777 11.2999 Z M 99.0434 13 L 94.5522 13 L 94.5522 12.32 C 95.5014 12.2916 95.8981 12.1358 95.8981 11.2999 L 95.8981 4.74027 C 95.8981 3.91855 95.5014 3.7627 94.5522 3.73437 L 94.5522 3.05432 L 99.0434 3.05432 L 99.0434 3.73437 C 98.0941 3.7627 97.6974 3.91855 97.6974 4.74027 L 97.6974 11.2999 C 97.6974 12.1358 98.0941 12.2916 99.0434 12.32 L 99.0434 13 Z M 97.2724 0.107456 L 99.2417 0.107456 L 97.0457 2.26094 L 96.224 2.26094 L 97.2724 0.107456 Z M 111.662 0.107456 L 113.631 0.107456 L 111.435 2.26094 L 110.613 2.26094 L 111.662 0.107456 Z M 108.701 4.74027 L 108.701 9.41559 C 108.701 11.1015 109.508 12.0649 111.081 12.0649 C 112.795 12.0649 113.801 11.3424 113.801 9.30225 L 113.801 4.74027 C 113.801 3.91855 113.348 3.7627 112.413 3.73437 L 112.413 3.05432 L 116.11 3.05432 L 116.11 3.73437 C 115.175 3.7627 114.779 3.91855 114.779 4.74027 L 114.779 9.61394 C 114.779 12.0083 113.008 13.1275 110.939 13.1275 C 108.446 13.1275 106.887 12.0083 106.887 9.59977 L 106.887 4.74027 C 106.887 3.91855 106.491 3.7627 105.556 3.73437 L 105.556 3.05432 L 110.033 3.05432 L 110.033 3.73437 C 109.098 3.7627 108.701 3.91855 108.701 4.74027 Z M 121.601 13.1417 C 120.24 13.1417 119.065 12.7025 118.413 12.1783 L 118.299 9.84062 L 119.065 9.84062 C 119.49 11.3566 120.297 12.3483 121.7 12.3483 C 122.89 12.3483 123.641 11.7816 123.641 10.7048 C 123.641 9.81228 123.074 9.38725 121.402 8.82055 C 119.419 8.15467 118.399 7.43212 118.399 5.76034 C 118.399 4.08856 119.645 2.91265 121.671 2.91265 C 122.89 2.91265 123.952 3.281 124.689 3.79104 L 124.689 5.95869 L 124.009 5.95869 C 123.655 4.65527 122.932 3.69187 121.572 3.69187 C 120.467 3.69187 119.9 4.32941 119.9 5.15113 C 119.9 6.0862 120.396 6.48289 122.068 7.0496 C 124.151 7.74381 125.213 8.50886 125.213 10.209 C 125.213 12.1499 123.57 13.1417 121.601 13.1417 Z M 133.104 12.3058 C 134.45 12.3058 135.187 11.4699 135.711 9.81228 L 136.49 9.81228 L 136.193 12.32 C 135.3 12.8158 134.308 13.1417 132.821 13.1417 C 129.86 13.1417 127.99 11.0874 127.99 8.23968 C 127.99 4.93862 130.2 2.91265 132.991 2.91265 C 134.436 2.91265 135.47 3.29517 136.15 3.84771 L 136.15 6.05786 L 135.385 6.05786 C 135.003 4.48525 134.195 3.73437 132.92 3.73437 C 130.823 3.73437 129.959 5.63283 129.959 7.82881 C 129.959 10.3932 131.021 12.3058 133.104 12.3058 Z M 146.855 11.2999 L 146.855 8.28218 L 142.123 8.28218 L 142.123 11.2999 C 142.123 12.1358 142.549 12.2916 143.469 12.32 L 143.469 13 L 138.978 13 L 138.978 12.32 C 139.927 12.2916 140.324 12.1358 140.324 11.2999 L 140.324 4.74027 C 140.324 3.91855 139.927 3.7627 138.978 3.73437 L 138.978 3.05432 L 143.469 3.05432 L 143.469 3.73437 C 142.549 3.7627 142.123 3.91855 142.123 4.74027 L 142.123 7.51713 L 146.855 7.51713 L 146.855 4.74027 C 146.855 3.91855 146.43 3.7627 145.51 3.73437 L 145.51 3.05432 L 150.001 3.05432 L 150.001 3.73437 C 149.051 3.7627 148.655 3.91855 148.655 4.74027 L 148.655 11.2999 C 148.655 12.1358 149.051 12.2916 150.001 12.32 L 150.001 13 L 145.51 13 L 145.51 12.32 C 146.43 12.2916 146.855 12.1358 146.855 11.2999 Z M 157.378 12.2775 C 159.178 12.2775 160.028 10.464 160.028 8.12634 C 160.028 5.83118 159.149 3.77687 157.053 3.77687 C 155.253 3.77687 154.403 5.59033 154.403 7.92799 C 154.403 10.2231 155.296 12.2775 157.378 12.2775 Z M 157.293 2.91265 C 160.269 2.91265 161.983 5.19364 161.983 7.82881 C 161.983 11.0732 159.829 13.1417 157.152 13.1417 C 154.162 13.1417 152.448 10.8607 152.448 8.22551 C 152.448 4.98112 154.616 2.91265 157.293 2.91265 Z M 169.454 10.5773 L 171.706 4.92445 C 171.791 4.71194 171.848 4.52776 171.848 4.35775 C 171.848 3.93272 171.565 3.7627 170.63 3.73437 L 170.63 3.05432 L 173.874 3.05432 L 173.874 3.73437 C 173.463 3.79104 173.194 3.87605 173.024 4.25857 L 169.298 13.1133 L 168.759 13.1133 L 164.665 4.25857 C 164.495 3.87605 164.226 3.79104 163.829 3.73437 L 163.829 3.05432 L 167.994 3.05432 L 167.994 3.73437 C 167.059 3.7627 166.762 3.91855 166.762 4.34358 C 166.762 4.51359 166.818 4.69777 166.918 4.91028 L 169.454 10.5773 Z M 181.504 11.144 L 180.938 9.79812 L 176.971 9.79812 L 176.446 11.1299 C 176.361 11.3424 176.291 11.5407 176.291 11.6966 C 176.291 12.1358 176.588 12.2916 177.523 12.32 L 177.523 13 L 174.35 13 L 174.35 12.32 C 174.732 12.2633 175.03 12.1783 175.186 11.7958 L 178.416 3.96105 L 177.962 2.95515 L 179.932 2.95515 L 183.743 11.7958 C 183.899 12.1641 184.168 12.2633 184.579 12.32 L 184.579 13 L 180.442 13 L 180.442 12.32 C 181.377 12.2916 181.66 12.1499 181.66 11.7107 C 181.66 11.5407 181.603 11.3566 181.504 11.144 Z M 178.926 4.93862 L 177.268 9.0614 L 180.64 9.0614 L 178.926 4.93862 Z" stroke-linecap="round" />
</g>
</g>
</g>
</svg>