<svg id="eRvzs3XPpS41" xmlns="http://www.w3.org/2000/svg" xmlns:xlink="http://www.w3.org/1999/xlink" viewBox="0 0 512 512" shape-rendering="geometricPrecision" text-rendering="geometricPrecision"><path d="M445.011,82.7h-377.989c-27.601216.031412-49.968588,22.398784-50,50v246.6c.031412,27.601216,22.398784,49.968588,50,50h377.988c27.601216-.031412,49.968588-22.398784,50-50v-246.6c-.030311-27.601282-22.397718-49.969137-49.999-50Zm-88.9,173.232l118.9-93.318v208.738ZM67.022,102.7h377.988c16.560775.018737,29.981263,13.439225,30,30v4.49L282.6,288.208c-14.475526,11.300794-34.788851,11.284295-49.246-.04L37.022,137.152v-4.452c.018737-16.560775,13.439225-29.981263,30-30ZM159.46,256.56L37.022,371.755v-209.371ZM445.011,409.3h-377.989c-10.413866-.00606-20.079979-5.411029-25.538-14.28l134.034-126.1L221.1,303.98c21.691026,16.943147,52.133699,16.935311,73.816-.019L340.235,268.4L470.6,394.94c-5.448598,8.914512-15.141239,14.353815-25.589,14.36Z" fill="#223a7b"/></svg>