<svg xmlns="http://www.w3.org/2000/svg" width="286.94" height="235.01" viewBox="0 0 286.94 235.01"><defs><style>.a{fill:#d1d3d4;}.b{fill:#fff;}.c{fill:#231f20;}.d{fill:#ff872e;}</style></defs><g transform="translate(-56.53 -32.75)"><path class="a" d="M83.92,251.76a.5.5,0,0,1-.5-.5V96.52a.5.5,0,0,1,1,0V251.26A.5.5,0,0,1,83.92,251.76Z"/><path class="a" d="M144,251.76a.5.5,0,0,1-.5-.5V96.52a.5.5,0,0,1,1,0V251.26A.5.5,0,0,1,144,251.76Z"/><path class="a" d="M204,251.76a.5.5,0,0,1-.5-.5V96.52a.5.5,0,0,1,1,0V251.26A.5.5,0,0,1,204,251.76Z"/><path class="a" d="M264.1,251.76a.5.5,0,0,1-.5-.5V96.52a.5.5,0,0,1,1,0V251.26A.5.5,0,0,1,264.1,251.76Z"/><path class="a" d="M324.16,251.76a.5.5,0,0,1-.5-.5V96.52a.5.5,0,0,1,1,0V251.26A.5.5,0,0,1,324.16,251.76Z"/><path class="a" d="M324.16,97H83.92a.5.5,0,0,1,0-1H324.16a.5.5,0,0,1,0,1Z"/><path class="a" d="M324.16,148.18H83.92a.5.5,0,0,1,0-1H324.16a.5.5,0,0,1,0,1Z"/><path class="a" d="M324.16,199.34H83.92a.5.5,0,0,1,0-1H324.16a.5.5,0,0,1,0,1Z"/><path class="a" d="M337.87,252.2H62.13a.5.5,0,0,1-.5-.5.51.51,0,0,1,.5-.5H337.87a.51.51,0,0,1,.5.5A.5.5,0,0,1,337.87,252.2Z"/><path class="b" d="M105.59,246.84v10.94c0,4.15,11.84,7.51,26.45,7.51s26.46-3.36,26.46-7.51V246.84Z"/><path class="c" d="M132,265.79c-13.25,0-26.95-3-26.95-8V246.84a.5.5,0,0,1,.5-.5H158.5a.5.5,0,0,1,.5.5v10.94C159,262.79,145.29,265.79,132,265.79Zm-25.95-18.45v10.44c0,3.39,10.43,7,25.95,7s26-3.62,26-7V247.34Z"/><ellipse class="c" cx="26.45" cy="7.5" rx="26.45" ry="7.5" transform="translate(105.59 239.34)"/><path class="c" d="M132,254.78c-15.08,0-26.89-3.49-26.89-7.94s11.81-8,26.89-8,26.9,3.49,26.9,8S147.12,254.78,132,254.78Zm0-15c-15.56,0-26,3.66-26,7.07s10.45,7.06,26,7.06,26-3.65,26-7.06-10.4-7.08-26-7.08Z"/><path class="b" d="M100.18,230.11v10.95c0,4.14,11.84,7.5,26.45,7.5s26.46-3.36,26.46-7.5V230.11Z"/><path class="c" d="M126.63,249.06c-13.25,0-26.95-3-26.95-8V230.11a.5.5,0,0,1,.5-.5h52.91a.5.5,0,0,1,.5.5v10.95C153.59,246.07,139.88,249.06,126.63,249.06Zm-25.95-18.45v10.45c0,3.38,10.43,7,25.95,7s26-3.62,26-7V230.61Z"/><ellipse class="b" cx="26.45" cy="7.5" rx="26.45" ry="7.5" transform="translate(100.18 222.61)"/><path class="c" d="M126.63,238.11c-13.25,0-26.95-3-26.95-8s13.7-8,26.95-8,27,3,27,8S139.88,238.11,126.63,238.11Zm0-15c-15.52,0-25.95,3.62-25.95,7s10.43,7,25.95,7,26-3.62,26-7S142.16,223.11,126.63,223.11Z"/><path class="a" d="M126.63,235.16c-11.27,0-22.69-1.73-22.69-5s11.42-5.05,22.69-5.05,22.69,1.73,22.69,5.05S137.91,235.16,126.63,235.16Zm0-9.1c-13.44,0-21.69,2.36-21.69,4.05s8.25,4,21.69,4,21.69-2.36,21.69-4S140.07,226.06,126.63,226.06Z"/><path class="b" d="M167.71,248.81v10.94c0,4.15,11.85,7.51,26.46,7.51s26.45-3.36,26.45-7.51V248.81Z"/><path class="c" d="M194.17,267.76c-13.25,0-27-3-27-8V248.81a.5.5,0,0,1,.5-.5h52.91a.5.5,0,0,1,.5.5v10.94C221.12,264.76,207.42,267.76,194.17,267.76Zm-26-18.45v10.44c0,3.38,10.43,7,26,7s26-3.63,26-7V249.31Z"/><ellipse class="c" cx="26.45" cy="7.5" rx="26.45" ry="7.5" transform="translate(167.72 241.31)"/><path class="c" d="M194.17,256.75c-15.08,0-26.9-3.49-26.9-7.94s11.82-7.95,26.9-7.95,26.89,3.49,26.89,7.95S209.25,256.75,194.17,256.75Zm0-15c-15.56,0-26,3.65-26,7.07s10.45,7.06,26,7.06,26-3.65,26-7.06-10.44-7.08-26-7.08Z"/><path class="b" d="M172,233v11c0,4.14,11.84,7.5,26.45,7.5s26.46-3.36,26.46-7.5V233Z"/><path class="c" d="M198.43,252c-13.25,0-27-3-27-8V233a.5.5,0,0,1,.5-.5h52.91a.5.5,0,0,1,.5.5v11C225.39,249,211.68,252,198.43,252Zm-26-18.45V244c0,3.38,10.43,7,26,7s26-3.62,26-7V233.5Z"/><ellipse class="c" cx="26.45" cy="7.5" rx="26.45" ry="7.5" transform="translate(171.98 225.5)"/><path class="c" d="M198.43,240.94c-15.08,0-26.89-3.49-26.89-7.94s11.81-7.94,26.89-7.94,26.9,3.48,26.9,7.94S213.51,240.94,198.43,240.94Zm0-15c-15.56,0-26,3.65-26,7.06s10.45,7.06,26,7.06,26-3.65,26-7.06S214,225.94,198.43,225.94Z"/><path class="b" d="M167.71,217.13v11c0,4.14,11.85,7.5,26.46,7.5s26.45-3.36,26.45-7.5v-11Z"/><path class="c" d="M194.17,236.08c-13.25,0-27-3-27-8v-11a.51.51,0,0,1,.5-.5h52.91a.5.5,0,0,1,.5.5v11C221.12,233.09,207.42,236.08,194.17,236.08Zm-26-18.45v10.45c0,3.38,10.43,7,26,7s26-3.62,26-7V217.63Z"/><ellipse class="c" cx="26.45" cy="7.5" rx="26.45" ry="7.5" transform="translate(167.72 209.63)"/><path class="c" d="M194.17,225.08c-15.08,0-26.9-3.49-26.9-8s11.82-7.94,26.9-7.94,26.89,3.49,26.89,7.94S209.25,225.08,194.17,225.08Zm0-15c-15.56,0-26,3.65-26,7.06s10.45,7.06,26,7.06,26-3.65,26-7.06-10.44-7.07-26-7.07Z"/><path class="b" d="M176.24,204.16V215.1c0,4.15,11.85,7.51,26.46,7.51s26.45-3.36,26.45-7.51V204.16Z"/><path class="c" d="M202.7,223.11c-13.25,0-27-3-27-8V204.16a.5.5,0,0,1,.5-.5h52.91a.5.5,0,0,1,.5.5V215.1C229.65,220.11,216,223.11,202.7,223.11Zm-26-18.45V215.1c0,3.38,10.43,7,26,7s26-3.63,26-7V204.66Z"/><ellipse class="c" cx="26.45" cy="7.5" rx="26.45" ry="7.5" transform="translate(176.25 196.66)"/><path class="c" d="M202.7,212.1c-15.09,0-26.9-3.49-26.9-7.94s11.81-7.95,26.9-7.95,26.89,3.49,26.89,7.95S217.78,212.1,202.7,212.1Zm0-15c-15.57,0-26,3.66-26,7.07s10.45,7.06,26,7.06,26-3.65,26-7.06-10.44-7.08-26-7.08Z"/><path class="b" d="M170.44,191.18v10.95c0,4.14,11.84,7.5,26.45,7.5s26.46-3.36,26.46-7.5V191.18Z"/><path class="c" d="M196.89,210.13c-13.25,0-26.95-3-26.95-8V191.18a.5.5,0,0,1,.5-.5h52.91a.5.5,0,0,1,.5.5v10.95C223.85,207.14,210.14,210.13,196.89,210.13Zm-25.95-18.45v10.45c0,3.38,10.43,7,25.95,7s26-3.62,26-7V191.68Z"/><ellipse class="b" cx="26.45" cy="7.5" rx="26.45" ry="7.5" transform="translate(170.44 183.68)"/><path class="c" d="M196.89,199.18c-13.25,0-26.95-3-26.95-8s13.7-8,26.95-8,27,3,27,8S210.14,199.18,196.89,199.18Zm0-15c-15.52,0-25.95,3.62-25.95,7s10.43,7,25.95,7,26-3.62,26-7S212.42,184.18,196.89,184.18Z"/><path class="a" d="M196.89,196.23c-11.27,0-22.69-1.73-22.69-5s11.42-5.05,22.69-5.05,22.69,1.73,22.69,5.05S208.17,196.23,196.89,196.23Zm0-9.1c-13.44,0-21.69,2.36-21.69,4.05s8.25,4,21.69,4,21.69-2.36,21.69-4-8.25-4.05-21.69-4.05Z"/><path class="b" d="M300.64,242.78v10.95c0,4.14-11.84,7.5-26.45,7.5s-26.46-3.36-26.46-7.5V242.78Z"/><path class="c" d="M274.19,261.73c-13.25,0-27-3-27-8V242.78a.5.5,0,0,1,.5-.5H300.6a.5.5,0,0,1,.5.5v10.95C301.14,258.73,287.44,261.73,274.19,261.73Zm-26-18.45v10.45c0,3.38,10.43,7,26,7s25.95-3.62,25.95-7V243.28Z"/><ellipse class="c" cx="26.45" cy="7.5" rx="26.45" ry="7.5" transform="translate(247.74 235.28)"/><path class="c" d="M274.19,250.72c-15.08,0-26.9-3.49-26.9-7.94s11.82-7.95,26.9-7.95,26.89,3.49,26.89,7.95S289.27,250.72,274.19,250.72Zm0-15c-15.56,0-26,3.65-26,7.06s10.46,7.06,26,7.06,26-3.65,26-7.06S289.75,235.72,274.19,235.72Z"/><path class="b" d="M292.12,229.8v10.95c0,4.14-11.85,7.5-26.46,7.5s-26.45-3.36-26.45-7.5V229.8Z"/><path class="c" d="M265.66,248.75c-13.25,0-27-3-27-8V229.8a.5.5,0,0,1,.5-.5h52.91a.5.5,0,0,1,.5.5v10.95C292.62,245.76,278.91,248.75,265.66,248.75Zm-26-18.45v10.45c0,3.38,10.43,7,26,7s26-3.62,26-7V230.3Z"/><ellipse class="c" cx="26.45" cy="7.5" rx="26.45" ry="7.5" transform="translate(239.21 222.3)"/><path class="c" d="M265.66,237.75c-15.08,0-26.89-3.49-26.89-7.95s11.81-7.94,26.89-7.94,26.9,3.49,26.9,7.94S280.74,237.75,265.66,237.75Zm0-15c-15.56,0-26,3.65-26,7.06s10.45,7.06,26,7.06,26-3.65,26-7.06-10.44-7.07-26-7.07Z"/><path class="b" d="M297.92,216.82v11c0,4.15-11.84,7.51-26.45,7.51S245,231.92,245,227.77v-11Z"/><path class="c" d="M271.46,235.77c-13.24,0-26.95-3-26.95-8v-11a.5.5,0,0,1,.5-.5h52.91a.5.5,0,0,1,.5.5v11C298.42,232.78,284.71,235.77,271.46,235.77Zm-25.95-18.45v10.45c0,3.38,10.43,7,25.95,7s26-3.62,26-7V217.32Z"/><ellipse class="c" cx="26.45" cy="7.5" rx="26.45" ry="7.5" transform="translate(245.02 209.32)"/><path class="c" d="M271.46,224.77c-15.08,0-26.89-3.49-26.89-8s11.81-7.94,26.89-7.94,26.9,3.49,26.9,7.94S286.55,224.77,271.46,224.77Zm0-15c-15.56,0-26,3.65-26,7.06s10.45,7.07,26,7.07,26-3.65,26-7.07-10.46-7.07-26-7.07Z"/><path class="b" d="M298.85,202.13v10.94c0,4.15-11.84,7.51-26.45,7.51s-26.46-3.36-26.46-7.51V202.13Z"/><path class="c" d="M272.4,221.08c-13.25,0-27-3-27-8V202.13a.5.5,0,0,1,.5-.5h52.91a.5.5,0,0,1,.5.5v10.94C299.35,218.08,285.64,221.08,272.4,221.08Zm-26-18.45v10.44c0,3.39,10.43,7,26,7s26-3.62,26-7V202.63Z"/><ellipse class="c" cx="26.45" cy="7.5" rx="26.45" ry="7.5" transform="translate(245.95 194.63)"/><path class="c" d="M272.4,210.07c-15.09,0-26.9-3.49-26.9-7.94s11.81-7.95,26.9-7.95,26.89,3.49,26.89,7.95S287.48,210.07,272.4,210.07Zm0-15c-15.57,0-26,3.66-26,7.07s10.45,7.06,26,7.06,26-3.65,26-7.06-10.4-7.08-26-7.08Z"/><path class="b" d="M293.66,187.8v10.94c0,4.15-11.85,7.51-26.46,7.51s-26.45-3.36-26.45-7.51V187.8Z"/><path class="c" d="M267.2,206.75c-13.25,0-26.95-3-26.95-8V187.8a.5.5,0,0,1,.5-.5h52.91a.5.5,0,0,1,.5.5v10.94C294.16,203.75,280.45,206.75,267.2,206.75ZM241.25,188.3v10.44c0,3.39,10.43,7,25.95,7s26-3.62,26-7V188.3Z"/><ellipse class="c" cx="26.45" cy="7.5" rx="26.45" ry="7.5" transform="translate(240.75 180.3)"/><path class="c" d="M267.2,195.74c-15.08,0-26.89-3.49-26.89-7.94s11.81-8,26.89-8,26.9,3.49,26.9,8S282.28,195.74,267.2,195.74Zm0-15c-15.56,0-26,3.66-26,7.07s10.45,7.06,26,7.06,26-3.65,26-7.06-10.44-7.08-26-7.08Z"/><path class="b" d="M300.64,173.1V184c0,4.15-11.84,7.51-26.45,7.51s-26.46-3.36-26.46-7.51V173.1Z"/><path class="c" d="M274.19,192.05c-13.25,0-27-3-27-8V173.1a.5.5,0,0,1,.5-.5H300.6a.5.5,0,0,1,.5.5V184C301.14,189.05,287.44,192.05,274.19,192.05Zm-26-18.45V184c0,3.39,10.43,7,26,7s25.95-3.62,25.95-7V173.6Z"/><ellipse class="b" cx="26.45" cy="7.5" rx="26.45" ry="7.5" transform="translate(247.74 165.6)"/><path class="c" d="M274.19,181.1c-13.25,0-27-3-27-8s13.71-8,27-8,26.95,3,26.95,8S287.44,181.1,274.19,181.1Zm0-15c-15.53,0-26,3.63-26,7s10.43,7,26,7,25.95-3.62,25.95-7-10.43-7.01-25.95-7.01Z"/><path class="a" d="M274.19,178.15c-11.28,0-22.69-1.74-22.69-5.05s11.41-5,22.69-5,22.69,1.73,22.69,5S285.46,178.15,274.19,178.15Zm0-9.1c-13.44,0-21.69,2.36-21.69,4s8.25,4.05,21.69,4.05,21.69-2.36,21.69-4.05-8.25-4-21.69-4Z"/><path class="b" d="M150.19,137.31s-3.16-3.41-3.36-4.64-.44-5.49-1.48-4.74-.79,3.8-.79,3.8-4.31-5.16-5.58-4a5.343,5.343,0,0,0-1.87,4.44c-.08,2.25,10.76,11.68,10.76,11.68"/><path class="c" d="M147.87,144.3a.5.5,0,0,1-.33-.12c-1.84-1.6-11-9.71-10.93-12.08a5.85,5.85,0,0,1,2-4.8,1.22,1.22,0,0,1,.9-.27c1.3.1,3.29,2.05,4.49,3.35.05-1,.27-2.32,1-2.86a.84.84,0,0,1,.85-.11c.73.32,1,1.64,1.32,4.3a4.442,4.442,0,0,0,.11.88c.12.75,2,3,3.23,4.38a.51.51,0,0,1,0,.71.5.5,0,0,1-.71,0c-.54-.59-3.27-3.59-3.48-4.9,0-.22-.07-.55-.12-.92a14.22,14.22,0,0,0-.66-3.42c-.49.53-.59,2.19-.51,3.28a.48.48,0,0,1-.3.5.49.49,0,0,1-.58-.14c-1.26-1.51-3.66-3.94-4.7-4h-.16c-1.21,1.06-1.63,2.05-1.7,4.08-.05,1.26,5.34,6.72,10.59,11.29a.49.49,0,0,1,0,.7A.45.45,0,0,1,147.87,144.3Z"/><path class="c" d="M144.26,136.58a.49.49,0,0,1-.46-.3,5.07,5.07,0,0,1,.35-4.84.52.52,0,0,1,.7-.12.51.51,0,0,1,.11.7h0a4.09,4.09,0,0,0-.25,3.85.49.49,0,0,1-.25.66A.53.53,0,0,1,144.26,136.58Z"/><path class="b" d="M201,236.85a30.465,30.465,0,0,0,0,3.84c.16.49,1.14,2.93,1,3.67s-8.3,13.69-10.34,11.64,3.18-11.5,3.18-12.48-.65-6.69-.65-6.69Z"/><path class="c" d="M192.2,256.73a1.23,1.23,0,0,1-.89-.36c-1.59-1.59.11-5.93,2.14-10.62a17.643,17.643,0,0,0,.89-2.22c0-.74-.42-4.65-.65-6.62a.51.51,0,0,1,.5-.56H201a.48.48,0,0,1,.36.16.47.47,0,0,1,.14.37,25.5,25.5,0,0,0,0,3.65,2.434,2.434,0,0,0,.12.36,8.95,8.95,0,0,1,.87,3.57c-.21.92-6.73,11.3-9.83,12.2A1.789,1.789,0,0,1,192.2,256.73Zm2.55-19.38c.17,1.48.59,5.37.59,6.19a10.229,10.229,0,0,1-1,2.61c-1.16,2.69-3.59,8.28-2.35,9.51a.345.345,0,0,0,.32.05c2.53-.58,8.9-10.63,9.2-11.49a10.29,10.29,0,0,0-.83-3,2.778,2.778,0,0,1-.14-.39,18.841,18.841,0,0,1,0-3.49Z"/><path class="b" d="M183,237.73s-.33,5.46,0,6.68.9,2.61.73,3.35-10.19,9.54-10.68,8,3.59-7.81,3.67-8.92-1.3-9.67-1.3-9.67Z"/><path class="c" d="M173.37,256.43a.76.76,0,0,1-.77-.53c-.34-1.07.75-3.3,2.33-6.32a18.08,18.08,0,0,0,1.31-2.79c.06-.77-.74-6.13-1.3-9.55a.53.53,0,0,1,.13-.42.51.51,0,0,1,.4-.16l7.59.57a.5.5,0,0,1,.46.53,41.908,41.908,0,0,0,0,6.53c.09.32.19.65.29,1a5.82,5.82,0,0,1,.45,2.6c-.19.86-8.83,8.47-10.82,8.56ZM176,237.7c.34,2.1,1.28,8.17,1.21,9.17a12.79,12.79,0,0,1-1.42,3.18c-.88,1.67-2.3,4.39-2.3,5.36,1.68-.38,9.28-6.94,9.77-7.83a6.779,6.779,0,0,0-.45-2q-.17-.51-.3-1a37.057,37.057,0,0,1,0-6.35Z"/><path class="b" d="M248.38,141s3.28-3.29,3.53-4.51.66-5.47,1.67-4.68.64,3.83.64,3.83,4.51-5,5.72-3.83a5.359,5.359,0,0,1,1.71,4.5c0,2.24-11.2,11.26-11.2,11.26"/><path class="c" d="M250.45,148a.5.5,0,0,1-.39-.18.51.51,0,0,1,.07-.71c5.42-4.35,11-9.61,11-10.87a4.905,4.905,0,0,0-1.55-4.14h-.15c-1.05,0-3.53,2.38-4.86,3.84a.49.49,0,0,1-.58.12.51.51,0,0,1-.29-.51c.13-1.09.1-2.77-.37-3.3a14.54,14.54,0,0,0-.8,3.39c-.06.38-.11.7-.15.92-.26,1.3-3.1,4.19-3.67,4.76a.5.5,0,0,1-.71,0,.51.51,0,0,1,0-.71c1.32-1.32,3.25-3.51,3.4-4.25,0-.21.09-.51.14-.87.42-2.65.74-4,1.48-4.25a.82.82,0,0,1,.85.14c.72.57.89,1.87.9,2.9,1.25-1.25,3.32-3.13,4.62-3.18a1.15,1.15,0,0,1,.88.31,5.85,5.85,0,0,1,1.86,4.87c0,2.37-9.49,10.12-11.39,11.65a.45.45,0,0,1-.29.07Z"/><path class="c" d="M187.86,175.88l32,1.67s2,8.76-3.48,13.11-16.52,8.85-17.18,12,3.31,30.72,2.88,37.24l-9.83,2.33s-8.48-32.91-8.27-38.34,3.05-8,3.05-8-7.83,6.71-8.05,8.23,5.62,36.44,5.62,36.44-10.38.41-10.59-.25-9.81-32.92-7.42-39.88S187.86,175.88,187.86,175.88Z"/><path class="c" d="M192.21,242.71a.44.44,0,0,1-.43-.33c-.34-1.34-8.49-33-8.28-38.47a14.44,14.44,0,0,1,1.25-5.43c-2.85,2.59-5.28,5.07-5.37,5.73-.13,1.18,3.29,22.35,5.62,36.29a.47.47,0,0,1-.1.36.49.49,0,0,1-.32.16c-10.71.42-10.92-.21-11-.55s-9.9-33-7.42-40.17c2.4-7,20.65-24,21.43-24.75a.42.42,0,0,1,.32-.11l32,1.67a.46.46,0,0,1,.41.35c.08.37,1.95,9.08-3.63,13.55a68.761,68.761,0,0,1-8.23,5.21c-4.15,2.38-8.44,4.84-8.79,6.56-.31,1.48.5,9.1,1.28,16.46.89,8.52,1.82,17.33,1.6,20.73a.44.44,0,0,1-.34.4l-9.83,2.33ZM187,195.47a.44.44,0,0,1,.33.15.45.45,0,0,1,0,.62,11.561,11.561,0,0,0-2.91,7.7c-.19,5,7.17,34,8.15,37.8l9.08-2.15c.15-3.57-.78-12.42-1.61-20.26-.86-8.11-1.6-15.11-1.27-16.72.44-2.12,4.51-4.45,9.23-7.16a68.481,68.481,0,0,0,8.11-5.13c4.58-3.67,3.66-10.74,3.38-12.34L188,176.33c-1.71,1.6-18.83,17.79-21.05,24.26-2.28,6.62,6.67,37.14,7.37,39.47.86.25,5.42.25,9.7.1-.88-5.32-5.75-34.59-5.53-36.08s6.86-7.36,8.19-8.5A.46.46,0,0,1,187,195.47Zm-12.61,44.72Z"/><path class="d" d="M221.28,178.35s-1.9-13.84-3.7-21c0,0,5.32,9.28,11.68,9.8s25.09-21.06,25.09-21.06l-5.24-7.44S236,149,228.44,152.27c-2-4.57-13.57-21-20.25-24.29s-15.22-.7-19.79,3c-2.21,1.82-8,5.15-18,14.34a82.52,82.52,0,0,1-20.25-10.5L145,142.11s21,19.4,26.77,16.51l13.36-6.71-.71,26.14Z"/><path class="b" d="M194.12,106.86s-5.42,15.51-7.84,18.75l14.07,5.27,2.64-25Z"/><path class="c" d="M200.35,131.38a.57.57,0,0,1-.18,0l-14.07-5.27a.52.52,0,0,1-.3-.33.46.46,0,0,1,.08-.44c2.34-3.14,7.71-18.46,7.77-18.62a.49.49,0,0,1,.41-.33l8.88-1a.49.49,0,0,1,.41.14.5.5,0,0,1,.14.41l-2.65,25a.47.47,0,0,1-.23.37A.5.5,0,0,1,200.35,131.38Zm-13.3-6,12.87,4.82,2.51-23.76-7.94.9c-.75,2.1-5.06,14.19-7.44,18.02Z"/><path class="b" d="M196.86,125.85l-1.59,6.93s-.84,4.35,3.79,3.95a9.25,9.25,0,0,0,6.81-4.08l1.86-12.6c.08-.53.84-5.74,1.79-10.31-5.32-1.1-10-2.45-10-2.45.43.62-1.49.34-1.49.35a8,8,0,0,0-2.59-.1c-.89,3-2.34,6.22-2.85,9.28a30.379,30.379,0,0,0-.49,5.55C192.16,125.9,196.86,125.85,196.86,125.85Z"/><path class="c" d="M198.48,137.21a3.67,3.67,0,0,1-2.86-1.08,4.36,4.36,0,0,1-.8-3.43l1.47-6.41c-1.85-.14-4.6-1.07-4.65-3.92a30.06,30.06,0,0,1,.49-5.62,36.419,36.419,0,0,1,1.77-6.08c.38-1.08.77-2.19,1.09-3.26a.45.45,0,0,1,.37-.32,8.75,8.75,0,0,1,2.74.09,5,5,0,0,0,1,0,.5.5,0,0,1,.08-.2.46.46,0,0,1,.48-.18c.05,0,4.73,1.36,10,2.44a.4.4,0,0,1,.29.2.45.45,0,0,1,.07.34c-.83,4-1.51,8.46-1.77,10.21l-1.88,12.68a.31.31,0,0,1-.06.16,9.59,9.59,0,0,1-7.16,4.3Zm-2.77-4.32a3.5,3.5,0,0,0,.6,2.63,3.1,3.1,0,0,0,2.71.75,8.84,8.84,0,0,0,6.41-3.78c.18-1.16,1.83-12.38,1.85-12.5.26-1.78.91-6,1.7-9.9-4.12-.86-7.82-1.86-9.11-2.22-.16.17-.56.4-1.91.22a7.81,7.81,0,0,0-2.18-.13c-.31,1-.67,2-1,3A36.732,36.732,0,0,0,193,116.9a29.229,29.229,0,0,0-.48,5.46c.06,3,4.13,3,4.31,3a.43.43,0,0,1,.36.17.45.45,0,0,1,.08.39l-1.59,6.93Z"/><path class="b" d="M199.48,115.1s-3,3-2.54,3.74,2.06.6,2.06.6"/><path class="c" d="M198.73,120c-.59,0-1.75-.1-2.21-.85s.45-2.15,2.6-4.35a.5.5,0,1,1,.72.7,10.78,10.78,0,0,0-2.44,3.21c.15.21,1,.31,1.57.28a.51.51,0,0,1,.53.46.5.5,0,0,1-.47.54Z"/><ellipse class="c" cx="0.76" cy="0.41" rx="0.76" ry="0.41" transform="translate(196.298 114.443) rotate(-77.06)"/><ellipse class="c" cx="0.76" cy="0.41" rx="0.76" ry="0.41" transform="translate(201.965 116.045) rotate(-77.06)"/><path class="b" d="M198.16,112l.75-1.44.53,1.7,4.47,1.33,1.24-1.85-.13,2.5,2.35.24s-4.43,11-4.26,17.9c0,0,13.28,3.67,16.72,1.3,0,0-3.77-13.59-3.6-19s-.15-10.06-6.61-12.56-11.12-1.71-14.51,1.24a10,10,0,0,0-3.26,7.22S196.81,111.91,198.16,112Z"/><path class="c" d="M215.85,135c-5.19,0-12.47-2-12.87-2.1a.47.47,0,0,1-.37-.47c-.15-6,3.12-15,4-17.48l-1.7-.17a.49.49,0,0,1-.44-.52v-.7l-.23.35a.49.49,0,0,1-.55.2l-4.47-1.33a.51.51,0,0,1-.34-.33l-.17-.54-.19.36a.49.49,0,0,1-.49.27c-1.37-.13-6.19-1.41-6.39-1.47a.49.49,0,0,1-.37-.47,10.39,10.39,0,0,1,3.44-7.61c3.76-3.28,8.81-3.73,15-1.33,6.71,2.6,7.11,7.45,6.93,13-.17,5.31,3.55,18.75,3.59,18.88a.53.53,0,0,1-.2.55A8,8,0,0,1,215.85,135Zm-12.25-3c3.76,1,12.71,2.9,15.65,1.44-.62-2.26-3.68-13.79-3.52-18.81.17-5.39-.19-9.71-6.29-12.07-5.91-2.29-10.49-1.92-14,1.15a9.53,9.53,0,0,0-3.08,6.46c1.08.28,4.17,1.08,5.52,1.29l.59-1.13a.49.49,0,0,1,.48-.27.51.51,0,0,1,.44.35l.45,1.45L203.7,113l1-1.54a.5.5,0,0,1,.92.3l-.11,2,1.88.19a.52.52,0,0,1,.37.24.48.48,0,0,1,0,.45C207.79,114.81,203.6,125.34,203.6,132Z"/><path class="b" d="M194.5,120.15s3.39,4.07,6.74-.19"/><path class="c" d="M197.91,122.41a5.5,5.5,0,0,1-3.79-1.94.5.5,0,1,1,.76-.64,4.63,4.63,0,0,0,3,1.58H198a3.87,3.87,0,0,0,2.88-1.76.5.5,0,0,1,.79.62,4.83,4.83,0,0,1-3.66,2.14Z"/><path class="c" d="M196.86,125.85s3.71-.09,5.29-1.06c0,0-2.28,4.85-6.51,6.37Z"/><path class="c" d="M195.64,131.66a.5.5,0,0,1-.49-.61l1.22-5.31a.49.49,0,0,1,.48-.38s3.59-.11,5-1a.5.5,0,0,1,.71.64c-.09.2-2.41,5-6.79,6.62a.509.509,0,0,1-.13.04Zm1.62-5.32-.92,4a12.74,12.74,0,0,0,4.68-4.53,19.429,19.429,0,0,1-3.76.53Z"/><path class="c" d="M254.35,140.45a.44.44,0,0,1-.22,0,.5.5,0,0,1-.23-.67,4.06,4.06,0,0,0-.1-3.86.5.5,0,0,1,.15-.69.49.49,0,0,1,.69.15,5,5,0,0,1,.16,4.84.49.49,0,0,1-.45.23Z"/><path class="b" d="M219.53,159.93s-6-7.65-9.82-12.4"/><path class="c" d="M219.53,160.43a.5.5,0,0,1-.4-.19c-.06-.07-6-7.7-9.81-12.39a.5.5,0,0,1,.78-.63c3.79,4.7,9.76,12.33,9.82,12.41a.5.5,0,0,1-.09.7A.49.49,0,0,1,219.53,160.43Z"/><line class="b" x1="0.8" y2="31.85" transform="translate(184.52 142.97)"/><path class="c" d="M184.52,175.32h0a.5.5,0,0,1-.48-.52l.8-31.85a.5.5,0,0,1,1,0l-.8,31.85a.51.51,0,0,1-.52.52Z"/><circle class="d" cx="34.99" cy="34.99" r="34.99" transform="translate(209.76 32.75)"/><path class="b" d="M256.75,57.29l4.19-5.06a16,16,0,0,0-5.61-4,16.7,16.7,0,0,0-14.61.66c-4.76,2.36-7.52,6.42-9.08,11.38-.51,1.61-.5,1.61-2.22,1.62h-4.75V66.6h5.89V69h-5.88v4.73h6.41c2,7.88,6.31,13.34,14.63,14.69a16.41,16.41,0,0,0,16-5.84l-4.17-4.92c-1.89,1.94-3.89,3.59-6.59,4a9.75,9.75,0,0,1-7.53-1.51,11.45,11.45,0,0,1-4.24-6.5h15.1V68.93H238.55V66.52h15.74v-4.7h-15c1.12-3.57,3.07-6.35,6.62-7.58C250.11,52.77,253.68,54.06,256.75,57.29Z"/><path class="b" d="M244.75,97.84a30.1,30.1,0,1,1,30.1-30.1,30.1,30.1,0,0,1-30.1,30.1Zm0-59.2a29.1,29.1,0,1,0,29.1,29.1,29.1,29.1,0,0,0-29.1-29.1Z"/><circle class="d" cx="34.99" cy="34.99" r="34.99" transform="translate(120.26 32.75)"/><path class="b" d="M151.81,78.9a11.1,11.1,0,0,0,.72-8.66h5.56V65.62c-2.19,0-4.32-.08-6.44,0a1.8,1.8,0,0,1-2-1.24c-1.74-3.63-1.28-7.29,1.43-10s7-3.26,9.85.26a40,40,0,0,1,2.6,4c.26.42.45.87.69,1.33l6-2.62c-.78-1.4-1.48-2.77-2.27-4.07a15.18,15.18,0,0,0-6-5.92c-4.93-2.47-9.69-1.87-14,1.36a13.66,13.66,0,0,0-5.66,13.43c.14,1.12.47,2.22.74,3.42h-4.31V70.2h6.15c.23,0,.6.06.67.21.62,1.26,1.31,2.55.94,4A10.81,10.81,0,0,1,140,82l-.42.22L141.71,88c.35-.13.63-.21.88-.32,1.13-.52,2.23-1.11,3.38-1.57,2.79-1.11,5.63-1.5,8.49-.22.72.32,1.45.61,2.18.92,4.34,1.85,8.19.52,12-1.77-.99-2.04-1.89-4.04-2.8-6.04-.5.3-.9.57-1.32.79-1.85,1-3.8,1.73-5.89,1S154.3,79,151.81,78.9Z"/><path class="b" d="M155.25,97.84a30.1,30.1,0,1,1,30.11-30.1A30.1,30.1,0,0,1,155.25,97.84Zm0-59.2a29.1,29.1,0,1,0,29.11,29.1,29.1,29.1,0,0,0-29.11-29.1Z"/><circle class="d" cx="34.99" cy="34.99" r="34.99" transform="translate(56.53 88.64)"/><path class="b" d="M100.24,123.33A53.746,53.746,0,0,0,95.35,121a.74.74,0,0,1-.53-.78v-8.61a3.493,3.493,0,0,1,.06-.37,12.41,12.41,0,0,1,5.44,3.49c1.41-1.63,2.73-3.18,4.08-4.75a16.58,16.58,0,0,0-9-5.2c-.5-.11-.66-.29-.64-.8v-3.13h-5.2v3.55a37.327,37.327,0,0,0-4,1.4c-3.68,1.82-6,4.67-6.19,8.93s1.83,7.13,5.33,9.15a46.36,46.36,0,0,0,4.39,2.08.72.72,0,0,1,.53.78V136.9a13.93,13.93,0,0,1-7.25-3.9l-4.48,4.9a19.09,19.09,0,0,0,11.68,5.5v3h5.25v-3.19l.75-.19a15.24,15.24,0,0,0,4.48-1.84C106.64,137.14,107,127.36,100.24,123.33Zm-10.71-5a4.06,4.06,0,0,1-3.12-3.75,3.53,3.53,0,0,1,3.12-3.41Zm5.34,18.12c0-.14-.05-.28-.05-.42v-7.47a4.05,4.05,0,0,1,3.14,4,4,4,0,0,1-3.09,3.92Z"/><path class="b" d="M91.52,153.73a30.1,30.1,0,1,1,30.1-30.1A30.1,30.1,0,0,1,91.52,153.73Zm0-59.2a29.1,29.1,0,1,0,29.1,29.1,29.1,29.1,0,0,0-29.1-29.1Z"/><circle class="d" cx="34.99" cy="34.99" r="34.99" transform="translate(273.49 88.64)"/><path class="b" d="M324.33,105.59l-10.2,18.94h8.4V129h-9.68v2.24h9.67v4.47h-9.69V146.3h-8.64V135.79h-9.72v-4.48h9.67V129h-9.66v-4.45h8.39c-3.44-6.37-6.81-12.63-10.23-19h8.71a.7.7,0,0,1,.78.52q3,7,6.05,13.92c.08.19.18.36.34.68.18-.37.3-.59.4-.82q3.06-6.87,6.13-13.73c.11-.23.4-.54.61-.55C318.51,105.58,321.35,105.59,324.33,105.59Z"/><path class="b" d="M308.48,153.73a30.1,30.1,0,1,1,30.1-30.1A30.1,30.1,0,0,1,308.48,153.73Zm0-59.2a29.1,29.1,0,1,0,29.1,29.1,29.1,29.1,0,0,0-29.1-29.1Z"/></g></svg>