<svg viewBox="0 0 433 399" fill="none" xmlns="http://www.w3.org/2000/svg">
<g clip-path="url(#clip0_707_716)">
<path d="M373.39 328.979H316.236V323.228C316.236 313.422 317.313 305.441 319.521 299.321C321.73 293.147 325.016 287.598 329.379 282.53C333.741 277.442 343.544 268.521 358.805 255.766C366.928 249.075 370.98 242.955 370.98 237.407C370.98 231.804 369.337 227.509 366.106 224.394C362.821 221.334 357.892 219.786 351.266 219.786C344.128 219.786 338.269 222.164 333.595 226.938C328.922 231.656 325.947 240.006 324.651 251.821L266.273 244.504C268.281 222.827 276.076 205.409 289.639 192.174C303.238 178.958 324.103 172.378 352.178 172.378C374.047 172.378 391.662 176.986 405.116 186.165C423.352 198.662 432.497 215.252 432.497 236.006C432.497 244.614 430.143 252.964 425.415 260.945C420.742 268.926 411.085 278.732 396.555 290.234C386.442 298.381 380.016 304.851 377.351 309.791C374.741 314.657 373.39 321.09 373.39 328.979ZM314.246 344.333H375.507V398.893H314.246V344.333Z" fill="#21397B" fill-opacity="0.2"/>
</g>
<g clip-path="url(#clip1_707_716)">
<path d="M72.2586 279.451H34.1557V275.617C34.1557 269.08 34.8737 263.759 36.3462 259.679C37.8188 255.563 40.0093 251.864 42.9178 248.485C45.8263 245.093 52.3614 239.146 62.5351 230.642C67.9506 226.182 70.6522 222.102 70.6522 218.403C70.6522 214.668 69.557 211.804 67.4029 209.728C65.2124 207.688 61.9266 206.656 57.5091 206.656C52.7508 206.656 48.8444 208.241 45.729 211.423C42.6136 214.569 40.6299 220.136 39.7659 228.013L0.847656 223.134C2.18631 208.683 7.38271 197.071 16.4247 188.248C25.491 179.437 39.4008 175.05 58.1176 175.05C72.6967 175.05 84.4403 178.122 93.4093 184.242C105.567 192.573 111.664 203.633 111.664 217.469C111.664 223.208 110.094 228.774 106.942 234.095C103.826 239.416 97.3887 245.953 87.7018 253.621C80.9598 259.053 76.6761 263.366 74.8994 266.659C73.1591 269.903 72.2586 274.192 72.2586 279.451ZM32.8292 289.687H73.6703V326.06H32.8292V289.687Z" fill="#21397B" fill-opacity="0.05"/>
</g>
<g clip-path="url(#clip2_707_716)">
<path d="M228.605 208.801H152.399V201.134C152.399 188.059 153.835 177.417 156.78 169.258C159.725 161.025 164.106 153.627 169.923 146.869C175.741 140.086 188.811 128.191 209.158 111.184C219.989 102.263 225.392 94.1032 225.392 86.7057C225.392 79.2344 223.202 73.5081 218.894 69.3547C214.513 65.275 207.941 63.2106 199.106 63.2106C189.589 63.2106 181.777 66.381 175.546 72.7463C169.315 79.0378 165.348 90.171 163.62 105.924L85.7832 96.1676C88.4605 67.2657 98.8533 44.041 116.937 26.3951C135.07 8.77379 162.889 0 200.323 0C229.481 0 252.969 6.14411 270.906 18.3832C295.221 35.046 307.415 57.1648 307.415 84.8379C307.415 96.3151 304.275 107.448 297.972 118.09C291.741 128.731 278.865 141.806 259.491 157.142C246.008 168.005 237.44 176.631 233.887 183.217C230.406 189.706 228.605 198.283 228.605 208.801ZM149.746 229.274H231.428V302.02H149.746V229.274Z" fill="#21397B" fill-opacity="0.4"/>
</g>
<defs>
<clipPath id="clip0_707_716">
<rect width="166.224" height="226.496" fill="white" transform="translate(266.276 172.378)"/>
</clipPath>
<clipPath id="clip1_707_716">
<rect width="110.816" height="150.998" fill="white" transform="translate(0.847656 175.05)"/>
</clipPath>
<clipPath id="clip2_707_716">
<rect width="221.632" height="301.995" fill="white" transform="translate(85.7822)"/>
</clipPath>
</defs>
</svg>
