<?xml version="1.0" encoding="UTF-8"?>
<svg id="Layer_2" data-name="Layer 2" xmlns="http://www.w3.org/2000/svg" width="1000" height="353.47" viewBox="0 0 1000 353.47">
  <g id="Layer_1-2" data-name="Layer 1">
    <g>
      <g>
        <path d="M156.82,22.68C139.51,8.33,115.29,1.06,84.83,1.06H0v249.22h9.69v-84.54h75.14c30.46,0,54.68-7.27,71.99-21.62,17.38-14.4,26.19-34.83,26.19-60.73s-8.81-46.31-26.19-60.71ZM173.32,83.39c0,23.21-7.61,41.36-22.61,53.94-15.08,12.65-37.02,19.07-65.2,19.07H9.69V10.39h75.82c28.18,0,50.11,6.41,65.2,19.06,15,12.6,22.61,30.75,22.61,53.94Z"/>
        <polygon points="423.84 128.4 559.81 128.4 559.81 119.07 423.84 119.07 423.84 10.39 575.66 10.39 575.66 1.06 414.15 1.06 414.15 250.28 580.96 250.28 580.96 240.95 423.84 240.95 423.84 128.4"/>
        <polygon points="230.41 128.4 366.38 128.4 366.38 119.07 230.41 119.07 230.41 10.39 382.23 10.39 382.23 1.06 220.72 1.06 220.72 250.28 387.53 250.28 387.53 240.95 230.41 240.95 230.41 128.4"/>
        <path d="M782.48,133.71c10.71-13.46,16.14-30.39,16.14-50.32,0-25.89-8.81-46.31-26.19-60.71-17.31-14.34-41.53-21.62-71.99-21.62h-84.83v249.22h9.69v-84.54h75.14c10.71,0,20.22-.78,28.29-2.33l62.6,86.87h12.08l-64.52-89.3c18.56-5.09,33.22-14.26,43.59-27.27ZM788.93,83.39c0,23.21-7.61,41.36-22.61,53.94-15.08,12.65-37.02,19.07-65.2,19.07h-75.82V10.39h75.82c28.17,0,50.11,6.41,65.2,19.06,15,12.6,22.61,30.75,22.61,53.94Z"/>
        <path d="M988.75,153.86c-7.4-8.46-16.57-14.87-27.26-19.04-10.56-4.09-24.96-8.44-42.79-12.91-17.11-4.22-30.81-8.23-40.74-11.92-9.84-3.66-18.19-9.29-24.82-16.73-6.57-7.34-9.9-17.3-9.9-29.59,0-15.72,6.36-28.82,18.89-38.95,12.61-10.21,31.29-15.39,55.53-15.39,11.32,0,22.98,1.82,34.67,5.4,11.65,3.58,22.36,8.91,31.83,15.83l1.1.8,5.36-7.8-1.02-.76c-9.21-6.86-20.35-12.44-33.12-16.58-12.8-4.13-25.98-6.23-39.16-6.23-18.42,0-34.13,2.88-46.7,8.57-12.64,5.72-22.08,13.48-28.04,23.05-5.99,9.57-9.03,20.23-9.03,31.69,0,14.6,3.85,26.45,11.44,35.22,7.5,8.69,16.74,15.22,27.47,19.39,10.54,4.11,25.05,8.45,43.15,12.91,16.74,3.96,30.25,7.85,40.17,11.58,9.75,3.67,18.04,9.24,24.66,16.55,6.56,7.24,9.89,17.14,9.89,29.42,0,15.69-6.41,28.67-19.04,38.59-12.76,9.98-31.99,15.04-57.15,15.04-16.41,0-32.11-3.1-46.68-9.23-14.56-6.12-25.89-13.89-33.68-23.07l-.89-1.05-6.85,6.37.78.96c8.56,10.46,20.93,19.06,36.78,25.57,15.81,6.49,32.94,9.79,50.9,9.79,18.87,0,34.87-2.82,47.54-8.4,12.75-5.6,22.37-13.29,28.58-22.85,6.21-9.55,9.36-20.22,9.36-31.72,0-14.35-3.78-25.96-11.25-34.51Z"/>
      </g>
      <g>
        <path d="M15.6,338.16h-5.37v-38.16H0v-4.91h25.82v4.91h-10.23v38.16Z"/>
        <path d="M35.61,295.08v19.94h.11c1.64-2.93,4.32-4.4,8.05-4.4,6.32,0,9.48,3.87,9.48,11.6v15.94h-5.14v-15.31c0-2.63-.32-4.47-.97-5.54-.84-1.41-2.48-2.11-4.91-2.11-2.93,0-4.86,1.18-5.77,3.54-.57,1.37-.86,3.75-.86,7.14v12.28h-5.14v-43.07h5.14Z"/>
        <path d="M63.43,325.65c.04,2.4.78,4.44,2.23,6.11,1.52,1.83,3.47,2.74,5.83,2.74,3.24,0,5.9-1.73,8-5.2l4.34,2.46c-2.67,4.88-6.8,7.31-12.4,7.31-4,0-7.22-1.35-9.65-4.06-2.32-2.63-3.48-5.96-3.48-10,0-4.27,1.09-7.69,3.26-10.28,2.32-2.74,5.58-4.11,9.77-4.11s7.22,1.37,9.43,4.11c2.06,2.55,3.08,5.92,3.08,10.11v.8h-20.39ZM78.68,321.76c-.69-4.46-3.14-6.68-7.37-6.68-1.98,0-3.68.63-5.08,1.89-1.37,1.26-2.21,2.86-2.51,4.8h14.97Z"/>
        <path d="M135.68,303.31c-3.16-2.82-6.95-4.23-11.37-4.23-4.76,0-8.8,1.73-12.11,5.2-3.28,3.43-4.91,7.56-4.91,12.4s1.62,8.85,4.86,12.28c3.27,3.47,7.29,5.2,12.05,5.2,4.34,0,8.17-1.49,11.48-4.46v6.34c-3.43,2.02-7.2,3.03-11.31,3.03-6.17,0-11.45-2.15-15.82-6.46-4.42-4.3-6.63-9.56-6.63-15.77s2.23-11.73,6.68-16.11c4.46-4.38,9.86-6.57,16.22-6.57,4.07,0,7.69.97,10.85,2.91v6.23Z"/>
        <path d="M144.59,325.65c.04,2.4.78,4.44,2.23,6.11,1.52,1.83,3.47,2.74,5.83,2.74,3.24,0,5.9-1.73,8-5.2l4.34,2.46c-2.67,4.88-6.8,7.31-12.4,7.31-4,0-7.22-1.35-9.65-4.06-2.32-2.63-3.48-5.96-3.48-10,0-4.27,1.09-7.69,3.26-10.28,2.32-2.74,5.58-4.11,9.77-4.11s7.22,1.37,9.43,4.11c2.06,2.55,3.08,5.92,3.08,10.11v.8h-20.39ZM159.84,321.76c-.69-4.46-3.14-6.68-7.37-6.68-1.98,0-3.68.63-5.08,1.89-1.37,1.26-2.21,2.86-2.51,4.8h14.97Z"/>
        <path d="M174.52,315.02h.11c1.64-2.93,4.32-4.4,8.05-4.4,6.32,0,9.48,3.87,9.48,11.6v15.94h-5.14v-15.31c0-2.63-.32-4.47-.97-5.54-.84-1.41-2.48-2.11-4.91-2.11-2.93,0-4.86,1.18-5.77,3.54-.57,1.37-.86,3.75-.86,7.14v12.28h-5.14v-26.74h5.14v3.6Z"/>
        <path d="M205.14,338.16h-5.14v-21.94h-2.8v-4.8h2.8v-10.23h5.14v10.23h5.03v4.8h-5.03v21.94Z"/>
        <path d="M219.44,315.76h.17c1.37-3.43,3.81-5.14,7.31-5.14,1.45,0,2.86.44,4.23,1.31l-2.34,4.68c-.84-.72-1.89-1.09-3.14-1.09-4.15,0-6.23,3.16-6.23,9.48v13.14h-5.14v-26.74h5.14v4.34Z"/>
        <path d="M258.1,338.16h-5.14v-4.17h-.11c-2.29,3.39-5.31,5.08-9.08,5.08s-7.08-1.45-9.48-4.34c-2.21-2.7-3.31-6.07-3.31-10.11,0-3.81,1.14-7.06,3.43-9.77,2.36-2.82,5.43-4.23,9.2-4.23s6.93,1.75,9.25,5.26h.11v-4.46h5.14v26.74ZM251.01,331.59c1.49-1.79,2.23-4.06,2.23-6.8s-.76-4.95-2.29-6.74c-1.6-1.9-3.73-2.86-6.4-2.86s-4.63.97-6.23,2.91c-1.49,1.83-2.23,4.06-2.23,6.68s.72,4.91,2.17,6.74c1.6,1.98,3.69,2.97,6.28,2.97s4.86-.97,6.46-2.91Z"/>
        <path d="M270.15,338.16h-5.14v-43.07h5.14v43.07Z"/>
        <path d="M318.57,332.33c-3.81,4.49-8.11,6.74-12.91,6.74-3.66,0-6.76-1.18-9.31-3.54-2.59-2.44-3.88-5.48-3.88-9.14,0-4,2.51-7.81,7.54-11.43l2.69-1.94c-3.16-3.31-4.74-6.46-4.74-9.43s.95-5.22,2.86-6.97c1.83-1.64,4.19-2.46,7.08-2.46,2.74,0,5.06.78,6.97,2.34,1.98,1.68,2.97,3.89,2.97,6.63,0,3.35-2.61,6.93-7.83,10.74l8.97,10.85,5.03-5.83,3.43,3.54-5.26,6.17,7.71,9.54h-6.63l-4.68-5.83ZM305.32,317.25c-2.59,1.79-4.27,3.05-5.03,3.77-1.87,1.75-2.8,3.52-2.8,5.31,0,2.06.82,3.88,2.46,5.48,1.64,1.64,3.48,2.46,5.54,2.46,2.78,0,6.07-1.9,9.88-5.71l-9.54-11.65-.51.34ZM307.66,309.71c1.98-1.56,3.1-2.49,3.37-2.8,1.18-1.18,1.77-2.46,1.77-3.83,0-1.49-.48-2.65-1.43-3.48-.91-.8-2.11-1.2-3.6-1.2-1.33,0-2.46.42-3.37,1.26-.95.88-1.43,1.98-1.43,3.31,0,1.41.86,3.2,2.57,5.37l1.43,1.83.69-.46Z"/>
        <path d="M350.58,295.08h23.14v4.91h-17.77v12.05h17.25v4.91h-17.25v16.28h17.77v4.91h-23.14v-43.07Z"/>
        <path d="M404.86,338.16h-5.14v-4.17h-.11c-2.29,3.39-5.31,5.08-9.08,5.08s-7.08-1.45-9.48-4.34c-2.21-2.7-3.31-6.07-3.31-10.11,0-3.81,1.14-7.06,3.43-9.77,2.36-2.82,5.43-4.23,9.2-4.23s6.93,1.75,9.25,5.26h.11v-4.46h5.14v26.74ZM397.77,331.59c1.49-1.79,2.23-4.06,2.23-6.8s-.76-4.95-2.29-6.74c-1.6-1.9-3.73-2.86-6.4-2.86s-4.63.97-6.23,2.91c-1.49,1.83-2.23,4.06-2.23,6.68s.72,4.91,2.17,6.74c1.6,1.98,3.69,2.97,6.28,2.97s4.86-.97,6.46-2.91Z"/>
        <path d="M422.28,317.53c-.76-1.56-1.9-2.34-3.43-2.34-.72,0-1.37.25-1.94.74-.57.53-.86,1.16-.86,1.89,0,1.03.65,1.94,1.94,2.74.42.27,1.85.95,4.28,2.06,4.11,1.87,6.17,4.4,6.17,7.6,0,2.51-.91,4.63-2.74,6.34-1.79,1.68-3.94,2.51-6.46,2.51-2.02,0-3.87-.53-5.54-1.6-1.79-1.1-3.03-2.57-3.71-4.4l4.4-2c1.26,2.29,2.88,3.43,4.86,3.43,1.1,0,2.06-.34,2.86-1.03.8-.72,1.2-1.64,1.2-2.74s-.63-2.08-1.89-2.91l-5.03-2.68c-3.43-1.83-5.14-4.08-5.14-6.74,0-2.17.78-4.02,2.34-5.54,1.52-1.49,3.37-2.23,5.54-2.23,3.35,0,5.79,1.56,7.31,4.68l-4.17,2.23Z"/>
        <path d="M439.36,338.16h-5.14v-21.94h-2.8v-4.8h2.8v-10.23h5.14v10.23h5.03v4.8h-5.03v21.94Z"/>
        <path d="M451.26,325.65c.04,2.4.78,4.44,2.23,6.11,1.52,1.83,3.47,2.74,5.83,2.74,3.24,0,5.9-1.73,8-5.2l4.34,2.46c-2.67,4.88-6.8,7.31-12.4,7.31-4,0-7.22-1.35-9.65-4.06-2.32-2.63-3.48-5.96-3.48-10,0-4.27,1.09-7.69,3.26-10.28,2.32-2.74,5.58-4.11,9.77-4.11s7.22,1.37,9.43,4.11c2.06,2.55,3.08,5.92,3.08,10.11v.8h-20.39ZM466.52,321.76c-.69-4.46-3.14-6.68-7.37-6.68-1.98,0-3.68.63-5.08,1.89-1.37,1.26-2.21,2.86-2.51,4.8h14.97Z"/>
        <path d="M481.54,315.76h.17c1.37-3.43,3.81-5.14,7.31-5.14,1.45,0,2.86.44,4.23,1.31l-2.34,4.68c-.84-.72-1.89-1.09-3.14-1.09-4.15,0-6.23,3.16-6.23,9.48v13.14h-5.14v-26.74h5.14v4.34Z"/>
        <path d="M501.7,315.02h.11c1.64-2.93,4.32-4.4,8.05-4.4,6.32,0,9.48,3.87,9.48,11.6v15.94h-5.14v-15.31c0-2.63-.32-4.47-.97-5.54-.84-1.41-2.48-2.11-4.91-2.11-2.93,0-4.86,1.18-5.77,3.54-.57,1.37-.86,3.75-.86,7.14v12.28h-5.14v-26.74h5.14v3.6Z"/>
        <path d="M543.52,295.08h23.14v4.91h-17.77v12.05h17.25v4.91h-17.25v16.28h17.77v4.91h-23.14v-43.07Z"/>
        <path d="M576.63,311.42v14.8c0,5.37,2.06,8.05,6.17,8.05s6.17-2.69,6.17-8.05v-14.8h5.14v15.37c0,8.19-3.77,12.28-11.31,12.28s-11.31-4.09-11.31-12.28v-15.37h5.14Z"/>
        <path d="M605.46,315.76h.17c1.37-3.43,3.81-5.14,7.31-5.14,1.45,0,2.86.44,4.23,1.31l-2.34,4.68c-.84-.72-1.89-1.09-3.14-1.09-4.15,0-6.23,3.16-6.23,9.48v13.14h-5.14v-26.74h5.14v4.34Z"/>
        <path d="M641.09,314.73c2.74,2.74,4.11,6.11,4.11,10.11s-1.37,7.37-4.11,10.11c-2.78,2.74-6.17,4.11-10.17,4.11s-7.37-1.37-10.11-4.11c-2.78-2.74-4.17-6.11-4.17-10.11s1.39-7.37,4.17-10.11c2.74-2.74,6.11-4.11,10.11-4.11s7.39,1.37,10.17,4.11ZM624.46,318.28c-1.79,1.83-2.68,4.02-2.68,6.57s.89,4.68,2.68,6.51c1.79,1.87,3.94,2.8,6.46,2.8s4.66-.93,6.46-2.8c1.79-1.83,2.69-4,2.69-6.51s-.9-4.74-2.69-6.57c-1.79-1.83-3.94-2.74-6.46-2.74s-4.67.91-6.46,2.74Z"/>
        <path d="M654.63,315.88h.11c2.32-3.5,5.43-5.26,9.31-5.26s6.8,1.41,9.2,4.23c2.25,2.7,3.37,5.96,3.37,9.77,0,4.04-1.11,7.41-3.31,10.11-2.36,2.89-5.52,4.34-9.48,4.34s-6.8-1.69-9.08-5.08h-.11v19.48h-5.14v-42.05h5.14v4.46ZM669.25,331.59c1.49-1.79,2.23-4.06,2.23-6.8s-.76-4.95-2.28-6.74c-1.6-1.9-3.73-2.86-6.4-2.86s-4.63.97-6.23,2.91c-1.49,1.83-2.23,4.06-2.23,6.68s.72,4.91,2.17,6.74c1.6,1.98,3.69,2.97,6.28,2.97s4.86-.97,6.46-2.91Z"/>
        <path d="M685.73,325.65c.04,2.4.78,4.44,2.23,6.11,1.52,1.83,3.47,2.74,5.83,2.74,3.24,0,5.9-1.73,8-5.2l4.34,2.46c-2.67,4.88-6.8,7.31-12.4,7.31-4,0-7.22-1.35-9.65-4.06-2.32-2.63-3.48-5.96-3.48-10,0-4.27,1.09-7.69,3.26-10.28,2.32-2.74,5.58-4.11,9.77-4.11s7.22,1.37,9.43,4.11c2.06,2.55,3.09,5.92,3.09,10.11v.8h-20.39ZM700.98,321.76c-.69-4.46-3.14-6.68-7.37-6.68-1.98,0-3.68.63-5.08,1.89-1.37,1.26-2.21,2.86-2.51,4.8h14.97Z"/>
        <path d="M736.59,338.16h-5.14v-4.17h-.11c-2.29,3.39-5.31,5.08-9.08,5.08s-7.08-1.45-9.48-4.34c-2.21-2.7-3.31-6.07-3.31-10.11,0-3.81,1.14-7.06,3.43-9.77,2.36-2.82,5.43-4.23,9.2-4.23s6.93,1.75,9.25,5.26h.11v-4.46h5.14v26.74ZM729.51,331.59c1.49-1.79,2.23-4.06,2.23-6.8s-.76-4.95-2.29-6.74c-1.6-1.9-3.73-2.86-6.4-2.86s-4.63.97-6.23,2.91c-1.49,1.83-2.23,4.06-2.23,6.68s.72,4.91,2.17,6.74c1.6,1.98,3.69,2.97,6.28,2.97s4.86-.97,6.46-2.91Z"/>
        <path d="M748.41,315.02h.11c1.64-2.93,4.32-4.4,8.05-4.4,6.32,0,9.48,3.87,9.48,11.6v15.94h-5.14v-15.31c0-2.63-.32-4.47-.97-5.54-.84-1.41-2.48-2.11-4.91-2.11-2.93,0-4.86,1.18-5.77,3.54-.57,1.37-.86,3.75-.86,7.14v12.28h-5.14v-26.74h5.14v3.6Z"/>
        <path d="M795.6,333.24h13.08v4.91h-18.45v-43.07h5.37v38.16Z"/>
        <path d="M837.72,338.16h-5.14v-4.17h-.11c-2.29,3.39-5.31,5.08-9.08,5.08s-7.08-1.45-9.48-4.34c-2.21-2.7-3.31-6.07-3.31-10.11,0-3.81,1.14-7.06,3.43-9.77,2.36-2.82,5.43-4.23,9.2-4.23s6.93,1.75,9.25,5.26h.11v-4.46h5.14v26.74ZM830.64,331.59c1.49-1.79,2.23-4.06,2.23-6.8s-.76-4.95-2.29-6.74c-1.6-1.9-3.73-2.86-6.4-2.86s-4.63.97-6.23,2.91c-1.49,1.83-2.23,4.06-2.23,6.68s.72,4.91,2.17,6.74c1.6,1.98,3.69,2.97,6.28,2.97s4.86-.97,6.46-2.91Z"/>
        <path d="M854.54,328.44l7.88-18.51,7.83,18.51,7.77-17.02h5.83l-13.6,27.65-7.83-17.88-7.88,17.88-13.6-27.65h5.83l7.77,17.02Z"/>
        <path d="M908.81,299.99v12.11h14.97v4.91h-14.97v21.14h-5.37v-43.07h20.85v4.91h-15.48Z"/>
        <path d="M935.24,302.22c.69.72,1.03,1.58,1.03,2.57s-.34,1.77-1.03,2.46-1.52,1.03-2.51,1.03-1.83-.34-2.51-1.03c-.69-.69-1.03-1.5-1.03-2.46s.34-1.85,1.03-2.57c.69-.69,1.52-1.03,2.51-1.03s1.83.34,2.51,1.03ZM935.3,338.16h-5.14v-26.74h5.14v26.74Z"/>
        <path d="M948.01,315.76h.17c1.37-3.43,3.81-5.14,7.31-5.14,1.45,0,2.86.44,4.23,1.31l-2.34,4.68c-.84-.72-1.89-1.09-3.14-1.09-4.15,0-6.23,3.16-6.23,9.48v13.14h-5.14v-26.74h5.14v4.34Z"/>
        <path d="M968.01,314.79h.11c1.75-2.78,4.11-4.17,7.08-4.17,3.31,0,5.88,1.58,7.71,4.74,1.83-3.16,4.57-4.74,8.23-4.74,5.9,0,8.85,3.85,8.85,11.54v16h-5.14v-15.14c0-5.22-1.66-7.83-4.97-7.83-3.92,0-5.88,3.28-5.88,9.83v13.14h-5.14v-14.17c0-2.55-.23-4.46-.69-5.71-.72-2.06-2.13-3.08-4.23-3.08-3.96,0-5.94,3.28-5.94,9.83v13.14h-5.14v-26.74h5.14v3.37Z"/>
      </g>
    </g>
  </g>
</svg>