<svg id="Vrstva_1" data-name="Vrstva 1" xmlns="http://www.w3.org/2000/svg" viewBox="0 0 656.26 452.27"><defs><style>.cls-1{fill:#d0d2d3;}.cls-2{fill:#fff;}.cls-3,.cls-5{fill:#051f60;}.cls-4{fill:#fc863b;}.cls-5{isolation:isolate;font-size:53.67px;font-family:Montserrat-Bold, Montserrat;font-weight:700;letter-spacing:0.01em;}.cls-6{fill:#2fa19c;}.cls-7{fill:#f9f9f9;}.cls-8{fill:#231f20;}.cls-9{fill:none;}.cls-10{fill:#fa863a;}.cls-11{fill:#cb171c;}</style></defs><path id="Path_5844" data-name="Path 5844" class="cls-1" d="M645.82,455.8h-573a1,1,0,0,1,0-1.95h573a1,1,0,0,1,0,1.95Z" transform="translate(-71.87 -72.92)"/><path id="Path_5845" data-name="Path 5845" class="cls-2" d="M616.16,95.8V384.67a21.91,21.91,0,0,1-21.91,21.91H124.44a21.91,21.91,0,0,1-21.9-21.91h0V95.8a21.91,21.91,0,0,1,21.9-21.91h469.9A21.92,21.92,0,0,1,616.16,95.8Z" transform="translate(-71.87 -72.92)"/><path id="Path_5846" data-name="Path 5846" class="cls-3" d="M594.26,407.57H124.44a22.88,22.88,0,0,1-22.89-22.87h0V95.8a22.88,22.88,0,0,1,22.88-22.88H594.34A22.87,22.87,0,0,1,617.12,95.8V384.67a22.88,22.88,0,0,1-22.86,22.9ZM124.44,74.87A21,21,0,0,0,103.52,95.8V384.67a21,21,0,0,0,20.92,20.95h469.9a20.94,20.94,0,0,0,20.81-20.93V95.8a21,21,0,0,0-20.92-20.93Z" transform="translate(-71.87 -72.92)"/><path id="Path_5847" data-name="Path 5847" class="cls-3" d="M616.16,95.8v15.65H102.54V95.8a21.91,21.91,0,0,1,21.9-21.91h469.9A21.92,21.92,0,0,1,616.16,95.8Z" transform="translate(-71.87 -72.92)"/><path id="Path_5848" data-name="Path 5848" class="cls-3" d="M616.16,112.35H102.54a.86.86,0,0,1-.86-.85V95.8A22.79,22.79,0,0,1,124.44,73h469.9A22.78,22.78,0,0,1,617,95.8v15.64a.86.86,0,0,1-.84.87h0ZM103.38,110.6H615.29V95.8a21.05,21.05,0,0,0-21-21H124.44a21.07,21.07,0,0,0-21,21Z" transform="translate(-71.87 -72.92)"/><path id="Path_5849" data-name="Path 5849" class="cls-4" d="M311.61,111.44,293.12,81.25h-98.9l-20.81,30.19H102.54v46H616.16v-46Z" transform="translate(-71.87 -72.92)"/><path id="Path_5850" data-name="Path 5850" class="cls-3" d="M616.15,158.45H102.54a1,1,0,0,1-1-1h0v-46a1,1,0,0,1,1-1h70.35l20.47-29.79a1,1,0,0,1,.8-.43h99a1,1,0,0,1,.84.46l18.26,29.73H616.15a1,1,0,0,1,1,1h0v46a1,1,0,0,1-1,1h0ZM103.54,156.5H615.15V112.42H311.61a1,1,0,0,1-.83-.46L292.52,82.23H194.67l-20.48,29.86a.9.9,0,0,1-.8.42h-70Z" transform="translate(-71.87 -72.92)"/><circle id="Ellipse_102" data-name="Ellipse 102" class="cls-4" cx="54.43" cy="19.75" r="5.25"/><circle id="Ellipse_103" data-name="Ellipse 103" class="cls-2" cx="72.08" cy="19.75" r="5.25"/><circle id="Ellipse_104" data-name="Ellipse 104" class="cls-2" cx="89.73" cy="19.75" r="5.25"/><rect id="Rectangle_301" data-name="Rectangle 301" class="cls-2" x="99.06" y="178.63" width="389.19" height="42.98"/><path id="Path_5851" data-name="Path 5851" class="cls-3" d="M560.13,295.5H170.93a1,1,0,0,1-1-1v-43a1,1,0,0,1,1-1H560.13a1,1,0,0,1,1,.94v43a1,1,0,0,1-1,1Zm-388.22-1.95H559.15v-41H171.91Z" transform="translate(-71.87 -72.92)"/><g id="PEP"><text class="cls-5" transform="translate(230.05 152.63)">PEP</text></g><path id="Path_5852" data-name="Path 5852" class="cls-3" d="M509.28,295.5h0a1,1,0,0,1-1-1h0c.2-16,.37-40.39,0-42.6a1.15,1.15,0,0,1,0-.37,1,1,0,0,1,1.09-.93h0a.91.91,0,0,1,.58.24c.36.37.78.8.27,43.68a1,1,0,0,1-.95.95Z" transform="translate(-71.87 -72.92)"/><rect id="Rectangle_302" data-name="Rectangle 302" class="cls-2" x="99.06" y="49.36" width="402.84" height="24.98" rx="6.53"/><path id="Path_5853" data-name="Path 5853" class="cls-1" d="M555.67,140.37a.89.89,0,0,1-.58-.18,1,1,0,0,1-.39-.95l.72-4.17-3-3a1,1,0,0,1-.25-1,1,1,0,0,1,.8-.66l4.16-.54,1.95-3.89a1,1,0,0,1,.87-.55h0a1,1,0,0,1,.88.55l2,3.89,4.21.6a1,1,0,0,1,.79.66.91.91,0,0,1-.26,1l-3,3,.72,4.17a1,1,0,0,1-.38,1,1,1,0,0,1-1,0L560,138.29l-3.74,1.94a1.17,1.17,0,0,1-.61.17Zm-.52-8.3,2,2a1,1,0,0,1,.27.87l-.47,2.74,2.47-1.3a1.06,1.06,0,0,1,.89,0l2.47,1.3-.46-2.74a1,1,0,0,1,.27-.87l1.94-2-2.76-.4a1,1,0,0,1-.73-.55l-1.23-2.48-1.23,2.48a1,1,0,0,1-.73.55Z" transform="translate(-71.87 -72.92)"/><path id="Path_5854" data-name="Path 5854" class="cls-3" d="M604.12,127.42H589.54a1,1,0,1,1-.2-1.94h14.78a1,1,0,0,1,.21,1.94A.74.74,0,0,1,604.12,127.42Z" transform="translate(-71.87 -72.92)"/><path id="Path_5855" data-name="Path 5855" class="cls-3" d="M604.12,133.9H589.54a1,1,0,0,1-1-1h0a1,1,0,0,1,1-1h14.58a1,1,0,0,1,1,1,1,1,0,0,1-1,1Z" transform="translate(-71.87 -72.92)"/><path id="Path_5856" data-name="Path 5856" class="cls-3" d="M604.12,140.37H589.54a1,1,0,0,1-1-1h0a1,1,0,0,1,1-1h14.58a1,1,0,0,1,1.07.87,1,1,0,0,1-.86,1.07Z" transform="translate(-71.87 -72.92)"/><path id="Path_5857" data-name="Path 5857" class="cls-1" d="M327.87,104.56a1,1,0,0,1-1-1h0V88.25a1,1,0,0,1,1-1,1,1,0,0,1,1,1h0v15.34a1,1,0,0,1-1,1h0Z" transform="translate(-71.87 -72.92)"/><path id="Path_5858" data-name="Path 5858" class="cls-1" d="M335.55,96.91H320.21a1,1,0,0,1-1.07-.87A1,1,0,0,1,320,95a.67.67,0,0,1,.2,0h15.34a1,1,0,0,1,1,.94v0A1,1,0,0,1,335.55,96.91Z" transform="translate(-71.87 -72.92)"/><path id="Path_5859" data-name="Path 5859" class="cls-3" d="M129.13,137.21H115.32a1,1,0,0,1-1.07-.86,1,1,0,0,1,.86-1.07h14a1,1,0,0,1,1,1,1,1,0,0,1-1,1Z" transform="translate(-71.87 -72.92)"/><path id="Path_5860" data-name="Path 5860" class="cls-3" d="M119,143.72a1,1,0,0,1-.76-.37L113,136.87a1,1,0,0,1,0-1.24l5.67-6.58a1,1,0,0,1,1.37-.16,1,1,0,0,1,.1,1.38h0l-5.15,6,4.75,5.83a1,1,0,0,1-.13,1.34h0A.9.9,0,0,1,119,143.72Z" transform="translate(-71.87 -72.92)"/><path id="Path_5861" data-name="Path 5861" class="cls-3" d="M150.5,137.21H136.68a1,1,0,0,1-.21-1.93h14a1,1,0,0,1,1,1,1,1,0,0,1-1,1Z" transform="translate(-71.87 -72.92)"/><path id="Path_5862" data-name="Path 5862" class="cls-3" d="M146.79,143.72a1,1,0,0,1-.62-.24,1,1,0,0,1-.14-1.36h0l4.7-5.83-5.15-6a.94.94,0,0,1,0-1.33v0h0a1,1,0,0,1,1.38,0l5.68,6.58a1,1,0,0,1,0,1.24l-5.19,6.52a1.1,1.1,0,0,1-.65.45Z" transform="translate(-71.87 -72.92)"/><path id="Path_5863" data-name="Path 5863" class="cls-3" d="M531.91,278.89a9.44,9.44,0,1,1,6.66-2.76A9.44,9.44,0,0,1,531.91,278.89Zm0-16.86a7.45,7.45,0,0,0-5.27,12.74,7.68,7.68,0,0,0,10.55,0A7.46,7.46,0,0,0,531.91,262Z" transform="translate(-71.87 -72.92)"/><path id="Path_5864" data-name="Path 5864" class="cls-3" d="M547.42,286a1,1,0,0,1-.71-.29l-9.58-9.59a1,1,0,0,1,0-1.36h0a1,1,0,0,1,1.38,0l9.58,9.58a1,1,0,0,1,0,1.38A.89.89,0,0,1,547.42,286Z" transform="translate(-71.87 -72.92)"/><path id="Path_5865" data-name="Path 5865" class="cls-1" d="M343.2,274H190a1,1,0,0,1-1-1,1,1,0,0,1,1-1H343.2a1,1,0,0,1,1.08.87,1,1,0,0,1-.87,1.07Z" transform="translate(-71.87 -72.92)"/><rect id="Rectangle_303" data-name="Rectangle 303" class="cls-2" x="185.57" y="269.37" width="22.05" height="16" transform="translate(-198.98 100.51) rotate(-36.87)"/><path id="Path_5866" data-name="Path 5866" class="cls-3" d="M192.55,291.34a.9.9,0,0,1-.78-.39l-9.6-12.79a1,1,0,0,1,.2-1.36L200,263.58a1,1,0,0,1,1.34.17l0,0h0l9.6,12.78a1,1,0,0,1,.19.72.94.94,0,0,1-.38.65l-17.64,13.22A1,1,0,0,1,192.55,291.34Zm-8.25-13.6L192.74,289l16.08-12-8.43-11.25Z" transform="translate(-71.87 -72.92)"/><rect id="Rectangle_304" data-name="Rectangle 304" class="cls-3" x="163.49" y="286.77" width="26.95" height="10.54" transform="translate(-211.7 91.67) rotate(-36.87)"/><path id="Path_5867" data-name="Path 5867" class="cls-3" d="M169.35,305.22a.83.83,0,0,1-.69-.35l-6.32-8.43a.89.89,0,0,1,.18-1.21l21.55-16.15a.86.86,0,0,1,1.19.15v0h0l6.32,8.43a.83.83,0,0,1,.15.63.77.77,0,0,1-.33.57L169.87,305A.82.82,0,0,1,169.35,305.22Zm-5.12-9.14,5.29,7.08L189.72,288l-5.34-7Z" transform="translate(-71.87 -72.92)"/><path id="Path_5868" data-name="Path 5868" class="cls-4" d="M205.9,269.65a35.33,35.33,0,1,1,49.46,7.07h0a35.33,35.33,0,0,1-49.44-7.08Zm63.28-47.43a43.81,43.81,0,1,0-8.82,61.33l.06,0h0A43.82,43.82,0,0,0,269.18,222.22Z" transform="translate(-71.87 -72.92)"/><path id="Path_5870" data-name="Path 5870" class="cls-2" d="M106.45,348.94l-3.91-5.19a4.74,4.74,0,0,1,.93-6.57L161,294a4.74,4.74,0,0,1,6.57.94l3.93,5.17a4.73,4.73,0,0,1-.94,6.58h0L113.08,349.9a4.7,4.7,0,0,1-6.58-.93Z" transform="translate(-71.87 -72.92)"/><path id="Path_5871" data-name="Path 5871" class="cls-3" d="M110.21,351.83h-.81a5.56,5.56,0,0,1-3.76-2.19l-3.89-5.2a5.72,5.72,0,0,1,1.1-8l57.74-43.17a5.68,5.68,0,0,1,8,1.07l0,0,3.85,5.29a5.69,5.69,0,0,1-1.08,8h0L113.72,350.7a5.81,5.81,0,0,1-3.42,1.1ZM163.88,294a3.69,3.69,0,0,0-2.26.76L104.06,337.9a3.7,3.7,0,0,0-1.46,2.46,3.59,3.59,0,0,0,.73,2.81l3.89,5.2h0a3.7,3.7,0,0,0,2.46,1.48,3.88,3.88,0,0,0,2.8-.72L170.1,306a3.75,3.75,0,0,0,.76-5.24h0L167,295.52a3.69,3.69,0,0,0-2.48-1.45,2.44,2.44,0,0,0-.54,0Z" transform="translate(-71.87 -72.92)"/><path id="Path_5872" data-name="Path 5872" class="cls-2" d="M151.34,319,162,330s15.12-22.55,14.84-25.19a45,45,0,0,1,1.09-14.17,1.16,1.16,0,0,1,.38-.74c.55-.35,1.1.39,1.35,1,.48,1.48.52,3.11,1,4.52,2.4-1.36,4.74-3,7.11-4.54,3.89-2.47,2.73,7,2.4,8.32-.86,3.51-2.49,7.6-5.56,9.73,0,0-18.22,40.53-22.16,40.1s-19.36-18-19.36-18Z" transform="translate(-71.87 -72.92)"/><path id="Path_5873" data-name="Path 5873" class="cls-3" d="M162.53,350h-.11c-4.11-.47-17.53-15.34-20.12-18.3a1,1,0,0,1,0-1.2l8.43-12.1a1,1,0,0,1,.71-.43,1.11,1.11,0,0,1,.78.29l9.86,10.17c7-10.46,14-21.91,14-23.56a48.15,48.15,0,0,1,1.09-14.46,2,2,0,0,1,.81-1.36,1.54,1.54,0,0,1,1.35-.14,2.73,2.73,0,0,1,1.44,1.68,15.45,15.45,0,0,1,.57,2.53,1.63,1.63,0,0,0,.13.81c1.09-.7,2.25-1.46,3.36-2.19s1.71-1.1,2.59-1.69a2.35,2.35,0,0,1,2.85-.18c2.51,1.79,1,9.47,1,9.54a18.19,18.19,0,0,1-5.71,10.16C178.55,324.84,166.66,350,162.53,350Zm-18.27-19c6,6.69,15.85,16.8,18.37,17.07,2.41-.68,12.69-20.64,21.19-39.52a1.2,1.2,0,0,1,.33-.41c2.91-2.06,4.38-6.12,5.17-9.18.43-1.75.68-6.83-.25-7.5a1.47,1.47,0,0,0-.7.24l-2.59,1.67c-1.49,1-3,2-4.58,2.91a1.1,1.1,0,0,1-1.42-.61h0a18.43,18.43,0,0,1-.48-2.3,15.37,15.37,0,0,0-.45-2.12,45,45,0,0,0-1,13.39c.3,2.76-11.4,20.45-15,25.81a1.09,1.09,0,0,1-.74.43,1,1,0,0,1-.77-.28l-9.86-10.17Z" transform="translate(-71.87 -72.92)"/><path id="Path_5874" data-name="Path 5874" class="cls-2" d="M81.08,477S77.47,487.27,79,488.13s34.52,0,32.56-1.93-10.76-8.66-10.76-8.66" transform="translate(-71.87 -72.92)"/><path id="Path_5875" data-name="Path 5875" class="cls-3" d="M87,489.48a37.06,37.06,0,0,1-8.48-.5c-1.56-.93-1-5.07,1.65-12.35a1,1,0,0,1,1.26-.58,1,1,0,0,1,.58,1.22h0c-1.63,4.49-2.7,9-2.41,10,2.86.65,25.27,0,30.44-1.21-2.84-2.48-9.71-7.67-9.71-7.78a1,1,0,0,1-.2-1.37,1,1,0,0,1,1.35-.19h0c.37.27,8.85,6.65,10.84,8.63a1.17,1.17,0,0,1,.07,1.58C111.08,488.7,96.63,489.48,87,489.48Z" transform="translate(-71.87 -72.92)"/><path id="Path_5876" data-name="Path 5876" class="cls-2" d="M104.73,284.77c-1.53.21-3.11.21-4.92.39s-3.89,0-4.24-1.73,1.21-2.88.58-4.18a2.94,2.94,0,0,0-.75-.89,15.56,15.56,0,0,1-1.18-21.5.85.85,0,0,1-1.09-.49v-.12a2,2,0,0,1,.28-1.44,9.93,9.93,0,0,1,4.09-3.62,29.65,29.65,0,0,1,17.09-3c4.53.48,10.28,3,10.65,8.26a4.16,4.16,0,0,1-2.85,4.38c0,5.72-2.2,10-5.12,14.71a22.63,22.63,0,0,1-7.9,7.78,12.87,12.87,0,0,1-4.64,1.48Z" transform="translate(-71.87 -72.92)"/><path id="Path_5877" data-name="Path 5877" class="cls-3" d="M98.85,286.17c-2.39,0-4-.91-4.3-2.54a4.64,4.64,0,0,1,.41-2.41c.27-.7.41-1.1.27-1.46a2.29,2.29,0,0,0-.48-.55,16.55,16.55,0,0,1-2.19-21.79,1.91,1.91,0,0,1-.47-.83,2.86,2.86,0,0,1,.37-2.19,10.82,10.82,0,0,1,4.47-4,30.7,30.7,0,0,1,17.74-3.19c5.48.58,11.13,3.64,11.52,9.15a5.36,5.36,0,0,1-2.84,5.21,27.91,27.91,0,0,1-5.25,14.51,23.61,23.61,0,0,1-8.26,8.09,13.48,13.48,0,0,1-5,1.66c-.93.13-2,.18-2.84.25a9.42,9.42,0,0,0-2.12.15Zm-4.67-30.23a1,1,0,0,1,.77,1.61A14.54,14.54,0,0,0,96,277.69a4.14,4.14,0,0,1,1,1.15,3.69,3.69,0,0,1-.2,3,2.84,2.84,0,0,0-.3,1.43c.18,1,2.09,1.1,3.19,1,.77,0,1.48-.11,2.19-.16s1.8-.12,2.68-.23h0A11.69,11.69,0,0,0,109,282.4a21.94,21.94,0,0,0,7.56-7.43c3.16-5.08,5-9,5-14.24a1,1,0,0,1,.76-1,3.22,3.22,0,0,0,2.09-3.39c-.34-5-6.3-7-9.72-7.35A28.76,28.76,0,0,0,98,252a8.4,8.4,0,0,0-3.69,3.29,1.17,1.17,0,0,0-.22.63Z" transform="translate(-71.87 -72.92)"/><path id="Path_5878" data-name="Path 5878" class="cls-2" d="M86,316.2s-12.17,24.65-11.17,32.22,26,4.58,26,4.58l-1.31-37.48Z" transform="translate(-71.87 -72.92)"/><path id="Path_5879" data-name="Path 5879" class="cls-3" d="M90.56,354.57c-7.42,0-16.06-1.09-16.73-6.05-1-7.77,10.77-31.76,11.28-32.77a1,1,0,0,1,.83-.55l13.48-.65a1,1,0,0,1,1,.89v0L101.75,353a1,1,0,0,1-.85,1A94.19,94.19,0,0,1,90.56,354.57Zm-3.9-37.46c-1.73,3.56-11.66,24.56-10.85,31.11.63,4.66,14.7,4.86,24,3.89L98.58,316.5Z" transform="translate(-71.87 -72.92)"/><path id="Path_5880" data-name="Path 5880" class="cls-2" d="M134.3,472.14l.65,16s30,.23,28.28-1.95-15.33-11.84-15.33-11.84l-2.19-11.83Z" transform="translate(-71.87 -72.92)"/><path id="Path_5881" data-name="Path 5881" class="cls-3" d="M139.16,489.22H135a1,1,0,0,1-1-.94l-.64-16a.93.93,0,0,1,.33-.78l11.4-9.75a.94.94,0,0,1,.95-.18,1,1,0,0,1,.63.75l2.12,11.48c2.39,1.68,13.61,9.71,15.23,11.79a1.23,1.23,0,0,1,.17,1.31C163.88,487.44,163,489.22,139.16,489.22Zm-3.29-2c10.95,0,22.67-.33,25.91-1.1-2.67-2.5-11.05-8.62-14.33-11a.92.92,0,0,1-.39-.62l-1.95-10.19-9.71,8.24Z" transform="translate(-71.87 -72.92)"/><path id="Path_5882" data-name="Path 5882" class="cls-3" d="M139.67,359.65l11.67,116.89-18.47-1.21-17.79-80.92-12,83.14-22.4-1.08s2-53.39,4-71.08S86.78,364,86.78,364Z" transform="translate(-71.87 -72.92)"/><path id="Path_5883" data-name="Path 5883" class="cls-2" d="M125.31,268.55s5.13,5.84,4.45,7.26-3.74,1-3.74,1" transform="translate(-71.87 -72.92)"/><path id="Path_5884" data-name="Path 5884" class="cls-3" d="M127.1,277.85a12.09,12.09,0,0,1-1.21-.09,1,1,0,0,1-.83-1.13,1,1,0,0,1,1.13-.82c1,.15,2.46,0,2.69-.43a22.34,22.34,0,0,0-4.29-6.2,1,1,0,0,1,1.45-1.29c2.53,2.86,5.39,6.62,4.59,8.32a3.74,3.74,0,0,1-3.53,1.63Z" transform="translate(-71.87 -72.92)"/><path id="Path_5885" data-name="Path 5885" class="cls-2" d="M123.23,260.22c3,1.82,2.86,6.57,3.29,9.59q.84,6.4,1.4,12.82c.23,2.73-6.73,3.76-8.08,3.13l2.59,10.47-15.55-3.55-1.26-12.34a8.9,8.9,0,0,0,6.57-6.49c2-5.84.64-14.31.64-14.31S120.24,258.45,123.23,260.22Z" transform="translate(-71.87 -72.92)"/><path id="Path_5886" data-name="Path 5886" class="cls-3" d="M122.41,297.21h-.23l-15.56-3.56a1,1,0,0,1-.75-.86l-1.14-12.35a1,1,0,0,1,.83-1.1,7.76,7.76,0,0,0,5.74-5.81c2-5.58.65-13.76.63-13.84a1,1,0,0,1,.81-1.09h0c.8-.12,7.77-1.1,11,.81s3.29,5.6,3.58,8.67a9,9,0,0,0,.18,1.64c.56,4.23,1,8.56,1.39,12.84a2.83,2.83,0,0,1-1.46,2.64,12.31,12.31,0,0,1-6.23,1.7h0l2.26,9.1a1,1,0,0,1-.71,1.19h-.25Zm-14.56-5.3,13.24,3L118.9,286a1,1,0,0,1,.74-1.18h0a1.15,1.15,0,0,1,.61.05,10.06,10.06,0,0,0,6.1-1.28c.43-.3.63-.6.61-.87-.38-4.24-.86-8.54-1.41-12.75,0-.53-.13-1.1-.19-1.7-.26-2.64-.56-5.95-2.63-7.21s-6.3-.93-8.77-.66a35.13,35.13,0,0,1-.81,13.77,10.21,10.21,0,0,1-6.43,6.87Z" transform="translate(-71.87 -72.92)"/><path id="Path_5887" data-name="Path 5887" class="cls-4" d="M154.37,319.94s-17.24-18.22-24.1-25.12c-6.34-6.35-24.76-12.14-33.14-3,0,0-13.8,19.24-16.43,30.42l8.07,4.92a366,366,0,0,0-3.13,40c15.15,12.05,54-7.45,54-7.45l-3.52-27.38,6.3,6.28Z" transform="translate(-71.87 -72.92)"/><path id="Path_5888" data-name="Path 5888" class="cls-2" d="M127.35,279.49a3.51,3.51,0,0,1-4.94-.29,3.9,3.9,0,0,1-.31-.4" transform="translate(-71.87 -72.92)"/><path id="Path_5889" data-name="Path 5889" class="cls-3" d="M124.84,281.39h-.53a4.37,4.37,0,0,1-3-1.95,1,1,0,0,1,.22-1.36,1,1,0,0,1,1.36.23,2.53,2.53,0,0,0,1.68,1.19,3.17,3.17,0,0,0,2.19-.7,1,1,0,0,1,1.38.14,1,1,0,0,1-.15,1.36A5.3,5.3,0,0,1,124.84,281.39Z" transform="translate(-71.87 -72.92)"/><path id="Path_5890" data-name="Path 5890" class="cls-2" d="M117.56,272.42a6.06,6.06,0,0,0-1.63-2.74,7.7,7.7,0,0,0-1.8-1.71,2.82,2.82,0,0,0-2.39-.38,2.65,2.65,0,0,0-1.48,1.56,4.93,4.93,0,0,0-.23,2.19,9.13,9.13,0,0,0,5.35,7.5l-.28-.22" transform="translate(-71.87 -72.92)"/><path id="Path_5891" data-name="Path 5891" class="cls-3" d="M115.38,279.79a.68.68,0,0,1-.4,0,10.12,10.12,0,0,1-5.87-8.3,6.18,6.18,0,0,1,.3-2.63,3.52,3.52,0,0,1,2.1-2.07,3.89,3.89,0,0,1,3.22.46,9.48,9.48,0,0,1,2,1.95,6.85,6.85,0,0,1,1.83,3.29,1,1,0,0,1-.81,1.09h0a1,1,0,0,1-1.1-.82,4.72,4.72,0,0,0-1.37-2.19,6.91,6.91,0,0,0-1.57-1.53,1.93,1.93,0,0,0-1.56-.3,1.61,1.61,0,0,0-.89,1,3.84,3.84,0,0,0-.17,1.75,8.32,8.32,0,0,0,4.16,6.4,1,1,0,0,1,.56.22l.27.23a.94.94,0,0,1,.19,1.33h0a1,1,0,0,1-.81.37Z" transform="translate(-71.87 -72.92)"/><path id="Path_5892" data-name="Path 5892" class="cls-3" d="M136.72,334.55a.89.89,0,0,1-.68-.31A169.83,169.83,0,0,1,123.63,320a1,1,0,0,1,.19-1.36,1,1,0,0,1,1.37.2,174.36,174.36,0,0,0,12.22,14.1.94.94,0,0,1,0,1.35h0a.91.91,0,0,1-.7.28Z" transform="translate(-71.87 -72.92)"/><ellipse id="Ellipse_105" data-name="Ellipse 105" class="cls-3" cx="122.48" cy="265.98" rx="1.53" ry="0.6" transform="translate(-218.67 308.11) rotate(-88.41)"/><path id="Path_5893" data-name="Path 5893" class="cls-3" d="M88.61,324.21h-.16a1,1,0,0,1-.8-1.1c.13-.83,3.37-20.62,7-27.2a1,1,0,0,1,1.29-.4h0a.94.94,0,0,1,.39,1.26h0c-3.48,6.35-6.76,26.45-6.78,26.65a1,1,0,0,1-1,.76Z" transform="translate(-71.87 -72.92)"/><path id="Path_5894" data-name="Path 5894" class="cls-3" d="M481.83,386.24a14.61,14.61,0,0,0-1.66-7.89c-1.1-1.77-2.69-3.17-3.56-5-1.51-3.2-.45-7-.8-10.52a13.17,13.17,0,0,0-3.7-7.77c-1.85-1.94-4.21-3.15-6-5.07-2.89-3.21-3.71-7.67-5.36-11.67a29,29,0,0,0-11.55-13.65c3.16,6.33-4,14.38-.78,20.68,1,1.95,3,3.44,3.77,5.55,1.81,5.11-4.25,10.63-2.31,15.68,1,2.53,3.68,3.89,4.94,6.38,1.69,3.23.35,7.15.48,10.78.2,5,3.29,9.53,6.9,13,2.26,2.19,4.79,4,7.22,6,2.94,2.35,4.17,4.8,6.75,1.09a32.43,32.43,0,0,0,5.65-17.59Z" transform="translate(-71.87 -72.92)"/><path id="Path_5895" data-name="Path 5895" class="cls-3" d="M485.09,389.1c-.93-3.89-1.61-8.1,0-11.78,1.8-4.14,6.27-7.08,6.8-11.57.35-3-1.1-5.93-.57-8.84s2.95-4.88,4.91-7a29.47,29.47,0,0,0,7.61-18,45.92,45.92,0,0,1,7.22,12A15.32,15.32,0,0,1,510,357.35a12.59,12.59,0,0,0-1.84,3c-.88,2.85,1.57,5.53,2.84,8.24a9.45,9.45,0,0,1-.9,9.71c-2.57,3.21-7.53,4.46-8.76,8.36a18.45,18.45,0,0,0-.45,4.44,13,13,0,0,1-9.28,11.16c-3.06.73-3-.47-3.54-3C487.27,396,485.94,392.56,485.09,389.1Z" transform="translate(-71.87 -72.92)"/><path id="Path_5896" data-name="Path 5896" class="cls-3" d="M475.41,361.13c-2.19-7.49-3-15.34-5.3-22.73a125.74,125.74,0,0,0-7-16.95l9.27,3.88c3,1.25,6.19,2.73,7.59,5.64,2.44,5.06-1.95,11.54.61,16.53a39,39,0,0,0,3.68,4.62c2.72,3.89,2.31,9.11.81,13.61-.63,1.95-3.46,11.84-6,9.08-1-1.1-1.09-5.2-1.51-6.71C476.89,365.75,476.1,363.46,475.41,361.13Z" transform="translate(-71.87 -72.92)"/><path id="Path_5897" data-name="Path 5897" class="cls-3" d="M480.32,460.47c-1.85-12.2-7.67-55.27-7.78-55.7l1.94-.27c0,.43,5.84,43.49,7.78,55.68Z" transform="translate(-71.87 -72.92)"/><path class="cls-3" d="M209.68,367.94h44.5a7.93,7.93,0,0,1,7.93,7.93h0v33.7a7.94,7.94,0,0,1-7.93,7.94h-44.5a7.94,7.94,0,0,1-7.93-7.94h0v-33.7A7.93,7.93,0,0,1,209.68,367.94Z" transform="translate(-71.87 -72.92)"/><path class="cls-3" d="M255.94,418.76h-48a7.45,7.45,0,0,1-7.43-7.44V374.11a7.45,7.45,0,0,1,7.43-7.38h48a7.51,7.51,0,0,1,7.43,7.43v37.21A7.51,7.51,0,0,1,255.94,418.76Zm-48-49.52a4.92,4.92,0,0,0-4.92,4.92v37.21a4.91,4.91,0,0,0,4.91,4.93h48a4.93,4.93,0,0,0,4.93-4.93h0V374.11a4.94,4.94,0,0,0-4.93-4.92Z" transform="translate(-71.87 -72.92)"/><path id="Path_5898" data-name="Path 5898" class="cls-3" d="M482.82,472h-1.94c0-14.52,6.17-70,9.71-73.87L492,399.4C489.39,402.33,483,455.89,482.82,472Z" transform="translate(-71.87 -72.92)"/><path id="Path_5899" data-name="Path 5899" class="cls-3" d="M486,469.24H484c1.38-31.26-5.24-96.93-5.31-97.6l1.95-.18C480.72,372,487.37,437.79,486,469.24Z" transform="translate(-71.87 -72.92)"/><path id="Path_5900" data-name="Path 5900" class="cls-2" d="M465.81,424.77h34.51L497.91,464c-.43,6.78-5.48,12.05-11.52,12.05h-6.67c-6.05,0-11.07-5.27-11.5-12.05Z" transform="translate(-71.87 -72.92)"/><path id="Path_5901" data-name="Path 5901" class="cls-3" d="M485.19,477.6h-6.67c-6.57,0-12-5.69-12.5-13l-2.43-39.2a1.12,1.12,0,0,1,.28-.74,1.08,1.08,0,0,1,.74-.33h34.5a1,1,0,0,1,1,1v0l-2.43,39.2C497.24,472,491.76,477.6,485.19,477.6Zm-19.44-51.21,2.36,38.11c.37,6.23,5,11.1,10.49,11.1h6.67c5.48,0,10.13-4.87,10.5-11.1l2.35-38.11Z" transform="translate(-71.87 -72.92)"/><rect id="Rectangle_305" data-name="Rectangle 305" class="cls-4" x="228.1" y="260.67" width="118.23" height="28.11" rx="5.79"/><path class="cls-6" d="M260.24,342a18,18,0,1,0,18,18A18,18,0,0,0,260.24,342Z" transform="translate(-71.87 -72.92)"/><path class="cls-7" d="M269.35,356.12l-9.73,9.73a1.5,1.5,0,0,1-2.12,0L252.64,361a1.5,1.5,0,1,1,2.11-2.12l3.81,3.81,8.67-8.68a1.51,1.51,0,0,1,2.12,0A1.49,1.49,0,0,1,269.35,356.12Z" transform="translate(-71.87 -72.92)"/><path class="cls-2" d="M231.68,392a9.5,9.5,0,0,0,6.72-16.22,9.49,9.49,0,0,0-13.43,0h0A9.51,9.51,0,0,0,231.68,392Zm-5.08-14.59a7.19,7.19,0,0,1,10.16,0h0a7.19,7.19,0,0,1,0,10.17,7.2,7.2,0,0,1-10.17,0h0a7.21,7.21,0,0,1,0-10.17Z" transform="translate(-71.87 -72.92)"/><path class="cls-2" d="M248.3,403.36a23.4,23.4,0,0,0-.32-2.5,19.39,19.39,0,0,0-.61-2.5,11.64,11.64,0,0,0-1-2.34,8.75,8.75,0,0,0-1.55-2,6.73,6.73,0,0,0-2.23-1.4,7.73,7.73,0,0,0-2.85-.52,2.88,2.88,0,0,0-1.54.65l-1.61,1a9.49,9.49,0,0,1-2.09.92,8.06,8.06,0,0,1-5.09,0,9.42,9.42,0,0,1-2.08-.92l-1.61-1a2.91,2.91,0,0,0-1.54-.65,7.7,7.7,0,0,0-2.85.52,6.73,6.73,0,0,0-2.23,1.4,8.75,8.75,0,0,0-1.55,2,12.26,12.26,0,0,0-1,2.34,21.64,21.64,0,0,0-.6,2.5,23.4,23.4,0,0,0-.32,2.5c-.05.75-.08,1.53-.08,2.33a6.55,6.55,0,0,0,2,4.95,7,7,0,0,0,5,1.83h19a7,7,0,0,0,5-1.83,6.55,6.55,0,0,0,1.95-4.95C248.38,404.89,248.36,404.11,248.3,403.36Zm-3.45,5.6a4.69,4.69,0,0,1-3.43,1.19h-19A4.69,4.69,0,0,1,219,409a4.26,4.26,0,0,1-1.22-3.28c0-.74,0-1.47.07-2.17a18.8,18.8,0,0,1,.29-2.24,17.1,17.1,0,0,1,.54-2.22,10,10,0,0,1,.83-1.9,6.68,6.68,0,0,1,1.14-1.5,4.7,4.7,0,0,1,1.49-.92,5.34,5.34,0,0,1,1.81-.35l.46.28,1.63,1a11.4,11.4,0,0,0,2.62,1.17,10.5,10.5,0,0,0,6.51,0,11.4,11.4,0,0,0,2.62-1.17l1.62-1,.46-.28a5.4,5.4,0,0,1,1.82.35,4.55,4.55,0,0,1,1.48.92,6.4,6.4,0,0,1,1.14,1.5,9.47,9.47,0,0,1,.84,1.9,17.1,17.1,0,0,1,.54,2.22,21.32,21.32,0,0,1,.3,2.25h0c.05.7.07,1.43.07,2.17A4.27,4.27,0,0,1,244.85,409Z" transform="translate(-71.87 -72.92)"/><path class="cls-2" d="M623.69,501c-.18,1.14,1,14.46,1,14.46s16.29,2.8,16.38,1.73,4.93-6,4.93-6L639.39,508,638.81,492Z" transform="translate(-71.87 -72.92)"/><path class="cls-3" d="M639.72,518A126.68,126.68,0,0,1,624.56,516a.63.63,0,0,1-.5-.55c-.11-1.29-1.15-13.41-.95-14.59a.56.56,0,0,1,.27-.41l15.13-9a.62.62,0,0,1,.59,0,.66.66,0,0,1,.31.51l.56,15.71,6.25,2.92a.54.54,0,0,1,.32.42.58.58,0,0,1-.15.52c-2.2,2.26-4.65,5.07-4.78,5.7a.71.71,0,0,1-.28.49A3.28,3.28,0,0,1,639.72,518Zm-14.51-3c6.69,1.13,13.95,2.09,15.31,1.85a28.63,28.63,0,0,1,4.44-5.49l-5.82-2.71a.59.59,0,0,1-.34-.52L638.25,493l-14,8.37C624.23,502.91,624.79,510.12,625.21,514.92Z" transform="translate(-71.87 -72.92)"/><path class="cls-2" d="M574.33,502.12,572,518.56h10.79l6.32-17.6Z" transform="translate(-71.87 -72.92)"/><path class="cls-8" d="M582.74,519.16H572a.6.6,0,0,1-.45-.21.61.61,0,0,1-.13-.47L573.74,502a.61.61,0,0,1,.54-.51L589,500.37a.58.58,0,0,1,.52.23.59.59,0,0,1,.09.56l-6.32,17.61a.59.59,0,0,1-.55.39ZM572.64,518h9.69l5.86-16.36-13.34,1Z" transform="translate(-71.87 -72.92)"/><path class="cls-2" d="M610.39,279a8,8,0,0,0-1.1-.07,25.25,25.25,0,0,0-5.06,1.68c-2.59-1.82-6.18-1.48-9.18-.41-7.44,2.6-11.53,9.08-15.2,15.68-1.65,3-4,6.13-5.26,9.24-1.86,4.69-2.07,8.73-5.35,13-3.1,4-6.92,7.44-10.26,11.29-4.51,5.19-8.17,11.46-9.07,18.3-2,14.66,12,29.07,26.24,28s29.64-4.75,38.33-16.09C624.08,347,625,328,623.56,312.87c-.81-7.9-.6-16.33-4-23.69a34.53,34.53,0,0,0-5.19-8.62,6.46,6.46,0,0,0-4-1.58Z" transform="translate(-71.87 -72.92)"/><path class="cls-3" d="M624.61,312.74c-.18-1.73-.3-3.43-.44-5.32-.46-6.3-.93-12.82-3.64-18.69a32.58,32.58,0,0,0-5.44-9,7.94,7.94,0,0,0-4.63-2h-1.29a32.09,32.09,0,0,0-4.79,1.61c-3.38-2-7.46-1-9.62-.18-7.84,2.78-12.12,9.52-15.82,16.16l-.71,1.17c-.39.65-.78,1.31-1.21,2a38.49,38.49,0,0,0-3.43,6.23c-.57,1.43-1,2.8-1.37,4.13l-.12.39a22.89,22.89,0,0,1-3.62,8.14,82.69,82.69,0,0,1-5.94,6.63l-.91.94c-1.15,1.2-2.34,2.43-3.37,3.68-5.34,6.11-8.49,12.46-9.36,18.89a25.39,25.39,0,0,0,7.29,20.71,26.3,26.3,0,0,0,18.51,8.56h.13a7,7,0,0,0,1.49-.16c18.91-1.44,31.7-6.84,39.11-16.52C626.19,346.07,625.8,324.4,624.61,312.74Zm-11,46.23c-7,9.15-19.3,14.27-37.54,15.65-6.41.49-13.28-2.43-18.38-7.82A23.19,23.19,0,0,1,551,347.87c.8-6,3.77-11.94,8.83-17.73,1.29-1.5,2.7-3,4-4.37l.15-.15a78.05,78.05,0,0,0,6.1-6.85,24.64,24.64,0,0,0,4.07-9l.09-.29c.38-1.29.78-2.63,1.31-4a39.58,39.58,0,0,1,3.25-5.87l.32-.5c.56-.9,1.15-1.84,1.65-2.74,3.54-6.31,7.58-12.68,14.63-15.2a12.78,12.78,0,0,1,4.32-.82,6.39,6.39,0,0,1,3.86,1.18,1.11,1.11,0,0,0,1.34-.08,35.36,35.36,0,0,1,4.37-1.42h.94a5.69,5.69,0,0,1,3.24,1.32,31.27,31.27,0,0,1,5,8.34c2.54,5.51,3,11.78,3.45,17.86v.22c.13,1.74.26,3.53.44,5.27C623.59,324.43,624,345.49,613.64,359Z" transform="translate(-71.87 -72.92)"/><path class="cls-2" d="M631.55,379.79l-11-57.64L589,324.67l.1,49.41Z" transform="translate(-71.87 -72.92)"/><path class="cls-8" d="M631.55,380.37h-.08L589,374.67a.6.6,0,0,1-.52-.59l-.1-49.41a.59.59,0,0,1,.54-.58l31.61-2.52a.59.59,0,0,1,.64.48l11,57.62a.57.57,0,0,1-.57.7Zm-41.89-6.81,41.15,5.53-10.73-56.3-30.54,2.44Z" transform="translate(-71.87 -72.92)"/><path class="cls-3" d="M589.06,374.08S575.79,467.73,572,503l17,2.67s11.59-48.95,22.56-80.63l10.55,80.63,19-2.45-5.88-129.09Z" transform="translate(-71.87 -72.92)"/><path class="cls-4" d="M562.37,351.66l19.3,5.6-2.84,48.12,22-.65-4.42-77.1,18-.72c0,.69,5.72,63.46,7.57,78.43l21.49-6.56-8.8-44.42,12.06-6.18s-7.5-29.7-32.35-28.26c-22.94,1.3-14.92,1.3-14.47,1.3-.46,0-18.16.08-26.32,11A86.16,86.16,0,0,0,562.37,351.66Z" transform="translate(-71.87 -72.92)"/><path class="cls-2" d="M611.83,316.72l2.07,11.17s.11,6.48-7.07,5.95a14.43,14.43,0,0,1-10.67-6.21q-1.15-6.92-2.28-13.83c-.84-5.11-2.24-10.48-2.51-15.65,5.39,1.72,12-5.09,13.74-9.51a8.33,8.33,0,0,1-1.72,8,10.29,10.29,0,0,0,6.38-6.61,38.64,38.64,0,0,1,4.46,4,19.34,19.34,0,0,1,2.7,5.51c1.05,3.45,2,8.63.19,12C614.86,315.89,611.83,316.72,611.83,316.72Z" transform="translate(-71.87 -72.92)"/><path class="cls-2" d="M594.34,305.82a4,4,0,0,0-1.67-1.88,7.11,7.11,0,0,0-2.29-.72,2.81,2.81,0,0,0-1.29,0,2.09,2.09,0,0,0-.81.45,3.08,3.08,0,0,0-1.2,1.77,3.38,3.38,0,0,0,.21,1.72,7,7,0,0,0,.75,1.76,4.84,4.84,0,0,0,6.7,1.47h0" transform="translate(-71.87 -72.92)"/><path class="cls-3" d="M595.67,309.8a1,1,0,0,0-1.41-.3,3.91,3.91,0,0,1-5.37-1.13,5.6,5.6,0,0,1-.66-1.54,2.68,2.68,0,0,1-.18-1.18,2.14,2.14,0,0,1,.86-1.17,1.37,1.37,0,0,1,.42-.26,2.11,2.11,0,0,1,.9,0,5.89,5.89,0,0,1,1.92.59,3,3,0,0,1,1.27,1.41,1,1,0,0,0,1.34.53,1,1,0,0,0,.53-.57,1,1,0,0,0,0-.77,5,5,0,0,0-2.12-2.38,8.25,8.25,0,0,0-2.58-.82,4.05,4.05,0,0,0-1.8,0,3.12,3.12,0,0,0-1.12.62,4,4,0,0,0-1.6,2.4,5,5,0,0,0,.22,2.19,8.61,8.61,0,0,0,.89,2,5.81,5.81,0,0,0,3.82,2.61l-.09.09h1.27a5.77,5.77,0,0,0,3.2-1A1,1,0,0,0,595.67,309.8Z" transform="translate(-71.87 -72.92)"/><path class="cls-3" d="M612.46,321.15s-4.35,2.18-7.88-.26a8,8,0,0,1-3.7-5.59s6.58,3.3,11,1.65Z" transform="translate(-71.87 -72.92)"/><path class="cls-3" d="M608.48,322.63a7.3,7.3,0,0,1-4.22-1.29,8.53,8.53,0,0,1-3.89-6,.55.55,0,0,1,.5-.59.54.54,0,0,1,.33.08s6.41,3.15,10.51,1.61a.6.6,0,0,1,.49,0,.53.53,0,0,1,.28.4l.6,4.22a.56.56,0,0,1-.3.59A10.3,10.3,0,0,1,608.48,322.63Zm-6.84-6.34a8.15,8.15,0,0,0,3.25,4.13c2.59,1.82,5.83.81,6.91.38l-.44-3.11c-3.43.92-7.73-.58-9.72-1.4Z" transform="translate(-71.87 -72.92)"/><path class="cls-2" d="M610.25,298.87s4.68,4.66,4,5.76-3.2,1-3.2,1" transform="translate(-71.87 -72.92)"/><path class="cls-3" d="M605.6,299.82a2.06,2.06,0,0,0-.81-.95,1.29,1.29,0,0,0-1.2-.12A1.62,1.62,0,0,0,603,301a1.78,1.78,0,0,0,1.53,1.17,1.1,1.1,0,0,0,.47-.1A1.61,1.61,0,0,0,605.6,299.82Z" transform="translate(-71.87 -72.92)"/><path class="cls-2" d="M616,307.43s-2.28,5.44-8.88,2" transform="translate(-71.87 -72.92)"/><path class="cls-3" d="M617.93,299.21a20.54,20.54,0,0,0-2.84-5.84l-.08-.08c-4.46-4.56-5.15-4.44-5.46-4.39a1.11,1.11,0,0,0-.86.77,9.33,9.33,0,0,1-2.48,4,9.43,9.43,0,0,0-.1-5.39,1.18,1.18,0,0,0-.64-.64,1.11,1.11,0,0,0-1.42.64c-1.46,3.93-7.67,10.36-12.36,8.85a1.12,1.12,0,0,0-1,.18,1.07,1.07,0,0,0-.44.94,78.13,78.13,0,0,0,1.61,10.89c.27,1.35.61,3.13.91,4.89l2.28,13.84a1.14,1.14,0,0,0,.16.43,15.31,15.31,0,0,0,11.53,6.7h1.1a7.28,7.28,0,0,0,4.89-1.89,7.57,7.57,0,0,0,2.13-5.42s-1.42-7.7-1.91-10.32a11.55,11.55,0,0,0,5.07-5.34C620.21,307.86,618.69,301.67,617.93,299.21Zm-6.38,16.49a1.1,1.1,0,0,0-.79,1.28c0,.22,1.36,7.32,2,10.95a5.39,5.39,0,0,1-1.47,3.63,5.51,5.51,0,0,1-4.42,1.18,13.27,13.27,0,0,1-9.7-5.53l-2.29-13.54c-.26-1.6-.58-3.24-.92-5a81.18,81.18,0,0,1-1.46-9.18c4.45.35,9.11-3.55,11.74-7.21a7.37,7.37,0,0,1-1.76,3.66,1.12,1.12,0,0,0,1.25,1.74,11.39,11.39,0,0,0,6.5-5.89c1.21,1.07,2.93,2.7,3.09,2.9a18.63,18.63,0,0,1,1.43,2.43,1.33,1.33,0,0,0-1.28-.18h0a1.29,1.29,0,0,0-.73,1,2.16,2.16,0,0,0,1,2.19,1.41,1.41,0,0,0,.73.22,1.28,1.28,0,0,0,.47-.1,1.31,1.31,0,0,0,.72-1c.07.21.16.43.22.65a24.84,24.84,0,0,1,1.14,7.28,1.07,1.07,0,0,0-.69-.82,1,1,0,0,0-.82.05,1,1,0,0,0-.52.55,4.5,4.5,0,0,1-2.39,2.24,6.25,6.25,0,0,1-5-.78,1.07,1.07,0,0,0-1,1.89,9.84,9.84,0,0,0,4.55,1.29h.09a6,6,0,0,0,2.09-.37,6.58,6.58,0,0,0,3.63-3.38l0-.13a8.38,8.38,0,0,1-.83,3.32C614.2,314.84,611.56,315.7,611.55,315.7Z" transform="translate(-71.87 -72.92)"/><path class="cls-3" d="M613.22,304.21a4.73,4.73,0,0,1-2.06.34h-.11a1,1,0,0,0-.74.31,1.06,1.06,0,0,0-.3.73,1,1,0,0,0,.28.76,1.08,1.08,0,0,0,.75.35h.63c1,0,2.74-.07,3.55-1.47s-.54-3.47-4.18-7.09a1.08,1.08,0,0,0-1.51,0,1.09,1.09,0,0,0,0,1.52A24.24,24.24,0,0,1,613.22,304.21Z" transform="translate(-71.87 -72.92)"/><path class="cls-2" d="M632.87,354.6s14.55,40.57,24.64,35.81c4.37-2.06,25.06-34.21,25.76-34.87,1.41-1.38,3.48-1.21,4.8-2.6a10.25,10.25,0,0,0,1.62-2.59c.71-1.39,1.38-3.24.31-4.39-.22-.22-.5-.44-.49-.75s.3-.48.56-.64l1.75-1c.4-.23.87-.62.75-1.06s-.83-.53-1.3-.43c-4.95,1-10.76,4.24-15,6.78a33.64,33.64,0,0,0,.51-4c0-1.05-.18-2.42-1.22-2.6s-1.73.92-2.12,1.87c-2,4.8-3.25,8.56-6.4,12.74s-6.49,8.53-9.73,12.79c-1.69-.28-10.5-21.55-10.5-21.55" transform="translate(-71.87 -72.92)"/><path class="cls-3" d="M693.63,342.25a2.06,2.06,0,0,0-2.6-1.2c-4.57.93-9.67,3.61-13.38,5.75.07-.61.13-1.23.16-1.85.09-1.59-.42-3.41-2.11-3.73-.79-.15-2.27,0-3.33,2.52l-1,2.3a41.58,41.58,0,0,1-5.31,10.25q-4.32,5.74-8.7,11.44l-.25.32c-1.64-2.55-5.51-10.88-9.41-20.31a1.08,1.08,0,0,0-1.44-.54,1.09,1.09,0,0,0-.56,1.42c9,21.82,10.75,22.1,11.31,22.19a1.09,1.09,0,0,0,1.05-.4c3.24-4.19,6.52-8.5,9.75-12.82a43.12,43.12,0,0,0,5.6-10.69l0-.12c.28-.69.56-1.4.88-2.15a2.63,2.63,0,0,1,.9-1.21c.11,0,.34.42.34,1.46a33.32,33.32,0,0,1-.49,3.84,1.06,1.06,0,0,0,.46,1.08,1,1,0,0,0,1.17,0c3.79-2.26,8.53-4.89,12.81-6.17a1.86,1.86,0,0,0-.69.53,1.74,1.74,0,0,0-.38,1.32,1.68,1.68,0,0,0,.6,1.14l.1.12c.48.5.31,1.61-.48,3.16a9.25,9.25,0,0,1-1.39,2.2,4.78,4.78,0,0,1-2,1.05,7.53,7.53,0,0,0-2.8,1.53,53.35,53.35,0,0,0-3.22,4.69l-.19.29c-5.19,7.73-19,28.25-22,29.71a3.29,3.29,0,0,1-2.73,0c-7.06-2.91-16.18-23.44-20.47-35.16a1.09,1.09,0,1,0-2.06.74c.11.32,11.51,32.25,21.62,36.44a6.1,6.1,0,0,0,2.31.5h.67v0a5.37,5.37,0,0,0,1.62-.46c3.05-1.45,11.44-13.34,23.11-30.76.75-1.12,2.75-4.11,2.9-4.3a5.13,5.13,0,0,1,2-1.06,6.76,6.76,0,0,0,2.84-1.59,10.64,10.64,0,0,0,1.77-2.81c.46-.9,1.83-3.59.25-5.48l1.45-.84C693.85,343.71,693.75,342.66,693.63,342.25Z" transform="translate(-71.87 -72.92)"/><line class="cls-9" x1="507.88" y1="316.93" x2="510.37" y2="263.23"/><line class="cls-9" x1="558.2" y1="273.58" x2="553.72" y2="263.23"/><path class="cls-3" d="M584.7,511.48s-9.67-5.36-13.76,0a24.89,24.89,0,0,0-4.46,12.2s20.36,3.4,20.52,0S584.7,511.48,584.7,511.48Z" transform="translate(-71.87 -72.92)"/><rect class="cls-2" x="534.53" y="413.79" width="95.4" height="48.17" rx="4.47" transform="translate(-166 94.28) rotate(-15.13)"/><path class="cls-3" d="M634.29,443.58l-9.95-36.87a6.11,6.11,0,0,0-7.46-4.24l-82.49,22.26a6.1,6.1,0,0,0-4.24,7.46l10,36.87a6.15,6.15,0,0,0,5.86,4.51h0a6.37,6.37,0,0,0,1.58-.27L630.05,451A6.08,6.08,0,0,0,634.29,443.58Zm-2.45,3.58a3.84,3.84,0,0,1-2.36,1.83L547,471.25a4,4,0,0,1-3-.4,3.89,3.89,0,0,1-1.82-2.36l-9.93-36.82,0-.11a3.9,3.9,0,0,1,2.76-4.73l82.49-22.25a3.47,3.47,0,0,1,1-.14h.08a3.92,3.92,0,0,1,3.7,2.88l9.94,36.89A3.81,3.81,0,0,1,631.84,447.16Z" transform="translate(-71.87 -72.92)"/><rect class="cls-4" x="547.88" y="433.09" width="21.68" height="24.41" transform="translate(-168.75 88.4) rotate(-15.13)"/><rect class="cls-1" x="572.93" y="424.37" width="43.16" height="6.39" rx="1.53" transform="translate(-162.88 97.13) rotate(-15.13)"/><rect class="cls-1" x="576.26" y="437.29" width="34.46" height="6.39" rx="1.37" transform="translate(-166.29 97.31) rotate(-15.13)"/><path class="cls-2" d="M562.37,351.66s-14.09,33.72-12.63,37.61,16,28.14,16,28.14,4.27,13.24,10,10.17c3.72-2,1.76-13.36,1.76-13.36l4.26-1.14s-7-2.89-7.79-4.28-8.3-22.05-8.3-22.05l12.89-30.42" transform="translate(-71.87 -72.92)"/><path class="cls-3" d="M582.2,412c-4.18-1.79-7-3.35-7.23-3.81-.55-1-5.5-14.34-8.08-21.44l12.74-30.07a1.09,1.09,0,0,0-1.34-1.37,1.11,1.11,0,0,0-.69.56l-13,30.49a1.13,1.13,0,0,0,0,.81c0,.13.29.79.67,1.8,3.27,8.89,7.1,19.24,7.7,20.3.48.89,2.31,2.07,5.45,3.54l-1.27.34a1.12,1.12,0,0,0-.77,1.24c.75,4.41.87,11.11-1.21,12.22a2.45,2.45,0,0,1-2.16.12c-3.28-1.32-5.94-8.37-6.29-9.57v-.13l-.29-.57c-3.37-5.65-14.45-24.35-15.67-27.58-.81-2.19,5.79-20.44,12.63-36.83a1.1,1.1,0,0,0-2-.83c-.58,1.4-14.23,34.17-12.64,38.42,1.48,3.95,15.26,27,16,28.21.28.83,3.11,9.12,7.53,10.91a4.77,4.77,0,0,0,1.78.37h0a5,5,0,0,0,2.24-.65c3.62-1.93,3-9.78,2.47-13.53l3.32-.89a1.13,1.13,0,0,0,.8-1A1.07,1.07,0,0,0,582.2,412Z" transform="translate(-71.87 -72.92)"/><path class="cls-3" d="M643.79,507.15l-5.12,6.64-16.76-3.36-.71,8.73s35.61,7.34,37.06,3.41S643.79,507.15,643.79,507.15Z" transform="translate(-71.87 -72.92)"/><path class="cls-2" d="M558.65,232.12h-39.8V195.46l8.36-8.11h31.45Z" transform="translate(-71.87 -72.92)"/><path class="cls-4" d="M558.65,232.12h-39.8V195.46h8.27v-8.11h31.54S557.51,232.12,558.65,232.12Z" transform="translate(-71.87 -72.92)"/><path class="cls-3" d="M558.66,233.31H518.85a1.18,1.18,0,0,1-1.18-1.19h0V195.46a1.2,1.2,0,0,1,.36-.86l8.3-8.09a1.17,1.17,0,0,1,.83-.34h31.45a1.18,1.18,0,0,1,1.19,1.18h0v44.77A1.2,1.2,0,0,1,558.66,233.31ZM520,230.94h37.43V188.49H527.68L520,195.91Z" transform="translate(-71.87 -72.92)"/><path class="cls-2" d="M518.85,195.46h8.27v-8.11Z" transform="translate(-71.87 -72.92)"/><path class="cls-3" d="M527.12,196.64h-8.29a1.18,1.18,0,0,1-1.19-1.18,1.22,1.22,0,0,1,.36-.86l8.29-8.09a1.19,1.19,0,0,1,1.68,0,1.15,1.15,0,0,1,.34.82v8.11a1.18,1.18,0,0,1-1.19,1.18Zm-5.36-2.37h4.18v-4.1Z" transform="translate(-71.87 -72.92)"/><path class="cls-3" d="M551.26,203.41h-25a1.19,1.19,0,0,1-.1-2.37h25.1a1.19,1.19,0,0,1,0,2.37Z" transform="translate(-71.87 -72.92)"/><path class="cls-3" d="M551.26,212.53h-25a1.19,1.19,0,0,1-.1-2.37h25.1a1.19,1.19,0,0,1,0,2.37Z" transform="translate(-71.87 -72.92)"/><path class="cls-3" d="M545.24,221.67h-19a1.19,1.19,0,0,1-.09-2.37h19a1.19,1.19,0,1,1,.1,2.37Z" transform="translate(-71.87 -72.92)"/><path class="cls-2" d="M558.53,444.61a4.57,4.57,0,0,0,2.88-2.18,4.52,4.52,0,0,0,.49-3.57,4.57,4.57,0,0,0-2.18-2.88,4.71,4.71,0,0,0-6.45,1.69h0a4.71,4.71,0,0,0,5.26,6.94Zm-4.27-6.36a3.56,3.56,0,0,1,4.88-1.28h0a3.57,3.57,0,0,1,1.28,4.88,3.56,3.56,0,0,1-4.88,1.28h0a3.56,3.56,0,0,1-1.27-4.88Z" transform="translate(-71.87 -72.92)"/><path class="cls-2" d="M567.94,448c-.14-.39-.29-.78-.47-1.16a12.21,12.21,0,0,0-.6-1.13,6.86,6.86,0,0,0-.79-1,4.42,4.42,0,0,0-1-.78,3.44,3.44,0,0,0-1.25-.39,3.69,3.69,0,0,0-1.44.11,1.43,1.43,0,0,0-.66.51l-.64.7a4.59,4.59,0,0,1-.88.7,4.09,4.09,0,0,1-2.45.64,5.34,5.34,0,0,1-1.12-.18l-.9-.3a1.45,1.45,0,0,0-.82-.12,3.93,3.93,0,0,0-1.31.61,3.26,3.26,0,0,0-.89,1,4.09,4.09,0,0,0-.49,1.16,6.63,6.63,0,0,0-.21,1.26,9.16,9.16,0,0,0,0,1.28,10.09,10.09,0,0,0,.16,1.23c.07.37.15.75.25,1.13a3.28,3.28,0,0,0,1.56,2.14,3.46,3.46,0,0,0,2.64.25l9.12-2.39A3.46,3.46,0,0,0,568,451.7a3.21,3.21,0,0,0,.31-2.62C568.17,448.7,568.06,448.32,567.94,448Zm-1,3.13a2.31,2.31,0,0,1-1.49,1l-9.12,2.39a2.35,2.35,0,0,1-1.8-.15,2.13,2.13,0,0,1-1-1.42c-.09-.35-.17-.71-.24-1.05a10.52,10.52,0,0,1-.14-1.11,8.68,8.68,0,0,1,0-1.14,5.15,5.15,0,0,1,.16-1,3.41,3.41,0,0,1,.36-.86,2.4,2.4,0,0,1,.6-.63,2.53,2.53,0,0,1,.83-.39l.25.07.92.3a5.65,5.65,0,0,0,4.53-.58,5.63,5.63,0,0,0,1.11-.89l.65-.71.19-.19a2.34,2.34,0,0,1,.91-.06,2.22,2.22,0,0,1,.83.25,3.44,3.44,0,0,1,.74.58,5.07,5.07,0,0,1,.64.81,9.49,9.49,0,0,1,.54,1c.16.34.3.69.43,1h0c.11.33.21.68.3,1A2.1,2.1,0,0,1,567,451.1Z" transform="translate(-71.87 -72.92)"/><rect class="cls-10" x="578.9" y="215.87" width="57.75" height="42.46" rx="6.13"/><path class="cls-2" d="M679.43,309.39a8.37,8.37,0,0,0,5.91-14.28,8.36,8.36,0,0,0-11.82,0h0a8.37,8.37,0,0,0,5.92,14.28ZM675,296.55a6.33,6.33,0,0,1,8.95,0h0a6.34,6.34,0,0,1,0,8.95,6.33,6.33,0,0,1-8.95,0h0a6.34,6.34,0,0,1,0-8.95Z" transform="translate(-71.87 -72.92)"/><path class="cls-2" d="M694.05,319.36c-.06-.74-.15-1.47-.28-2.2a18.53,18.53,0,0,0-.53-2.2,10.84,10.84,0,0,0-.91-2.06,7.68,7.68,0,0,0-1.37-1.78,5.93,5.93,0,0,0-2-1.24,6.93,6.93,0,0,0-2.51-.46,2.63,2.63,0,0,0-1.36.58l-1.42.91a7.68,7.68,0,0,1-1.83.81,7.15,7.15,0,0,1-4.48,0,7.68,7.68,0,0,1-1.83-.81l-1.42-.91a2.6,2.6,0,0,0-1.36-.58,6.93,6.93,0,0,0-2.51.46,6,6,0,0,0-2,1.24A7.68,7.68,0,0,0,667,312.9a10.81,10.81,0,0,0-.9,2.06,16.81,16.81,0,0,0-.54,2.2c-.13.73-.22,1.46-.28,2.2s-.07,1.35-.07,2.05a5.74,5.74,0,0,0,1.72,4.36,6.13,6.13,0,0,0,4.41,1.61H688a6.17,6.17,0,0,0,4.42-1.61,5.77,5.77,0,0,0,1.71-4.36C694.13,320.71,694.1,320,694.05,319.36Zm-3,4.93a4.11,4.11,0,0,1-3,1H671.29a4.14,4.14,0,0,1-3-1,3.77,3.77,0,0,1-1.08-2.89c0-.65,0-1.29.06-1.9a18.47,18.47,0,0,1,.26-2,14.57,14.57,0,0,1,.47-1.95,9.23,9.23,0,0,1,.74-1.67,5.65,5.65,0,0,1,1-1.32,3.9,3.9,0,0,1,1.3-.81,4.6,4.6,0,0,1,1.6-.31c.07,0,.2.11.4.24l1.43.93a10.38,10.38,0,0,0,2.31,1,9.2,9.2,0,0,0,5.73,0,10.38,10.38,0,0,0,2.31-1l1.43-.93.4-.24a4.6,4.6,0,0,1,1.6.31,3.9,3.9,0,0,1,1.3.81,5.65,5.65,0,0,1,1,1.32,9.23,9.23,0,0,1,.74,1.67,14.57,14.57,0,0,1,.47,1.95,19,19,0,0,1,.27,2h0c0,.61.06,1.25.06,1.9A3.76,3.76,0,0,1,691,324.29Z" transform="translate(-71.87 -72.92)"/><circle class="cls-11" cx="638.32" cy="211.89" r="17.94"/><path class="cls-2" d="M718.37,293a1.76,1.76,0,0,1-2.46,0l-5.72-5.72L704.47,293a1.75,1.75,0,0,1-2.47-2.47l5.72-5.71L702,279.09a1.75,1.75,0,0,1,2.47-2.47l5.72,5.72,5.72-5.72a1.74,1.74,0,0,1,2.46,2.47l-5.72,5.72,5.72,5.71A1.75,1.75,0,0,1,718.37,293Z" transform="translate(-71.87 -72.92)"/></svg>