<svg id="eVwGmkOndb51" xmlns="http://www.w3.org/2000/svg" xmlns:xlink="http://www.w3.org/1999/xlink" viewBox="0 0 32 32" shape-rendering="geometricPrecision" text-rendering="geometricPrecision"><path d="M27.308,20.649l-2.2-2.2c-1.364424-1.353477-3.562114-1.362824-4.938-.021-.72788.732033-1.87304.844074-2.729.267-1.637799-1.093037-3.044798-2.497318-4.141-4.133-.566528-.864902-.447927-2.008732.284-2.739c1.329248-1.376743,1.315481-3.563106-.031-4.923l-2.2-2.2c-1.371319-1.366615-3.589681-1.366615-4.961,0l-.633.634c-3.3,3.3-3.053,10.238,3.813,17.1c4.14,4.141,8.307,5.875,11.686,5.875c2.009232.066902,3.961211-.675628,5.418-2.061l.634-.634c1.369273-1.372105,1.368378-3.593999-.002-4.965ZM25.894,24.2l-.634.634c-2.6,2.6-8.339,2.125-14.276-3.813s-6.413-11.681-3.813-14.281L7.8,6.107c.589636-.587502,1.543364-.587502,2.133,0l2.2,2.2c.578267.581165.587586,1.517441.021,2.11-1.392633,1.401508-1.614099,3.586564-.531,5.239c1.245546,1.863907,2.847244,3.463226,4.713,4.706c1.647324,1.083152,3.827581.867669,5.231-.517.591613-.573478,1.533471-.567697,2.118.013l2.2,2.2c.286379.282241.448364.667045.450053,1.069128s-.157056.788234-.441053,1.072872Z" fill="#223a7b"/></svg>