<?xml version="1.0" encoding="UTF-8"?>
<!DOCTYPE svg PUBLIC "-//W3C//DTD SVG 1.1//EN" "http://www.w3.org/Graphics/SVG/1.1/DTD/svg11.dtd">
<svg xmlns="http://www.w3.org/2000/svg" version="1.1" width="1662px" height="513px" style="shape-rendering:geometricPrecision; text-rendering:geometricPrecision; image-rendering:optimizeQuality; fill-rule:evenodd; clip-rule:evenodd" xmlns:xlink="http://www.w3.org/1999/xlink">
<g><path style="opacity:1" fill="#fefefe" d="M -0.5,-0.5 C 553.5,-0.5 1107.5,-0.5 1661.5,-0.5C 1661.5,170.5 1661.5,341.5 1661.5,512.5C 1107.5,512.5 553.5,512.5 -0.5,512.5C -0.5,341.5 -0.5,170.5 -0.5,-0.5 Z"/></g>
<g><path style="opacity:1" fill="#0f878d" d="M 269.5,7.5 C 365.029,16.2693 434.862,62.936 479,147.5C 508.522,214.097 510.189,281.43 484,349.5C 450.001,425.764 392.501,474.264 311.5,495C 297.632,497.91 283.632,499.743 269.5,500.5C 269.5,336.167 269.5,171.833 269.5,7.5 Z"/></g>
<g><path style="opacity:1" fill="#cffefe" d="M 375.5,56.5 C 373.834,117.326 372.834,178.326 372.5,239.5C 372.5,180.833 372.5,122.167 372.5,63.5C 372.335,60.4816 372.502,57.4816 373,54.5C 373.995,55.0659 374.828,55.7326 375.5,56.5 Z"/></g>
<g><path style="opacity:1" fill="#1e7e87" d="M 313.5,51.5 C 314.499,113.998 314.832,176.664 314.5,239.5C 315.833,239.5 317.167,239.5 318.5,239.5C 318.833,239.5 319.167,239.5 319.5,239.5C 336.167,239.5 352.833,239.5 369.5,239.5C 369.5,180.833 369.5,122.167 369.5,63.5C 370.5,63.5 371.5,63.5 372.5,63.5C 372.5,122.167 372.5,180.833 372.5,239.5C 353.007,240.497 333.34,240.83 313.5,240.5C 313.5,177.5 313.5,114.5 313.5,51.5 Z"/></g>
<g><path style="opacity:1" fill="#008697" d="M 319.5,239.5 C 319.167,239.5 318.833,239.5 318.5,239.5C 318.166,176.477 318.499,116.144 319.5,58.5C 340.833,59.1667 340.833,59.8333 319.5,60.5C 319.5,120.167 319.5,179.833 319.5,239.5 Z"/></g>
<g><path style="opacity:1" fill="#dcfefe" d="M 291.5,26.5 C 290.833,26.5 290.167,26.5 289.5,26.5C 288.5,26.5 287.5,26.5 286.5,26.5C 286.5,178.167 286.5,329.833 286.5,481.5C 287.209,482.404 288.209,482.737 289.5,482.5C 288.432,483.434 287.099,483.768 285.5,483.5C 285.5,330.833 285.5,178.167 285.5,25.5C 287.735,25.2053 289.735,25.5386 291.5,26.5 Z"/></g>
<g><path style="opacity:1" fill="#008691" d="M 277.5,31.5 C 278.5,31.5 279.5,31.5 280.5,31.5C 280.167,180.835 280.5,330.168 281.5,479.5C 282.436,483.308 283.77,486.975 285.5,490.5C 284.132,491.594 282.965,491.26 282,489.5C 280.667,486.167 279.333,482.833 278,479.5C 277.5,330.167 277.333,180.834 277.5,31.5 Z"/></g>
<g><path style="opacity:1" fill="#fef5f9" d="M 289.5,26.5 C 289.918,27.2216 290.584,27.7216 291.5,28C 290.207,28.49 288.873,28.6567 287.5,28.5C 287.833,179.668 287.5,330.668 286.5,481.5C 286.5,329.833 286.5,178.167 286.5,26.5C 287.5,26.5 288.5,26.5 289.5,26.5 Z"/></g>
<g><path style="opacity:1" fill="#fdfefe" d="M 289.5,26.5 C 290.167,26.5 290.833,26.5 291.5,26.5C 317.256,29.8073 341.59,37.6406 364.5,50C 347.328,50.1684 330.328,50.6684 313.5,51.5C 313.5,114.5 313.5,177.5 313.5,240.5C 333.34,240.83 353.007,240.497 372.5,239.5C 372.834,178.326 373.834,117.326 375.5,56.5C 384.24,61.1961 392.24,66.8628 399.5,73.5C 399.5,138.167 399.5,202.833 399.5,267.5C 370.662,267.169 341.995,267.502 313.5,268.5C 313.833,338.503 313.5,408.503 312.5,478.5C 304.965,480.634 297.298,481.968 289.5,482.5C 288.209,482.737 287.209,482.404 286.5,481.5C 287.5,330.668 287.833,179.668 287.5,28.5C 288.873,28.6567 290.207,28.49 291.5,28C 290.584,27.7216 289.918,27.2216 289.5,26.5 Z"/></g>
<g><path style="opacity:1" fill="#028391" d="M 277.5,31.5 C 276.5,31.5 275.5,31.5 274.5,31.5C 274.667,180.834 274.5,330.167 274,479.5C 273.333,327.833 273.333,176.167 274,24.5C 274.29,22.9559 274.956,21.6226 276,20.5C 277.337,24.0257 277.837,27.6924 277.5,31.5 Z"/></g>
<g><path style="opacity:1" fill="#fdfefe" d="M 329.5,66.5 C 338.5,66.5 347.5,66.5 356.5,66.5C 356.5,119.167 356.5,171.833 356.5,224.5C 347.5,224.5 338.5,224.5 329.5,224.5C 329.5,171.833 329.5,119.167 329.5,66.5 Z"/></g>
<g><path style="opacity:1" fill="#f0fefe" d="M 182.5,66.5 C 182.5,110.167 182.5,153.833 182.5,197.5C 202.34,197.83 222.007,197.497 241.5,196.5C 241.833,196.5 242.167,196.5 242.5,196.5C 242.585,197.995 241.919,198.995 240.5,199.5C 220.97,198.171 201.47,198.171 182,199.5C 179.891,198.965 179.391,197.965 180.5,196.5C 177.833,195.5 177.833,194.5 180.5,193.5C 180.833,174.5 181.167,155.5 181.5,136.5C 181.488,117.017 180.821,97.6839 179.5,78.5C 181.312,75.1011 181.979,71.4344 181.5,67.5C 173.32,67.577 165.32,67.577 157.5,67.5C 156.5,119.496 156.167,171.496 156.5,223.5C 185.005,223.169 213.338,223.502 241.5,224.5C 212.833,224.5 184.167,224.5 155.5,224.5C 155.5,171.833 155.5,119.167 155.5,66.5C 164.5,66.5 173.5,66.5 182.5,66.5 Z"/></g>
<g><path style="opacity:1" fill="#1f797c" d="M 400.5,76.5 C 401.494,141.372 401.828,206.205 401.5,271C 374.357,269.539 347.024,269.039 319.5,269.5C 319.5,269.167 319.5,268.833 319.5,268.5C 346.5,268.5 373.5,268.5 400.5,268.5C 400.5,204.5 400.5,140.5 400.5,76.5 Z"/></g>
<g><path style="opacity:1" fill="#fdfefe" d="M 419.5,91.5 C 453.803,125.092 475.303,165.759 484,213.5C 495.888,296.839 471.721,367.673 411.5,426C 391.695,443.903 369.361,457.737 344.5,467.5C 339.968,468.335 335.634,469.669 331.5,471.5C 330.5,409.17 330.167,346.837 330.5,284.5C 358.833,284.5 387.167,284.5 415.5,284.5C 415.413,287.598 415.913,287.932 417,285.5C 417.863,282.731 418.363,279.898 418.5,277C 417.512,215.623 417.179,154.29 417.5,93C 417.836,91.9701 418.503,91.4701 419.5,91.5 Z"/></g>
<g><path style="opacity:1" fill="#82b4ae" d="M 417.5,88.5 C 416.501,153.331 416.168,218.331 416.5,283.5C 416.167,283.5 415.833,283.5 415.5,283.5C 415.167,218.163 415.5,152.83 416.5,87.5C 417.107,87.6236 417.44,87.9569 417.5,88.5 Z"/></g>
<g><path style="opacity:1" fill="#ebfefe" d="M 417.5,88.5 C 418.167,89.5 418.833,90.5 419.5,91.5C 418.503,91.4701 417.836,91.9701 417.5,93C 417.179,154.29 417.512,215.623 418.5,277C 418.363,279.898 417.863,282.731 417,285.5C 415.913,287.932 415.413,287.598 415.5,284.5C 416.167,284.5 416.5,284.167 416.5,283.5C 416.168,218.331 416.501,153.331 417.5,88.5 Z"/></g>
<g><path style="opacity:1" fill="#052529" d="M 1247.5,226.5 C 1247.16,244.024 1246.16,261.357 1244.5,278.5C 1242.5,260.994 1232.83,251.494 1215.5,250C 1207.51,249.5 1199.51,249.334 1191.5,249.5C 1191.17,272.742 1191.51,295.908 1192.5,319C 1234.64,328.947 1268.14,316.447 1293,281.5C 1294.37,282.593 1294.7,283.926 1294,285.5C 1287.67,299.5 1281.33,313.5 1275,327.5C 1233.3,327.197 1191.47,327.531 1149.5,328.5C 1149.5,327.5 1149.5,326.5 1149.5,325.5C 1156.59,325.418 1162.75,323.085 1168,318.5C 1168.86,316.913 1169.53,315.246 1170,313.5C 1171.14,293.716 1171.64,273.882 1171.5,254C 1171.33,235.5 1171.17,217 1171,198.5C 1168.97,190.47 1163.8,185.97 1155.5,185C 1153.19,184.503 1150.86,184.337 1148.5,184.5C 1148.5,183.5 1148.5,182.5 1148.5,181.5C 1190.16,182.66 1231.83,182.66 1273.5,181.5C 1273.53,194.843 1273.86,208.176 1274.5,221.5C 1273.5,221.5 1272.5,221.5 1271.5,221.5C 1266.94,201.769 1254.6,190.603 1234.5,188C 1220.15,187.255 1205.81,187.422 1191.5,188.5C 1191.5,207.167 1191.5,225.833 1191.5,244.5C 1201.15,243.879 1210.82,243.379 1220.5,243C 1235.44,239.897 1243.44,230.731 1244.5,215.5C 1245.5,215.5 1246.5,215.5 1247.5,215.5C 1247.5,219.167 1247.5,222.833 1247.5,226.5 Z"/></g>
<g><path style="opacity:1" fill="#032327" d="M 793.5,327.5 C 788.056,328.108 783.056,327.442 778.5,325.5C 786.218,325.622 792.718,322.955 798,317.5C 798.791,316.255 799.291,314.922 799.5,313.5C 800.309,311.708 800.809,309.708 801,307.5C 801.831,271.331 801.664,235.331 800.5,199.5C 799.282,190.782 794.282,185.949 785.5,185C 783.19,184.503 780.857,184.337 778.5,184.5C 778.5,183.5 778.5,182.5 778.5,181.5C 786.146,182.074 793.812,182.407 801.5,182.5C 820.467,180.894 839.467,180.394 858.5,181C 873.652,183.818 885.818,191.318 895,203.5C 901.911,216.326 902.245,229.326 896,242.5C 886.285,254.109 873.785,260.609 858.5,262C 846.001,263.174 833.667,262.341 821.5,259.5C 821.333,275.837 821.5,292.17 822,308.5C 822.582,316.193 826.415,321.36 833.5,324C 837.179,324.787 840.846,325.621 844.5,326.5C 827.513,327.499 810.513,327.833 793.5,327.5 Z"/></g>
<g><path style="opacity:1" fill="#fcfdfd" d="M 829.5,186.5 C 842.498,184.572 854.498,187.072 865.5,194C 879.782,208.363 882.282,224.529 873,242.5C 862.239,253.823 849.072,257.99 833.5,255C 829.736,254.134 826.069,252.967 822.5,251.5C 821.167,230.833 821.167,210.167 822.5,189.5C 825.016,188.67 827.35,187.67 829.5,186.5 Z"/></g>
<g><path style="opacity:1" fill="#042428" d="M 984.5,203.5 C 983.504,217.323 983.171,231.323 983.5,245.5C 1011.34,245.831 1039.01,245.498 1066.5,244.5C 1066.96,228.096 1066.46,211.763 1065,195.5C 1062.56,189.394 1058.06,185.894 1051.5,185C 1048.85,184.503 1046.19,184.336 1043.5,184.5C 1043.5,183.5 1043.5,182.5 1043.5,181.5C 1065.5,182.778 1087.5,182.778 1109.5,181.5C 1109.5,182.5 1109.5,183.5 1109.5,184.5C 1096.86,183.553 1089.36,189.22 1087,201.5C 1086.83,218.5 1086.67,235.5 1086.5,252.5C 1086.39,272.526 1086.89,292.526 1088,312.5C 1090.47,319.961 1095.63,324.128 1103.5,325C 1105.81,325.497 1108.14,325.663 1110.5,325.5C 1110.5,326.5 1110.5,327.5 1110.5,328.5C 1088.51,327.204 1066.51,327.204 1044.5,328.5C 1044.5,327.5 1044.5,326.5 1044.5,325.5C 1051.64,325.515 1057.81,323.182 1063,318.5C 1063.86,316.913 1064.53,315.246 1065,313.5C 1066.44,293.212 1066.94,272.879 1066.5,252.5C 1039.01,251.502 1011.34,251.169 983.5,251.5C 983.17,269.008 983.503,286.341 984.5,303.5C 984.3,318.965 991.966,326.298 1007.5,325.5C 1007.5,326.5 1007.5,327.5 1007.5,328.5C 985.499,327.181 963.499,327.181 941.5,328.5C 941.5,327.5 941.5,326.5 941.5,325.5C 948.587,325.418 954.754,323.085 960,318.5C 960.862,316.913 961.529,315.246 962,313.5C 963.143,293.882 963.643,274.216 963.5,254.5C 963.643,234.784 963.143,215.118 962,195.5C 959.557,189.394 955.057,185.894 948.5,185C 945.854,184.503 943.187,184.336 940.5,184.5C 940.5,183.5 940.5,182.5 940.5,181.5C 962.499,182.815 984.499,182.815 1006.5,181.5C 1006.5,182.5 1006.5,183.5 1006.5,184.5C 992.565,183.438 985.231,189.771 984.5,203.5 Z"/></g>
<g><path style="opacity:1" fill="#042427" d="M 1551.5,188.5 C 1550.5,206.993 1550.17,225.659 1550.5,244.5C 1553.06,244.802 1555.39,244.468 1557.5,243.5C 1570.26,245.162 1582.26,242.996 1593.5,237C 1599.12,230.93 1602.45,223.763 1603.5,215.5C 1605.43,219.373 1606.1,223.706 1605.5,228.5C 1605.5,240.167 1605.5,251.833 1605.5,263.5C 1606.11,268.944 1605.44,273.944 1603.5,278.5C 1602.18,268.701 1597.85,260.534 1590.5,254C 1586.43,251.797 1582.1,250.464 1577.5,250C 1568.84,249.5 1560.17,249.334 1551.5,249.5C 1550.5,272.661 1550.17,295.994 1550.5,319.5C 1551.83,319.5 1553.17,319.5 1554.5,319.5C 1595.3,328.079 1627.46,315.413 1651,281.5C 1652.88,282.313 1653.55,283.647 1653,285.5C 1646.26,299.876 1639.43,314.21 1632.5,328.5C 1590.86,327.194 1549.19,327.194 1507.5,328.5C 1507.5,327.5 1507.5,326.5 1507.5,325.5C 1513.53,325.408 1519.2,323.908 1524.5,321C 1526.65,318.531 1528.15,315.698 1529,312.5C 1530.14,293.049 1530.64,273.549 1530.5,254C 1530.33,235.833 1530.17,217.667 1530,199.5C 1526.9,188.184 1519.4,183.184 1507.5,184.5C 1507.5,183.5 1507.5,182.5 1507.5,181.5C 1549.16,182.699 1590.82,182.699 1632.5,181.5C 1632.53,194.843 1632.86,208.176 1633.5,221.5C 1632.5,221.5 1631.5,221.5 1630.5,221.5C 1626.04,202.207 1614.04,191.041 1594.5,188C 1579.99,187.173 1565.66,187.339 1551.5,188.5 Z"/></g>
<g><path style="opacity:1" fill="#aec6ca" d="M 1551.5,188.5 C 1551.5,206.833 1551.5,225.167 1551.5,243.5C 1553.5,243.5 1555.5,243.5 1557.5,243.5C 1555.39,244.468 1553.06,244.802 1550.5,244.5C 1550.17,225.659 1550.5,206.993 1551.5,188.5 Z"/></g>
<g><path style="opacity:1" fill="#92d0d0" d="M 182.5,66.5 C 183.499,109.663 183.832,152.997 183.5,196.5C 202.833,196.5 222.167,196.5 241.5,196.5C 222.007,197.497 202.34,197.83 182.5,197.5C 182.5,153.833 182.5,110.167 182.5,66.5 Z"/></g>
<g><path style="opacity:1" fill="#042428" d="M 665.5,177.5 C 670.179,177.334 674.845,177.501 679.5,178C 695.072,181.215 710.739,183.715 726.5,185.5C 726.374,198.183 726.707,210.85 727.5,223.5C 726.178,223.67 725.011,223.337 724,222.5C 717.536,205.704 706.036,193.87 689.5,187C 681.579,185.432 673.579,185.099 665.5,186C 647.946,191.653 643.446,202.82 652,219.5C 654.833,222.333 657.667,225.167 660.5,228C 675.876,235.906 691.543,243.239 707.5,250C 735.899,265.999 742.066,288.165 726,316.5C 714.458,327.517 700.624,332.517 684.5,331.5C 671.038,330.408 657.705,328.408 644.5,325.5C 641.02,325.582 637.687,326.248 634.5,327.5C 632.014,310.738 629.014,294.071 625.5,277.5C 626.675,277.281 627.675,277.614 628.5,278.5C 637.194,297.694 650.861,312.194 669.5,322C 682.561,325.975 695.228,324.975 707.5,319C 718.608,308.331 720.442,296.164 713,282.5C 708.756,277.585 703.923,273.419 698.5,270C 688.523,264.511 678.189,259.844 667.5,256C 655.867,251.273 645.7,244.439 637,235.5C 625.898,215.071 629.731,197.904 648.5,184C 654.058,181.207 659.725,179.041 665.5,177.5 Z"/></g>
<g><path style="opacity:1" fill="#74868b" d="M 1603.5,215.5 C 1604.21,214.596 1605.21,214.263 1606.5,214.5C 1606.82,219.363 1606.49,224.03 1605.5,228.5C 1606.1,223.706 1605.43,219.373 1603.5,215.5 Z"/></g>
<g><path style="opacity:1" fill="#dde5e8" d="M 800.5,199.5 C 801.664,235.331 801.831,271.331 801,307.5C 800.809,309.708 800.309,311.708 799.5,313.5C 800.436,275.512 800.769,237.512 800.5,199.5 Z"/></g>
<g><path style="opacity:1" fill="#ecfefe" d="M 242.5,226.5 C 243.666,317.999 243.832,409.666 243,501.5C 242.311,502.357 241.478,503.023 240.5,503.5C 237.207,503.024 234.207,502.024 231.5,500.5C 235.167,500.5 238.833,500.5 242.5,500.5C 242.5,409.167 242.5,317.833 242.5,226.5 Z"/></g>
<g><path style="opacity:1" fill="#7c8c8e" d="M 984.5,203.5 C 984.5,217.167 984.5,230.833 984.5,244.5C 1011.83,244.5 1039.17,244.5 1066.5,244.5C 1039.01,245.498 1011.34,245.831 983.5,245.5C 983.171,231.323 983.504,217.323 984.5,203.5 Z"/></g>
<g><path style="opacity:1" fill="#7b8e8f" d="M 1066.5,252.5 C 1039.17,252.5 1011.83,252.5 984.5,252.5C 984.5,269.5 984.5,286.5 984.5,303.5C 983.503,286.341 983.17,269.008 983.5,251.5C 1011.34,251.169 1039.01,251.502 1066.5,252.5 Z"/></g>
<g><path style="opacity:1" fill="#b2eaec" d="M 399.5,73.5 C 400.404,74.209 400.737,75.209 400.5,76.5C 400.5,140.5 400.5,204.5 400.5,268.5C 373.5,268.5 346.5,268.5 319.5,268.5C 318.833,268.5 318.167,268.5 317.5,268.5C 316.167,268.5 314.833,268.5 313.5,268.5C 341.995,267.502 370.662,267.169 399.5,267.5C 399.5,202.833 399.5,138.167 399.5,73.5 Z"/></g>
<g><path style="opacity:1" fill="#008697" d="M 317.5,268.5 C 318.167,268.5 318.833,268.5 319.5,268.5C 319.5,268.833 319.5,269.167 319.5,269.5C 319.5,271.5 319.5,273.5 319.5,275.5C 320.5,275.5 321.5,275.5 322.5,275.5C 322.716,277.681 321.883,279.347 320,280.5C 319.333,341.833 319.333,403.167 320,464.5C 323.26,468.188 323.093,471.688 319.5,475C 319.439,476.711 320.106,478.044 321.5,479C 320.552,479.483 319.552,479.649 318.5,479.5C 318.824,409.138 318.49,338.804 317.5,268.5 Z"/></g>
<g><path style="opacity:1" fill="#597478" d="M 1247.5,226.5 C 1247.5,244.167 1247.5,261.833 1247.5,279.5C 1246.21,279.737 1245.21,279.404 1244.5,278.5C 1246.16,261.357 1247.16,244.024 1247.5,226.5 Z"/></g>
<g><path style="opacity:1" fill="#738486" d="M 1605.5,263.5 C 1606.49,268.64 1606.82,273.974 1606.5,279.5C 1605.21,279.737 1604.21,279.404 1603.5,278.5C 1605.44,273.944 1606.11,268.944 1605.5,263.5 Z"/></g>
<g><path style="opacity:1" fill="#7bc2c3" d="M 415.5,283.5 C 415.833,283.5 416.167,283.5 416.5,283.5C 416.5,284.167 416.167,284.5 415.5,284.5C 387.167,284.5 358.833,284.5 330.5,284.5C 329.501,347.331 329.168,410.331 329.5,473.5C 328.501,410.336 328.168,347.002 328.5,283.5C 357.5,283.5 386.5,283.5 415.5,283.5 Z"/></g>
<g><path style="opacity:1" fill="#ebfefe" d="M 330.5,284.5 C 330.167,346.837 330.5,409.17 331.5,471.5C 335.634,469.669 339.968,468.335 344.5,467.5C 339.735,469.871 334.735,471.871 329.5,473.5C 329.168,410.331 329.501,347.331 330.5,284.5 Z"/></g>
<g><path style="opacity:1" fill="#042428" d="M 1369.5,180.5 C 1383.93,179.927 1398.26,180.761 1412.5,183C 1440.27,191.393 1450.77,209.559 1444,237.5C 1440.93,243.9 1436.43,249.067 1430.5,253C 1424.53,255.542 1418.53,257.875 1412.5,260C 1423.5,279.344 1437.17,296.678 1453.5,312C 1458.5,315.834 1463.83,319.167 1469.5,322C 1473.01,323.562 1476.68,324.395 1480.5,324.5C 1480.5,325.5 1480.5,326.5 1480.5,327.5C 1466.82,327.833 1453.15,327.499 1439.5,326.5C 1421.45,307.12 1406.12,285.786 1393.5,262.5C 1385.07,261.296 1376.73,259.629 1368.5,257.5C 1367.33,275.157 1367.17,292.824 1368,310.5C 1371.26,321.563 1378.76,326.563 1390.5,325.5C 1390.5,326.5 1390.5,327.5 1390.5,328.5C 1368.51,327.234 1346.51,327.234 1324.5,328.5C 1324.5,327.5 1324.5,326.5 1324.5,325.5C 1334.97,326.358 1342.14,322.025 1346,312.5C 1347.11,292.526 1347.61,272.526 1347.5,252.5C 1347.63,233.792 1347.13,215.125 1346,196.5C 1341.69,187.756 1334.52,183.756 1324.5,184.5C 1324.5,183.5 1324.5,182.5 1324.5,181.5C 1339.69,183.048 1354.69,182.714 1369.5,180.5 Z"/></g>
<g><path style="opacity:1" fill="#fbfcfc" d="M 1377.5,186.5 C 1390.7,184.748 1402.7,187.581 1413.5,195C 1423.42,204.084 1426.92,215.25 1424,228.5C 1422.25,239.59 1416.08,247.09 1405.5,251C 1392.76,254.46 1380.09,254.294 1367.5,250.5C 1367.33,230.164 1367.5,209.831 1368,189.5C 1371.19,188.233 1374.35,187.233 1377.5,186.5 Z"/></g>
<g><path style="opacity:1" fill="#d1e7ea" d="M 1551.5,249.5 C 1551.5,272.5 1551.5,295.5 1551.5,318.5C 1552.79,318.263 1553.79,318.596 1554.5,319.5C 1553.17,319.5 1551.83,319.5 1550.5,319.5C 1550.17,295.994 1550.5,272.661 1551.5,249.5 Z"/></g>
<g><path style="opacity:1" fill="#8f9c9f" d="M 778.5,325.5 C 783.056,327.442 788.056,328.108 793.5,327.5C 788.36,328.488 783.026,328.821 777.5,328.5C 777.263,327.209 777.596,326.209 778.5,325.5 Z"/></g>
<g><path style="opacity:1" fill="#10878d" d="M 242.5,196.5 C 242.167,196.5 241.833,196.5 241.5,196.5C 222.167,196.5 202.833,196.5 183.5,196.5C 183.832,152.997 183.499,109.663 182.5,66.5C 173.5,66.5 164.5,66.5 155.5,66.5C 155.5,119.167 155.5,171.833 155.5,224.5C 184.167,224.5 212.833,224.5 241.5,224.5C 242.338,224.842 242.672,225.508 242.5,226.5C 242.5,317.833 242.5,409.167 242.5,500.5C 238.833,500.5 235.167,500.5 231.5,500.5C 150.05,490.134 87.5504,450.468 44,381.5C -2.94709,297.316 -3.28043,212.983 43,128.5C 89.2255,55.4409 155.725,15.1075 242.5,7.5C 242.5,70.5 242.5,133.5 242.5,196.5 Z"/></g>
<g><path style="opacity:1" fill="#dcf9fb" d="M 111.5,328.5 C 120.652,327.506 129.985,327.173 139.5,327.5C 139.833,369.505 139.5,411.505 138.5,453.5C 137.893,453.376 137.56,453.043 137.5,452.5C 138.499,411.337 138.832,370.003 138.5,328.5C 129.5,328.5 120.5,328.5 111.5,328.5 Z"/></g>
<g><path style="opacity:1" fill="#fdfefe" d="M 111.5,328.5 C 120.5,328.5 129.5,328.5 138.5,328.5C 138.832,370.003 138.499,411.337 137.5,452.5C 128.627,447.474 120.127,441.807 112,435.5C 111.5,399.835 111.333,364.168 111.5,328.5 Z"/></g>
<g><path style="opacity:1" fill="#7fc8ca" d="M 154.5,311.5 C 155.499,354.663 155.832,397.997 155.5,441.5C 164.5,441.5 173.5,441.5 182.5,441.5C 182.5,441.833 182.5,442.167 182.5,442.5C 173.167,442.5 163.833,442.5 154.5,442.5C 154.5,398.833 154.5,355.167 154.5,311.5 Z"/></g>
<g><path style="opacity:1" fill="#068589" d="M 194.5,268.5 C 195.833,268.5 197.167,268.5 198.5,268.5C 198.5,331.5 198.5,394.5 198.5,457.5C 182.5,457.5 166.5,457.5 150.5,457.5C 149.282,456.839 147.949,456.172 146.5,455.5C 147.025,454.808 147.692,454.308 148.5,454C 162.825,453.063 177.158,452.229 191.5,451.5C 175.432,450.504 159.432,450.504 143.5,451.5C 143.5,450.5 143.5,449.5 143.5,448.5C 148.833,448.5 154.167,448.5 159.5,448.5C 159.367,445.104 158.367,444.771 156.5,447.5C 154.783,446.332 154.116,444.665 154.5,442.5C 163.833,442.5 173.167,442.5 182.5,442.5C 183.499,390.669 183.832,338.669 183.5,286.5C 184.333,335.332 184.833,384.332 185,433.5C 185.516,436.251 186.683,438.584 188.5,440.5C 188.747,437.656 189.08,434.823 189.5,432C 187.508,384.051 186.841,335.884 187.5,287.5C 188.5,287.5 189.5,287.5 190.5,287.5C 190.333,335.501 190.5,383.501 191,431.5C 191.817,380.183 191.65,329.183 190.5,278.5C 191.213,276.224 191.713,273.891 192,271.5C 192.5,330.166 192.667,388.832 192.5,447.5C 193.5,447.5 194.5,447.5 195.5,447.5C 196.661,390.862 196.828,332.195 196,271.5C 193.842,270.95 193.342,269.95 194.5,268.5 Z"/></g>
<g><path style="opacity:1" fill="#7dbbbc" d="M 95.5,283.5 C 95.8333,283.5 96.1667,283.5 96.5,283.5C 125.5,283.5 154.5,283.5 183.5,283.5C 183.5,284.5 183.5,285.5 183.5,286.5C 183.832,338.669 183.499,390.669 182.5,442.5C 182.5,442.167 182.5,441.833 182.5,441.5C 182.5,389.167 182.5,336.833 182.5,284.5C 153.329,284.831 124.329,284.498 95.5,283.5 Z"/></g>
<g><path style="opacity:1" fill="#ddf8f9" d="M 26.5,227.5 C 26.3334,244.503 26.5001,261.503 27,278.5C 28.4366,282.972 28.9366,287.639 28.5,292.5C 26.7735,285.734 25.6068,278.734 25,271.5C 24.3333,259.5 24.3333,247.5 25,235.5C 25.1829,232.635 25.6829,229.969 26.5,227.5 Z"/></g>
<g><path style="opacity:1" fill="#e0fffe" d="M 198.5,268.5 C 199.478,268.811 200.145,269.478 200.5,270.5C 199.837,332.961 199.17,395.294 198.5,457.5C 198.5,394.5 198.5,331.5 198.5,268.5 Z"/></g>
<g><path style="opacity:1" fill="#d0fefe" d="M 225.5,240.5 C 226.499,321.332 226.833,402.332 226.5,483.5C 220.559,483.322 214.893,482.322 209.5,480.5C 214.953,480.365 220.286,481.032 225.5,482.5C 225.5,401.833 225.5,321.167 225.5,240.5 Z"/></g>
<g><path style="opacity:1" fill="#048392" d="M 96.5,272.5 C 96.5,272.167 96.5,271.833 96.5,271.5C 98.1667,271.5 99.8333,271.5 101.5,271.5C 101.508,212.126 101.508,152.959 101.5,94C 102.77,93.1004 103.77,91.9337 104.5,90.5C 105.425,91.6405 106.259,91.6405 107,90.5C 108.009,92.0249 108.509,93.6916 108.5,95.5C 106.833,95.5 105.167,95.5 103.5,95.5C 103.5,154.167 103.5,212.833 103.5,271.5C 127.502,271.333 151.502,271.5 175.5,272C 149.169,272.5 122.835,272.667 96.5,272.5 Z"/></g>
<g><path style="opacity:1" fill="#58bac3" d="M 94.5,88.5 C 94.56,87.9569 94.8933,87.6236 95.5,87.5C 96.5,148.83 96.8333,210.163 96.5,271.5C 96.5,271.833 96.5,272.167 96.5,272.5C 96.5,276.167 96.5,279.833 96.5,283.5C 96.1667,283.5 95.8333,283.5 95.5,283.5C 95.8325,218.331 95.4991,153.331 94.5,88.5 Z"/></g>
<g><path style="opacity:1" fill="#fdfefe" d="M 94.5,88.5 C 95.4991,153.331 95.8325,218.331 95.5,283.5C 124.329,284.498 153.329,284.831 182.5,284.5C 182.5,336.833 182.5,389.167 182.5,441.5C 173.5,441.5 164.5,441.5 155.5,441.5C 155.832,397.997 155.499,354.663 154.5,311.5C 134.833,311.5 115.167,311.5 95.5,311.5C 95.6667,347.835 95.5,384.168 95,420.5C 58.8623,385.229 36.6956,342.562 28.5,292.5C 28.9366,287.639 28.4366,282.972 27,278.5C 26.5001,261.503 26.3334,244.503 26.5,227.5C 32.9277,172.982 55.5944,126.648 94.5,88.5 Z"/></g>
<g><path style="opacity:1" fill="#d8fcfd" d="M 223.5,25.5 C 224.209,24.596 225.209,24.2627 226.5,24.5C 226.5,76.8333 226.5,129.167 226.5,181.5C 217.167,181.5 207.833,181.5 198.5,181.5C 198.5,137.833 198.5,94.1667 198.5,50.5C 198.5,94.1667 198.5,137.833 198.5,181.5C 207.833,181.5 217.167,181.5 226.5,181.5C 226.5,129.167 226.5,76.8333 226.5,24.5C 225.209,24.2627 224.209,24.596 223.5,25.5 Z"/></g>
<g><path style="opacity:1" fill="#d9f8fb" d="M 139.5,240.5 C 139.166,178.993 138.166,117.66 136.5,56.5C 137.172,55.7326 138.005,55.0659 139,54.5C 139.5,116.499 139.667,178.499 139.5,240.5 Z"/></g>
<g><path style="opacity:1" fill="#fdfefd" d="M 136.5,56.5 C 138.166,117.66 139.166,178.993 139.5,240.5C 168.167,240.5 196.833,240.5 225.5,240.5C 225.5,321.167 225.5,401.833 225.5,482.5C 220.286,481.032 214.953,480.365 209.5,480.5C 188.114,476.483 167.781,469.483 148.5,459.5C 165.167,458.833 181.833,458.167 198.5,457.5C 199.17,395.294 199.837,332.961 200.5,270.5C 200.145,269.478 199.478,268.811 198.5,268.5C 197.167,268.5 195.833,268.5 194.5,268.5C 166.833,268.5 139.167,268.5 111.5,268.5C 111.333,203.499 111.5,138.499 112,73.5C 119.771,67.2232 127.938,61.5565 136.5,56.5 Z"/></g>
<g><path style="opacity:1" fill="#fdfefe" d="M 223.5,25.5 C 225.496,76.8226 226.162,128.489 225.5,180.5C 216.833,180.5 208.167,180.5 199.5,180.5C 199.832,136.997 199.499,93.6635 198.5,50.5C 181.497,50.6666 164.497,50.4999 147.5,50C 171.242,36.9657 196.576,28.799 223.5,25.5 Z"/></g>
<g><path style="opacity:1" fill="#9acdd2" d="M 150.5,457.5 C 166.5,457.5 182.5,457.5 198.5,457.5C 181.833,458.167 165.167,458.833 148.5,459.5C 147.711,459.217 147.044,458.717 146.5,458C 147.793,457.51 149.127,457.343 150.5,457.5 Z"/></g>
</svg>
