<svg xmlns="http://www.w3.org/2000/svg" width="54.754" height="72.164" viewBox="0 0 54.754 72.164"><defs><style>.a{fill:#ff872e;}</style></defs><g transform="translate(-61.76)"><path class="a" d="M83.958,50.058,80,54.043a.208.208,0,0,1-.15.062h0a.208.208,0,0,1-.15-.062l-1.47-1.47a1.057,1.057,0,1,0-1.495,1.495l1.47,1.47a2.31,2.31,0,0,0,1.644.681h0a2.311,2.311,0,0,0,1.646-.687l3.957-3.985a1.057,1.057,0,0,0-1.5-1.49Zm1.5-28.785a1.057,1.057,0,0,0-1.5.005L80,25.263a.207.207,0,0,1-.15.062h0a.208.208,0,0,1-.15-.062l-1.47-1.47a1.057,1.057,0,1,0-1.495,1.495l1.47,1.47a2.31,2.31,0,0,0,1.644.681h0a2.31,2.31,0,0,0,1.646-.687l3.957-3.985A1.057,1.057,0,0,0,85.453,21.273Zm0,14.39a1.057,1.057,0,0,0-1.5.005L80,39.653a.207.207,0,0,1-.15.062h0a.208.208,0,0,1-.15-.062l-1.47-1.47a1.057,1.057,0,1,0-1.495,1.495l1.47,1.47a2.31,2.31,0,0,0,1.644.681h0a2.31,2.31,0,0,0,1.646-.687l3.957-3.985a1.057,1.057,0,0,0-.005-1.495ZM78.827,20.091H75.381a2.328,2.328,0,0,0-2.326,2.326v7.625a2.328,2.328,0,0,0,2.326,2.326h7.625a2.328,2.328,0,0,0,2.326-2.326V27.366a1.057,1.057,0,0,0-2.114,0v2.675a.212.212,0,0,1-.211.211H75.381a.212.212,0,0,1-.211-.211V22.417a.212.212,0,0,1,.211-.211h3.446a1.057,1.057,0,1,0,0-2.114Zm32.419-17.92H106.4a1.057,1.057,0,0,0,0,2.114h4.846A3.158,3.158,0,0,1,114.4,7.439V66.9a3.158,3.158,0,0,1-3.154,3.154H67.029A3.158,3.158,0,0,1,63.874,66.9V7.439a3.158,3.158,0,0,1,3.154-3.154h8.006v2.1h-7.3a1.761,1.761,0,0,0-1.759,1.759V51.672a1.057,1.057,0,0,0,2.114,0V8.5h5.023a3.148,3.148,0,0,0-.179,1.048v2.932a3.166,3.166,0,0,0,3.163,3.163h26.091a3.166,3.166,0,0,0,3.163-3.163V9.545a3.148,3.148,0,0,0-.179-1.048h5.023V54.843H104.7a5.275,5.275,0,0,0-5.268,5.269V65.6H68.086V55.9a1.057,1.057,0,0,0-2.114,0V65.954a1.761,1.761,0,0,0,1.759,1.759h32.761a1.061,1.061,0,0,0,.748-.31l0,0,10.752-10.753a1.067,1.067,0,0,0,.306-.68c0-.009,0-47.8,0-47.827a1.761,1.761,0,0,0-1.759-1.759h-7.3V3.449A3.453,3.453,0,0,0,99.791,0H78.484a3.454,3.454,0,0,0-3.2,2.171H67.029A5.274,5.274,0,0,0,61.76,7.439V66.9a5.275,5.275,0,0,0,5.269,5.269h44.217a5.274,5.274,0,0,0,5.269-5.269V7.439a5.274,5.274,0,0,0-5.269-5.269Zm-9.7,61.932V60.112a3.158,3.158,0,0,1,3.154-3.155h3.991ZM77.149,3.449a1.336,1.336,0,0,1,1.335-1.335H99.791a1.336,1.336,0,0,1,1.335,1.335V7.328a1.336,1.336,0,0,1-1.335,1.335H78.484a1.336,1.336,0,0,1-1.335-1.335Zm-2.106,6.1a1.045,1.045,0,0,1,.319-.752,3.453,3.453,0,0,0,3.122,1.984H99.791a3.453,3.453,0,0,0,3.121-1.984,1.045,1.045,0,0,1,.319.752v2.932a1.05,1.05,0,0,1-1.048,1.049H76.092a1.05,1.05,0,0,1-1.048-1.049ZM73.056,44.431a2.328,2.328,0,0,0,2.326,2.326h7.625a2.328,2.328,0,0,0,2.326-2.326V41.756a1.057,1.057,0,0,0-2.114,0v2.675a.212.212,0,0,1-.211.211H75.381a.212.212,0,0,1-.211-.211V36.807a.212.212,0,0,1,.211-.211h3.446a1.057,1.057,0,1,0,0-2.114H75.381a2.328,2.328,0,0,0-2.326,2.326Zm16.029,6.554h15.077a1.057,1.057,0,1,0,0-2.114H89.084a1.057,1.057,0,0,0,0,2.114ZM73.056,58.821a2.328,2.328,0,0,0,2.326,2.326h7.625a2.328,2.328,0,0,0,2.326-2.326V56.146a1.057,1.057,0,0,0-2.114,0v2.675a.212.212,0,0,1-.211.211H75.381a.212.212,0,0,1-.211-.211V51.2a.212.212,0,0,1,.211-.211h3.446a1.057,1.057,0,1,0,0-2.114H75.381A2.328,2.328,0,0,0,73.056,51.2Zm16.029-3.608h8.735a1.057,1.057,0,0,0,0-2.114H89.084a1.057,1.057,0,0,0,0,2.114Zm0-14.39h8.735a1.057,1.057,0,0,0,0-2.114H89.084a1.057,1.057,0,0,0,0,2.114Zm0-4.228h15.077a1.057,1.057,0,1,0,0-2.114H89.084a1.057,1.057,0,0,0,0,2.114Zm0-10.162h15.077a1.057,1.057,0,1,0,0-2.114H89.084a1.057,1.057,0,0,0,0,2.114Zm0-4.228h15.077a1.057,1.057,0,1,0,0-2.114H89.084a1.057,1.057,0,0,0,0,2.114Z"/></g></svg>