<svg id="eMCzQr2opFv1" xmlns="http://www.w3.org/2000/svg" xmlns:xlink="http://www.w3.org/1999/xlink" viewBox="0 0 54.754 72.164" shape-rendering="geometricPrecision" text-rendering="geometricPrecision"><g transform="translate(-61.76 0)"><path d="M83.958,50.058L80,54.043c-.039541.040127-.093667.062499-.15.062v0c-.056333.000499-.110459-.021873-.15-.062l-1.47-1.47c-.412833-.412833-1.082167-.412833-1.495,0s-.412833,1.082167,0,1.495l1.47,1.47c.435071.437432,1.027047.682648,1.644.681v0c.618492.000486,1.21137-.246967,1.646-.687l3.957-3.985c.411452-.414214.409214-1.083548-.005-1.495s-1.083548-.409214-1.495.005Zm1.5-28.785c-.199098-.199154-.469436-.310626-.751041-.309688s-.551193.114211-.748959.314688L80,25.263c-.039475.040225-.093645.062615-.15.062v0c-.056333.000499-.110459-.021873-.15-.062l-1.47-1.47c-.412833-.412833-1.082167-.412833-1.495,0s-.412833,1.082167,0,1.495l1.47,1.47c.435071.437432,1.027047.682648,1.644.681v0c.618514.000598,1.211433-.246872,1.646-.687l3.957-3.985c.412512-.412414.412959-1.081034.001-1.494Zm0,14.39c-.199098-.199154-.469436-.310626-.751041-.309688s-.551193.114211-.748959.314688L80,39.653c-.039475.040225-.093645.062615-.15.062v0c-.056333.000499-.110459-.021873-.15-.062l-1.47-1.47c-.412833-.412833-1.082167-.412833-1.495,0s-.412833,1.082167,0,1.495l1.47,1.47c.435071.437432,1.027047.682648,1.644.681v0c.618514.000598,1.211433-.246872,1.646-.687l3.957-3.985c.197618-.198895.308116-.468158.307179-.748536s-.113235-.548895-.312179-.746464ZM78.827,20.091h-3.446c-1.284157.001103-2.324897,1.041843-2.326,2.326v7.625c.001103,1.284157,1.041843,2.324897,2.326,2.326h7.625c1.284157-.001103,2.324897-1.041843,2.326-2.326v-2.676c0-.583765-.473235-1.057-1.057-1.057s-1.057.473235-1.057,1.057v2.675c-.000547.116305-.094695.210453-.211.211h-7.626c-.116305-.000547-.210453-.094695-.211-.211v-7.624c.000547-.116305.094695-.210453.211-.211h3.446c.583765,0,1.057-.473235,1.057-1.057s-.473235-1.057-1.057-1.057Zm32.419-17.92h-4.846c-.583765,0-1.057.473235-1.057,1.057s.473235,1.057,1.057,1.057h4.846c1.740992.002204,3.151796,1.413008,3.154,3.154v59.461c-.002204,1.740992-1.413008,3.151796-3.154,3.154h-44.217c-1.741383-.001653-3.152795-1.412618-3.155-3.154v-59.461c.002204-1.740992,1.413008-3.151796,3.154-3.154h8.006v2.1h-7.3c-.971012.001102-1.757898.787988-1.759,1.759v43.528c0,.583765.473235,1.057,1.057,1.057s1.057-.473235,1.057-1.057v-43.172h5.023c-.118652.336658-.179182.691045-.179,1.048v2.932c.001654,1.746191,1.416809,3.161346,3.163,3.163h26.091c1.746191-.001654,3.161346-1.416809,3.163-3.163v-2.935c.000182-.356955-.060348-.711342-.179-1.048h5.023v46.346h-5.494c-2.908227.003857-5.264695,2.360772-5.268,5.269v5.488h-31.346v-9.7c0-.583765-.473235-1.057-1.057-1.057s-1.057.473235-1.057,1.057v10.054c.001102.971012.787988,1.757898,1.759,1.759h32.761c.280509-.000392.549449-.11185.748-.31v0L111.992,56.65c.180462-.182488.289101-.423908.306-.68c0-.009,0-47.8,0-47.827-.001102-.971012-.787988-1.757898-1.759-1.759h-7.3v-2.935c-.002203-1.903527-1.544474-3.446245-3.448-3.449h-21.307c-1.409765.002806-2.67634.862098-3.2,2.171h-8.255c-2.908456.002755-5.265692,2.359545-5.269,5.268v59.461c.003307,2.908618,2.360382,5.265693,5.269,5.269h44.217c2.908846-.002756,5.266244-2.360154,5.269-5.269v-59.461c-.002756-2.908846-2.360154-5.266244-5.269-5.269Zm-9.7,61.932v-3.991c.001653-1.741383,1.412618-3.152795,3.154-3.155h3.991ZM77.149,3.449c.000551-.737072.597928-1.334449,1.335-1.335h21.307c.737072.000551,1.334449.597928,1.335,1.335v3.879c-.000551.737072-.597928,1.334449-1.335,1.335h-21.307c-.737072-.000551-1.334449-.597928-1.335-1.335Zm-2.106,6.1c-.0001-.283565.115042-.554997.319-.752.568799,1.209984,1.784991,1.982862,3.122,1.984h21.307c1.336647-.001525,2.552355-.774343,3.121-1.984.203958.197003.3191.468435.319.752v2.932c-.00055.578728-.469272,1.047898-1.048,1.049h-26.091c-.578728-.001102-1.04745-.470272-1.048-1.049ZM73.056,44.431c.001103,1.284157,1.041843,2.324897,2.326,2.326h7.625c1.284157-.001103,2.324897-1.041843,2.326-2.326v-2.675c0-.583765-.473235-1.057-1.057-1.057s-1.057.473235-1.057,1.057v2.675c-.000547.116305-.094695.210453-.211.211h-7.627c-.116305-.000547-.210453-.094695-.211-.211v-7.624c.000547-.116305.094695-.210453.211-.211h3.446c.37763,0,.726574-.201463.915389-.5285s.188815-.729963,0-1.057-.537759-.5285-.915389-.5285h-3.446c-1.284157.001103-2.324897,1.041843-2.326,2.326Zm16.029,6.554h15.077c.37763,0,.726574-.201463.915389-.5285s.188815-.729963,0-1.057-.537759-.5285-.915389-.5285h-15.078c-.583765,0-1.057.473235-1.057,1.057s.473235,1.057,1.057,1.057ZM73.056,58.821c.001103,1.284157,1.041843,2.324897,2.326,2.326h7.625c1.284157-.001103,2.324897-1.041843,2.326-2.326v-2.675c0-.583765-.473235-1.057-1.057-1.057s-1.057.473235-1.057,1.057v2.675c-.000547.116305-.094695.210453-.211.211h-7.627c-.116305-.000547-.210453-.094695-.211-.211v-7.621c.000547-.116305.094695-.210453.211-.211h3.446c.37763,0,.726574-.201463.915389-.5285s.188815-.729963,0-1.057-.537759-.5285-.915389-.5285h-3.446c-1.283377.001653-2.323347,1.041623-2.325,2.325Zm16.029-3.608h8.735c.583765,0,1.057-.473235,1.057-1.057s-.473235-1.057-1.057-1.057h-8.736c-.583765,0-1.057.473235-1.057,1.057s.473235,1.057,1.057,1.057Zm0-14.39h8.735c.583765,0,1.057-.473235,1.057-1.057s-.473235-1.057-1.057-1.057h-8.736c-.583765,0-1.057.473235-1.057,1.057s.473235,1.057,1.057,1.057Zm0-4.228h15.077c.37763,0,.726574-.201463.915389-.5285s.188815-.729963,0-1.057-.537759-.5285-.915389-.5285h-15.078c-.583765,0-1.057.473235-1.057,1.057s.473235,1.057,1.057,1.057Zm0-10.162h15.077c.583765,0,1.057-.473235,1.057-1.057s-.473235-1.057-1.057-1.057h-15.078c-.583765,0-1.057.473235-1.057,1.057s.473235,1.057,1.057,1.057Zm0-4.228h15.077c.583765,0,1.057-.473235,1.057-1.057s-.473235-1.057-1.057-1.057h-15.078c-.583765,0-1.057.473235-1.057,1.057s.473235,1.057,1.057,1.057Z"/></g></svg>