<svg width="130" height="42" viewBox="0 0 130 42" fill="none" xmlns="http://www.w3.org/2000/svg">
<g clip-path="url(#clip0_253_743)">
<path d="M56.8454 18.6905C56.6916 18.314 56.5008 17.9535 56.276 17.6144C56.0485 17.2646 55.7771 16.9453 55.4684 16.6642C55.169 16.3912 54.8301 16.1645 54.4631 15.9919C54.0771 15.8205 53.6587 15.7338 53.2362 15.7377C52.6836 15.7159 52.135 15.8388 51.6448 16.0941C51.2303 16.3316 51.023 16.756 51.023 17.3673C51.0145 17.7056 51.1128 18.0381 51.3042 18.3175C51.5073 18.5999 51.7618 18.8417 52.0546 19.0302C52.3921 19.2469 52.7475 19.4345 53.1171 19.5908L54.3344 20.1087C54.7489 20.2845 55.1539 20.4721 55.5518 20.6764C55.9374 20.8727 56.2954 21.1187 56.6167 21.4081C56.9257 21.6862 57.1794 22.0198 57.3647 22.3915C57.5626 22.8107 57.6589 23.2705 57.6458 23.7337C57.6571 24.226 57.5527 24.7141 57.3409 25.159C57.1464 25.5495 56.8634 25.8894 56.5142 26.1519C56.1531 26.4208 55.7428 26.6169 55.3064 26.7292C54.8255 26.8575 54.3295 26.9206 53.8318 26.9168C53.5355 26.9158 53.2398 26.8895 52.9479 26.8385C52.6406 26.7862 52.3452 26.7268 52.0617 26.6627L51.2875 26.4869C51.1065 26.4416 50.9213 26.4153 50.7348 26.4085C50.6131 26.4073 50.4922 26.4274 50.3774 26.4679L50.0201 26.5938C49.9177 25.9524 49.7986 25.3229 49.6628 24.71C49.527 24.0971 49.384 23.4676 49.2363 22.8262L49.4579 22.7075C49.6804 23.1325 49.9278 23.5442 50.1988 23.9403C50.4836 24.3642 50.8117 24.7575 51.1779 25.1138C51.5312 25.4643 51.9321 25.7634 52.369 26.0023C52.8077 26.2393 53.2996 26.3611 53.7984 26.3562C54.1193 26.3576 54.4392 26.3209 54.7513 26.247C55.04 26.1808 55.3144 26.0633 55.5613 25.9001C55.7931 25.7411 55.9828 25.5283 56.114 25.2801C56.2604 24.9853 56.3308 24.6587 56.3189 24.3299C56.3328 23.8397 56.1561 23.363 55.8257 22.9996C55.4708 22.6242 55.0563 22.3096 54.5989 22.0685C54.0841 21.7899 53.5526 21.5432 53.0075 21.3297C52.4584 21.1162 51.9264 20.8613 51.4161 20.5671C50.953 20.3059 50.5381 19.9676 50.1892 19.5671C49.8516 19.1573 49.6761 18.6384 49.6961 18.1085C49.6894 17.7045 49.7712 17.3038 49.9358 16.9346C50.1003 16.5653 50.3438 16.2363 50.649 15.9705C50.9428 15.7136 51.2833 15.5152 51.652 15.3862C52.0429 15.2486 52.4548 15.1795 52.8693 15.1819C53.2483 15.1787 53.6268 15.2073 54.0009 15.2674C54.3368 15.3244 54.6632 15.3862 54.98 15.4551L55.952 15.6499C56.2881 15.7134 56.6296 15.7444 56.9716 15.7425C56.9716 16.2509 56.9716 16.7473 56.9978 17.2272C57.024 17.707 57.0526 18.194 57.1098 18.6786L56.8454 18.6905Z" fill="#002328"/>
<path d="M66.0266 26.6367C65.5954 26.613 65.1666 26.5963 64.7425 26.5845C64.3185 26.5726 63.8873 26.5678 63.4561 26.5678C63.0249 26.5678 62.6199 26.5678 62.2054 26.5845C61.7909 26.6011 61.3621 26.613 60.9189 26.6367V26.4324C61.2578 26.4146 61.5927 26.3515 61.9147 26.2448C62.1398 26.1704 62.3325 26.0211 62.4603 25.8219C62.5913 25.5904 62.6671 25.3319 62.6818 25.0665C62.7104 24.7553 62.7247 24.3539 62.7247 23.8788V18.2156C62.7247 17.7405 62.7104 17.3485 62.6818 17.0278C62.6671 16.7624 62.5913 16.5039 62.4603 16.2724C62.3348 16.0744 62.1459 15.9246 61.9243 15.8472C61.6108 15.7422 61.2848 15.6791 60.9547 15.6595V15.4576C61.3295 15.4798 61.7035 15.4964 62.0767 15.5075C62.4508 15.5075 62.8272 15.5241 63.2012 15.5241C63.7383 15.5246 64.2751 15.496 64.8092 15.4386C65.3434 15.3833 65.8802 15.3556 66.4173 15.3555C66.8672 15.3634 67.3128 15.4436 67.7371 15.593C68.1938 15.7433 68.6227 15.9671 69.0068 16.2558C69.3926 16.5386 69.7168 16.8967 69.9597 17.3081C70.2078 17.7324 70.3346 18.2163 70.3266 18.7073C70.3402 19.1924 70.2084 19.6705 69.9478 20.0803C69.701 20.4497 69.3757 20.7603 68.9949 20.9902C68.6034 21.226 68.175 21.3946 67.7275 21.489C67.2802 21.5894 66.8233 21.6412 66.3649 21.6434C66.0123 21.642 65.66 21.6222 65.3095 21.584C64.9493 21.5482 64.5949 21.4684 64.2542 21.3465V23.8811C64.2542 24.3562 64.2684 24.7506 64.297 25.0689C64.3118 25.3343 64.3876 25.5928 64.5186 25.8243C64.6442 26.0216 64.8331 26.1707 65.0546 26.2471C65.3678 26.3532 65.694 26.4164 66.0242 26.4348L66.0266 26.6367ZM64.2565 20.7288C64.5198 20.8724 64.8046 20.9727 65.0999 21.0258C65.3894 21.0761 65.6827 21.1016 65.9765 21.1018C66.3206 21.1036 66.6627 21.0491 66.989 20.9403C67.2969 20.8425 67.5832 20.6869 67.8324 20.4818C68.0735 20.2795 68.2677 20.0274 68.4017 19.743C68.5482 19.4302 68.6207 19.0881 68.6137 18.7429C68.6198 18.331 68.5479 17.9216 68.4017 17.5362C68.2684 17.1925 68.0647 16.8802 67.8038 16.6192C67.5525 16.3678 67.2515 16.1712 66.9199 16.042C66.5594 15.9021 66.1752 15.8328 65.7884 15.8377C65.5496 15.8402 65.311 15.8544 65.0737 15.8805C64.795 15.9085 64.5225 15.9798 64.2661 16.0919L64.2565 20.7288Z" fill="#002328"/>
<path d="M82.965 18.215C82.965 17.7399 82.9507 17.3479 82.9245 17.0272C82.9097 16.7618 82.8339 16.5033 82.7029 16.2718C82.5775 16.0739 82.3886 15.924 82.1669 15.8466C81.8527 15.7414 81.5258 15.6783 81.1949 15.6589V15.457C81.6714 15.4792 82.1343 15.4958 82.5838 15.5069C83.0317 15.5069 83.4938 15.5235 83.9703 15.5235C84.3443 15.5235 84.7183 15.5235 85.0947 15.5069C85.4711 15.4903 85.838 15.4784 86.2001 15.457V15.6589C85.8808 15.6778 85.5657 15.7409 85.2639 15.8466C85.0491 15.9279 84.869 16.0806 84.7541 16.279C84.6278 16.512 84.5545 16.7699 84.5397 17.0344C84.5135 17.3456 84.4992 17.747 84.4992 18.2221V23.8805C84.4992 24.3556 84.5135 24.75 84.5397 25.0683C84.5544 25.3337 84.6302 25.5922 84.7612 25.8237C84.8868 26.021 85.0757 26.1701 85.2972 26.2465C85.6168 26.3534 85.9493 26.4165 86.2859 26.4342V26.6385C85.8547 26.6147 85.4235 26.5981 84.9923 26.5862C84.5611 26.5744 84.1299 26.5696 83.6987 26.5696C83.2675 26.5696 82.8649 26.5696 82.4552 26.5862C82.0454 26.6029 81.638 26.6147 81.2307 26.6385V26.4342C81.5556 26.4171 81.8765 26.3539 82.1836 26.2465C82.3985 26.1663 82.581 26.0177 82.7029 25.8237C82.8339 25.5922 82.9097 25.3337 82.9245 25.0683C82.9507 24.7571 82.965 24.3556 82.965 23.8805V20.8304H76.6495V23.8805C76.6495 24.3556 76.6638 24.75 76.6924 25.0683C76.7071 25.3337 76.7829 25.5922 76.9139 25.8237C77.0395 26.021 77.2285 26.1701 77.45 26.2465C77.7694 26.3538 78.102 26.417 78.4386 26.4342V26.6385C78.0074 26.6147 77.5738 26.5981 77.1427 26.5862C76.7115 26.5744 76.2803 26.5696 75.8491 26.5696C75.4179 26.5696 75.0153 26.5696 74.6079 26.5862C74.2005 26.6029 73.7908 26.6147 73.381 26.6385V26.4342C73.706 26.4176 74.027 26.3544 74.3339 26.2465C74.5492 26.1669 74.7319 26.0181 74.8533 25.8237C74.9843 25.5922 75.0601 25.3337 75.0748 25.0683C75.1034 24.7571 75.1177 24.3556 75.1177 23.8805V18.215C75.1177 17.7399 75.1034 17.3479 75.0748 17.0272C75.0601 16.7618 74.9843 16.5033 74.8533 16.2718C74.7278 16.0739 74.5389 15.924 74.3173 15.8466C74.0038 15.7416 73.6777 15.6785 73.3477 15.6589V15.457C73.8241 15.4792 74.2863 15.4958 74.7342 15.5069C75.182 15.5069 75.6466 15.5235 76.123 15.5235C76.4971 15.5235 76.8711 15.5235 77.2451 15.5069C77.6191 15.4903 77.9884 15.4784 78.3529 15.457V15.6589C78.0335 15.6778 77.7184 15.7409 77.4166 15.8466C77.2012 15.9278 77.0203 16.0805 76.9044 16.279C76.78 16.5126 76.7077 16.7703 76.6924 17.0344C76.6638 17.3456 76.6495 17.747 76.6495 18.2221V20.2935H82.965V18.215Z" fill="#002328"/>
<path d="M92.5155 25.906C92.618 25.9298 92.7538 25.9511 92.8919 25.9749C93.0301 25.9986 93.1969 26.02 93.3684 26.0438L93.8949 26.1032C94.0759 26.1198 94.2475 26.1269 94.4071 26.1269C95.0211 26.1339 95.6343 26.0773 96.2367 25.9583C96.7551 25.8519 97.2546 25.6685 97.7185 25.4143C98.1808 25.1542 98.6069 24.8347 98.9858 24.4641C99.4247 24.0326 99.8285 23.5671 100.194 23.072L100.382 23.2241L98.8334 26.6377C98.6404 26.6139 98.4403 26.5973 98.2378 26.5854C98.0353 26.5735 97.8328 26.5688 97.6398 26.5688H91.2386C90.9099 26.5688 90.5811 26.5688 90.2524 26.5854C89.9236 26.602 89.5948 26.6139 89.2637 26.6377V26.4334C89.5887 26.4162 89.9095 26.353 90.2166 26.2457C90.4297 26.1665 90.6095 26.0174 90.7264 25.8229C90.8519 25.5897 90.9243 25.3317 90.9384 25.0675C90.967 24.7563 90.9813 24.3548 90.9813 23.8797V18.2165C90.9813 17.7414 90.967 17.3495 90.9384 17.0288C90.9243 16.7645 90.8519 16.5066 90.7264 16.2734C90.6036 16.078 90.4167 15.9311 90.1976 15.8576C89.8833 15.7527 89.5565 15.6896 89.2256 15.67V15.4681L90.3238 15.5013C90.6693 15.5013 91.0266 15.5203 91.3958 15.5275C91.7651 15.5346 92.1558 15.5275 92.5703 15.5275H93.9759C94.7692 15.5275 95.5649 15.5275 96.3582 15.5108C97.1515 15.4942 97.9591 15.4823 98.7762 15.4609C98.7762 15.5845 98.7571 15.6985 98.75 15.8339C98.7428 15.9693 98.75 16.0714 98.75 16.1902V16.8696C98.75 17.1072 98.7619 17.3685 98.7833 17.625C98.8048 17.8816 98.8286 18.1595 98.8524 18.4636L98.6309 18.5325C98.5145 18.0573 98.3153 17.6063 98.0424 17.1998C97.8195 16.8742 97.5296 16.5997 97.192 16.3945C96.8638 16.2005 96.503 16.0677 96.1271 16.0026C95.7226 15.9336 95.3129 15.8995 94.9026 15.9004C94.1069 15.9004 93.3136 15.936 92.5203 16.0026V20.2476C92.7585 20.2476 92.9658 20.2476 93.1778 20.2309C93.3898 20.2143 93.6042 20.2119 93.8329 20.2119C94.4876 20.2431 95.1366 20.0776 95.6959 19.7368C96.1565 19.4201 96.4376 18.8516 96.5392 18.0312H96.7441C96.7441 18.4374 96.7441 18.846 96.725 19.2522C96.706 19.6584 96.7084 20.0623 96.7084 20.459C96.7084 20.8557 96.7084 21.2738 96.725 21.68C96.7417 22.0862 96.7441 22.4948 96.7441 22.9034H96.5392C96.4615 22.5019 96.336 22.1111 96.1652 21.7394C96.0399 21.4683 95.8492 21.2324 95.6101 21.0529C95.3638 20.8836 95.0818 20.7731 94.7859 20.7298C94.3975 20.6683 94.0046 20.6397 93.6114 20.6443H92.5203L92.5155 25.906Z" fill="#002328"/>
<path d="M114.527 26.5678H111.464C110.762 25.8017 110.099 25.0001 109.479 24.1662C108.87 23.3389 108.327 22.4652 107.855 21.5531C107.71 21.5504 107.565 21.5393 107.421 21.5199L106.876 21.4439C106.687 21.4154 106.506 21.3797 106.33 21.3417C106.154 21.3037 106.011 21.2633 105.896 21.2301V23.8811C105.896 24.3562 105.911 24.7506 105.939 25.0689C105.954 25.3343 106.03 25.5928 106.161 25.8243C106.286 26.0216 106.475 26.1707 106.697 26.2471C107.016 26.3544 107.349 26.4176 107.686 26.4348V26.6391C107.252 26.6153 106.821 26.5987 106.39 26.5868C105.958 26.5749 105.527 26.5702 105.096 26.5702C104.665 26.5702 104.262 26.5702 103.855 26.5868C103.447 26.6035 103.038 26.6153 102.628 26.6391V26.4348C102.953 26.4181 103.274 26.3549 103.581 26.2471C103.796 26.1675 103.979 26.0187 104.1 25.8243C104.231 25.5928 104.307 25.3343 104.322 25.0689C104.35 24.7577 104.365 24.3562 104.365 23.8811V18.2156C104.365 17.7405 104.35 17.3485 104.322 17.0278C104.307 16.7624 104.231 16.5039 104.1 16.2724C103.979 16.0772 103.796 15.9276 103.581 15.8472C103.274 15.7405 102.953 15.6773 102.628 15.6595V15.4576C102.992 15.479 103.355 15.4956 103.717 15.5075C104.079 15.5194 104.443 15.5241 104.808 15.5241C104.967 15.5241 105.165 15.5241 105.403 15.498C105.642 15.4719 105.894 15.4624 106.161 15.4386L106.968 15.3792C107.242 15.3626 107.485 15.3555 107.702 15.3555C108.207 15.3578 108.71 15.42 109.201 15.5408C109.691 15.6576 110.157 15.8585 110.578 16.1346C110.983 16.404 111.326 16.7572 111.583 17.1703C111.853 17.6214 111.988 18.1396 111.974 18.6645C111.982 19.0266 111.909 19.386 111.762 19.7169C111.624 20.0166 111.431 20.2874 111.192 20.5151C110.944 20.7475 110.659 20.937 110.349 21.0757C110.025 21.2223 109.685 21.3308 109.336 21.3987C109.495 21.6695 109.683 21.9752 109.899 22.3157C110.113 22.653 110.354 22.9998 110.613 23.349C110.873 23.6982 111.164 24.0617 111.466 24.3942C111.758 24.7308 112.077 25.043 112.419 25.3278C112.737 25.5945 113.082 25.8278 113.448 26.0238C113.78 26.2046 114.144 26.3169 114.52 26.354L114.527 26.5678ZM105.896 20.66C106.402 20.8518 106.939 20.95 107.481 20.9498C108.364 20.9498 109.053 20.7455 109.539 20.3369C110.025 19.9283 110.273 19.2679 110.273 18.351C110.278 18.0027 110.205 17.6576 110.058 17.3414C109.919 17.0432 109.72 16.7771 109.472 16.5598C109.22 16.3354 108.929 16.1598 108.612 16.042C108.288 15.9232 107.945 15.8629 107.6 15.8638C107.316 15.8638 107.038 15.8638 106.766 15.8971C106.494 15.9196 106.226 15.9714 105.966 16.0515C105.935 16.5994 105.92 17.1506 105.92 17.7048C105.92 18.2583 105.904 18.8593 105.904 19.5031L105.896 20.66Z" fill="#002328"/>
<path d="M119.873 25.9057C119.976 25.9295 120.1 25.9509 120.247 25.9746C120.395 25.9984 120.555 26.0198 120.724 26.0435L121.253 26.1029C121.434 26.1195 121.603 26.1267 121.762 26.1267C122.377 26.1337 122.991 26.0772 123.594 25.958C124.112 25.8521 124.611 25.6687 125.074 25.414C125.537 25.1539 125.964 24.8345 126.344 24.4638C126.781 24.0311 127.185 23.5657 127.551 23.0718L127.74 23.2238L126.189 26.6374C125.996 26.6136 125.798 26.597 125.593 26.5851C125.388 26.5733 125.191 26.5685 124.998 26.5685H118.596C118.268 26.5685 117.939 26.5685 117.61 26.5851C117.281 26.6018 116.95 26.6136 116.621 26.6374V26.4331C116.946 26.4164 117.267 26.3532 117.574 26.2454C117.789 26.167 117.969 26.0178 118.087 25.8226C118.214 25.5904 118.29 25.3336 118.308 25.0696C118.337 24.7584 118.351 24.3569 118.351 23.8818V18.2163C118.351 17.7412 118.337 17.3492 118.308 17.0285C118.293 16.7644 118.221 16.5067 118.096 16.2731C117.975 16.0745 117.788 15.9241 117.567 15.8479C117.254 15.7429 116.928 15.6798 116.598 15.6602V15.4583L117.696 15.4916C118.041 15.4916 118.411 15.5106 118.768 15.5177C119.125 15.5248 119.528 15.5177 119.942 15.5177H121.348C122.141 15.5177 122.937 15.5177 123.73 15.5011C124.524 15.4844 125.331 15.4726 126.148 15.4512C126.148 15.5747 126.129 15.6887 126.122 15.8241C126.115 15.9595 126.122 16.0617 126.122 16.1804V16.8598C126.122 17.0974 126.122 17.3587 126.155 17.6153C126.189 17.8718 126.201 18.1497 126.222 18.4538L126.003 18.5227C125.886 18.0479 125.686 17.597 125.415 17.19C125.191 16.865 124.901 16.5906 124.564 16.3847C124.236 16.1908 123.875 16.0579 123.499 15.9928C123.095 15.9239 122.685 15.8897 122.275 15.8906C121.479 15.8906 120.686 15.9263 119.892 15.9928V20.2378C120.119 20.2378 120.338 20.2378 120.547 20.2212C120.757 20.2045 120.976 20.2022 121.203 20.2022C121.858 20.2337 122.508 20.0682 123.068 19.7271C123.529 19.4103 123.81 18.8418 123.911 18.0215H124.114C124.114 18.4277 124.114 18.8363 124.097 19.2425C124.08 19.6487 124.08 20.0525 124.08 20.4492C124.08 20.8459 124.08 21.264 124.097 21.6702C124.114 22.0764 124.114 22.485 124.114 22.8936H123.911C123.833 22.492 123.707 22.1012 123.535 21.7296C123.41 21.4588 123.22 21.2229 122.982 21.0431C122.736 20.8742 122.454 20.7637 122.158 20.72C121.769 20.6586 121.375 20.6299 120.981 20.6345H119.892L119.873 25.9057Z" fill="#002328"/>
<path d="M2.25977 21.0008C2.26576 25.8009 4.11079 30.4173 7.41745 33.9058C10.7241 37.3942 15.2425 39.491 20.0483 39.7673V18.7536H13.4089V6.70031H15.5363V16.6299H20.0483V2.23438C15.2427 2.5112 10.7246 4.60817 7.4181 8.09648C4.11156 11.5848 2.26633 16.2009 2.25977 21.0008ZM12.2177 36.204C11.4743 35.7687 10.7633 35.2805 10.0904 34.7431V26.5595H12.2177V36.204ZM18.8572 3.53852V15.4421H16.7274V5.51256H12.7133C14.6215 4.48199 16.7046 3.81269 18.8572 3.53852ZM10.0904 7.2538C10.7628 6.71642 11.4738 6.22893 12.2177 5.79525V19.939H18.8572V38.4679C16.7043 38.1948 14.621 37.5255 12.7133 36.4938H16.7274V22.0627H10.0904V7.2538ZM15.5363 23.2504V35.3013H13.4089V25.3717H8.89921V33.7026C7.17719 32.0626 5.80652 30.0914 4.87006 27.9083C3.93359 25.7251 3.45077 23.3753 3.45077 21.0008C3.45077 18.6263 3.93359 16.2765 4.87006 14.0934C5.80652 11.9102 7.17719 9.93904 8.89921 8.29902V23.2504H15.5363Z" fill="#00868C"/>
<path d="M22.1758 2.23438V39.7673C26.9805 39.4923 31.4978 37.3953 34.8019 33.9061C38.1061 30.4169 39.9467 25.7997 39.9467 21.0008C39.9467 16.2019 38.1061 11.5847 34.8019 8.09551C31.4978 4.60631 26.9805 2.50934 22.1758 2.23438ZM25.4967 38.0616C24.7958 38.2394 24.0845 38.3735 23.3669 38.4631V3.54328C25.5196 3.81744 27.6027 4.48674 29.5109 5.51731H25.4967V19.9461H30.0064V5.79762C30.7506 6.22995 31.4617 6.71668 32.1338 7.2538V22.0603H25.4967V38.0616ZM28.8152 6.70506V18.7583H26.6878V6.70031L28.8152 6.70506ZM26.6878 37.7077V23.2504H33.3249V8.29902C35.5238 10.3958 37.1414 13.024 38.0207 15.9283C38.9 18.8326 39.011 21.9143 38.3431 24.8741C37.6751 27.8339 36.2508 30.571 34.2085 32.8198C32.1663 35.0685 29.5755 36.7523 26.6878 37.7077Z" fill="#00868C"/>
</g>
<defs>
<clipPath id="clip0_253_743">
<rect width="130" height="42" fill="white"/>
</clipPath>
</defs>
</svg>
