<svg xmlns="http://www.w3.org/2000/svg" width="68.49" height="68.301" viewBox="0 0 68.49 68.301"><defs><style>.a{fill:#ff872e;}</style></defs><g transform="translate(68.49 68.37) rotate(-180)"><path class="a" d="M56.493,30.334,43.958,28.927C42.01,27.049,32.406,17.837,29.592,15.8,24.975,10.9,17.48,2.7,16.735,1.266A2.233,2.233,0,0,0,14.613.071c-1.553.054-3.158,1.373-3.991,3.282-.857,1.966-1.571,6.1,3.279,11.7,3.516,4.055,4.66,6.184,4.911,7.362a1.225,1.225,0,0,0-.032.178c.005.242.027.483.038.725a1.335,1.335,0,0,1-.333.553,4.946,4.946,0,0,0-.425.511,10.593,10.593,0,0,1-1.972,1.22,10.267,10.267,0,0,0-3.528,2.544,15.65,15.65,0,0,1-1.85.544C6.959,29.653-.838,31.661.073,40.089a5.213,5.213,0,0,0,2.209,3.984,5.481,5.481,0,0,0,1.007.538c-.32,1.139-1.379,5.629.974,8.351a5.381,5.381,0,0,0,3.2,1.757c.165,2.1.8,5.769,3.212,7.448a4.827,4.827,0,0,0,2.8.86c.065,0,.136-.008.2-.011a8.7,8.7,0,0,0,4.135,4.714,6.882,6.882,0,0,0,2.934.64,10.9,10.9,0,0,0,4.966-1.379l.13-.076a10.568,10.568,0,0,0,1.031-.791c2.015-.178,9.5-1.188,18.735-8.563,4.27.027,9.193.289,10.011.667a1.349,1.349,0,0,0,2.074-1.142V31.674A1.35,1.35,0,0,0,56.493,30.334ZM2.763,39.851C2.12,34.17,6.474,32.564,11.384,31.3c1.794-.462,2.876-.741,3.382-1.6a9.66,9.66,0,0,1,2.6-1.726A20.874,20.874,0,0,0,19.2,26.9a23.933,23.933,0,0,0,5.244,11.71,13.312,13.312,0,0,0-2.5-1.335,4.212,4.212,0,0,0-.136-2.076c-.618-1.792-2.424-2.881-5.365-3.235a1.3,1.3,0,0,0-.34,0l-5.15.687a1.349,1.349,0,1,0,.358,2.675l4.976-.664c1.648.221,2.7.707,2.957,1.378.32.819-.378,2.08-.675,2.491-.75.372-3.817,1.582-6.545,2.61-5.139,1.954-7.33,1.293-8.177.726A2.5,2.5,0,0,1,2.772,40C2.771,39.951,2.768,39.9,2.763,39.851Zm3.611,5.471a1.668,1.668,0,0,0,.019-.182,19.692,19.692,0,0,0,6.583-1.471c6.886-2.593,7.2-2.908,7.433-3.14a3.678,3.678,0,0,0,.281-.347c2.466,1.03,2.9,1.919,2.969,2.178.146.56-.44,1.267-.754,1.648l-.148.185-.009.012-.1.126a19.236,19.236,0,0,1-12.365,7.247,8.746,8.746,0,0,1-1.215.115c-.022,0-.039-.012-.059-.013H8.983c-.012,0-.023.007-.035.007A2.9,2.9,0,0,1,6.656,50.9C5.455,49.513,6.066,46.329,6.374,45.323Zm4.259,9.394c.049-.007.094-.009.144-.018a22.371,22.371,0,0,0,13.785-7.728c1.614.561,2.01,1.173,2.1,1.437.117.344.073.992-.812,2.128l-.123.161c-3.225,4.24-7.088,7.389-10.878,8.864-1.525.6-2.163.155-2.371.011C11.353,58.791,10.809,56.564,10.633,54.717ZM19.16,64.871a5.3,5.3,0,0,1-2.4-2.7A28.932,28.932,0,0,0,26.6,54.62a1.66,1.66,0,0,1,1.216-.08,1.7,1.7,0,0,1,.459,1.147,9.664,9.664,0,0,1-4.089,8.535C22.156,65.256,20.468,65.47,19.16,64.871Zm35.834-9.505a77.627,77.627,0,0,0-9.857-.509,1.394,1.394,0,0,0-.854.3,38.142,38.142,0,0,1-14.654,7.765,11.734,11.734,0,0,0,1.8-7.443,4.7,4.7,0,0,0-1.884-3.589,3.715,3.715,0,0,0-.6-.279,4.865,4.865,0,0,0,.714-4.227,5.431,5.431,0,0,0-3.208-3.068,4.117,4.117,0,0,0,.271-2.76,4.3,4.3,0,0,0-.524-1.182,16.717,16.717,0,0,0,8.647,3.979c1.7.255,2.433-2.346.717-2.6C26.514,40.4,22.091,32.24,21.542,23.8c.484-2.049-.8-4.984-5.6-10.524C11.889,8.6,12.615,5.5,13.115,4.39a3.036,3.036,0,0,1,1.406-1.575c1.769,2.754,11.246,12.863,13.2,14.934a1.427,1.427,0,0,0,.211.182c2.17,1.513,10.424,9.332,14.485,13.255a1.341,1.341,0,0,0,.787.37l11.791,1.325Zm13.5-21.982V56.327a2.7,2.7,0,0,1-2.7,2.7h-2.7a2.7,2.7,0,0,1-2.7-2.7V33.384a2.7,2.7,0,0,1,2.7-2.7h2.7A2.7,2.7,0,0,1,68.49,33.384Z" transform="translate(0 0)"/></g></svg>