<svg xmlns="http://www.w3.org/2000/svg" width="63.176" height="63.176" viewBox="0 0 63.176 63.176"><defs><style>.a{fill:#ff872e;}</style></defs><path class="a" d="M53.562,0H9.614A9.624,9.624,0,0,0,0,9.614V39.829a9.624,9.624,0,0,0,9.614,9.614H39.26L52.59,62.775a1.384,1.384,0,0,0,.972.4,1.406,1.406,0,0,0,.525-.1,1.373,1.373,0,0,0,.849-1.269V49.346a9.632,9.632,0,0,0,8.24-9.518V9.614A9.625,9.625,0,0,0,53.562,0Zm6.867,39.828A6.875,6.875,0,0,1,53.562,46.7a1.374,1.374,0,0,0-1.373,1.373V58.487L40.8,47.1a1.383,1.383,0,0,0-.972-.4H9.614a6.875,6.875,0,0,1-6.867-6.867V9.614A6.875,6.875,0,0,1,9.614,2.747H53.562a6.875,6.875,0,0,1,6.867,6.867Z"/><g transform="translate(27.468 32.961)"><path class="a" d="M217.453,256a4.12,4.12,0,1,0,4.12,4.12A4.125,4.125,0,0,0,217.453,256Zm0,5.494a1.373,1.373,0,1,1,1.373-1.373A1.376,1.376,0,0,1,217.453,261.494Z" transform="translate(-213.333 -256)"/></g><g transform="translate(26.095 8.24)"><path class="a" d="M212.556,65.313A4.133,4.133,0,0,0,209.54,64h-2.747a4.126,4.126,0,0,0-4.109,4.433l1.162,13.533a4.322,4.322,0,0,0,8.619.022l1.184-13.575A4.126,4.126,0,0,0,212.556,65.313ZM210.914,68.2l-1.187,13.577a1.577,1.577,0,0,1-3.145-.022l-1.159-13.533a1.354,1.354,0,0,1,.365-1.036,1.37,1.37,0,0,1,1.005-.437h2.747a1.37,1.37,0,0,1,1.005.437A1.348,1.348,0,0,1,210.914,68.2Z" transform="translate(-202.674 -64)"/></g></svg>