<svg width="48" height="48" viewBox="0 0 48 48" fill="none" xmlns="http://www.w3.org/2000/svg">
<path d="M36.5119 30.5757C36.5111 30.5757 36.5036 30.5757 36.5029 30.5757C34.2814 30.5757 32.4746 32.3809 32.4746 34.6009C32.4746 34.6662 32.4754 34.7367 32.4791 34.7719C32.5076 35.5024 32.7364 36.2104 33.1414 36.8217C33.8936 37.9534 35.1499 38.6292 36.5029 38.6292C38.7229 38.6292 40.5281 36.8224 40.5281 34.6009C40.5281 32.3862 38.7266 30.5794 36.5119 30.5757ZM36.5029 37.1292C35.6531 37.1292 34.8634 36.7039 34.3916 35.9922C34.1389 35.6104 33.9964 35.1679 33.9761 34.6827L33.9746 34.6009C33.9746 33.2089 35.1094 32.0757 36.5029 32.0757H36.5089C37.8986 32.0787 39.0281 33.2119 39.0281 34.6009C39.0281 35.9944 37.8949 37.1292 36.5029 37.1292Z" fill="#A73933"/>
<path d="M23.8495 27.5851C23.821 27.5866 23.7917 27.5896 23.764 27.5948C23.764 27.5948 23.761 27.5948 23.7572 27.5948C23.545 27.5911 23.293 27.5378 23.0867 27.4238C22.648 27.1786 22.375 26.7196 22.375 26.2253C22.375 25.8106 22.039 25.4753 21.625 25.4753C21.211 25.4753 20.875 25.8106 20.875 26.2253C20.875 27.2626 21.442 28.2233 22.3593 28.7356C22.6045 28.8706 22.87 28.9643 23.1422 29.0236V30.0818C23.1422 30.4966 23.4782 30.8318 23.8922 30.8318C24.3062 30.8318 24.6422 30.4966 24.6422 30.0818V28.9411C25.7935 28.5691 26.6222 27.4921 26.6222 26.2253C26.6222 24.6526 25.348 23.3611 23.7752 23.3461H23.7542C22.9937 23.3461 22.375 22.7326 22.375 21.9781C22.375 21.2228 22.9937 20.6093 23.7685 20.6093C24.5155 20.6168 25.123 21.2303 25.123 21.9781C25.123 22.3928 25.4582 22.7281 25.873 22.7281C26.2877 22.7281 26.623 22.3928 26.623 21.9781C26.623 20.7181 25.7935 19.6523 24.643 19.2698V18.1216C24.643 17.7068 24.307 17.3716 23.893 17.3716C23.479 17.3716 23.143 17.7068 23.143 18.1216V19.1776C21.8485 19.4581 20.8757 20.6056 20.8757 21.9781C20.8757 23.5591 22.1673 24.8461 23.755 24.8461C23.7573 24.8461 23.7595 24.8446 23.7625 24.8446C23.7647 24.8446 23.767 24.8461 23.7692 24.8461C24.5162 24.8536 25.1238 25.4716 25.1238 26.2253C25.123 26.9468 24.5635 27.5446 23.8495 27.5851Z" fill="#A73933"/>
<path d="M44.1422 33.592C44.0845 33.154 43.7372 32.797 43.3 32.725L42.589 32.6065C42.4885 32.3013 42.3655 32.0035 42.2207 31.7178L42.6407 31.1313C42.901 30.766 42.8942 30.2815 42.6242 29.9268C42.4195 29.6575 42.1952 29.401 41.9567 29.1625C41.7145 28.9203 41.4572 28.6953 41.1925 28.4928C40.8415 28.2265 40.3457 28.2198 39.9865 28.477L39.4 28.897C39.1127 28.7523 38.8157 28.6293 38.5097 28.5288L38.3927 27.8215C38.32 27.3828 37.9637 27.0355 37.5265 26.9778C37.4417 26.9665 37.354 26.9695 37.2685 26.9613V15.4908C38.0402 15.226 38.5997 14.5015 38.5997 13.6413V10.4815C38.5997 9.40003 37.7192 8.51953 36.637 8.51953H34.786V6.45703C34.786 6.04228 34.4507 5.70703 34.036 5.70703H28.786C28.3712 5.70703 28.036 6.04228 28.036 6.45703V8.51953H17.536V6.45703C17.536 6.04228 17.2 5.70703 16.786 5.70703H11.536C11.122 5.70703 10.786 6.04228 10.786 6.45703V8.51953H8.93497C7.85272 8.51953 6.97222 9.40003 6.97222 10.4815V13.6413C6.97222 14.5015 7.53172 15.226 8.30347 15.4908V25.1703H6.04297C4.80247 25.1703 3.79297 26.1798 3.79297 27.4203V29.3185C3.79297 29.8968 4.01872 30.4195 4.37797 30.8185C4.01797 31.2175 3.79297 31.7403 3.79297 32.3185V34.216C3.79297 34.7943 4.01872 35.317 4.37797 35.716C4.01797 36.115 3.79297 36.6378 3.79297 37.216V39.1135C3.79297 40.354 4.80247 41.3635 6.04297 41.3635H15.781C17.0012 41.3635 17.992 40.3863 18.025 39.1735H30.3565C30.3767 39.208 30.388 39.2455 30.4127 39.2785C30.6167 39.5463 30.841 39.8035 31.081 40.0435C31.3217 40.2835 31.5782 40.5078 31.8407 40.7073C32.1925 40.9788 32.6912 40.9863 33.052 40.7253L33.637 40.306C33.9235 40.4508 34.2205 40.5745 34.5265 40.675L34.6442 41.3815C34.7177 41.8278 35.0657 42.1668 35.509 42.226C35.8352 42.2703 36.175 42.2928 36.5207 42.2928C36.8657 42.2928 37.2055 42.2703 37.5302 42.226C37.972 42.1668 38.32 41.83 38.3965 41.3838L38.5142 40.6735C38.8187 40.573 39.1165 40.45 39.403 40.3045L39.9895 40.7245C40.3562 40.9855 40.8407 40.9788 41.1955 40.708C41.4662 40.5018 41.7227 40.2768 41.9575 40.0413C42.1975 39.802 42.4232 39.5448 42.628 39.2763C42.898 38.9208 42.9047 38.437 42.6437 38.071L42.2237 37.4838C42.3692 37.1965 42.4922 36.8995 42.592 36.5943L43.3045 36.4765C43.7477 36.4 44.0845 36.052 44.143 35.6103C44.1872 35.281 44.2097 34.9405 44.2097 34.6C44.209 34.261 44.1865 33.9213 44.1422 33.592ZM29.536 7.20703H33.286V8.51953H29.536V7.20703ZM12.2852 7.20703H16.0352V8.51953H12.2852V7.20703ZM8.47147 10.4823C8.47147 10.2273 8.67922 10.0203 8.93422 10.0203H36.637C36.892 10.0203 37.0997 10.2273 37.0997 10.4823V13.642C37.0997 13.9015 36.8965 14.1048 36.637 14.1048H8.93422C8.67472 14.1048 8.47147 13.9015 8.47147 13.642V10.4823ZM9.80272 15.6093H35.7677V26.9605C35.6815 26.9688 35.5922 26.9665 35.5067 26.9778C35.0642 27.0363 34.7162 27.3738 34.6397 27.8208L34.522 28.531C34.2182 28.6308 33.9212 28.7545 33.6332 28.9L33.0497 28.4823C32.6905 28.2235 32.1917 28.228 31.8407 28.4973C31.5715 28.7028 31.315 28.927 31.078 29.164C30.8387 29.4033 30.6137 29.6605 30.4105 29.9268C30.139 30.2838 30.1322 30.7698 30.3947 31.1365L30.8132 31.7208C30.6677 32.0088 30.544 32.3065 30.445 32.6103L29.737 32.728C29.2982 32.8008 28.951 33.157 28.8932 33.5943C28.8692 33.7765 28.8677 33.9633 28.8565 34.1485H18.031V32.3185C18.031 31.7403 17.8052 31.2175 17.446 30.8185C17.806 30.4195 18.031 29.8968 18.031 29.3185V27.4203C18.031 26.1798 17.0215 25.1703 15.781 25.1703H9.80272V15.6093ZM30.8155 37.4868L30.682 37.6735H18.031V37.216C18.031 36.6378 17.8052 36.115 17.446 35.716C17.4655 35.6943 17.4827 35.671 17.5015 35.6485H28.9045C28.9765 36.0693 29.311 36.4098 29.7355 36.4795L30.4465 36.598C30.547 36.9033 30.6707 37.201 30.8155 37.4868ZM5.29297 34.216V32.3185C5.29297 31.9045 5.62972 31.5685 6.04297 31.5685H15.781C16.1942 31.5685 16.531 31.9045 16.531 32.3185V34.216C16.531 34.63 16.1942 34.966 15.781 34.966H6.04297C5.62897 34.966 5.29297 34.63 5.29297 34.216ZM5.29297 27.4203C5.29297 27.0063 5.62972 26.6703 6.04297 26.6703H9.04597C9.04822 26.6703 9.05047 26.6718 9.05347 26.6718C9.05647 26.6718 9.05797 26.6703 9.06097 26.6703H15.7817C16.195 26.6703 16.5317 27.0063 16.5317 27.4203V29.3185C16.5317 29.7325 16.195 30.0685 15.7817 30.0685H6.04297C5.62972 30.0685 5.29297 29.7325 5.29297 29.3185V27.4203ZM16.531 39.1135C16.531 39.5275 16.1942 39.8635 15.781 39.8635H6.04297C5.62972 39.8635 5.29297 39.5275 5.29297 39.1135V37.216C5.29297 36.802 5.62972 36.466 6.04297 36.466H15.781C16.1942 36.466 16.531 36.802 16.531 37.216V39.1135ZM42.6925 35.0568L42.0437 35.1648C41.6567 35.23 41.3395 35.5188 41.2337 35.9005C41.1272 36.289 40.972 36.6648 40.7725 37.0158C40.5767 37.3593 40.5985 37.7883 40.8272 38.1085L41.2097 38.644C41.11 38.7595 41.0057 38.872 40.897 38.98C40.7905 39.0873 40.6795 39.19 40.5632 39.2898L40.0292 38.9073C39.7075 38.6785 39.2785 38.656 38.9342 38.854C38.5825 39.0543 38.2075 39.2103 37.8235 39.3153C37.4417 39.4188 37.1522 39.736 37.0855 40.1275L36.9775 40.7755C36.6782 40.798 36.364 40.798 36.064 40.7755L35.9575 40.132C35.8937 39.7413 35.6035 39.421 35.2217 39.3183C34.8325 39.211 34.4575 39.055 34.108 38.8555C33.7622 38.6575 33.3325 38.6793 33.0115 38.9095L32.476 39.2928C32.3612 39.1938 32.2487 39.0895 32.1407 38.9823C32.0335 38.875 31.93 38.7633 31.831 38.6478L32.2127 38.1138C32.4415 37.7943 32.4632 37.3653 32.2667 37.018C32.0657 36.6663 31.9097 36.292 31.804 35.9043C31.6982 35.5218 31.3802 35.233 30.9932 35.17L30.3445 35.0613C30.3332 34.9098 30.328 34.7568 30.328 34.6038C30.328 34.4515 30.334 34.3 30.3445 34.1485L30.988 34.042C31.3765 33.9783 31.696 33.6903 31.8032 33.3055C31.909 32.9185 32.0642 32.5435 32.2645 32.1925C32.4617 31.8475 32.4407 31.4178 32.2105 31.096L31.828 30.5613C31.9277 30.4465 32.0312 30.3333 32.1392 30.226C32.2465 30.1188 32.3575 30.016 32.473 29.9163L33.0077 30.2988C33.3295 30.5275 33.7592 30.55 34.1027 30.352C34.4567 30.1503 34.831 29.995 35.2187 29.8893C35.5982 29.7835 35.8862 29.467 35.9522 29.0778L36.0602 28.4298C36.3625 28.408 36.6692 28.408 36.9737 28.4298L37.081 29.0748C37.1447 29.4625 37.4327 29.7813 37.8167 29.8885C38.2067 29.995 38.5817 30.1503 38.9342 30.3513C39.2785 30.5448 39.7067 30.523 40.0262 30.2958L40.561 29.9133C40.675 30.0115 40.7882 30.1165 40.8962 30.2245C41.0035 30.3318 41.107 30.4435 41.206 30.559L40.8242 31.093C40.5955 31.4125 40.5737 31.8415 40.7702 32.1895C40.9712 32.5398 41.1265 32.914 41.233 33.304C41.3395 33.6858 41.6582 33.9738 42.0437 34.0375L42.6925 34.1463C42.7037 34.297 42.709 34.4493 42.709 34.6015C42.709 34.753 42.7037 34.906 42.6925 35.0568Z" fill="#A73933"/>
</svg>
