<svg width="48" height="48" viewBox="0 0 48 48" fill="none" xmlns="http://www.w3.org/2000/svg">
<g clip-path="url(#clip0_366_813)">
<path d="M24 12.4914L29.6995 7.74194H37.1613V0H18.5807V7.74194H24V12.4914ZM20.129 6.19355V1.54839H35.6129V6.19355H29.1393L25.5484 9.18599V6.19355H20.129Z" fill="#A73933"/>
<path d="M21.6774 3.09668H23.2258V4.64507H21.6774V3.09668Z" fill="#A73933"/>
<path d="M24.7742 3.09668H30.9677V4.64507H24.7742V3.09668Z" fill="#A73933"/>
<path d="M32.5161 3.09668H34.0645V4.64507H32.5161V3.09668Z" fill="#A73933"/>
<path d="M39.4102 46.4515L38.7842 40.1842C41.3691 39.7756 43.3548 37.5373 43.3548 34.8386V24.7741H40.2581V23.7043C40.2581 22.6519 39.6797 21.7068 38.7498 21.2222C39.6744 20.3727 40.2581 19.1582 40.2581 17.8063V16.258C40.2581 13.6961 38.1748 11.6128 35.6129 11.6128C33.051 11.6128 30.9677 13.6961 30.9677 16.258V17.8063C30.9677 19.8106 32.2458 21.517 34.0282 22.1672L29.873 26.3225H25.5314C25.4448 25.0319 24.5583 23.9069 23.3025 23.5478L20.129 22.642V21.2592C21.0767 20.4083 21.6774 19.1782 21.6774 17.8063V16.258C21.6774 13.6961 19.5941 11.6128 17.0323 11.6128C14.4704 11.6128 12.3871 13.6961 12.3871 16.258V17.8063C12.3871 19.1774 12.9878 20.4075 13.9355 21.2592V22.6428L10.762 23.5485C9.43964 23.9254 8.51613 25.1502 8.51613 26.5262V29.4192H5.41936V34.0644H6.96774V46.4515H0V47.9999H48V46.4515H39.4102ZM32.5161 34.0644V30.514L38.002 25.0281C38.3986 24.6316 38.6345 24.0989 38.6874 23.5432C38.6942 23.5973 38.7097 23.6483 38.7097 23.7043V33.2902C38.7097 34.5706 37.6675 35.6128 36.3871 35.6128H30.1936V34.0644H32.5161ZM30.1936 40.258H34.1382L34.7574 46.4515H30.1936V40.258ZM35.6942 40.258H37.235L37.8542 46.4515H36.3134L35.6942 40.258ZM40.2581 33.2902V26.3225H41.8065V34.8386C41.8065 36.9729 40.0698 38.7096 37.9355 38.7096H30.1936V37.1612H36.3871C38.5214 37.1612 40.2581 35.4245 40.2581 33.2902ZM32.5161 17.8063V16.258C32.5161 14.55 33.905 13.1612 35.6129 13.1612C37.3208 13.1612 38.7097 14.55 38.7097 16.258V17.8063C38.7097 19.5143 37.3208 20.9031 35.6129 20.9031C33.905 20.9031 32.5161 19.5143 32.5161 17.8063ZM30.5141 27.8709L35.6794 22.7055C35.8412 22.5437 36.065 22.4515 36.2934 22.4515C36.7719 22.4515 37.1613 22.8409 37.1613 23.3194C37.1613 23.5478 37.0691 23.7716 36.9073 23.9334L31.4214 29.4192H23.2258C22.7986 29.4192 22.4516 29.0722 22.4516 28.6451C22.4516 28.2179 22.7986 27.8709 23.2258 27.8709H30.5141ZM13.9355 16.258C13.9355 14.55 15.3243 13.1612 17.0323 13.1612C18.7402 13.1612 20.129 14.55 20.129 16.258V17.8063C20.129 19.5143 18.7402 20.9031 17.0323 20.9031C15.3243 20.9031 13.9355 19.5143 13.9355 17.8063V16.258ZM17.0323 22.4515C17.5759 22.4515 18.0953 22.3525 18.5806 22.1805V23.0121C18.3886 23.3085 17.8552 23.9999 17.0323 23.9999C16.2093 23.9999 15.6759 23.3085 15.4839 23.0121V22.1805C15.9693 22.3525 16.4887 22.4515 17.0323 22.4515ZM10.0645 26.5262C10.0645 25.8378 10.5268 25.2262 11.1872 25.0372L14.3766 24.1262C14.8257 24.7113 15.6997 25.5483 17.0323 25.5483C18.3648 25.5483 19.2388 24.7113 19.6879 24.1254L22.8773 25.0364C23.4704 25.2062 23.8839 25.7218 23.9667 26.3217H23.2258C21.9454 26.3217 20.9032 27.3639 20.9032 28.6443C20.9032 28.9169 20.9588 29.1754 21.0457 29.4185H10.0645V26.5262ZM6.96774 30.9676H30.9677V32.516H6.96774V30.9676ZM8.51613 37.1612H10.8387V35.6128H8.51613V34.0644H28.6452V35.6128H12.3871V37.1612H28.6452V46.4515H26.8012L25.2528 43.3547H11.9085L10.3601 46.4515H8.51613V37.1612ZM25.0698 46.4515H12.0915L12.8657 44.9031H24.2956L25.0698 46.4515Z" fill="#A73933"/>
</g>
<defs>
<clipPath id="clip0_366_813">
<rect width="48" height="48" fill="white"/>
</clipPath>
</defs>
</svg>
