<svg width="48" height="48" viewBox="0 0 48 48" fill="none" xmlns="http://www.w3.org/2000/svg">
<g clip-path="url(#clip0_707_402)">
<path d="M23.7715 27.3973C23.5726 27.3973 23.3818 27.3183 23.2412 27.1776C23.1005 27.037 23.0215 26.8462 23.0215 26.6473V8.55355C23.0215 8.35365 23.1009 8.16193 23.2423 8.02057C23.3836 7.87922 23.5753 7.7998 23.7752 7.7998C23.9751 7.7998 24.1669 7.87922 24.3082 8.02057C24.4496 8.16193 24.529 8.35365 24.529 8.55355V26.6473C24.529 26.7464 24.5093 26.8446 24.4712 26.9361C24.433 27.0275 24.3771 27.1106 24.3067 27.1803C24.2362 27.25 24.1527 27.3051 24.0608 27.3424C23.9689 27.3796 23.8706 27.3983 23.7715 27.3973Z" fill="#A73933"/>
<path d="M23.7715 40.2055C23.5726 40.2055 23.3818 40.1265 23.2412 39.9858C23.1005 39.8452 23.0215 39.6544 23.0215 39.4555V32.1214C23.0215 31.9215 23.1009 31.7298 23.2423 31.5884C23.3836 31.4471 23.5753 31.3677 23.7752 31.3677C23.9751 31.3677 24.1669 31.4471 24.3082 31.5884C24.4496 31.7298 24.529 31.9215 24.529 32.1214V39.4517C24.5295 39.5512 24.5102 39.6497 24.4723 39.7416C24.4343 39.8336 24.3785 39.917 24.308 39.9872C24.2375 40.0573 24.1538 40.1127 24.0617 40.1502C23.9696 40.1877 23.8709 40.2065 23.7715 40.2055Z" fill="#A73933"/>
<path d="M33.2872 22.7183C33.1973 22.7183 33.108 22.7021 33.0238 22.6705L23.7772 19.2186L14.9872 22.6667C14.8949 22.7028 14.7964 22.7204 14.6972 22.7185C14.5981 22.7165 14.5003 22.6951 14.4095 22.6553C14.3186 22.6156 14.2365 22.5583 14.1678 22.4869C14.0991 22.4154 14.0451 22.3311 14.009 22.2387C13.936 22.0523 13.9401 21.8444 14.0203 21.661C14.1006 21.4775 14.2504 21.3334 14.4369 21.2605L23.495 17.7073C23.6685 17.6405 23.8606 17.6405 24.0341 17.7073L33.5507 21.2605C33.7214 21.3177 33.8658 21.4346 33.9575 21.5896C34.0493 21.7446 34.0821 21.9274 34.0502 22.1046C34.0182 22.2819 33.9235 22.4417 33.7834 22.5549C33.6434 22.668 33.4672 22.727 33.2872 22.7211V22.7183Z" fill="#A73933"/>
<path d="M10.219 14.0822H3.54867C3.34876 14.0822 3.15705 14.0028 3.01569 13.8614C2.87433 13.7201 2.79492 13.5284 2.79492 13.3285C2.79492 13.1285 2.87433 12.9368 3.01569 12.7955C3.15705 12.6541 3.34876 12.5747 3.54867 12.5747H10.219C10.4189 12.5747 10.6106 12.6541 10.752 12.7955C10.8933 12.9368 10.9727 13.1285 10.9727 13.3285C10.9727 13.5284 10.8933 13.7201 10.752 13.8614C10.6106 14.0028 10.4189 14.0822 10.219 14.0822Z" fill="#A73933"/>
<path d="M6.56234 19.8986H1.61703C1.41712 19.8986 1.22541 19.8192 1.08405 19.6778C0.942694 19.5365 0.863281 19.3448 0.863281 19.1449C0.863281 18.945 0.942694 18.7532 1.08405 18.6119C1.22541 18.4705 1.41712 18.3911 1.61703 18.3911H6.56234C6.76225 18.3911 6.95397 18.4705 7.09533 18.6119C7.23668 18.7532 7.31609 18.945 7.31609 19.1449C7.31609 19.3448 7.23668 19.5365 7.09533 19.6778C6.95397 19.8192 6.76225 19.8986 6.56234 19.8986Z" fill="#A73933"/>
<path d="M8.87406 33.3395H2.9725C2.77259 33.3395 2.58087 33.2601 2.43952 33.1188C2.29816 32.9774 2.21875 32.7857 2.21875 32.5858C2.21875 32.3859 2.29816 32.1942 2.43952 32.0528C2.58087 31.9114 2.77259 31.832 2.9725 31.832H8.87406C9.07397 31.832 9.26569 31.9114 9.40704 32.0528C9.5484 32.1942 9.62781 32.3859 9.62781 32.5858C9.62781 32.7857 9.5484 32.9774 9.40704 33.1188C9.26569 33.2601 9.07397 33.3395 8.87406 33.3395Z" fill="#A73933"/>
<path d="M44.2581 14.0822H37.8241C37.6242 14.0822 37.4324 14.0028 37.2911 13.8614C37.1497 13.7201 37.0703 13.5284 37.0703 13.3285C37.0703 13.1285 37.1497 12.9368 37.2911 12.7955C37.4324 12.6541 37.6242 12.5747 37.8241 12.5747H44.2581C44.458 12.5747 44.6498 12.6541 44.7911 12.7955C44.9325 12.9368 45.0119 13.1285 45.0119 13.3285C45.0119 13.5284 44.9325 13.7201 44.7911 13.8614C44.6498 14.0028 44.458 14.0822 44.2581 14.0822Z" fill="#A73933"/>
<path d="M13.013 38.8649H6.04086C5.84095 38.8649 5.64923 38.7855 5.50788 38.6442C5.36652 38.5028 5.28711 38.3111 5.28711 38.1112C5.28711 37.9113 5.36652 37.7195 5.50788 37.5782C5.64923 37.4368 5.84095 37.3574 6.04086 37.3574H13.013C13.213 37.3574 13.4047 37.4368 13.546 37.5782C13.6874 37.7195 13.7668 37.9113 13.7668 38.1112C13.7668 38.3111 13.6874 38.5028 13.546 38.6442C13.4047 38.7855 13.213 38.8649 13.013 38.8649Z" fill="#A73933"/>
<path d="M45.0763 33.3395H38.9432C38.7433 33.3395 38.5516 33.2601 38.4102 33.1188C38.2689 32.9774 38.1895 32.7857 38.1895 32.5858C38.1895 32.3859 38.2689 32.1942 38.4102 32.0528C38.5516 31.9114 38.7433 31.832 38.9432 31.832H45.0763C45.2762 31.832 45.468 31.9114 45.6093 32.0528C45.7507 32.1942 45.8301 32.3859 45.8301 32.5858C45.8301 32.7857 45.7507 32.9774 45.6093 33.1188C45.468 33.2601 45.2762 33.3395 45.0763 33.3395Z" fill="#A73933"/>
<path d="M41.7767 38.8649H34.8045C34.6046 38.8649 34.4129 38.7855 34.2715 38.6442C34.1302 38.5028 34.0508 38.3111 34.0508 38.1112C34.0508 37.9113 34.1302 37.7195 34.2715 37.5782C34.4129 37.4368 34.6046 37.3574 34.8045 37.3574H41.7767C41.9766 37.3574 42.1683 37.4368 42.3097 37.5782C42.4511 37.7195 42.5305 37.9113 42.5305 38.1112C42.5305 38.3111 42.4511 38.5028 42.3097 38.6442C42.1683 38.7855 41.9766 38.8649 41.7767 38.8649Z" fill="#A73933"/>
<path d="M46.4227 19.8986H41.4784C41.2785 19.8986 41.0867 19.8192 40.9454 19.6778C40.804 19.5365 40.7246 19.3448 40.7246 19.1449C40.7246 18.945 40.804 18.7532 40.9454 18.6119C41.0867 18.4705 41.2785 18.3911 41.4784 18.3911H46.4227C46.6226 18.3911 46.8144 18.4705 46.9557 18.6119C47.0971 18.7532 47.1765 18.945 47.1765 19.1449C47.1765 19.3448 47.0971 19.5365 46.9557 19.6778C46.8144 19.8192 46.6226 19.8986 46.4227 19.8986Z" fill="#A73933"/>
<path d="M23.7709 27.3975C23.6505 27.3976 23.5318 27.3686 23.425 27.3131L14.3668 22.6331C14.2716 22.585 14.1876 22.5171 14.1207 22.4339C14.0538 22.3507 14.0054 22.2542 13.9788 22.1508C13.9521 22.0474 13.9479 21.9395 13.9663 21.8343C13.9848 21.7292 14.0254 21.6291 14.0856 21.541L23.1437 8.12533C23.2117 8.02412 23.3033 7.941 23.4106 7.88317C23.5179 7.82535 23.6378 7.79455 23.7597 7.79346H23.7681C23.8886 7.79313 24.0074 7.82184 24.1145 7.87717C24.2215 7.93249 24.3137 8.01279 24.3831 8.11127L33.8997 21.5269C33.9635 21.6157 34.0072 21.7173 34.0277 21.8247C34.0481 21.9322 34.0448 22.0427 34.0181 22.1488C33.9913 22.2548 33.9416 22.3537 33.8726 22.4385C33.8035 22.5233 33.7168 22.592 33.6184 22.6397L24.1037 27.3206C24.0002 27.3715 23.8863 27.3978 23.7709 27.3975ZM15.8115 21.6788L23.7803 25.7953L32.1615 21.6703L23.7859 9.87283L15.8115 21.6788Z" fill="#A73933"/>
<path d="M24.0008 47.9532C19.2632 47.9534 14.632 46.5486 10.6927 43.9166C6.75353 41.2846 3.68327 37.5436 1.87025 33.1666C0.0572326 28.7897 -0.41712 23.9734 0.507182 19.3268C1.43148 14.6803 3.71293 10.4122 7.06299 7.06226C11.5552 2.57007 17.6479 0.0463867 24.0008 0.0463867C30.3537 0.0463867 36.4464 2.57007 40.9386 7.06226C45.4308 11.5544 47.9545 17.6472 47.9545 24.0001C47.9545 30.353 45.4308 36.4457 40.9386 40.9379C38.7195 43.1691 36.0798 44.938 33.1724 46.1421C30.265 47.3463 27.1477 47.9619 24.0008 47.9532ZM24.0008 1.55445C11.6258 1.55445 1.55518 11.6251 1.55518 24.0001C1.55518 36.3751 11.6258 46.4457 24.0008 46.4457C36.3758 46.4457 46.4455 36.3751 46.4455 24.0001C46.4455 11.6251 36.3758 1.55445 24.0008 1.55445Z" fill="#A73933"/>
<path d="M23.7718 40.2054H23.7633C23.6442 40.2042 23.527 40.1747 23.4215 40.1193C23.316 40.0639 23.2253 39.9841 23.1568 39.8866L14.0977 27.0785C13.9919 26.9378 13.9391 26.7643 13.9483 26.5886C13.9575 26.4128 14.0283 26.2458 14.1482 26.117C14.2681 25.9881 14.4296 25.9056 14.6042 25.8837C14.7789 25.8619 14.9557 25.9022 15.1036 25.9976L23.7811 31.2476L32.9124 25.9919C33.0623 25.9013 33.2392 25.866 33.4124 25.8921C33.5856 25.9183 33.7442 26.0042 33.8606 26.135C33.9771 26.2659 34.0441 26.4333 34.05 26.6084C34.0559 26.7835 34.0004 26.9551 33.893 27.0935L24.3755 39.9007C24.3058 39.9952 24.2148 40.072 24.1099 40.1249C24.005 40.1779 23.8892 40.2054 23.7718 40.2054ZM17.4155 29.156L23.7905 38.1644L30.5217 29.1054L24.1477 32.7747C24.031 32.8423 23.8983 32.8772 23.7636 32.8757C23.6288 32.8742 23.4969 32.8364 23.3817 32.7663L17.4155 29.156Z" fill="#A73933"/>
<path d="M36.2188 15.4855C35.7881 15.4855 35.367 15.3578 35.0089 15.1185C34.6508 14.8792 34.3716 14.5391 34.2068 14.1411C34.042 13.7432 33.9988 13.3053 34.0829 12.8828C34.1669 12.4604 34.3743 12.0723 34.6789 11.7678C34.9835 11.4632 35.3715 11.2558 35.794 11.1717C36.2164 11.0877 36.6543 11.1308 37.0522 11.2957C37.4502 11.4605 37.7903 11.7396 38.0296 12.0978C38.2689 12.4559 38.3966 12.877 38.3966 13.3077C38.3959 13.8851 38.1662 14.4386 37.758 14.8468C37.3497 15.2551 36.7962 15.4848 36.2188 15.4855ZM36.2188 12.6383C36.0863 12.6383 35.9567 12.6776 35.8464 12.7513C35.7362 12.8249 35.6503 12.9296 35.5995 13.0521C35.5488 13.1746 35.5355 13.3094 35.5614 13.4394C35.5873 13.5694 35.6511 13.6889 35.7448 13.7826C35.8386 13.8764 35.958 13.9402 36.0881 13.9661C36.2181 13.9919 36.3529 13.9787 36.4753 13.9279C36.5978 13.8772 36.7025 13.7913 36.7762 13.681C36.8498 13.5708 36.8891 13.4412 36.8891 13.3086C36.8893 13.2205 36.872 13.1333 36.8384 13.0518C36.8048 12.9704 36.7554 12.8964 36.6931 12.834C36.6309 12.7717 36.5569 12.7222 36.4756 12.6885C36.3942 12.6548 36.3069 12.6374 36.2188 12.6374V12.6383Z" fill="#A73933"/>
<path d="M11.6388 15.4855C11.208 15.4855 10.787 15.3578 10.4288 15.1185C10.0707 14.8792 9.79155 14.5391 9.62671 14.1411C9.46188 13.7432 9.41875 13.3053 9.50278 12.8828C9.58682 12.4604 9.79423 12.0723 10.0988 11.7678C10.4034 11.4632 10.7914 11.2558 11.2139 11.1717C11.6363 11.0877 12.0742 11.1308 12.4722 11.2957C12.8701 11.4605 13.2102 11.7396 13.4495 12.0978C13.6888 12.4559 13.8166 12.877 13.8166 13.3077C13.8158 13.8851 13.5861 14.4386 13.1779 14.8468C12.7696 15.2551 12.2161 15.4848 11.6388 15.4855ZM11.6388 12.6383C11.5062 12.6383 11.3766 12.6776 11.2663 12.7513C11.1561 12.8249 11.0702 12.9296 11.0195 13.0521C10.9687 13.1746 10.9555 13.3094 10.9813 13.4394C11.0072 13.5694 11.071 13.6889 11.1648 13.7826C11.2585 13.8764 11.378 13.9402 11.508 13.9661C11.638 13.9919 11.7728 13.9787 11.8953 13.9279C12.0178 13.8772 12.1224 13.7913 12.1961 13.681C12.2697 13.5708 12.3091 13.4412 12.3091 13.3086C12.3092 13.2205 12.2919 13.1333 12.2583 13.0518C12.2247 12.9704 12.1753 12.8964 12.1131 12.834C12.0508 12.7717 11.9769 12.7222 11.8955 12.6885C11.8141 12.6548 11.7269 12.6374 11.6388 12.6374V12.6383Z" fill="#A73933"/>
<path d="M39.8809 21.2868C39.4502 21.2868 39.0292 21.1591 38.671 20.9198C38.3129 20.6804 38.0337 20.3403 37.8689 19.9424C37.7041 19.5444 37.6609 19.1066 37.745 18.6841C37.829 18.2616 38.0364 17.8736 38.341 17.569C38.6456 17.2644 39.0336 17.057 39.4561 16.973C39.8785 16.889 40.3164 16.9321 40.7144 17.0969C41.1123 17.2618 41.4524 17.5409 41.6917 17.899C41.931 18.2572 42.0588 18.6782 42.0588 19.109C42.058 19.6863 41.8283 20.2398 41.4201 20.6481C41.0118 21.0563 40.4583 21.286 39.8809 21.2868ZM39.8809 18.4396C39.7484 18.4396 39.6188 18.4789 39.5085 18.5526C39.3983 18.6262 39.3124 18.7309 39.2616 18.8534C39.2109 18.9759 39.1976 19.1106 39.2235 19.2407C39.2494 19.3707 39.3132 19.4901 39.407 19.5839C39.5007 19.6776 39.6201 19.7415 39.7502 19.7673C39.8802 19.7932 40.015 19.7799 40.1375 19.7292C40.2599 19.6785 40.3646 19.5925 40.4383 19.4823C40.5119 19.3721 40.5512 19.2425 40.5512 19.1099C40.5512 18.9321 40.4806 18.7616 40.3549 18.6359C40.2292 18.5102 40.0587 18.4396 39.8809 18.4396Z" fill="#A73933"/>
<path d="M8.06258 21.2868C7.63185 21.2868 7.21079 21.1591 6.85265 20.9198C6.49451 20.6804 6.21538 20.3403 6.05054 19.9424C5.88571 19.5444 5.84258 19.1066 5.92661 18.6841C6.01064 18.2616 6.21806 17.8736 6.52263 17.569C6.82721 17.2644 7.21525 17.057 7.63771 16.973C8.06016 16.889 8.49805 16.9321 8.89599 17.0969C9.29393 17.2618 9.63406 17.5409 9.87336 17.899C10.1127 18.2572 10.2404 18.6782 10.2404 19.109C10.2396 19.6863 10.01 20.2398 9.6017 20.6481C9.19344 21.0563 8.63994 21.286 8.06258 21.2868ZM8.06258 18.4396C7.93 18.4396 7.80041 18.4789 7.69017 18.5526C7.57994 18.6262 7.49403 18.7309 7.44329 18.8534C7.39256 18.9759 7.37928 19.1106 7.40515 19.2407C7.43101 19.3707 7.49485 19.4901 7.5886 19.5839C7.68234 19.6776 7.80178 19.7415 7.93181 19.7673C8.06184 19.7932 8.19661 19.7799 8.3191 19.7292C8.44158 19.6785 8.54627 19.5925 8.61992 19.4823C8.69358 19.3721 8.73289 19.2425 8.73289 19.1099C8.73289 18.9321 8.66227 18.7616 8.53656 18.6359C8.41085 18.5102 8.24036 18.4396 8.06258 18.4396Z" fill="#A73933"/>
<path d="M37.5528 34.7287C37.1221 34.7287 36.701 34.6009 36.3429 34.3616C35.9847 34.1223 35.7056 33.7822 35.5408 33.3843C35.3759 32.9863 35.3328 32.5484 35.4168 32.126C35.5009 31.7035 35.7083 31.3155 36.0129 31.0109C36.3174 30.7063 36.7055 30.4989 37.1279 30.4149C37.5504 30.3309 37.9883 30.374 38.3862 30.5388C38.7842 30.7037 39.1243 30.9828 39.3636 31.3409C39.6029 31.6991 39.7306 32.1201 39.7306 32.5509C39.7299 33.1282 39.5002 33.6817 39.0919 34.09C38.6837 34.4982 38.1302 34.7279 37.5528 34.7287ZM37.5528 31.8815C37.4202 31.8813 37.2905 31.9205 37.1802 31.994C37.0698 32.0675 36.9837 32.1722 36.9329 32.2946C36.882 32.4171 36.8686 32.5519 36.8943 32.682C36.9201 32.8121 36.9839 32.9316 37.0776 33.0254C37.1713 33.1193 37.2907 33.1832 37.4208 33.2092C37.5508 33.2351 37.6856 33.2219 37.8082 33.1712C37.9307 33.1205 38.0355 33.0346 38.1092 32.9243C38.1829 32.814 38.2222 32.6844 38.2222 32.5518C38.2223 32.4638 38.2051 32.3766 38.1715 32.2952C38.138 32.2138 38.0887 32.1399 38.0265 32.0775C37.9644 32.0152 37.8905 31.9657 37.8093 31.9319C37.728 31.8981 37.6408 31.8807 37.5528 31.8805V31.8815Z" fill="#A73933"/>
<path d="M10.2188 34.7287C9.7881 34.7287 9.36704 34.6009 9.0089 34.3616C8.65076 34.1223 8.37163 33.7822 8.20679 33.3843C8.04196 32.9863 7.99883 32.5484 8.08286 32.126C8.16689 31.7035 8.37431 31.3155 8.67888 31.0109C8.98346 30.7063 9.3715 30.4989 9.79396 30.4149C10.2164 30.3309 10.6543 30.374 11.0522 30.5388C11.4502 30.7037 11.7903 30.9828 12.0296 31.3409C12.2689 31.6991 12.3966 32.1201 12.3966 32.5509C12.3959 33.1282 12.1662 33.6817 11.758 34.09C11.3497 34.4982 10.7962 34.7279 10.2188 34.7287ZM10.2188 31.8815C10.0863 31.8815 9.95666 31.9208 9.84642 31.9945C9.73619 32.0681 9.65028 32.1728 9.59954 32.2953C9.54881 32.4178 9.53553 32.5525 9.5614 32.6826C9.58726 32.8126 9.6511 32.932 9.74485 33.0258C9.83859 33.1195 9.95803 33.1834 10.0881 33.2092C10.2181 33.2351 10.3529 33.2218 10.4753 33.1711C10.5978 33.1204 10.7025 33.0344 10.7762 32.9242C10.8498 32.814 10.8891 32.6844 10.8891 32.5518C10.8893 32.4637 10.872 32.3764 10.8384 32.295C10.8048 32.2136 10.7554 32.1396 10.6931 32.0772C10.6309 32.0149 10.557 31.9654 10.4756 31.9317C10.3942 31.8979 10.3069 31.8805 10.2188 31.8805V31.8815Z" fill="#A73933"/>
<path d="M33.3517 40.2882C32.9211 40.2879 32.5002 40.1598 32.1423 39.9203C31.7844 39.6808 31.5056 39.3405 31.341 38.9425C31.1765 38.5446 31.1336 38.1067 31.2179 37.6844C31.3021 37.2621 31.5097 36.8742 31.8143 36.5698C32.119 36.2654 32.507 36.0582 32.9294 35.9743C33.3518 35.8904 33.7896 35.9337 34.1874 36.0986C34.5853 36.2635 34.9253 36.5426 35.1645 36.9007C35.4037 37.2588 35.5314 37.6798 35.5314 38.1104C35.5307 38.6881 35.3007 39.2419 34.8921 39.6502C34.4834 40.0585 33.9294 40.288 33.3517 40.2882ZM33.3517 37.4411C33.2191 37.4411 33.0895 37.4804 32.9793 37.554C32.8691 37.6277 32.7832 37.7324 32.7324 37.8548C32.6817 37.9773 32.6684 38.1121 32.6943 38.2421C32.7202 38.3722 32.784 38.4916 32.8777 38.5853C32.9715 38.6791 33.0909 38.7429 33.2209 38.7688C33.351 38.7947 33.4858 38.7814 33.6082 38.7307C33.7307 38.6799 33.8354 38.594 33.9091 38.4838C33.9827 38.3735 34.022 38.2439 34.022 38.1114C34.022 37.9336 33.9514 37.7631 33.8257 37.6374C33.7 37.5117 33.5295 37.4411 33.3517 37.4411Z" fill="#A73933"/>
<path d="M14.3438 40.2536C13.9131 40.2536 13.492 40.1258 13.1339 39.8865C12.7758 39.6472 12.4966 39.3071 12.3318 38.9092C12.167 38.5112 12.1238 38.0733 12.2079 37.6509C12.2919 37.2284 12.4993 36.8404 12.8039 36.5358C13.1085 36.2312 13.4965 36.0238 13.919 35.9398C14.3414 35.8558 14.7793 35.8989 15.1772 36.0637C15.5752 36.2286 15.9153 36.5077 16.1546 36.8658C16.3939 37.224 16.5216 37.645 16.5216 38.0758C16.5209 38.6531 16.2912 39.2066 15.883 39.6149C15.4747 40.0231 14.9212 40.2528 14.3438 40.2536ZM14.3438 37.4064C14.2113 37.4064 14.0817 37.4457 13.9714 37.5194C13.8612 37.593 13.7753 37.6977 13.7245 37.8202C13.6738 37.9427 13.6605 38.0774 13.6864 38.2075C13.7123 38.3375 13.7761 38.4569 13.8698 38.5507C13.9636 38.6444 14.083 38.7083 14.2131 38.7341C14.3431 38.76 14.4779 38.7467 14.6003 38.696C14.7228 38.6453 14.8275 38.5593 14.9012 38.4491C14.9748 38.3389 15.0141 38.2093 15.0141 38.0767C15.0141 37.8989 14.9435 37.7284 14.8178 37.6027C14.6921 37.477 14.5216 37.4064 14.3438 37.4064Z" fill="#A73933"/>
</g>
<defs>
<clipPath id="clip0_707_402">
<rect width="48" height="48" fill="white"/>
</clipPath>
</defs>
</svg>
