<svg width="48" height="48" viewBox="0 0 48 48" fill="none" xmlns="http://www.w3.org/2000/svg">
<g clip-path="url(#clip0_707_389)">
<path d="M24.75 12.75V12.2347C25.1685 12.1243 25.5414 11.8847 25.8158 11.55C26.0597 11.2844 26.2344 10.9629 26.3247 10.6138C26.4149 10.2647 26.4179 9.89876 26.3333 9.54825C26.1696 9.07592 25.8971 8.64873 25.5378 8.30124C25.1784 7.95375 24.7423 7.69571 24.2648 7.548C24.0143 7.47862 23.7819 7.35544 23.5838 7.18705C23.3858 7.01866 23.2268 6.80911 23.118 6.573C23.0923 6.45444 23.0984 6.33116 23.1359 6.21575C23.1733 6.10034 23.2406 5.99691 23.331 5.916C23.8635 5.283 25.0163 6.15075 25.0253 6.1575C25.103 6.21822 25.1919 6.26304 25.2869 6.2894C25.382 6.31576 25.4813 6.32314 25.5791 6.31113C25.677 6.29912 25.7716 6.26794 25.8574 6.21938C25.9433 6.17082 26.0187 6.10584 26.0794 6.02813C26.1401 5.95042 26.185 5.86151 26.2113 5.76648C26.2377 5.67144 26.2451 5.57215 26.233 5.47427C26.221 5.37638 26.1899 5.28182 26.1413 5.19599C26.0927 5.11015 26.0278 5.03472 25.95 4.974C25.5877 4.69882 25.1822 4.48568 24.75 4.34325V3.75C24.75 3.55109 24.671 3.36032 24.5304 3.21967C24.3897 3.07902 24.199 3 24 3C23.8011 3 23.6104 3.07902 23.4697 3.21967C23.3291 3.36032 23.25 3.55109 23.25 3.75V4.2585C22.8309 4.37122 22.458 4.61318 22.1843 4.95C21.9404 5.2156 21.7657 5.53712 21.6754 5.88621C21.5852 6.2353 21.5822 6.60124 21.6668 6.95175C21.8302 7.42423 22.1026 7.85156 22.462 8.19909C22.8214 8.54661 23.2576 8.80456 23.7353 8.952C23.9858 9.02138 24.2182 9.14456 24.4163 9.31295C24.6143 9.48134 24.7733 9.69089 24.882 9.927C24.9078 10.0456 24.9016 10.1688 24.8642 10.2842C24.8268 10.3997 24.7595 10.5031 24.669 10.584C24.1365 11.2155 22.9868 10.3522 22.9718 10.3402C22.8939 10.28 22.8049 10.2356 22.7098 10.2098C22.6148 10.1839 22.5156 10.177 22.4179 10.1894C22.3202 10.2019 22.2259 10.2335 22.1404 10.2824C22.0549 10.3313 21.9798 10.3966 21.9195 10.4745C21.8593 10.5524 21.8149 10.6414 21.789 10.7365C21.7632 10.8315 21.7563 10.9307 21.7687 11.0284C21.7812 11.1261 21.8128 11.2204 21.8617 11.3059C21.9106 11.3914 21.9759 11.4665 22.0538 11.5268C22.416 11.7969 22.8201 12.0057 23.25 12.1448V12.75C23.25 12.9489 23.3291 13.1397 23.4697 13.2803C23.6104 13.421 23.8011 13.5 24 13.5C24.199 13.5 24.3897 13.421 24.5304 13.2803C24.671 13.1397 24.75 12.9489 24.75 12.75Z" fill="#A73933"/>
<path d="M36.15 28.5249L33 25.8999V21.7502C33 21.1534 32.7629 20.5811 32.341 20.1592C31.919 19.7372 31.3467 19.5002 30.75 19.5002H24.75V16.4619C26.8643 16.2689 28.8227 15.2683 30.218 13.6681C31.6133 12.068 32.3381 9.99155 32.2415 7.8707C32.1449 5.74986 31.2344 3.74789 29.6994 2.28122C28.1644 0.814551 26.123 -0.00390625 24 -0.00390625C21.877 -0.00390625 19.8356 0.814551 18.3006 2.28122C16.7656 3.74789 15.8551 5.74986 15.7585 7.8707C15.6619 9.99155 16.3867 12.068 17.782 13.6681C19.1773 15.2683 21.1357 16.2689 23.25 16.4619V19.5002H17.25C16.6533 19.5002 16.081 19.7372 15.659 20.1592C15.2371 20.5811 15 21.1534 15 21.7502V25.8992L11.85 28.5242C11.427 28.8757 11.0868 29.3162 10.8534 29.8143C10.6201 30.3123 10.4994 30.8557 10.5 31.4057V45.7502C10.5 46.3469 10.7371 46.9192 11.159 47.3412C11.581 47.7631 12.1533 48.0002 12.75 48.0002H35.25C35.8467 48.0002 36.419 47.7631 36.841 47.3412C37.2629 46.9192 37.5 46.3469 37.5 45.7502V31.4057C37.5007 30.8558 37.38 30.3125 37.1467 29.8146C36.9133 29.3166 36.573 28.8763 36.15 28.5249ZM17.25 8.25018C17.25 6.91516 17.6459 5.61011 18.3876 4.50008C19.1293 3.39005 20.1835 2.52489 21.4169 2.014C22.6503 1.5031 24.0075 1.36943 25.3169 1.62988C26.6262 1.89033 27.829 2.53321 28.773 3.47721C29.717 4.42122 30.3599 5.62395 30.6203 6.93332C30.8808 8.24269 30.7471 9.59989 30.2362 10.8333C29.7253 12.0667 28.8601 13.1209 27.7501 13.8626C26.6401 14.6043 25.335 15.0002 24 15.0002C22.2105 14.998 20.4948 14.2861 19.2294 13.0207C17.964 11.7553 17.2522 10.0397 17.25 8.25018ZM16.5 25.5002V24.0002H31.5V25.5002H16.5ZM17.25 21.0002H30.75C30.9489 21.0002 31.1397 21.0792 31.2803 21.2199C31.421 21.3605 31.5 21.5513 31.5 21.7502V22.5002H16.5V21.7502C16.5 21.5513 16.579 21.3605 16.7197 21.2199C16.8603 21.0792 17.0511 21.0002 17.25 21.0002ZM12 45.7502V31.4057C12.0002 31.0763 12.0728 30.751 12.2128 30.4529C12.3528 30.1548 12.5567 29.8912 12.81 29.6807L16.0215 27.0002H23.25V37.1544C23.0082 36.8667 22.7414 36.6009 22.4528 36.3602C22.3245 35.5704 21.8693 33.4922 20.5118 32.4317C20.1769 32.1669 19.7905 31.9749 19.3772 31.8681C18.964 31.7613 18.5329 31.742 18.1118 31.8114C16.9411 32.0537 15.7267 31.976 14.5965 31.5864C14.4661 31.5191 14.3189 31.4915 14.173 31.507C14.0271 31.5225 13.889 31.5805 13.7757 31.6738C13.6625 31.767 13.579 31.8914 13.5357 32.0316C13.4925 32.1718 13.4912 32.3216 13.5323 32.4624C13.569 32.5899 14.4638 35.5922 16.6313 36.8874C17.2849 37.2953 18.0402 37.5111 18.8108 37.5099C19.172 37.5034 19.5324 37.4716 19.8893 37.4147C20.3901 37.3076 20.9087 37.3145 21.4065 37.4349L21.4253 37.4507C22.3872 38.2186 23.02 39.3245 23.1945 40.5429C21.5288 40.7012 19.9482 41.3525 18.6545 42.4136C17.3609 43.4748 16.4131 44.8976 15.9323 46.5002H12.75C12.5511 46.5002 12.3603 46.4212 12.2197 46.2805C12.079 46.1399 12 45.9491 12 45.7502ZM18.4763 34.0434C18.3783 34.0234 18.2772 34.0231 18.1791 34.0427C18.0811 34.0623 17.9879 34.1013 17.9051 34.1574C17.8223 34.2135 17.7515 34.2857 17.697 34.3695C17.6425 34.4534 17.6054 34.5473 17.5877 34.6458C17.57 34.7443 17.5723 34.8452 17.5942 34.9428C17.6162 35.0404 17.6574 35.1326 17.7155 35.214C17.7737 35.2954 17.8475 35.3644 17.9327 35.4168C18.0178 35.4693 18.1126 35.5042 18.2115 35.5194C18.6427 35.6 19.0584 35.7486 19.443 35.9597C18.7406 36.1065 18.0087 35.977 17.3993 35.5982C16.5767 35.0334 15.9232 34.2557 15.5085 33.3482C16.4435 33.4582 17.389 33.4416 18.3195 33.2987C18.5408 33.2591 18.768 33.2666 18.9862 33.3209C19.2043 33.3752 19.4086 33.475 19.5855 33.6137C19.9588 33.9362 20.2512 34.3418 20.439 34.7979C19.8379 34.4255 19.1721 34.1695 18.4763 34.0434ZM17.5058 46.5002C18.0014 45.1782 18.8887 44.0389 20.0491 43.2347C21.2095 42.4304 22.5878 41.9995 23.9996 41.9995C25.4115 41.9995 26.7897 42.4304 27.9501 43.2347C29.1106 44.0389 29.9979 45.1782 30.4935 46.5002H17.5058ZM36 45.7502C36 45.9491 35.921 46.1399 35.7803 46.2805C35.6397 46.4212 35.4489 46.5002 35.25 46.5002H32.0678C31.5872 44.8977 30.6398 43.4749 29.3466 42.4135C28.0534 41.3521 26.4732 40.7003 24.8078 40.5414C24.9826 39.3229 25.6156 38.217 26.5778 37.4492L26.5965 37.4334C27.094 37.3122 27.6125 37.3053 28.113 37.4132C28.4701 37.4701 28.8307 37.5019 29.1923 37.5084C29.9625 37.5095 30.7175 37.2937 31.371 36.8859C33.5385 35.5892 34.4333 32.5869 34.47 32.4609C34.511 32.3201 34.5098 32.1703 34.4665 32.0301C34.4232 31.8899 34.3398 31.7655 34.2265 31.6723C34.1133 31.579 33.9751 31.521 33.8292 31.5055C33.6833 31.49 33.5361 31.5176 33.4058 31.5849C32.2763 31.9786 31.0609 32.0564 29.8905 31.8099C29.4694 31.741 29.0385 31.7605 28.6253 31.8672C28.2121 31.9738 27.8257 32.1653 27.4905 32.4294C26.1323 33.4907 25.677 35.5697 25.5488 36.3594C25.2597 36.6005 24.9925 36.8666 24.75 37.1544V27.0002H31.9785L35.1908 29.6769C35.4444 29.8879 35.6483 30.1522 35.7882 30.451C35.9281 30.7498 36.0004 31.0758 36 31.4057V45.7502ZM29.5238 34.0434C28.8283 34.1683 28.1625 34.4227 27.561 34.7934C27.7489 34.3371 28.0415 33.9314 28.4153 33.6092C28.5919 33.4702 28.796 33.3703 29.0141 33.316C29.2322 33.2617 29.4593 33.2542 29.6805 33.2942C30.611 33.4371 31.5565 33.4537 32.4915 33.3437C32.0732 34.2489 31.4204 35.0257 30.6008 35.5937C29.9916 35.9726 29.2598 36.1018 28.5578 35.9544C28.9424 35.7437 29.3581 35.5954 29.7893 35.5149C29.8878 35.4993 29.9822 35.4641 30.067 35.4115C30.1518 35.3589 30.2252 35.2899 30.283 35.2085C30.3408 35.1272 30.3817 35.0351 30.4035 34.9378C30.4252 34.8404 30.4274 34.7397 30.4097 34.6415C30.392 34.5432 30.3549 34.4496 30.3006 34.3659C30.2463 34.2822 30.1758 34.2102 30.0933 34.1541C30.0108 34.0979 29.9179 34.0589 29.8201 34.0391C29.7223 34.0193 29.6216 34.0193 29.5238 34.0389V34.0434Z" fill="#A73933"/>
<path d="M40.5 7.5H34.5C34.3011 7.5 34.1103 7.57902 33.9697 7.71967C33.829 7.86032 33.75 8.05109 33.75 8.25C33.75 8.44891 33.829 8.63968 33.9697 8.78033C34.1103 8.92098 34.3011 9 34.5 9H40.5C40.6989 9 40.8897 8.92098 41.0303 8.78033C41.171 8.63968 41.25 8.44891 41.25 8.25C41.25 8.05109 41.171 7.86032 41.0303 7.71967C40.8897 7.57902 40.6989 7.5 40.5 7.5Z" fill="#A73933"/>
<path d="M34.8356 5.92547L37.8356 4.42547C37.9237 4.38144 38.0023 4.32049 38.0669 4.24608C38.1315 4.17167 38.1808 4.08527 38.212 3.99181C38.2432 3.89834 38.2557 3.79965 38.2488 3.70136C38.2418 3.60308 38.2156 3.50712 38.1716 3.41897C38.1275 3.33082 38.0666 3.2522 37.9922 3.18761C37.9178 3.12302 37.8314 3.07372 37.7379 3.04252C37.6444 3.01132 37.5457 2.99883 37.4475 3.00577C37.3492 3.01271 37.2532 3.03894 37.1651 3.08297L34.1651 4.58297C33.987 4.67188 33.8516 4.82788 33.7886 5.01663C33.7256 5.20539 33.7401 5.41144 33.8291 5.58947C33.918 5.7675 34.074 5.90291 34.2627 5.96592C34.4515 6.02893 34.6575 6.01438 34.8356 5.92547Z" fill="#A73933"/>
<path d="M37.8356 12.0791L34.8356 10.5791C34.6575 10.4901 34.4515 10.4756 34.2627 10.5386C34.074 10.6016 33.918 10.737 33.8291 10.9151C33.7401 11.0931 33.7256 11.2991 33.7886 11.4879C33.8516 11.6767 33.987 11.8327 34.1651 11.9216L37.1651 13.4216C37.2532 13.4656 37.3492 13.4918 37.4475 13.4988C37.5457 13.5057 37.6444 13.4932 37.7379 13.462C37.8314 13.4308 37.9178 13.3815 37.9922 13.3169C38.0666 13.2523 38.1275 13.1737 38.1716 13.0856C38.2156 12.9974 38.2418 12.9015 38.2488 12.8032C38.2557 12.7049 38.2432 12.6062 38.212 12.5127C38.1808 12.4193 38.1315 12.3329 38.0669 12.2585C38.0023 12.184 37.9237 12.1231 37.8356 12.0791Z" fill="#A73933"/>
<path d="M14.25 8.25C14.25 8.05109 14.171 7.86032 14.0303 7.71967C13.8897 7.57902 13.6989 7.5 13.5 7.5H7.5C7.30109 7.5 7.11032 7.57902 6.96967 7.71967C6.82902 7.86032 6.75 8.05109 6.75 8.25C6.75 8.44891 6.82902 8.63968 6.96967 8.78033C7.11032 8.92098 7.30109 9 7.5 9H13.5C13.6989 9 13.8897 8.92098 14.0303 8.78033C14.171 8.63968 14.25 8.44891 14.25 8.25Z" fill="#A73933"/>
<path d="M10.1651 4.42547L13.1651 5.92547C13.3431 6.01438 13.5491 6.02893 13.7379 5.96592C13.9267 5.90291 14.0827 5.7675 14.1716 5.58947C14.2605 5.41144 14.275 5.20539 14.212 5.01663C14.149 4.82788 14.0136 4.67188 13.8356 4.58297L10.8356 3.08297C10.6575 2.99406 10.4515 2.9795 10.2627 3.04252C10.074 3.10553 9.91798 3.24094 9.82906 3.41897C9.74015 3.597 9.7256 3.80305 9.78861 3.99181C9.85162 4.18056 9.98704 4.33656 10.1651 4.42547Z" fill="#A73933"/>
<path d="M10.8356 13.4255L13.8356 11.9255C14.0136 11.8366 14.149 11.6806 14.212 11.4918C14.275 11.3031 14.2605 11.097 14.1716 10.919C14.0826 10.7409 13.9267 10.6055 13.7379 10.5425C13.5491 10.4795 13.3431 10.4941 13.1651 10.583L10.1651 12.083C10.0769 12.127 9.9983 12.188 9.93371 12.2624C9.86911 12.3368 9.81981 12.4232 9.78861 12.5166C9.75741 12.6101 9.74492 12.7088 9.75186 12.8071C9.7588 12.9054 9.78504 13.0013 9.82906 13.0895C9.91798 13.2675 10.074 13.4029 10.2627 13.4659C10.3562 13.4971 10.4549 13.5096 10.5532 13.5027C10.6515 13.4957 10.7474 13.4695 10.8356 13.4255Z" fill="#A73933"/>
</g>
<defs>
<clipPath id="clip0_707_389">
<rect width="48" height="48" fill="white"/>
</clipPath>
</defs>
</svg>
