<svg width="48" height="49" viewBox="0 0 48 49" fill="none" xmlns="http://www.w3.org/2000/svg">
<path fill-rule="evenodd" clip-rule="evenodd" d="M7.60313 7.78569H9.87441C10.0126 7.7849 10.1449 7.72965 10.2426 7.63193C10.3404 7.5342 10.3956 7.40189 10.3964 7.26369V4.40122L7.60313 7.78569ZM11.7607 3.36434H36.8371C36.9753 3.36525 37.1075 3.42055 37.2052 3.51827C37.3029 3.61599 37.3582 3.74826 37.3591 3.88644V41.8115C37.3583 41.9497 37.303 42.082 37.2053 42.1797C37.1076 42.2774 36.9753 42.3326 36.8371 42.3334H7.36275C7.22457 42.3326 7.09227 42.2774 6.99454 42.1797C6.89682 42.082 6.84156 41.9497 6.84075 41.8115V9.14994H9.87413C10.3741 9.149 10.8533 8.94996 11.2069 8.59643C11.5604 8.24289 11.7594 7.76366 11.7604 7.26369V3.36434H11.7607ZM10.5255 32.3224H17.2271C17.408 32.3224 17.5815 32.2505 17.7095 32.1226C17.8374 31.9947 17.9093 31.8212 17.9093 31.6403C17.9093 31.4594 17.8374 31.2859 17.7095 31.1579C17.5815 31.03 17.408 30.9582 17.2271 30.9582H10.5255C10.3446 30.9582 10.1711 31.03 10.0432 31.1579C9.91524 31.2859 9.84338 31.4594 9.84338 31.6403C9.84338 31.8212 9.91524 31.9947 10.0432 32.1226C10.1711 32.2505 10.3446 32.3224 10.5255 32.3224ZM10.5255 37.9985H18.1702C18.3511 37.9985 18.5246 37.9266 18.6525 37.7987C18.7804 37.6708 18.8523 37.4973 18.8523 37.3164C18.8523 37.1355 18.7804 36.962 18.6525 36.834C18.5246 36.7061 18.3511 36.6343 18.1702 36.6343H10.5255C10.3446 36.6343 10.1711 36.7061 10.0432 36.834C9.91524 36.962 9.84338 37.1355 9.84338 37.3164C9.84338 37.4973 9.91524 37.6708 10.0432 37.7987C10.1711 37.9266 10.3446 37.9985 10.5255 37.9985ZM10.5255 20.9703H33.6743C33.8539 20.9682 34.0254 20.8954 34.1516 20.7677C34.2778 20.64 34.3486 20.4677 34.3486 20.2881C34.3486 20.1086 34.2778 19.9363 34.1516 19.8086C34.0254 19.6809 33.8539 19.6081 33.6743 19.606H10.5255C10.346 19.6081 10.1745 19.6809 10.0483 19.8086C9.92206 19.9363 9.85128 20.1086 9.85128 20.2881C9.85128 20.4677 9.92206 20.64 10.0483 20.7677C10.1745 20.8954 10.346 20.9682 10.5255 20.9703ZM10.5255 26.6464H18.1312C18.2215 26.6475 18.3111 26.6306 18.3948 26.5968C18.4785 26.563 18.5546 26.5129 18.6188 26.4495C18.683 26.386 18.734 26.3104 18.7688 26.2272C18.8036 26.1439 18.8215 26.0545 18.8215 25.9642C18.8215 25.874 18.8036 25.7846 18.7688 25.7013C18.734 25.618 18.683 25.5425 18.6188 25.479C18.5546 25.4156 18.4785 25.3655 18.3948 25.3317C18.3111 25.2979 18.2215 25.281 18.1312 25.2821H10.5255C10.346 25.2842 10.1745 25.357 10.0483 25.4847C9.92206 25.6124 9.85128 25.7847 9.85128 25.9642C9.85128 26.1438 9.92206 26.3161 10.0483 26.4438C10.1745 26.5715 10.346 26.6443 10.5255 26.6464ZM22.4704 9.61822H33.6743C33.8539 9.61611 34.0254 9.54332 34.1516 9.41561C34.2778 9.28791 34.3486 9.1156 34.3486 8.93605C34.3486 8.7565 34.2778 8.58418 34.1516 8.45648C34.0254 8.32878 33.8539 8.25598 33.6743 8.25387H22.4704C22.3801 8.25282 22.2905 8.26968 22.2069 8.30349C22.1232 8.3373 22.047 8.38738 21.9828 8.45083C21.9186 8.51428 21.8676 8.58984 21.8329 8.67313C21.7981 8.75642 21.7802 8.84578 21.7802 8.93605C21.7802 9.02631 21.7981 9.11568 21.8329 9.19897C21.8676 9.28226 21.9186 9.35782 21.9828 9.42127C22.047 9.48472 22.1232 9.5348 22.2069 9.56861C22.2905 9.60241 22.3801 9.61928 22.4704 9.61822ZM11.1844 15.2943H33.675C33.8545 15.2922 34.026 15.2194 34.1522 15.0917C34.2784 14.964 34.3492 14.7917 34.3492 14.6121C34.3492 14.4326 34.2784 14.2603 34.1522 14.1326C34.026 14.0049 33.8545 13.9321 33.675 13.93H11.1844C11.0048 13.9321 10.8334 14.0049 10.7072 14.1326C10.5809 14.2603 10.5102 14.4326 10.5102 14.6121C10.5102 14.7917 10.5809 14.964 10.7072 15.0917C10.8334 15.2194 11.0048 15.2922 11.1844 15.2943ZM10.6406 43.6978V45.1134C10.6414 45.2516 10.6967 45.3839 10.7944 45.4816C10.8921 45.5793 11.0244 45.6345 11.1626 45.6353H40.6372C40.7754 45.6345 40.9077 45.5793 41.0055 45.4816C41.1032 45.3839 41.1584 45.2516 41.1593 45.1134V7.18869C41.1584 7.05051 41.1031 6.91824 41.0054 6.82052C40.9077 6.7228 40.7754 6.6675 40.6372 6.66659H38.7233V41.8115C38.7224 42.3115 38.5233 42.7907 38.1698 43.1442C37.8163 43.4977 37.3371 43.6968 36.8371 43.6978H10.6406ZM38.7233 5.30225H40.6372C41.1372 5.30327 41.6164 5.50235 41.97 5.85591C42.3235 6.20947 42.5225 6.6887 42.5235 7.18869V45.1138C42.5225 45.6137 42.3235 46.0929 41.97 46.4465C41.6164 46.8 41.1372 46.999 40.6372 47H11.1629C10.6629 46.9991 10.1837 46.8 9.83017 46.4465C9.47663 46.093 9.2776 45.6137 9.27666 45.1138V43.6981H7.36275C6.86278 43.6972 6.38357 43.4981 6.03004 43.1446C5.67651 42.7911 5.47747 42.3118 5.4765 41.8119V8.46781C5.47643 8.28937 5.54638 8.11803 5.67131 7.99063L10.4088 2.25069C10.4725 2.17306 10.5526 2.11054 10.6434 2.06766C10.7342 2.02478 10.8334 2.0026 10.9338 2.00272L36.8371 2C37.3371 2.00102 37.8163 2.2001 38.1698 2.55366C38.5233 2.90722 38.7224 3.38645 38.7233 3.88644V5.30206V5.30225ZM30.1706 27.1091C29.5539 26.4925 28.7424 26.1088 27.8745 26.0234C27.0066 25.938 26.136 26.1562 25.4109 26.6409C24.6858 27.1255 24.1512 27.8465 23.8982 28.681C23.6451 29.5156 23.6893 30.4121 24.0231 31.2178C24.357 32.0235 24.9598 32.6885 25.729 33.0995C26.4982 33.5105 27.3861 33.642 28.2414 33.4718C29.0967 33.3015 29.8665 32.84 30.4197 32.1658C30.9729 31.4915 31.2751 30.6464 31.275 29.7743C31.2756 29.2792 31.1783 28.7888 30.9888 28.3315C30.7993 27.8741 30.5212 27.4586 30.1706 27.1091ZM27.5054 24.6406C26.3177 24.6406 25.1668 25.0524 24.2488 25.8059C23.3307 26.5593 22.7023 27.6078 22.4706 28.7726C22.2389 29.9374 22.4182 31.1466 22.9781 32.194C23.5379 33.2414 24.4436 34.0623 25.5409 34.5168C26.6381 34.9713 27.859 35.0313 28.9956 34.6865C30.1321 34.3418 31.1139 33.6136 31.7737 32.6261C32.4335 31.6386 32.7306 30.4529 32.6141 29.2709C32.4977 28.089 31.9751 26.984 31.1353 26.1442C30.6592 25.6668 30.0933 25.2882 29.4704 25.0302C28.8475 24.7721 28.1797 24.6397 27.5054 24.6406ZM28.0371 23.3375C27.832 23.2054 27.6246 23.0715 27.5054 23.0715C27.3862 23.0715 27.1788 23.2054 26.9737 23.3375C26.2475 23.8057 25.9491 23.8769 25.0894 23.7699C24.8601 23.7418 24.632 23.713 24.5559 23.7502C24.4784 23.7882 24.3644 23.9829 24.2509 24.1768C23.8113 24.9275 23.5759 25.1154 22.7467 25.3801C22.5371 25.4472 22.3273 25.5142 22.2734 25.5814C22.2195 25.6486 22.1999 25.8677 22.1797 26.0883C22.1001 26.9477 21.965 27.2281 21.3383 27.8216C21.1706 27.9805 21.0017 28.1403 20.9795 28.2354C20.9565 28.3334 21.0352 28.5562 21.1147 28.7815C21.4105 29.6191 21.4105 29.9284 21.1147 30.7661C21.0352 30.9911 20.9565 31.2141 20.9795 31.3122C21.0017 31.407 21.1706 31.5671 21.3384 31.726C21.965 32.3193 22.1001 32.5999 22.1797 33.4592C22.2001 33.6798 22.2205 33.8998 22.2734 33.9661C22.3263 34.0324 22.5371 34.1004 22.7467 34.1674C23.0715 34.2712 23.3758 34.3717 23.6467 34.5893C23.9228 34.8109 24.0865 35.0905 24.2507 35.3708C24.3642 35.5647 24.4781 35.7593 24.5557 35.7973C24.6319 35.8348 24.8599 35.8067 25.0893 35.7777C25.9487 35.6706 26.247 35.7419 26.9737 36.21C27.1787 36.3422 27.3862 36.4761 27.5053 36.4761C27.6245 36.4761 27.8319 36.3422 28.037 36.21C28.7633 35.7419 29.0616 35.6706 29.9213 35.7777C30.1507 35.8063 30.3787 35.8347 30.4549 35.7973C30.531 35.76 30.6464 35.5647 30.7599 35.3708C30.9241 35.0905 31.0881 34.8109 31.364 34.5893C31.635 34.3717 31.9392 34.2713 32.264 34.1674C32.4736 34.1004 32.6834 34.0333 32.7373 33.9661C32.7912 33.8989 32.8108 33.6798 32.8311 33.4592C32.9107 32.5998 33.0457 32.3193 33.6724 31.7259C33.8401 31.5671 34.009 31.4071 34.0312 31.3122C34.0543 31.2141 33.9756 30.9913 33.8961 30.7661C33.6002 29.9284 33.6002 29.619 33.8961 28.7814C33.9756 28.5564 34.0543 28.3333 34.0312 28.2354C34.009 28.1405 33.8401 27.9805 33.6724 27.8216C33.0457 27.2281 32.9108 26.9477 32.8311 26.0883C32.8106 25.8677 32.7902 25.6477 32.7373 25.5814C32.6844 25.5151 32.4736 25.4472 32.2641 25.3801C31.4352 25.1153 31.1994 24.9275 30.7598 24.1768C30.6463 23.9829 30.5323 23.7882 30.4548 23.7502C30.3788 23.7127 30.1507 23.7414 29.9213 23.7699C29.0618 23.8769 28.7635 23.8057 28.0369 23.3375H28.0371ZM25.0515 37.1562C24.694 37.195 24.3352 37.2031 23.9593 37.0184C23.5121 36.7992 23.295 36.4284 23.0787 36.0589L23.0667 36.0385L21.7889 38.2791L22.6875 38.09C22.8508 38.0554 23.0212 38.082 23.1661 38.1649C23.311 38.2478 23.4204 38.381 23.4734 38.5393L23.7671 39.4087L25.0515 37.1562ZM31.9441 36.0385L31.9321 36.0589C31.7158 36.4284 31.4988 36.7991 31.0515 37.0184C30.6757 37.2028 30.3168 37.195 29.9593 37.1562L31.2437 39.4089L31.5373 38.5395C31.5903 38.3812 31.6997 38.248 31.8447 38.1651C31.9896 38.0823 32.1599 38.0556 32.3232 38.0902L33.2219 38.2795L31.9441 36.0388V36.0385ZM27.5054 21.7078C26.9898 21.7078 26.6119 21.9515 26.2384 22.1922C25.7894 22.4816 25.7856 22.4829 25.2549 22.4172C24.8295 22.3643 24.4066 22.3116 23.9593 22.5309C23.512 22.7502 23.295 23.1209 23.0787 23.4903C22.8208 23.9309 22.8227 23.9309 22.3366 24.0861C21.9286 24.2165 21.5202 24.347 21.2131 24.7298C20.906 25.1126 20.8657 25.5396 20.8261 25.9667C20.7779 26.4867 20.7792 26.4783 20.4005 26.8367C20.0853 27.1352 19.7678 27.4359 19.6525 27.9273C19.5392 28.4107 19.6839 28.8208 19.8307 29.2355C20.0157 29.7592 20.0157 29.7903 19.8307 30.3136C19.6842 30.7283 19.5394 31.1386 19.6525 31.6218C19.7677 32.1132 20.0853 32.4139 20.4006 32.7124C20.7789 33.0707 20.7779 33.0625 20.8261 33.5823C20.8657 34.0094 20.9052 34.4354 21.2131 34.8193C21.3986 35.0434 21.64 35.2145 21.9128 35.3154L19.8717 38.8953C19.8005 39.0086 19.7641 39.1403 19.7672 39.2741C19.7703 39.4078 19.8127 39.5377 19.8891 39.6476C19.9655 39.7574 20.0726 39.8424 20.1969 39.8918C20.3212 39.9413 20.4574 39.953 20.5883 39.9256L22.3781 39.5469L22.9594 41.2669C22.9996 41.3928 23.0756 41.5044 23.1781 41.5878C23.2807 41.6713 23.4053 41.7231 23.5368 41.737C23.6682 41.7508 23.8009 41.7261 23.9186 41.6658C24.0362 41.6055 24.1338 41.5123 24.1994 41.3975L26.4329 37.4802C26.7466 37.6741 27.0791 37.841 27.5055 37.841C27.9319 37.841 28.2649 37.6741 28.5781 37.4802L30.8116 41.3975C30.8772 41.5123 30.9748 41.6055 31.0924 41.6658C31.2101 41.7261 31.3428 41.7508 31.4742 41.737C31.6057 41.7231 31.7303 41.6713 31.8329 41.5878C31.9354 41.5044 32.0114 41.3928 32.0516 41.2669L32.6329 39.5469L34.4228 39.9258C34.5538 39.9532 34.69 39.9414 34.8143 39.892C34.9386 39.8426 35.0457 39.7576 35.1221 39.6478C35.1985 39.5379 35.2409 39.408 35.244 39.2743C35.2471 39.1405 35.2107 39.0088 35.1395 38.8955L33.0983 35.3156C33.3711 35.2147 33.6125 35.0436 33.798 34.8195C34.1059 34.4359 34.1454 34.0096 34.185 33.5825C34.2332 33.0627 34.2319 33.071 34.6106 32.7126C34.9258 32.414 35.2433 32.1133 35.3586 31.622C35.472 31.1385 35.3272 30.7285 35.1804 30.3138C34.9955 29.79 34.9955 29.7589 35.1804 29.2351C35.3269 28.8206 35.4717 28.4101 35.3586 27.927C35.2432 27.4356 34.9258 27.1349 34.6106 26.8364C34.2323 26.478 34.2332 26.4865 34.185 25.9664C34.1454 25.5393 34.1059 25.1133 33.798 24.7295C33.4901 24.3457 33.0825 24.2162 32.6745 24.0858C32.1883 23.9306 32.1903 23.9305 31.9324 23.49C31.7161 23.1207 31.499 22.75 31.0518 22.5306C30.6046 22.3112 30.1816 22.364 29.7562 22.417C29.2255 22.4831 29.2218 22.4818 28.7728 22.192C28.3992 21.9512 28.0211 21.7075 27.5057 21.7075L27.5054 21.7078ZM25.4984 30.3762L26.793 31.3942C26.935 31.5057 27.1155 31.5563 27.2948 31.5348C27.4741 31.5134 27.6376 31.4216 27.7493 31.2796L27.7536 31.274L29.6053 29.135C29.7226 28.9985 29.7811 28.8211 29.7678 28.6416C29.7546 28.4621 29.6707 28.2952 29.5346 28.1774C29.3985 28.0596 29.2213 28.0006 29.0417 28.0133C28.8622 28.026 28.695 28.1093 28.5768 28.245L27.1249 29.9221L26.34 29.305C26.2698 29.2485 26.1891 29.2066 26.1025 29.1815C26.016 29.1565 25.9253 29.1488 25.8358 29.1591C25.7463 29.1693 25.6597 29.1972 25.581 29.2411C25.5024 29.285 25.4332 29.3441 25.3775 29.4149C25.3218 29.4858 25.2808 29.5669 25.2567 29.6538C25.2326 29.7406 25.226 29.8313 25.2372 29.9207C25.2484 30.0101 25.2772 30.0964 25.322 30.1746C25.3668 30.2527 25.4266 30.3213 25.498 30.3762H25.4984Z" fill="#A73933"/>
</svg>
