<svg width="48" height="48" viewBox="0 0 48 48" fill="none" xmlns="http://www.w3.org/2000/svg">
<path d="M36.4727 33.4765C35.7963 33.2365 35.0618 33.2801 34.4145 33.6001L28.9891 36.2765C28.64 36.451 28.4945 36.8728 28.6691 37.2219C28.8436 37.571 29.2654 37.7165 29.6145 37.5419L35.04 34.8656C35.3454 34.7128 35.6872 34.6983 36.0072 34.8074C36.3272 34.9237 36.5818 35.1492 36.72 35.4547C36.9818 36.0147 36.7782 36.691 36.2618 37.0256L28.0727 42.2401C26.4363 43.2801 24.4145 43.6147 22.5382 43.1419L15.7018 41.4328C14.3927 41.1056 13.04 41.3092 11.8836 42.0001L11.6 42.1674L8.10179 35.1856L13.2145 32.5092C14.0436 32.0728 15.0036 31.9783 15.9054 32.2328L25.8618 35.0983C26.1745 35.1856 26.4436 35.3965 26.5963 35.6874C26.7563 35.9783 26.7927 36.3056 26.7054 36.6256C26.5163 37.2801 25.8327 37.651 25.1782 37.4692L19.8836 35.9492C19.5127 35.8401 19.12 36.0583 19.0109 36.4292C18.9018 36.8001 19.12 37.1928 19.4909 37.3019L24.7854 38.8219C25.0254 38.8947 25.2727 38.9237 25.5127 38.9237C26.6618 38.9237 27.7163 38.1674 28.0509 37.011C28.2472 36.3347 28.1672 35.6219 27.8254 35.0037C27.4836 34.3856 26.9236 33.9419 26.2472 33.7456L16.2909 30.8874C15.04 30.5237 13.7091 30.6619 12.56 31.2656L7.46907 33.9347L7.3527 33.7019C6.96725 32.931 6.02179 32.611 5.24361 33.0037L2.45816 34.4001C1.68725 34.7856 1.36725 35.731 1.75998 36.5092L6.70543 46.371C6.98179 46.9165 7.53452 47.2365 8.10907 47.2365C8.34907 47.2365 8.58179 47.1856 8.80725 47.0692L11.5927 45.6728C12.3636 45.2874 12.6836 44.3419 12.2909 43.5637L12.2254 43.4328L12.6036 43.2074C13.44 42.7056 14.4145 42.5601 15.3527 42.8001L22.1891 44.5092C22.8654 44.6765 23.5563 44.7637 24.24 44.7637C25.8472 44.7637 27.4472 44.3056 28.8218 43.4328L37.0036 38.211C38.1163 37.4983 38.5382 36.0656 37.9854 34.8656C37.6945 34.2037 37.1563 33.7165 36.4727 33.4765ZM10.9672 44.4147L8.18179 45.811C8.10179 45.8547 8.00725 45.8183 7.96361 45.7383L3.01816 35.8765C2.97452 35.7965 3.01088 35.7019 3.09088 35.6583L5.87634 34.2619C5.89816 34.2474 5.92725 34.2474 5.94907 34.2474C6.00725 34.2474 6.06543 34.2837 6.09452 34.3347L11.04 44.1965C11.0836 44.2765 11.0472 44.371 10.9672 44.4147Z" fill="#A73933"/>
<path d="M46.2327 11.4983L41.2872 1.63644C40.9018 0.865532 39.9563 0.545532 39.1781 0.938259L36.4 2.32735C35.629 2.7128 35.309 3.65826 35.7018 4.43644L35.7672 4.56735L35.389 4.7928C34.56 5.29462 33.5781 5.44008 32.64 5.20008L25.8036 3.49099C23.549 2.92371 21.1272 3.32371 19.1636 4.56735L10.9818 9.78917C9.86905 10.5019 9.44723 11.9346 9.99996 13.1346C10.3054 13.7892 10.8436 14.2837 11.52 14.5237C11.8109 14.6255 12.109 14.6764 12.4072 14.6764C12.8072 14.6764 13.2072 14.5819 13.5781 14.4001L19.0036 11.7237C19.3527 11.5492 19.4981 11.1273 19.3236 10.7783C19.149 10.4292 18.7272 10.2837 18.3781 10.4583L12.9527 13.1346C12.6472 13.2801 12.3054 13.3019 11.9854 13.1928C11.6654 13.0764 11.4109 12.851 11.2727 12.5455C11.0109 11.9855 11.2072 11.3092 11.7309 10.9746L19.9272 5.76008C21.5636 4.7128 23.5854 4.38553 25.4618 4.85826L32.2981 6.56735C33.6072 6.89462 34.96 6.69099 36.1163 6.00008L36.4 5.8328L39.8981 12.8146L34.7854 15.491C33.9563 15.9274 32.9963 16.0219 32.0945 15.7674L22.1381 12.9019C21.4836 12.7128 21.1054 12.0292 21.2945 11.3746C21.4836 10.7201 22.16 10.3419 22.8218 10.531L28.1163 12.051C28.4872 12.1601 28.88 11.9419 28.989 11.571C29.0981 11.2001 28.88 10.8074 28.509 10.6983L23.2145 9.17826C21.8109 8.77099 20.349 9.58553 19.949 10.9819C19.549 12.3783 20.3563 13.8474 21.7527 14.2474L31.709 17.1128C32.1672 17.2437 32.64 17.3092 33.1054 17.3092C33.9127 17.3092 34.7127 17.1128 35.44 16.7346L40.5309 14.0655L40.6472 14.2983C40.9236 14.8437 41.4763 15.1637 42.0509 15.1637C42.2909 15.1637 42.5236 15.1128 42.749 14.9964L45.5345 13.6001C45.9127 13.411 46.189 13.091 46.32 12.691C46.4509 12.2983 46.4218 11.8764 46.2327 11.4983ZM44.9818 12.2546C44.9745 12.2837 44.9527 12.3273 44.9018 12.3492L42.1163 13.7455C42.0654 13.7746 42.0218 13.7674 41.9927 13.7528C41.9636 13.7455 41.9272 13.7237 41.8981 13.6728L36.9527 3.81099C36.9163 3.73099 36.9454 3.63644 37.0254 3.5928L39.8109 2.19644C39.8909 2.1528 39.9854 2.18917 40.029 2.26917L44.9745 12.131C44.9963 12.1819 44.989 12.2255 44.9818 12.2546Z" fill="#A73933"/>
<path d="M33.5563 24.2403C33.5563 19.913 30.0363 16.3857 25.7018 16.3857C21.3672 16.3857 17.8472 19.9057 17.8472 24.2403C17.8472 28.5748 21.3672 32.0948 25.7018 32.0948C30.0363 32.0948 33.5563 28.5748 33.5563 24.2403ZM19.2581 24.2403C19.2581 20.6839 22.1527 17.7967 25.7018 17.7967C29.2581 17.7967 32.1454 20.6912 32.1454 24.2403C32.1454 27.7894 29.2509 30.6839 25.7018 30.6839C22.1454 30.6839 19.2581 27.7967 19.2581 24.2403Z" fill="#A73933"/>
<path d="M26.4072 28.2547V27.8547C27.4472 27.5783 28.2109 26.7274 28.2109 25.7092C28.2109 24.4656 27.0836 23.4619 25.7018 23.4619C25.1054 23.4619 24.6036 23.0765 24.6036 22.6183C24.6036 22.1601 25.1054 21.7747 25.7018 21.7747C26.2981 21.7747 26.8 22.1601 26.8 22.6183C26.8 23.0038 27.1127 23.3238 27.5054 23.3238C27.8981 23.3238 28.2109 23.011 28.2109 22.6183C28.2109 21.6001 27.4472 20.7419 26.4072 20.4728V20.2401C26.4072 19.8547 26.0945 19.5347 25.7018 19.5347C25.3091 19.5347 24.9963 19.8474 24.9963 20.2401V20.4728C23.9563 20.7492 23.1927 21.6001 23.1927 22.6183C23.1927 23.8619 24.32 24.8656 25.7018 24.8656C26.2981 24.8656 26.8 25.251 26.8 25.7092C26.8 26.1674 26.2981 26.5528 25.7018 26.5528C25.3527 26.5528 25.0254 26.4219 24.8145 26.2038C24.72 26.1019 24.6036 25.9347 24.6036 25.7092C24.6036 25.3238 24.2909 25.0038 23.8981 25.0038C23.5054 25.0038 23.1927 25.3165 23.1927 25.7092C23.1927 26.2474 23.4036 26.7638 23.7963 27.171C24.1163 27.5056 24.5381 27.731 24.9963 27.8547V28.2619C24.9963 28.6474 25.3091 28.9674 25.7018 28.9674C26.0872 28.9601 26.4072 28.6474 26.4072 28.2547Z" fill="#A73933"/>
</svg>
