<svg width="48" height="48" viewBox="0 0 48 48" fill="none" xmlns="http://www.w3.org/2000/svg">
<g clip-path="url(#clip0_366_769)">
<path d="M5.12747 21.9344C3.33882 21.0416 2.08782 19.5281 1.60435 17.6721C1.50647 17.2964 1.12303 17.0709 0.746722 17.1689C0.370878 17.2668 0.145691 17.6508 0.243566 18.0266C0.831753 20.2845 2.34628 22.1207 4.50807 23.197C4.5135 23.1997 4.51894 23.2023 4.52438 23.2048C4.81257 23.3392 5.1061 23.5715 5.37338 23.8767C5.94713 24.5323 6.26307 25.3981 6.26307 26.3146V45.1564C6.26307 45.5447 6.57779 45.8595 6.96619 45.8595C7.3546 45.8595 7.66932 45.5447 7.66932 45.1564V26.3145C7.66932 25.0572 7.22982 23.8626 6.43153 22.9505C6.039 22.5022 5.58825 22.151 5.12747 21.9344Z" fill="#A73933"/>
<path d="M44.9378 8.37903C44.237 8.37903 43.5907 8.61519 43.0736 9.01109C42.6318 7.86172 41.5146 7.04319 40.2087 7.04319C39.4523 7.04319 38.7593 7.31834 38.2238 7.77275C37.7199 6.76916 36.6795 6.07813 35.4798 6.07813C34.107 6.07813 32.942 6.98234 32.5517 8.225C32.0411 7.85413 31.4122 7.63456 30.7321 7.63456C29.0303 7.63456 27.6458 9.00725 27.6458 10.6946V12.2706L27.159 12.3894C25.7862 12.6905 24.8033 13.8675 24.7526 15.2643C24.7445 15.3905 24.7557 17.8933 24.7528 17.9788C24.5245 17.9247 24.2869 17.895 24.0422 17.895C23.7683 17.895 23.5027 17.9316 23.2499 17.9991C23.2499 15.4594 23.2499 9.97925 23.2499 7.50153C23.2499 5.81422 21.8762 4.44153 20.1877 4.44153C19.4869 4.44153 18.8407 4.67769 18.3235 5.07359C17.8817 3.92422 16.7645 3.10569 15.4586 3.10569C14.7022 3.10569 14.0092 3.38084 13.4738 3.83525C12.9698 2.83166 11.9294 2.14062 10.7297 2.14062C9.35691 2.14062 8.19188 3.04484 7.80159 4.2875C7.29103 3.91662 6.66206 3.69706 5.982 3.69706C4.28025 3.69706 2.89575 5.06975 2.89575 6.75706V8.33309L2.40891 8.45188C1.03612 8.753 0.0531563 9.93013 0.00253125 11.3269C0.0009375 11.3474 0 11.3682 0 11.3891L0.0028125 14.6437C0.0031875 15.0318 0.317813 15.3463 0.705938 15.3463H0.706594C1.09491 15.346 1.40944 15.0309 1.40906 14.6426L1.40625 11.4285C1.40681 11.4202 1.40709 11.4118 1.40728 11.4032C1.42369 10.6364 1.96181 9.98722 2.71575 9.82428C2.72175 9.82297 2.72784 9.82156 2.73384 9.82006L7.77741 8.58959C8.67009 8.40134 9.55191 8.96863 9.74512 9.85756C9.83869 10.2879 9.75881 10.729 9.52022 11.0997C9.28013 11.4726 8.90859 11.7297 8.47378 11.8235C8.46403 11.8256 8.45438 11.8279 8.44472 11.8304L5.70497 12.5452C5.34244 12.6398 5.11762 13.0022 5.19422 13.3691L5.79056 16.2299C5.85853 16.5561 6.14597 16.7895 6.47878 16.7895C6.4965 16.7896 6.51122 16.7893 6.52716 16.7894C7.75603 16.7894 8.80894 17.0877 9.65709 17.6759C11.1278 18.6961 11.5833 20.0677 11.6878 20.4638C11.7712 20.7791 12.0558 20.9876 12.3672 20.9876C12.4267 20.9876 12.487 20.98 12.5472 20.9641C12.9227 20.8649 13.1467 20.4802 13.0475 20.1048C12.8737 19.4465 12.2735 17.7794 10.4586 16.5205C9.49791 15.8541 8.35491 15.4779 7.05394 15.3989L6.70753 13.737L8.24306 13.3364C8.81597 14.1268 9.74109 14.6074 10.7299 14.6074C11.5983 14.6074 12.383 14.245 12.9416 13.6645C13.4964 14.458 14.4176 14.9786 15.4588 14.9786C16.4449 14.9786 17.3231 14.5116 17.8847 13.7881C18.4473 14.4262 19.2709 14.8301 20.1877 14.8301C20.7976 14.8301 21.3659 14.6503 21.8438 14.342V18.8241C21.5128 19.1638 21.2596 19.5791 21.1142 20.0419C20.6036 19.671 19.9747 19.4515 19.2946 19.4515C17.5928 19.4515 16.2083 20.8242 16.2083 22.5115V24.0875L15.7216 24.2063C14.3758 24.4885 13.3351 25.7355 13.3125 27.1435C13.3162 27.3784 13.3098 31.877 13.3205 32.1235C13.3328 32.5116 13.6572 32.8174 14.0454 32.804C14.4336 32.7917 14.7382 32.4672 14.726 32.079C14.7161 31.6768 14.7225 27.5245 14.7188 27.183C14.7109 26.4725 15.2892 25.7638 16.0463 25.5747L21.09 24.3442C21.9827 24.1562 22.8644 24.7233 23.0576 25.6122C23.1512 26.0425 23.0713 26.4836 22.8327 26.8543C22.6529 27.1374 22.2536 27.4706 21.7572 27.585L19.0175 28.2998C18.6527 28.3949 18.428 28.7608 18.5078 29.1292L19.1042 31.8785C19.1713 32.1879 19.4369 32.4143 19.753 32.4315C22.4261 32.5771 24.1957 33.9027 25.0126 36.3713C25.1103 36.6666 25.3851 36.8537 25.68 36.8537C25.7531 36.8537 25.8277 36.8422 25.901 36.8179C26.2697 36.6959 26.4696 36.2982 26.3476 35.9294C25.4013 33.0699 23.3396 31.3992 20.3681 31.0715L20.0251 29.4903L21.5495 29.0926C22.1003 29.921 23.1591 30.362 24.0422 30.362C24.9106 30.362 25.6953 29.9996 26.2539 29.4191C26.8088 30.2126 27.7298 30.7332 28.7711 30.7332C29.7572 30.7332 30.6354 30.2662 31.197 29.5428C31.7596 30.1809 32.5832 30.5848 33.5001 30.5848C34.1099 30.5848 34.6782 30.4049 35.1561 30.0967V32.8683C35.1296 33.6118 35.0522 34.3614 34.926 35.0968C34.8603 35.4795 35.1173 35.843 35.5 35.9087C35.5403 35.9157 35.5803 35.9189 35.6198 35.9189C35.9558 35.9189 36.2531 35.6771 36.3119 35.3347C36.4264 34.6782 36.538 33.69 36.5623 32.8808V27.5249V23.2563C36.5623 21.569 35.1886 20.1963 33.5001 20.1963C32.7993 20.1963 32.1531 20.4325 31.6359 20.8284C31.5571 20.6234 31.457 20.4291 31.3379 20.2479L31.3359 17.7066L32.9928 17.2744C33.5657 18.0648 34.4908 18.5454 35.4796 18.5454C36.348 18.5454 37.1327 18.1829 37.6913 17.6024C38.2462 18.3959 39.1672 18.9165 40.2085 18.9165C41.1946 18.9165 42.0728 18.4496 42.6344 17.7261C43.197 18.3642 44.0206 18.768 44.9375 18.768C45.5473 18.768 46.1156 18.5882 46.5935 18.28V21.064C46.5935 23.0317 46.1287 25.054 45.1725 27.2465C45.1688 27.2553 45.1651 27.2641 45.1616 27.273C44.7618 28.3026 44.5591 29.4042 44.5591 30.5473V45.157C44.5591 45.5453 44.8738 45.8601 45.2622 45.8601C45.6506 45.8601 45.9653 45.5453 45.9653 45.157V30.5468C45.9653 29.5834 46.1343 28.6575 46.4674 27.7947C47.4987 25.4263 48 23.2244 48 21.0634C48 18.6805 48 13.7772 48 11.4389C48 9.75172 46.6263 8.37903 44.9378 8.37903ZM29.0522 10.6946C29.0522 9.78266 29.8058 9.04081 30.7322 9.04081C31.6585 9.04081 32.4122 9.78266 32.4122 10.6946V11.1202C32.3481 11.1308 32.4142 11.1182 32.204 11.1586L29.0522 11.9276V10.6946ZM7.45397 7.22103L4.30219 7.98997V6.75706C4.30219 5.84516 5.05584 5.10331 5.98219 5.10331C6.90853 5.10331 7.66219 5.84516 7.66219 6.75706V7.18259C7.59891 7.19216 7.53553 7.20312 7.47216 7.21681C7.46606 7.21812 7.45997 7.21953 7.45397 7.22103ZM10.7298 13.2012C10.3472 13.2012 9.98231 13.0683 9.69159 12.8369C10.0954 12.5975 10.4413 12.2668 10.7026 11.8609C11.1448 11.1741 11.2928 10.3566 11.1193 9.55878C10.88 8.45844 10.0711 7.62528 9.06834 7.29856V5.20063C9.06834 4.28872 9.81366 3.54688 10.7298 3.54688C11.6459 3.54688 12.3911 4.28872 12.3911 5.20063V11.5474C12.3911 12.4592 11.6459 13.2012 10.7298 13.2012ZM17.1201 11.9186C17.1201 12.8305 16.3748 13.5723 15.4587 13.5723C14.5426 13.5723 13.7973 12.8305 13.7973 11.9186C13.7973 11.8772 13.793 11.837 13.7861 11.7976C13.7929 11.715 13.7973 11.6317 13.7973 11.5474V6.16569C13.7973 5.25378 14.5426 4.51194 15.4587 4.51194C16.3748 4.51194 17.1201 5.25378 17.1201 6.16569V11.9186ZM20.1877 13.4238C19.2717 13.4238 18.5263 12.682 18.5263 11.7702V7.50144C18.5263 6.58953 19.2716 5.84769 20.1877 5.84769C21.1009 5.84769 21.8438 6.58953 21.8438 7.50144V11.7701C21.8438 12.6819 21.1009 13.4238 20.1877 13.4238ZM20.7665 22.9753L17.6147 23.7443V22.5114C17.6147 21.5995 18.3683 20.8576 19.2947 20.8576C20.221 20.8576 20.9747 21.5995 20.9747 22.5114V22.937C20.9077 22.9433 20.8201 22.9607 20.7665 22.9753ZM24.0423 28.9554C23.6681 28.9554 23.2794 28.8099 22.9982 28.5947C23.4045 28.355 23.7526 28.0229 24.0152 27.6151C24.4573 26.9283 24.6052 26.1108 24.4318 25.3131C24.1925 24.2128 23.3836 23.3796 22.3808 23.0529V20.9549C22.3808 20.0431 23.1262 19.3013 24.0423 19.3013C24.9584 19.3013 25.7036 20.0431 25.7036 20.9549V27.3017C25.7036 28.2135 24.9584 28.9554 24.0423 28.9554ZM30.4326 27.6729C30.4326 28.5848 29.6873 29.3266 28.7712 29.3266C27.8551 29.3266 27.1098 28.5848 27.1098 27.6729C27.0991 27.244 27.1171 22.3329 27.1098 21.92C27.1098 21.0081 27.8551 20.2663 28.7712 20.2663C29.6094 20.2663 30.4326 20.8576 30.4326 21.92V27.6729ZM33.5003 21.6021C34.4134 21.6021 35.1562 22.3439 35.1562 23.2558V27.5245C35.1562 28.4364 34.4134 29.1782 33.5003 29.1782C32.5842 29.1782 31.8388 28.4364 31.8388 27.5245V23.2558C31.8388 22.3439 32.5841 21.6021 33.5003 21.6021ZM30.4551 16.4827C30.1452 16.5635 29.9292 16.8434 29.9295 17.1636L29.931 19.0877C29.573 18.9413 29.1816 18.8599 28.7713 18.8599C28.0148 18.8599 27.3218 19.1351 26.7864 19.5896C26.6272 19.2725 26.4145 18.9869 26.16 18.7443C26.161 18.7133 26.1544 15.3922 26.1573 15.3407C26.1737 14.5739 26.7117 13.9247 27.4657 13.7618C27.4744 13.7603 32.5028 12.5329 32.5274 12.5271C33.4203 12.3388 34.3019 12.9061 34.4951 13.7951C34.5887 14.2254 34.5088 14.6665 34.2702 15.0372C34.0301 15.4101 33.6438 15.6328 33.2238 15.761C33.2008 15.768 30.4961 16.4727 30.4551 16.4827ZM35.4798 17.1387C35.0971 17.1387 34.7323 17.0058 34.4416 16.7744C34.8454 16.535 35.1913 16.2043 35.4526 15.7984C35.8948 15.1116 36.0427 14.2941 35.8693 13.4963C35.63 12.3959 34.8211 11.5629 33.8183 11.2362V9.13813C33.8183 8.22622 34.5637 7.48438 35.4798 7.48438C36.3959 7.48438 37.1411 8.22622 37.1411 9.13813V15.4849C37.1411 16.3967 36.3959 17.1387 35.4798 17.1387ZM41.8701 15.8561C41.8701 16.768 41.1248 17.5098 40.2087 17.5098C39.2926 17.5098 38.5473 16.768 38.5473 15.8561C38.5473 15.8147 38.5473 10.1032 38.5473 10.1032C38.5473 9.19128 39.2926 8.44944 40.2087 8.44944C41.1248 8.44944 41.8701 9.19128 41.8701 10.1032V15.8561ZM44.9378 17.3613C44.0217 17.3613 43.2763 16.6195 43.2763 15.7077V11.439C43.2763 10.5271 44.0216 9.78528 44.9378 9.78528C45.8509 9.78528 46.5938 10.5271 46.5938 11.439V15.7077C46.5938 16.6194 45.8509 17.3613 44.9378 17.3613Z" fill="#A73933"/>
<path d="M18.4311 37.6844C17.1724 37.0976 16.1576 36.1434 15.4965 34.9251C15.3113 34.5838 14.8844 34.4571 14.5432 34.6424C14.2018 34.8276 14.0753 35.2544 14.2605 35.5957C15.0663 37.0809 16.3029 38.2439 17.8368 38.9589C18.125 39.0934 18.4186 39.3257 18.6858 39.6308C19.2595 40.2864 19.5755 41.1522 19.5755 42.0687V45.1562C19.5755 45.5445 19.8902 45.8593 20.2786 45.8593C20.667 45.8593 20.9817 45.5445 20.9817 45.1562V42.0687C20.9817 40.8114 20.5422 39.6167 19.7439 38.7046C19.3491 38.2535 18.8951 37.9008 18.4311 37.6844Z" fill="#A73933"/>
<path d="M35.0082 37.7295C34.6443 37.5939 34.2395 37.7789 34.1038 38.1429C33.989 38.449 33.9452 38.5469 33.7244 39.0895C33.3246 40.1189 33.1219 41.2208 33.1219 42.3644V45.1566C33.1219 45.5449 33.4366 45.8597 33.825 45.8597C34.2134 45.8597 34.5281 45.5449 34.5281 45.1566V42.3644C34.5281 41.3956 34.6987 40.4651 35.0352 39.5985C35.143 39.3306 35.2468 39.0966 35.4216 38.6339C35.5571 38.27 35.3721 37.8651 35.0082 37.7295Z" fill="#A73933"/>
</g>
<defs>
<clipPath id="clip0_366_769">
<rect width="48" height="48" fill="white"/>
</clipPath>
</defs>
</svg>
