<svg width="48" height="48" viewBox="0 0 48 48" fill="none" xmlns="http://www.w3.org/2000/svg">
<path d="M32.9818 4.13818H15.7018C15.3527 4.13818 15.0618 4.42182 15.0618 4.77818V9.57818C15.0618 9.92727 15.3454 10.2182 15.7018 10.2182H32.9818C33.3309 10.2182 33.6218 9.93455 33.6218 9.57818V4.77818C33.6218 4.42182 33.3381 4.13818 32.9818 4.13818ZM32.349 8.93818H16.3418V5.41091H32.349V8.93818Z" fill="#A73933"/>
<path d="M7.83997 34.9526C8.08724 35.1999 8.40724 35.3308 8.75633 35.3308C9.10543 35.3308 9.42543 35.1926 9.6727 34.9526L11.3454 33.2799C11.5927 33.0326 11.7236 32.7126 11.7236 32.3636C11.7236 32.0145 11.5854 31.6945 11.3454 31.4472L11.1927 31.2945L13.2218 29.2654L15.1418 31.1926C15.2654 31.3163 15.4327 31.3817 15.5927 31.3817C15.7527 31.3817 15.92 31.3163 16.0436 31.1926L16.6254 30.6108L26.9745 42.6908C27.5782 43.3963 28.4582 43.8254 29.3891 43.8617H29.52C30.4 43.8617 31.2582 43.5054 31.8836 42.8799C32.5382 42.2254 32.8945 41.3163 32.8582 40.3854C32.8218 39.4545 32.4 38.5817 31.6872 37.9708L19.6 27.629L20.1818 27.0472C20.2982 26.9308 20.3709 26.7636 20.3709 26.5963C20.3709 26.429 20.3054 26.269 20.1818 26.1454L18.2545 24.2181L20.2836 22.189L20.4363 22.3417C20.6836 22.589 21.0036 22.7199 21.3527 22.7199C21.7018 22.7199 22.0218 22.5817 22.2691 22.3417L23.9418 20.669C24.1891 20.4217 24.32 20.1017 24.32 19.7526C24.32 19.4036 24.1818 19.0835 23.9418 18.8363L17.2 12.0945C16.7127 11.6072 15.8618 11.6072 15.3672 12.0945L13.6945 13.7672C13.4472 14.0145 13.3163 14.3345 13.3163 14.6836C13.3163 15.0326 13.4545 15.3526 13.6945 15.5999L13.8472 15.7526L4.75633 24.8581L4.60361 24.7054C4.11633 24.2181 3.26543 24.2181 2.77088 24.7054L1.09815 26.3781C0.85088 26.6254 0.719971 26.9454 0.719971 27.2945C0.719971 27.6436 0.858153 27.9636 1.09815 28.2108L7.83997 34.9526ZM30.8654 38.9454C31.3091 39.3236 31.5636 39.8545 31.5854 40.4363C31.6072 41.0181 31.3963 41.5708 30.9818 41.9854C30.5672 42.3999 30.0145 42.6108 29.44 42.589C28.8582 42.5672 28.3272 42.3126 27.9491 41.869L17.5345 29.7017L17.6654 29.5708L18.7054 28.5308L30.8654 38.9454ZM18.8363 26.5963L18.2182 27.2145L16.6036 28.8363L15.6 29.8399L14.1236 28.3636L17.36 25.1272L18.8363 26.5963ZM16.2763 12.9963H16.3054L23.0472 19.7672L21.3454 21.4399L14.6036 14.669L16.2763 12.9963ZM14.7563 16.6617L19.3891 21.2945L10.2909 30.3926L5.65815 25.7599L14.7563 16.6617ZM3.6727 25.6072H3.70179L10.4436 32.3781L8.74179 34.0508L1.99997 27.2799L3.6727 25.6072Z" fill="#A73933"/>
<path d="M18.4727 40.2108H17.4036V37.6945C17.4036 36.7199 16.6109 35.9199 15.6291 35.9199H4.39269C3.41815 35.9199 2.61815 36.7127 2.61815 37.6945V40.2108H1.54906C1.19997 40.2108 0.909058 40.4945 0.909058 40.8508V43.8036C0.909058 44.1526 1.19269 44.4436 1.54906 44.4436H18.4727C18.8218 44.4436 19.1127 44.1599 19.1127 43.8036V40.8508C19.1127 40.4945 18.8291 40.2108 18.4727 40.2108ZM3.89088 37.6945C3.89088 37.4181 4.11633 37.1926 4.39269 37.1926H15.6363C15.9127 37.1926 16.1381 37.4181 16.1381 37.6945V40.2108H3.89088V37.6945ZM17.84 43.1636H2.18906V41.4836H17.84V43.1636Z" fill="#A73933"/>
<path d="M42.96 14.2324H25.9709C25.6218 14.2324 25.3309 14.5161 25.3309 14.8724C25.3309 15.2288 25.6145 15.5124 25.9709 15.5124H42.9527C43.3018 15.5124 43.5927 15.2288 43.5927 14.8724C43.5927 14.5161 43.3091 14.2324 42.96 14.2324Z" fill="#A73933"/>
<path d="M42.96 17.1782H25.9709C25.6218 17.1782 25.3309 17.4619 25.3309 17.8182C25.3309 18.1746 25.6145 18.4582 25.9709 18.4582H42.9527C43.3018 18.4582 43.5927 18.1746 43.5927 17.8182C43.5927 17.4619 43.3091 17.1782 42.96 17.1782Z" fill="#A73933"/>
<path d="M25.9709 21.3962H33.7236C34.0727 21.3962 34.3636 21.1126 34.3636 20.7562C34.3636 20.3998 34.08 20.1162 33.7236 20.1162H25.9709C25.6218 20.1162 25.3309 20.3998 25.3309 20.7562C25.3309 21.1126 25.6218 21.3962 25.9709 21.3962Z" fill="#A73933"/>
<path d="M25.9709 24.3415H33.7236C34.0727 24.3415 34.3636 24.0579 34.3636 23.7015C34.3636 23.3452 34.08 23.0615 33.7236 23.0615H25.9709C25.6218 23.0615 25.3309 23.3452 25.3309 23.7015C25.3309 24.0579 25.6218 24.3415 25.9709 24.3415Z" fill="#A73933"/>
<path d="M37.5127 38.5964C40.8654 38.5964 43.6 35.8691 43.6 32.5091C43.6 29.1491 40.8727 26.4219 37.5127 26.4219C34.1527 26.4219 31.4254 29.1491 31.4254 32.5091C31.4254 35.8691 34.1527 38.5964 37.5127 38.5964ZM37.5127 27.7019C40.1672 27.7019 42.3272 29.8619 42.3272 32.5164C42.3272 35.171 40.1672 37.331 37.5127 37.331C34.8581 37.331 32.6981 35.171 32.6981 32.5164C32.6981 29.8619 34.8581 27.7019 37.5127 27.7019Z" fill="#A73933"/>
<path d="M47.2291 10.829C47.2 10.7635 47.1563 10.7054 47.1127 10.6545C47.1054 10.6472 47.0982 10.6326 47.0909 10.6254L37.8836 1.41082C37.8254 1.35264 37.7527 1.30173 37.68 1.27264C37.6218 1.24355 37.5491 1.23628 37.4836 1.23628C37.4691 1.23628 37.4545 1.229 37.4327 1.229H15.9127C13.8472 1.229 12.16 2.909 12.16 4.98173V11.469C12.16 11.8181 12.4436 12.109 12.8 12.109C13.1563 12.109 13.44 11.8254 13.44 11.469V4.97446C13.44 3.60719 14.5527 2.49446 15.92 2.49446H36.8V7.949C36.8 10.0217 38.48 11.7017 40.5527 11.7017H46.0072V43.0181C46.0072 44.3854 44.8945 45.4981 43.5272 45.4981H21.3818C21.0327 45.4981 20.7418 45.7817 20.7418 46.1381C20.7418 46.4945 21.0254 46.7781 21.3818 46.7781H43.5272C45.6 46.7781 47.28 45.0981 47.28 43.0254V11.069C47.28 10.989 47.2582 10.9017 47.2291 10.829ZM38.0727 7.95628V3.39628L45.1127 10.429H40.5527C39.1854 10.4363 38.0727 9.32355 38.0727 7.95628Z" fill="#A73933"/>
</svg>
