<svg width="48" height="48" viewBox="0 0 48 48" fill="none" xmlns="http://www.w3.org/2000/svg">
<path d="M19.8268 18.9629C15.2957 18.9629 11.6094 22.6492 11.6094 27.1802C11.6094 31.7113 15.2957 35.3976 19.8268 35.3976C24.3578 35.3976 28.0441 31.7113 28.0441 27.1802C28.0441 22.6493 24.3578 18.9629 19.8268 18.9629ZM19.8268 33.9914C16.0711 33.9914 13.0157 30.936 13.0157 27.1803C13.0157 23.4247 16.0711 20.3693 19.8268 20.3693C23.5824 20.3693 26.6378 23.4247 26.6378 27.1803C26.6378 30.9359 23.5824 33.9914 19.8268 33.9914ZM19.1237 22.9406V21.6172C19.1237 21.2288 19.4385 20.914 19.8268 20.914C20.2151 20.914 20.5299 21.2288 20.5299 21.6172V22.9406C20.5299 23.3289 20.2151 23.6437 19.8268 23.6437C19.4385 23.6437 19.1237 23.3289 19.1237 22.9406ZM22.3275 24.6796C22.0529 24.405 22.0529 23.9598 22.3275 23.6853L23.2633 22.7495C23.5379 22.4749 23.9831 22.4749 24.2576 22.7495C24.5321 23.0241 24.5322 23.4693 24.2576 23.7438L23.3218 24.6796C23.1846 24.8168 23.0046 24.8856 22.8247 24.8856C22.6447 24.8856 22.4647 24.8168 22.3275 24.6796ZM24.0665 26.4772H25.3899C25.7782 26.4772 26.0931 26.792 26.0931 27.1803C26.0931 27.5686 25.7782 27.8834 25.3899 27.8834H24.0665C23.6782 27.8834 23.3633 27.5686 23.3633 27.1803C23.3633 26.792 23.6782 26.4772 24.0665 26.4772ZM24.2576 30.6169C24.5322 30.8915 24.5322 31.3367 24.2576 31.6112C24.1204 31.7484 23.9404 31.8172 23.7605 31.8172C23.5806 31.8172 23.4006 31.7485 23.2633 31.6112L22.3275 30.6754C22.0529 30.4008 22.0529 29.9556 22.3275 29.6811C22.6021 29.4065 23.0473 29.4066 23.3218 29.6811L24.2576 30.6169ZM20.5299 31.4199V32.7434C20.5299 33.1317 20.2151 33.4465 19.8268 33.4465C19.4385 33.4465 19.1237 33.1317 19.1237 32.7434V31.4199C19.1237 31.0316 19.4385 30.7168 19.8268 30.7168C20.2151 30.7168 20.5299 31.0316 20.5299 31.4199ZM17.326 29.681C17.6006 29.9556 17.6006 30.4007 17.326 30.6753L16.3902 31.6111C16.253 31.7483 16.073 31.8171 15.8931 31.8171C15.7132 31.8171 15.5332 31.7484 15.3959 31.6111C15.1213 31.3365 15.1213 30.8914 15.3959 30.6168L16.3317 29.681C16.6062 29.4064 17.0513 29.4064 17.326 29.681ZM15.5871 27.8834H14.2636C13.8753 27.8834 13.5605 27.5686 13.5605 27.1803C13.5605 26.792 13.8753 26.4772 14.2636 26.4772H15.5871C15.9754 26.4772 16.2902 26.792 16.2902 27.1803C16.2902 27.5686 15.9754 27.8834 15.5871 27.8834ZM15.3958 23.7438C15.1212 23.4692 15.1212 23.024 15.3958 22.7495C15.6704 22.475 16.1156 22.4749 16.3901 22.7495L17.3259 23.6853C17.6005 23.9599 17.6005 24.4051 17.3259 24.6796C17.1887 24.8168 17.0087 24.8856 16.8288 24.8856C16.6489 24.8856 16.4689 24.8169 16.3316 24.6796L15.3958 23.7438ZM19.8268 24.1885C18.1771 24.1885 16.835 25.5307 16.835 27.1803C16.835 28.83 18.1771 30.1721 19.8268 30.1721C21.4764 30.1721 22.8186 28.83 22.8186 27.1803C22.8185 25.5307 21.4764 24.1885 19.8268 24.1885ZM19.8268 28.7658C18.9525 28.7658 18.2412 28.0545 18.2412 27.1802C18.2412 26.306 18.9525 25.5947 19.8268 25.5947C20.701 25.5947 21.4123 26.306 21.4123 27.1802C21.4122 28.0546 20.701 28.7658 19.8268 28.7658ZM45.6668 5.99288C45.6843 5.67272 45.4828 5.38134 45.1772 5.2845C42.2407 4.35403 38.18 2.54775 35.5898 0.268969C35.3242 0.0353438 34.9266 0.0353438 34.661 0.268969C32.0708 2.54775 28.0102 4.35394 25.0736 5.2845C24.768 5.38134 24.5665 5.67272 24.584 5.99288C24.6519 7.24547 24.8577 8.48006 25.189 9.68569H5.55394C3.77737 9.68569 2.33212 11.131 2.33212 12.9075V41.4532C2.33212 43.1861 3.70762 44.6032 5.42419 44.6717L6.16865 47.3889C6.25237 47.6945 6.52997 47.9062 6.84675 47.9062H12.0694C12.3862 47.9062 12.6637 47.6945 12.7475 47.3889L13.4911 44.675H26.1623L26.9059 47.3889C26.9896 47.6945 27.2672 47.9062 27.584 47.9062H32.8066C33.1234 47.9062 33.401 47.6945 33.4847 47.3889L34.2292 44.6717C35.9458 44.6032 37.3213 43.1861 37.3213 41.4532V20.6643C42.3518 16.8382 45.363 11.5905 45.6668 5.99288ZM11.5329 46.5H7.38319L6.88312 44.675H12.033L11.5329 46.5ZM28.1205 46.5L27.6204 44.675H32.7703L32.2703 46.5H28.1205ZM35.9152 41.4532C35.9152 42.4542 35.1007 43.2687 34.0996 43.2687H5.55394C4.55278 43.2687 3.73837 42.4542 3.73837 41.4532V12.9075C3.73837 11.9063 4.55287 11.0919 5.55394 11.0919H25.6361C25.9844 12.0471 26.4148 12.9796 26.9224 13.8835H7.23309C6.84478 13.8835 6.52997 14.1983 6.52997 14.5867V17.5524C5.62922 17.8487 4.97681 18.6973 4.97681 19.696V21.8789C4.97681 22.8775 5.62922 23.7262 6.52997 24.0225V30.3385C5.62922 30.6348 4.97681 31.4834 4.97681 32.4821V34.665C4.97681 35.6636 5.62922 36.5123 6.52997 36.8086V39.7743C6.52997 40.1626 6.84478 40.4774 7.23309 40.4774H32.4204C32.8087 40.4774 33.1236 40.1626 33.1236 39.7743V20.8124C33.6445 21.2008 34.1861 21.5744 34.7486 21.9315C34.8637 22.0044 34.9945 22.041 35.1255 22.041C35.2565 22.041 35.3873 22.0044 35.5024 21.9315C35.6418 21.843 35.7785 21.7524 35.9152 21.6621L35.9152 41.4532ZM31.7173 31.4726H30.9564V27.8834H31.7173V31.4726ZM31.7173 26.4772H30.9564V22.8879H31.7173V26.4772ZM31.7173 21.4817H30.921C30.1651 21.4817 29.5501 22.0967 29.5501 22.8526V31.5081C29.5501 32.264 30.1651 32.879 30.921 32.879H31.7173V39.071H7.93622V36.8084C8.83706 36.5122 9.48947 35.6635 9.48947 34.6648V32.4819C9.48947 31.4833 8.83706 30.6346 7.93622 30.3383V24.0224C8.83706 23.7262 9.48947 22.8774 9.48947 21.8788V19.6959C9.48947 18.6973 8.83706 17.8486 7.93622 17.5523V15.2897H27.7903C28.8585 16.8724 30.1761 18.3485 31.7173 19.6813V21.4817ZM7.23309 18.8458C7.70184 18.8458 8.08322 19.2271 8.08322 19.6958V21.8787C8.08322 22.3475 7.70184 22.7288 7.23309 22.7288C6.76434 22.7288 6.38306 22.3475 6.38306 21.8787V19.6958C6.38297 19.2271 6.76434 18.8458 7.23309 18.8458ZM7.23309 31.6318C7.70184 31.6318 8.08322 32.0131 8.08322 32.4818V34.6647C8.08322 35.1335 7.70184 35.5148 7.23309 35.5148C6.76434 35.5148 6.38306 35.1335 6.38306 34.6647V32.4818C6.38297 32.0131 6.76434 31.6318 7.23309 31.6318ZM35.1254 20.5C29.7926 16.9811 26.5081 11.9064 26.0263 6.45319C29.5579 5.2725 32.8807 3.54159 35.1254 1.71722C37.3701 3.54159 40.6928 5.27241 44.2244 6.45319C43.7427 11.9064 40.4582 16.9811 35.1254 20.5ZM35.1255 6.03797C33.3381 6.03797 31.8839 7.49212 31.8839 9.27947C31.8839 10.3034 32.3701 11.2617 33.1762 11.8695V14.5851C33.1762 15.6599 34.0506 16.5343 35.1254 16.5343C36.2002 16.5343 37.0747 15.6598 37.0747 14.5851V11.8696C37.8807 11.2618 38.367 10.3034 38.367 9.27956C38.3669 7.49213 36.9128 6.03797 35.1255 6.03797ZM36.0258 10.8792C35.805 11.0039 35.6684 11.2379 35.6684 11.4915V14.5852C35.6684 14.8846 35.4248 15.1282 35.1254 15.1282C34.826 15.1282 34.5824 14.8845 34.5824 14.5852V11.4915C34.5824 11.2379 34.4458 11.0039 34.225 10.8792C33.6484 10.5536 33.2902 9.94059 33.2902 9.27956C33.2902 8.26763 34.1135 7.44431 35.1255 7.44431C36.1374 7.44431 36.9607 8.26763 36.9607 9.27956C36.9607 9.94069 36.6024 10.5536 36.0258 10.8792Z" fill="#A73933"/>
</svg>
