<svg id="Layer_1" data-name="Layer 1" xmlns="http://www.w3.org/2000/svg" viewBox="0 0 48 48"><defs><style>.cls-1{fill:#ffa726;}</style></defs><path class="cls-1" d="M28.38,35.29A16.12,16.12,0,1,0,12.27,19.18,16.13,16.13,0,0,0,28.38,35.29ZM13.89,19.18A14.5,14.5,0,1,1,28.38,33.67,14.51,14.51,0,0,1,13.89,19.18Z"/><path class="cls-1" d="M28.38,0a19.24,19.24,0,0,0-12.5,4.63.84.84,0,0,0-.28.56.86.86,0,0,0,.2.59.82.82,0,0,0,.55.28.83.83,0,0,0,.59-.2,17.66,17.66,0,1,1-1.87,1.88A.82.82,0,0,0,15,6.59a.78.78,0,0,0-.59-.19.76.76,0,0,0-.55.28A19.13,19.13,0,0,0,12,29.05l-2,2a1.55,1.55,0,0,0-2.18,0L.67,38.17a2.28,2.28,0,0,0,0,3.23l5.49,5.49a2.28,2.28,0,0,0,3.23,0l7.12-7.11a1.58,1.58,0,0,0,.45-1.1,1.55,1.55,0,0,0-.44-1.08l2-2a19,19,0,0,0,9.87,2.74h0A19.18,19.18,0,1,0,28.38,0ZM7.61,38.49a.81.81,0,0,0,0,1.15L11,43,8.25,45.74a.7.7,0,0,1-1,0L1.82,40.26a.66.66,0,0,1,0-.95l2.73-2.73,1.1,1.1A.81.81,0,1,0,6.8,36.53l-1.1-1.1,1-1,6.42,6.42-1,1L8.76,38.49A.85.85,0,0,0,7.61,38.49Zm9.52-3.79-1.76,1.75-4.26-4.26,1.75-1.76A19.65,19.65,0,0,0,17.13,34.7Zm-1.82,4-1,1L7.86,33.27l1-1Z"/></svg>