<svg id="Layer_1" data-name="Layer 1" xmlns="http://www.w3.org/2000/svg" viewBox="0 0 48 48"><defs><style>.cls-1{fill:#ffa726;}</style></defs><path class="cls-1" d="M43.36,8.26H33.42V3.4A3.2,3.2,0,0,0,30.22.2H17.86a3.21,3.21,0,0,0-3.2,3.2V8.26h-10a2.51,2.51,0,0,0-2.5,2.5v6.48a2.51,2.51,0,0,0,2.5,2.5H6.87a.27.27,0,0,1,.21.09l1.53,1.52a1.21,1.21,0,0,0,1.68,0l1.55-1.52a.29.29,0,0,1,.21-.09h2.23a2.5,2.5,0,0,0,2.49-2.5V14.62a3.29,3.29,0,0,0,1.09.19h3a.8.8,0,0,1,.6.27L23,16.81a1.42,1.42,0,0,0,1.05.48h0a1.41,1.41,0,0,0,1.05-.47l1.56-1.74a.8.8,0,0,1,.59-.27h3a3.21,3.21,0,0,0,1-.15v2.58a2.5,2.5,0,0,0,2.49,2.5H36a.31.31,0,0,1,.22.09l1.52,1.52a1.19,1.19,0,0,0,.84.34,1.17,1.17,0,0,0,.84-.34l1.56-1.52a.27.27,0,0,1,.21-.09h2.22a2.5,2.5,0,0,0,2.5-2.5V10.76A2.5,2.5,0,0,0,43.36,8.26Zm-28,9a1.1,1.1,0,0,1-1.1,1.1H12.05a1.72,1.72,0,0,0-1.19.49L9.45,20.22,8.07,18.84a1.7,1.7,0,0,0-1.2-.5H4.62a1.1,1.1,0,0,1-1.1-1.1V10.76h0a1.1,1.1,0,0,1,1.1-1.1h10v1.95a3.17,3.17,0,0,0,.72,2ZM32,11.61a1.8,1.8,0,0,1-1.8,1.8h-3a2.21,2.21,0,0,0-1.64.74L24,15.89l-1.52-1.73a2.22,2.22,0,0,0-1.65-.75h-3a1.8,1.8,0,0,1-1.8-1.8V3.4a1.81,1.81,0,0,1,1.8-1.8H30.22A1.81,1.81,0,0,1,32,3.4Zm12.44,5.63a1.1,1.1,0,0,1-1.1,1.1H41.14a1.71,1.71,0,0,0-1.19.49l-1.42,1.39-1.38-1.38a1.68,1.68,0,0,0-1.2-.5H33.7a1.1,1.1,0,0,1-1.1-1.1v-3.5a3.16,3.16,0,0,0,.82-2.13V9.66h9.94a1.1,1.1,0,0,1,1.1,1.1Z"/><path class="cls-1" d="M46.16,42.53h0V32.35A7.61,7.61,0,0,0,35.1,25.59a.38.38,0,0,0-.13.09,7.69,7.69,0,0,0-2.52,2.19.69.69,0,0,0-.11.13,7.55,7.55,0,0,0-1.21,2.81s0,.05,0,.07c0,.21-.08.42-.1.63,0,0,0,.09,0,.13a5.63,5.63,0,0,0,0,.71h0V39.6L27.15,38V35.37a9.44,9.44,0,0,0,3-6.48,5.64,5.64,0,0,0,1.74-3.05,2.6,2.6,0,0,0-1.39-3,2.8,2.8,0,0,0,0-.71,2.66,2.66,0,0,0-3.78-2.16,3.08,3.08,0,0,0-4.21-1.27,2.65,2.65,0,0,0-4.17,1.27,3.5,3.5,0,0,0-2.1,5.57,9.07,9.07,0,0,0,.12,1.81A3.3,3.3,0,0,0,18,29.59a10.43,10.43,0,0,0,1.68,4.46.22.22,0,0,0,.05.08,6.12,6.12,0,0,0,.95,1.06.46.46,0,0,0,.07.07h0l.14.12V38l-4.63,1.91a3.48,3.48,0,0,0-1.4,1l-2.81-1.16V37.67a8.22,8.22,0,0,0,2.27-3.55.7.7,0,0,0,.49-.31c.72-1.14,2.12-4.58-.12-6.85a3.49,3.49,0,0,0-3.14-.88c0-.09-.09-.18-.14-.27-.92-1.42-3.23-1.66-5.34-.58h0a4.82,4.82,0,0,0-2.64,3h0v0a7.62,7.62,0,0,0,.61,5.57.69.69,0,0,0,.51.32,8.18,8.18,0,0,0,2.25,3.49v2.15L3.25,41.29a3,3,0,0,0-1.84,2.78v2.21a1.64,1.64,0,0,0,1.64,1.63H45a1.64,1.64,0,0,0,1.64-1.63V44.07A3.05,3.05,0,0,0,46.16,42.53ZM11.6,28.3a4.26,4.26,0,0,0,.18-.83,2.12,2.12,0,0,1,1.93.48c1.21,1.23.83,3.1.35,4.27a11.87,11.87,0,0,0-1.91-1.55A3.36,3.36,0,0,1,11,29.47,4.8,4.8,0,0,0,11.6,28.3ZM4.83,32.13a6.61,6.61,0,0,1-.16-3,3.72,3.72,0,0,1,1.88-2.56c1.62-.9,3.22-.73,3.69,0a1.51,1.51,0,0,1,0,1.28A3.73,3.73,0,0,1,8,30.06,8.1,8.1,0,0,0,4.83,32.13Zm.91,1.07a6.77,6.77,0,0,1,2.72-1.83A5.24,5.24,0,0,0,10,30.52a4.92,4.92,0,0,0,1.39,1.33,11.06,11.06,0,0,1,1.73,1.4c-.54,2.3-2.42,4.21-3.69,4.21S6.26,35.51,5.74,33.2Zm4.92,5.38V40a1.84,1.84,0,0,1-1.23.46h0A1.81,1.81,0,0,1,8.21,40V38.58a2.91,2.91,0,0,0,2.45,0ZM3.05,46.51a.23.23,0,0,1-.24-.23V44.07a1.64,1.64,0,0,1,.56-1.23l2.74,3.67Zm11.05,0H12.88L14.1,45.1Zm0-3.57L11,46.51H7.86l-3.2-4.29,2.69-1.11a3.23,3.23,0,0,0,2.08.76h0a3.24,3.24,0,0,0,2.09-.76l2.71,1.12A4.21,4.21,0,0,0,14.11,42.94Zm4.15-14.89a1.86,1.86,0,0,1-.51-1,7.54,7.54,0,0,1-.09-1.74.69.69,0,0,0-.18-.53A2.1,2.1,0,0,1,19,21.26a.71.71,0,0,0,.68-.63A1.25,1.25,0,0,1,21.88,20a.71.71,0,0,0,.49.27.7.7,0,0,0,.53-.17,1.63,1.63,0,0,1,1.1-.41,1.69,1.69,0,0,1,1.67,1.48.7.7,0,0,0,1.23.37A1.24,1.24,0,0,1,28,21.08a1.26,1.26,0,0,1,1.14,1.14,1.29,1.29,0,0,1-.15.72.7.7,0,0,0,0,.66.74.74,0,0,0,.55.37,1.15,1.15,0,0,1,.86.51,1.23,1.23,0,0,1,.16,1,7.25,7.25,0,0,1-.71,1.72,3,3,0,0,0-.82-.78,1.84,1.84,0,0,1-.92-1.21.73.73,0,0,0-.34-.43.75.75,0,0,0-.55-.05,1.36,1.36,0,0,1-.49.08,1.59,1.59,0,0,1-1.31-.7.72.72,0,0,0-.68-.3.71.71,0,0,0-.56.48,2.67,2.67,0,0,1-2.53,1.83A5.13,5.13,0,0,1,21,26a.68.68,0,0,0-.81.53c-.06.28-.27.4-.77.64A2.76,2.76,0,0,0,18.26,28.05Zm1.37,2.57v0a12.09,12.09,0,0,1-.27-1.46c0-.27.07-.38.69-.68a2.88,2.88,0,0,0,1.27-1,4.08,4.08,0,0,0,3.7-1.8,3.18,3.18,0,0,0,1.95.51,3.19,3.19,0,0,0,1.24,1.37c.42.29.55.38.55.91-.14,3.26-1.95,6.64-4.73,6.64a3.55,3.55,0,0,1-2.3-.87l0,0-.21-.2A7.63,7.63,0,0,1,19.63,30.62Zm6.12,5.57v2A2.51,2.51,0,0,1,24,38.9h0a2.52,2.52,0,0,1-1.72-.68v-2A4.73,4.73,0,0,0,24,36.5,4.88,4.88,0,0,0,25.75,36.19ZM15.5,46.51V43.17h0a2.08,2.08,0,0,1,1.3-1.94l2-.84a12.21,12.21,0,0,1,2.53,6.12Zm7.28,0a13.76,13.76,0,0,0-2.6-6.68l1.25-.51a3.9,3.9,0,0,0,2.59,1h0a3.9,3.9,0,0,0,2.59-1l1.23.51a13.75,13.75,0,0,0-2.62,6.68Zm9.76,0H26.63a12.32,12.32,0,0,1,2.55-6.13l2.06.85a2.08,2.08,0,0,1,1.3,1.94Zm-.17-6.26V32.36a5.83,5.83,0,0,1,0-.59.28.28,0,0,1,0-.09,4.37,4.37,0,0,1,.08-.54v0a6.21,6.21,0,0,1,8.9-4.26l.06,0a6.22,6.22,0,0,1,3.31,5.48V41.3l-.06,0h0l-3.52-1.45V38.46A8.27,8.27,0,0,0,43.57,33c0-2.55-1.14-4.56-3-5.36a.64.64,0,0,0-.54,0,.7.7,0,0,0-.41.49A5.05,5.05,0,0,1,35.71,32l-1.6.35a.82.82,0,0,0-.55.82,8.34,8.34,0,0,0,2.38,5.35v1.35L33.16,41A3.39,3.39,0,0,0,32.37,40.25Zm6.2-1.86c-1.32,0-3.29-2.47-3.58-4.85l1-.22a6.42,6.42,0,0,0,4.66-4A4.52,4.52,0,0,1,42.17,33C42.17,35.49,40,38.39,38.57,38.39Zm-4.63,8.12V43.17a3.83,3.83,0,0,0-.13-1L36,41.33a9.79,9.79,0,0,0,1.17,5.18Zm4.63-.36c-1.23-1.59-1.23-3.76-1.23-5.86h0v-.81a2.58,2.58,0,0,0,2.45,0v.81C39.79,42.39,39.79,44.55,38.57,46.15Zm6.62.13a.23.23,0,0,1-.24.23H40a9.79,9.79,0,0,0,1.17-5.18l3,1.23h0a1.64,1.64,0,0,1,1,1.51Z"/><path class="cls-1" d="M28.3,4.87h0a.7.7,0,0,0-.52-.23.74.74,0,0,0-.54.21l-.06.06L23.32,8.6l-1.9-1.9a.79.79,0,0,0-.53-.24.85.85,0,0,0-.53.21.75.75,0,0,0,0,1.08l2.4,2.41a.78.78,0,0,0,1,0l4.45-4.25a.7.7,0,0,0,.23-.52A.71.71,0,0,0,28.3,4.87Z"/><path class="cls-1" d="M12.45,11.6a.7.7,0,0,0-.5.2l0,0-3,2.89L7.42,13.28a.7.7,0,0,0-.49-.22.76.76,0,0,0-.49.2.7.7,0,0,0,0,1l1.92,1.92a.71.71,0,0,0,1,0L12.9,12.8a.72.72,0,0,0,.22-.49.7.7,0,0,0-.19-.49A.69.69,0,0,0,12.45,11.6Z"/><path class="cls-1" d="M41.3,11.6a.72.72,0,0,0-.5.2l0,0-3,2.89-1.45-1.46a.68.68,0,0,0-1,0,.7.7,0,0,0,0,1l1.92,1.92a.72.72,0,0,0,1,0l3.55-3.39a.72.72,0,0,0,.22-.49.7.7,0,0,0-.19-.49A.68.68,0,0,0,41.3,11.6Z"/></svg>