<svg id="Layer_1" data-name="Layer 1" xmlns="http://www.w3.org/2000/svg" viewBox="0 0 48 48"><defs><style>.cls-1{fill:#ffa726;}</style></defs><path class="cls-1" d="M47.84,20.57h0L39.75,10.06a.79.79,0,0,0-1-.18l-5.26,3.34H26.58a.63.63,0,0,0-.21,0l-5.32,1.53-5.57-1.53L10.16,9.88a.78.78,0,0,0-1,.17L.18,21.13a.78.78,0,0,0,.1,1.09l4.68,4,4.31,5.79-.09.1a3.19,3.19,0,0,0,.07,4.44,3.24,3.24,0,0,0,1.94.92h.16l0,.17a2.52,2.52,0,0,0,0,.48,3.17,3.17,0,0,0,.93,2.26,3.2,3.2,0,0,0,2.26.93h.16l0,.16-.15.07h.15a3.19,3.19,0,0,0,3.69,3.15l.17,0v.16A3.19,3.19,0,0,0,24,46.82l.61-.61.33.26a3.19,3.19,0,0,0,5.42-2.33V44h.17a3.14,3.14,0,0,0,2.3-.93,3.19,3.19,0,0,0,.94-2.31v-.16h.16a3.18,3.18,0,0,0,2.31-.93,3.12,3.12,0,0,0,.93-2.31v-.16h.16a3.12,3.12,0,0,0,2.31-.93,3.21,3.21,0,0,0,.42-4l0-.08,0-.08,3.11-6.48,4.62-4A.8.8,0,0,0,47.84,20.57Zm-45.95.95,8-9.93L14,14.19,5.46,24.6Zm9.62,14.42a1.61,1.61,0,0,1-1.14-2.75L11.53,32a.43.43,0,0,1,.12-.11,1.64,1.64,0,0,1,.87-.36h.17a1.56,1.56,0,0,1,1.14.5,1.64,1.64,0,0,1-.06,2.28l-1.12,1.12A1.63,1.63,0,0,1,11.51,35.94Zm3,3.84a1.59,1.59,0,0,1-1.14-.47,1.61,1.61,0,0,1-.47-1.14A1.59,1.59,0,0,1,13.34,37l2.24-2.24a1.62,1.62,0,0,1,1.83-.32,1.6,1.6,0,0,1,.89,1.66,1.69,1.69,0,0,1-.48,1l-2.2,2.2A1.57,1.57,0,0,1,14.48,39.78ZM19,42.73a1.61,1.61,0,0,1-1.14.47,1.6,1.6,0,0,1-1.61-1.61,1.61,1.61,0,0,1,.47-1.14L19,38.21A1.64,1.64,0,0,1,20.91,38a1.6,1.6,0,0,1,.77,1.63,1.66,1.66,0,0,1-.47.94Zm5,1.86-1.12,1.12a1.6,1.6,0,0,1-1.13.47,1.57,1.57,0,0,1-1.14-.48,1.55,1.55,0,0,1-.47-1.13,1.57,1.57,0,0,1,.47-1.14l1.15-1.16.12-.11a1.63,1.63,0,0,1,.72-.33l.15,0h.17a1.61,1.61,0,0,1,1.15.51l.11.12A1.65,1.65,0,0,1,24,44.59Zm14.5-9.46a1.57,1.57,0,0,1-1.14.47h0a1.59,1.59,0,0,1-1.14-.47l0,0L30,28.92A.79.79,0,1,0,28.91,30l6.16,6.22a1.61,1.61,0,0,1,0,2.28,1.57,1.57,0,0,1-1.14.47,1.55,1.55,0,0,1-1.13-.47l-4.12-4.16a.79.79,0,0,0-1.13,1.11l4.06,4.1.06.07a1.6,1.6,0,0,1,.48,1.14,1.58,1.58,0,0,1-.48,1.14,1.6,1.6,0,0,1-2.27,0l-2.25-2.27a.79.79,0,0,0-1.35.55.78.78,0,0,0,.22.56L28.21,43l.06.07a1.58,1.58,0,0,1,.48,1.14,1.6,1.6,0,0,1-1.61,1.61A1.61,1.61,0,0,1,26,45.33a.49.49,0,0,0-.14-.11l-.06,0a.26.26,0,0,1-.1-.34l.06-.12a.93.93,0,0,0,0-.1,2.5,2.5,0,0,0,.09-.25A3.12,3.12,0,0,0,26,43a3.18,3.18,0,0,0-1.34-2.2,3.28,3.28,0,0,0-1.35-.52l-.16,0,0-.17a3.21,3.21,0,0,0-.77-2.9,3.12,3.12,0,0,0-2.27-1h-.26V36a3.16,3.16,0,0,0-3.13-3.26,4,4,0,0,0-.77.08l-.16,0,0-.17a3.18,3.18,0,0,0-5.27-1.88l-.13.11L6.56,25.75,15.47,14.9l3.08.85L14.8,22.36A3.19,3.19,0,0,0,16,26.71l.14.07a3.29,3.29,0,0,0,.39.17,3.19,3.19,0,0,0,3.82-1.45l2.41-4.26,4.39.31,0,0L38.47,32.86A1.6,1.6,0,0,1,38.47,35.13Zm3-9.79L38.8,31,28.07,20.22l-.05,0a.81.81,0,0,0-.45-.18l-5.18-.37a.79.79,0,0,0-.74.4L19,24.73a1.61,1.61,0,0,1-2.19.6,1.61,1.61,0,0,1-.61-2.19l3.59-6.34,7-2H33.3l0,.06,8.18,10.39ZM42.55,24,34.84,14.2l4.1-2.6,7.19,9.34Z"/><path class="cls-1" d="M29.67,10.9l6.47-6.47a.77.77,0,0,0,0-1.12.77.77,0,0,0-.56-.23.75.75,0,0,0-.55.23L28.55,9.78a.8.8,0,0,0,0,1.12A.81.81,0,0,0,29.67,10.9Z"/><path class="cls-1" d="M18.33,10.9a.81.81,0,0,0,1.12,0,.79.79,0,0,0,0-1.12L13,3.31a.79.79,0,0,0-1.12,1.12Z"/><path class="cls-1" d="M24,11.13a.79.79,0,0,0,.79-.79V5a.79.79,0,1,0-1.58,0v5.36A.79.79,0,0,0,24,11.13Z"/><path class="cls-1" d="M23.13,1.55a.94.94,0,0,0,1.77-.07,1,1,0,0,0-.32-1,.94.94,0,0,0-1.45,1.11Z"/></svg>