<svg id="Layer_1" data-name="Layer 1" xmlns="http://www.w3.org/2000/svg" viewBox="0 0 48 48"><defs><style>.cls-1{fill:#ffa726;}</style></defs><path class="cls-1" d="M19.84,14.35A6.69,6.69,0,1,0,23.42,26.7a.82.82,0,0,0,.25-1.13.81.81,0,0,0-1.12-.25,5.07,5.07,0,1,1,1.88-2.14.77.77,0,0,0,0,.63.79.79,0,0,0,.42.46.82.82,0,0,0,1.09-.4,6.7,6.7,0,0,0-6.07-9.52Z"/><path class="cls-1" d="M42.25.09H29.38a3.67,3.67,0,0,0-3.66,3.66v9.83a9.5,9.5,0,0,0-14.65,3.83H5.35a1.62,1.62,0,0,1-1.62-1.62V7h17V9.15a.82.82,0,0,0,1.64,0V3.3A3.26,3.26,0,0,0,19.11.05H5.35A3.26,3.26,0,0,0,2.1,3.3V15.79a3.26,3.26,0,0,0,3.25,3.26h5.21a9.46,9.46,0,0,0,2.57,8.71l.21.2H3.73v-2.1a1.65,1.65,0,0,1,.51-1.15,1.57,1.57,0,0,1,1.11-.46H8.22A.82.82,0,0,0,9,23.44a.82.82,0,0,0-.82-.82H5.36a3.19,3.19,0,0,0-2.31,1,3,3,0,0,0-.95,2.26V44.7A3.26,3.26,0,0,0,5.35,48H19.11a3.26,3.26,0,0,0,3.25-3.25V30.2A9.27,9.27,0,0,0,26,28.31l1.52,1.52a2.74,2.74,0,0,0,.07,3.79l3.14,3.15a2.75,2.75,0,0,0,3.86,0l1-1a2.72,2.72,0,0,0,0-3.85l-3.14-3.15a2.72,2.72,0,0,0-3.79-.06l-1.52-1.52a9.54,9.54,0,0,0,2-8.12h2v3.27a1.58,1.58,0,0,0,2.9.85l2.62-4.12h5.6a3.67,3.67,0,0,0,3.65-3.66V3.75A3.67,3.67,0,0,0,42.25.09ZM28.37,31.69a1.1,1.1,0,0,1,.32-.77l1-1a1.09,1.09,0,0,1,1.54,0L34.41,33a1.1,1.1,0,0,1,0,1.55l-1,1a1.11,1.11,0,0,1-1.55,0l-3.15-3.14A1.14,1.14,0,0,1,28.37,31.69ZM32,14.62a.82.82,0,0,0-.82.82v2H29.38a2,2,0,0,1-.84-.18,9.19,9.19,0,0,0-1.19-2V3.75a2,2,0,0,1,2-2H42.25a2,2,0,0,1,2,2V15.39a2,2,0,0,1-2,2h-6a.8.8,0,0,0-.69.38l-2.76,4.34V15.44A.82.82,0,0,0,32,14.62ZM3.73,29.6h12a9.57,9.57,0,0,0,5,.9V44.7a1.61,1.61,0,0,1-1.61,1.61H5.35A1.62,1.62,0,0,1,3.73,44.7Zm21.67-3a7.86,7.86,0,1,1,0-11.12A7.86,7.86,0,0,1,25.4,26.6ZM3.73,5.37V3.3A1.62,1.62,0,0,1,5.35,1.69H19.11A1.61,1.61,0,0,1,20.72,3.3V5.37Z"/><circle class="cls-1" cx="35.76" cy="15.29" r="0.83"/><path class="cls-1" d="M33.59,6.35c0-.1,0-.2,0-.3a2.17,2.17,0,0,1,2.15-1.87h.05a2.17,2.17,0,0,1,2.12,2.05,2.19,2.19,0,0,1-2.17,2.29.82.82,0,0,0-.82.82v3.12a.82.82,0,1,0,1.64,0V10.07a3.81,3.81,0,0,0-.74-7.52h-.08A3.79,3.79,0,0,0,32,5.82a3.08,3.08,0,0,0,0,.53.82.82,0,0,0,.81.82A.82.82,0,0,0,33.59,6.35Z"/><path class="cls-1" d="M6.43,2.71a.83.83,0,1,0,.83.83A.83.83,0,0,0,6.43,2.71Z"/><path class="cls-1" d="M5.6,26a.83.83,0,1,0,.83-.83A.83.83,0,0,0,5.6,26Z"/><path class="cls-1" d="M6.43,35h11.3a.82.82,0,0,0,.82-.81.82.82,0,0,0-.82-.82H6.43a.82.82,0,0,0-.82.82A.82.82,0,0,0,6.43,35Z"/><path class="cls-1" d="M6.43,38.91h11.3a.82.82,0,0,0,.82-.82.82.82,0,0,0-.82-.81H6.43a.82.82,0,0,0-.82.81A.82.82,0,0,0,6.43,38.91Z"/><path class="cls-1" d="M15.22,41.17H8.76a.82.82,0,1,0,0,1.64h6.46a.82.82,0,0,0,0-1.64Z"/></svg>