<svg id="Layer_1" data-name="Layer 1" xmlns="http://www.w3.org/2000/svg" viewBox="0 0 48 48"><defs><style>.cls-1{fill:#ffa726;}</style></defs><g id="XiEPIn.tif"><path class="cls-1" d="M5.57,5.75a4.32,4.32,0,1,1,4.3,4.39A4.34,4.34,0,0,1,5.57,5.75ZM9.89,3a2.79,2.79,0,1,0,2.78,2.78A2.8,2.8,0,0,0,9.89,3Z"/><path class="cls-1" d="M12,31.74a4,4,0,1,1-3.86-4A4,4,0,0,1,12,31.74Zm-1.55,0A2.42,2.42,0,1,0,8,34.15,2.43,2.43,0,0,0,10.44,31.73Z"/><path class="cls-1" d="M24,35.69a4,4,0,1,1,4-4A4,4,0,0,1,24,35.69Zm-2.43-4A2.42,2.42,0,1,0,24,29.29,2.42,2.42,0,0,0,21.58,31.72Z"/><path class="cls-1" d="M36,31.72a4,4,0,1,1,4,4A4,4,0,0,1,36,31.72Zm6.38,0A2.42,2.42,0,1,0,40,34.14,2.43,2.43,0,0,0,42.39,31.75Z"/></g><path class="cls-1" d="M33.15,47.8H46.88a.91.91,0,0,0,.27-.72V43a5.36,5.36,0,0,0-2.35-4.56A7.86,7.86,0,0,0,39,37a7.48,7.48,0,0,0-5,2.73,4.81,4.81,0,0,0-1,2.93c-.05,1.47-.06,2.94-.08,4.42A.81.81,0,0,0,33.15,47.8Zm1.28-4.88a3.94,3.94,0,0,1,2.14-3.5A6.3,6.3,0,0,1,39,38.53a6.05,6.05,0,0,1,2.54.1,7.87,7.87,0,0,1,2.34,1.06A3.84,3.84,0,0,1,45.58,43c0,1,0,2,0,3.08,0,.23-.06.31-.3.31H34.64c-.2,0-.28,0-.27-.26C34.4,45.07,34.42,44,34.43,42.92Z"/><path class="cls-1" d="M1.18,47.8H14.92A1,1,0,0,0,15.2,47V43a5.24,5.24,0,0,0-1.14-3.4A7.12,7.12,0,0,0,11,37.45,7.61,7.61,0,0,0,6.8,37a7.27,7.27,0,0,0-5.16,3.22,4.77,4.77,0,0,0-.71,2.5c0,1.45-.06,2.9-.08,4.34A.82.82,0,0,0,1.18,47.8Zm1.25-1.71c0-1.19,0-2.37.08-3.55A3.48,3.48,0,0,1,3.81,40a6.79,6.79,0,0,1,2.67-1.37,5.37,5.37,0,0,1,2.45-.14,5.7,5.7,0,0,1,4.26,2.61,3.21,3.21,0,0,1,.43,1.63c0,1.13,0,2.27,0,3.4,0,.2-.07.25-.26.25H2.74C2.43,46.4,2.43,46.4,2.43,46.09Z"/><path class="cls-1" d="M17.16,47.8H30.89a1.18,1.18,0,0,0,.29-1c0-1.21,0-2.41,0-3.62a5.52,5.52,0,0,0-2.88-5.11A7.83,7.83,0,0,0,22.68,37,7.43,7.43,0,0,0,18,39.69a5,5,0,0,0-1.06,3.05c0,1.43,0,2.86-.08,4.29A.83.83,0,0,0,17.16,47.8Zm1.24-1.71.06-3.36A3.64,3.64,0,0,1,19.83,40a7,7,0,0,1,2.62-1.33,5.29,5.29,0,0,1,2.43-.14,5.84,5.84,0,0,1,4.18,2.43,3.28,3.28,0,0,1,.54,1.85c0,1.11,0,2.23,0,3.34,0,.22-.07.28-.28.27H18.71C18.4,46.4,18.4,46.4,18.4,46.09Z"/><path class="cls-1" d="M39.86,4.89H19.77a.7.7,0,0,1,0-1.4H39.86a.7.7,0,0,1,0,1.4Z"/><path class="cls-1" d="M34.55,7.31H19.77a.7.7,0,0,1,0-1.4H34.55a.7.7,0,0,1,0,1.4Z"/><path class="cls-1" d="M29.82,9.73h-10a.7.7,0,0,1,0-1.4H29.82a.7.7,0,1,1,0,1.4Z"/><path class="cls-1" d="M44.9,1.25a1.08,1.08,0,0,0-.46-1H16.36L16.3.28a.85.85,0,0,0-.42.8V12.64c0,.07,0,.15,0,.29l-.19-.22A4.23,4.23,0,0,0,12.13,11H7.84a5.25,5.25,0,0,0-2.44.54,4.36,4.36,0,0,0-1.75,1.86,10.21,10.21,0,0,0-1.42,5.11c0,1.33,0,2.67,0,4a2.2,2.2,0,0,0,2.38,2.17h.16c.32-.06.32-.06.32.28s0,.48,0,.72a.79.79,0,0,0,.87.87h8c.66,0,1-.29,1-1,0-1.61,0-3.23,0-4.84v-.31l.29.12c1.11.6,2.23,1.2,3.33,1.82a2.61,2.61,0,0,0,3.57-1.05.5.5,0,0,1,.53-.29H44a.82.82,0,0,0,.86-.85c0-.49,0-1,0-1.47ZM19.4,21c-.68-.35-1.35-.73-2-1.1L15.15,18.7a.31.31,0,0,1-.19-.32c0-.21,0-.42,0-.63a.74.74,0,0,0-.74-.67l-.8,1.59c0,2,0,4,0,5.95,0,.32,0,.32-.32.32H7c-.31,0-.31,0-.31-.31V21h0V17.33a.77.77,0,0,0-1.52-.2,2,2,0,0,0,0,.42v4.67a1.84,1.84,0,0,1,0,.41.64.64,0,0,1-1.22,0,1.13,1.13,0,0,1-.06-.31c0-1.58,0-3.15.08-4.72A8,8,0,0,1,5.4,13.53a2.42,2.42,0,0,1,2-1c1.67,0,3.35,0,5,0a2.44,2.44,0,0,1,2,1.19c.49.73.94,1.48,1.41,2.23.17.27.33.54.52.79a1.5,1.5,0,0,0,.43.36c1.13.63,2.27,1.24,3.41,1.87a1.2,1.2,0,0,1,.68,1.15A1.07,1.07,0,0,1,19.4,21Zm23.93-1.85c0,.22-.06.28-.27.28H22.7c-.21,0-.28-.08-.36-.26a4.19,4.19,0,0,0-.46-.83.34.34,0,0,1,0-.37l4.48-6.12a.78.78,0,0,0-1.27-.92l-4.51,6.17h0c-.09.14-.17.16-.32.08l-2.43-1.33a.63.63,0,0,1-.34-.61V2.1c0-.36,0-.36.36-.36H43c.22,0,.29.06.29.29Z"/></svg>