<svg id="Layer_1" data-name="Layer 1" xmlns="http://www.w3.org/2000/svg" viewBox="0 0 48 48"><defs><style>.cls-1{fill:#ffa726;}</style></defs><path class="cls-1" d="M47.86,23.57a29.28,29.28,0,0,0-47.72,0,.74.74,0,0,0,0,.87,29.29,29.29,0,0,0,47.72,0,.74.74,0,0,0,0-.87ZM1.68,24a27.78,27.78,0,0,1,44.64,0A27.77,27.77,0,0,1,1.68,24Z"/><path class="cls-1" d="M24,14.25A9.75,9.75,0,1,0,33.75,24,9.76,9.76,0,0,0,24,14.25Zm0,18A8.25,8.25,0,1,1,32.25,24,8.26,8.26,0,0,1,24,32.25Z"/><path class="cls-1" d="M24,19.5A4.5,4.5,0,1,0,28.5,24,4.51,4.51,0,0,0,24,19.5ZM24,27a3,3,0,1,1,3-3A3,3,0,0,1,24,27Z"/></svg>