<svg id="Layer_1" data-name="Layer 1" xmlns="http://www.w3.org/2000/svg" viewBox="0 0 48 48"><defs><style>.cls-1{fill:#ffa726;}</style></defs><path class="cls-1" d="M15.94,17.48H31.46a.74.74,0,0,0,0-1.48H15.94a.74.74,0,0,0,0,1.48Z"/><path class="cls-1" d="M7.76,19.33a.71.71,0,0,0,.53.22.76.76,0,0,0,.51-.2l1.82-1.74a.78.78,0,0,0,.23-.52.74.74,0,0,0-.21-.53.71.71,0,0,0-.51-.23.74.74,0,0,0-.54.2h0L8.3,17.77l-.48-.47a.74.74,0,0,0-1.05,0,.76.76,0,0,0,0,1.07Z"/><path class="cls-1" d="M8.7,22.27a4.33,4.33,0,1,0-4.33-4.33A4.33,4.33,0,0,0,8.7,22.27ZM5.85,17.94A2.85,2.85,0,1,1,8.7,20.79,2.86,2.86,0,0,1,5.85,17.94Z"/><path class="cls-1" d="M15.94,27.83H31.46a.75.75,0,0,0,0-1.49H15.94a.75.75,0,0,0,0,1.49Z"/><path class="cls-1" d="M7.76,29.68a.74.74,0,0,0,.52.22.73.73,0,0,0,.52-.21L10.62,28a.76.76,0,0,0,.23-.51.74.74,0,0,0-.21-.53.72.72,0,0,0-1.05,0l.08.09h0l-.08-.09L8.3,28.12l-.48-.48a.74.74,0,1,0-1.05,1.05Z"/><path class="cls-1" d="M8.7,32.62a4.34,4.34,0,1,0-4.33-4.33A4.33,4.33,0,0,0,8.7,32.62ZM5.85,28.29A2.85,2.85,0,1,1,8.7,31.14,2.85,2.85,0,0,1,5.85,28.29Z"/><path class="cls-1" d="M7.76,40a.74.74,0,0,0,.53.21A.72.72,0,0,0,8.8,40l1.82-1.74a.76.76,0,0,0,.23-.52.77.77,0,0,0-.21-.53.76.76,0,0,0-.51-.23.71.71,0,0,0-.54.21h0L8.3,38.47,7.82,38a.74.74,0,1,0-1.05,1Zm1.91-2.71Z"/><path class="cls-1" d="M8.7,43a4.34,4.34,0,1,0-4.33-4.34A4.34,4.34,0,0,0,8.7,43ZM5.85,38.63A2.85,2.85,0,1,1,8.7,41.48,2.86,2.86,0,0,1,5.85,38.63Z"/><path class="cls-1" d="M15.94,19.55h8.28a.74.74,0,0,0,0-1.48H15.94a.74.74,0,1,0,0,1.48Z"/><path class="cls-1" d="M15.94,29.9h8.28a.75.75,0,0,0,.74-.75.74.74,0,0,0-.74-.74H15.94a.74.74,0,0,0-.74.74A.75.75,0,0,0,15.94,29.9Z"/><path class="cls-1" d="M3.61,7.11a.74.74,0,0,0-.74.74V8.5a.74.74,0,0,0,1.48,0V7.85A.74.74,0,0,0,3.61,7.11Z"/><path class="cls-1" d="M3.61,9.73a.74.74,0,0,0-.74.74v6a.74.74,0,0,0,1.48,0v-6A.74.74,0,0,0,3.61,9.73Z"/><path class="cls-1" d="M47,26.51a3.34,3.34,0,0,0-2.12-1.44,3.4,3.4,0,0,0-2.52.48l-6.2,4.08V6.56a3.85,3.85,0,0,0-3.87-3.81H28.46V1A.74.74,0,1,0,27,1v1.8h-5V1a.74.74,0,1,0-1.48,0v1.8H15.53V1A.76.76,0,0,0,14.78.2.75.75,0,0,0,14,1v1.8H9V1A.75.75,0,1,0,7.52,1v1.8H4.29A3.81,3.81,0,0,0,.49,6.52V43.91A3.87,3.87,0,0,0,4.32,47.8H32.25a3.89,3.89,0,0,0,3.87-3.89V37.65L46,31.15A3.34,3.34,0,0,0,47,26.51ZM8.27,8.84a1,1,0,1,1,1-1A1,1,0,0,1,8.27,8.84ZM7.52,5.51A2.55,2.55,0,0,0,5.81,7.86a2.46,2.46,0,0,0,4.92,0A2.42,2.42,0,0,0,9,5.51V4.24h5V5.51a2.46,2.46,0,1,0,3.19,2.35,2.51,2.51,0,0,0-1.7-2.34V4.24h4.93V5.51a2.54,2.54,0,0,0-1.71,2.35,2.45,2.45,0,0,0,2.45,2.46h0a2.45,2.45,0,0,0,1.74-.72,2.46,2.46,0,0,0-1-4.09V4.24h5V5.51a2.42,2.42,0,0,0-1.74,2.35,2.46,2.46,0,0,0,2.46,2.46h0a2.46,2.46,0,0,0,2.46-2.46,2.54,2.54,0,0,0-1.7-2.35V4.24h3.79a2.35,2.35,0,0,1,2.38,2.32v24l-2.28,1.5a.75.75,0,0,0-.21,1l0,0a.74.74,0,0,0,1,.16l9.13-6,.62.94L27.48,38.42l-.62-.94,2.84-1.86a.77.77,0,0,0,.32-.47.74.74,0,0,0-1.14-.77l-3.45,2.27h0l0,0H15.94a.74.74,0,1,0,0,1.48h8.58l-.31.59H15.94a.74.74,0,1,0,0,1.48h7.48l-.62,1.18a.76.76,0,0,0-.06.57.72.72,0,0,0,.37.43.69.69,0,0,0,.36.09h0l5.25-.14h.19l.12-.05.08,0,5.52-3.63v5.29a2.42,2.42,0,0,1-2.38,2.4H4.32A2.38,2.38,0,0,1,2,43.91V6.56a2.3,2.3,0,0,1,.68-1.64,2.26,2.26,0,0,1,1.63-.68H7.52Zm7.22,3.33h0a1,1,0,1,1,1-1A1,1,0,0,1,14.74,8.84Zm6.47,0a1,1,0,1,1,1-1A1,1,0,0,1,21.21,8.84Zm6.47,0a1,1,0,1,1,1-1A1,1,0,0,1,27.68,8.84ZM24.7,41l1.2-2.27,1.45,2.2ZM44.35,30.47,28.91,40.6l-.62-.94L43.73,29.52Zm1.22-.89,0,0-2-3a1.92,1.92,0,0,1,1.43.1,1.42,1.42,0,0,1,.38.26A1.87,1.87,0,0,1,45.57,29.58Z"/></svg>